<svg width="69" height="59" viewBox="0 0 69 59" fill="none" xmlns="http://www.w3.org/2000/svg">
<path d="M0 0.786011C3.163 5.14501 6.098 9.67302 8.884 14.283C11.67 18.895 14.315 23.586 16.926 28.287L24.738 42.378C27.379 47.047 30.06 51.687 32.897 56.232L31.44 56.41C32.874 52.591 34.894 49.139 36.953 45.741C39.054 42.365 41.218 39.055 43.236 35.638C42.442 37.458 41.542 39.232 40.618 40.988L37.854 46.253C36.928 48 36.029 49.759 35.195 51.537C34.354 53.31 33.578 55.11 32.984 56.942L32.471 58.525L31.527 57.12C28.516 52.638 25.698 48.031 23.03 43.349C20.335 38.68 17.812 33.923 15.286 29.176L7.772 14.915C5.248 10.174 2.684 5.45401 0 0.786011Z" fill="#6200EE"/>
<path d="M1.13208 1.14197C10.2241 8.45397 19.3141 15.7109 28.4951 22.8589L42.3111 33.529L56.1501 44.188L55.0861 44.754C55.0551 42.03 54.6631 39.284 54.2771 36.539C53.8781 33.793 53.3641 31.052 53.0471 28.283L55.0371 36.394C55.6811 39.109 56.2101 41.864 56.4221 44.7L56.5251 46.078L55.3581 45.266C50.5721 41.937 45.8351 38.5369 41.1511 35.062L34.1741 29.784L27.2991 24.371C18.2001 17.07 9.38708 9.39097 1.13208 1.14197Z" fill="#6200EE"/>
<path d="M0.046875 0C4.72388 1.717 9.32388 3.59898 13.8769 5.60098C18.4349 7.59098 22.9259 9.74801 27.3419 12.057C31.7309 14.409 36.0949 16.855 40.2139 19.644C44.3779 22.368 48.5039 25.152 52.5139 28.098C48.0569 25.855 43.7159 23.449 39.4149 20.984C38.3369 20.373 37.2619 19.756 36.1959 19.123L32.9449 17.334C30.7809 16.137 28.6039 14.964 26.4089 13.824C22.0439 11.497 17.6179 9.276 13.2079 7.004C8.79388 4.743 4.37488 2.468 0.046875 0Z" fill="#6200EE"/>
<path d="M53.2009 28.63C54.0249 27.267 55.1329 26.112 56.3359 25.101C57.5409 24.088 58.8469 23.208 60.2059 22.449C61.5619 21.684 62.9739 21.043 64.4089 20.473C65.8459 19.904 67.3069 19.412 68.8559 19.058C67.6969 20.148 66.4159 21.037 65.1189 21.863C63.8199 22.689 62.5049 23.459 61.1829 24.193L53.2009 28.63Z" fill="#6200EE"/>
<path d="M0.921875 0.00292969C6.74388 0.84093 12.5319 1.90494 18.2699 3.18594C24.0149 4.43994 29.7129 5.89993 35.3789 7.46793C41.0359 9.07193 46.6619 10.7849 52.2239 12.6879C57.7949 14.5639 63.2979 16.6439 68.7239 18.9169C63.0459 17.3799 57.3939 15.7999 51.7589 14.1779L34.8389 9.39294C29.2019 7.79194 23.5479 6.25592 17.8959 4.69592C12.2389 3.16292 6.58388 1.59793 0.921875 0.00292969Z" fill="#6200EE"/>
</svg>
