<svg width="70" height="74" viewBox="0 0 70 74" fill="none" xmlns="http://www.w3.org/2000/svg">
<path d="M0.132047 64.9738C-0.0749527 64.7698 0.00104585 64.4518 0.0930459 64.2118C0.185046 63.9588 0.313063 63.7178 0.367063 63.4528L0.750059 61.8808C0.971059 60.8258 1.20104 59.7718 1.39004 58.7098C1.79304 56.5908 2.14404 54.4628 2.50204 52.3358L4.59106 39.5628C6.01606 31.0528 7.60705 22.5588 9.68905 14.1648C9.93205 13.1118 10.229 12.0718 10.497 11.0238C10.801 9.97876 10.965 8.94476 11.442 7.83676C11.686 7.29876 12.024 6.75076 12.544 6.32676C13.057 5.89276 13.7581 5.67576 14.3701 5.63876C15.6241 5.58276 16.6271 5.82576 17.7161 5.93076C22.0131 6.47576 26.2891 7.19476 30.5351 8.07076C39.0221 9.84576 47.369 12.3118 55.471 15.4208L56.989 16.0068C57.128 16.0628 57.2141 16.0888 57.3971 16.1688C57.5811 16.2488 57.7591 16.3478 57.9221 16.4648C58.2521 16.6968 58.5331 16.9938 58.7461 17.3328C59.1761 18.0068 59.3181 18.8558 59.1381 19.6358L58.7 21.2398L56.963 27.4768C55.808 31.6358 54.582 35.7748 53.364 39.9158C50.914 48.1938 48.322 56.4288 45.704 64.6528L43.721 70.8148L43.472 71.5848C43.404 71.8148 43.278 72.1828 43.08 72.4338C42.688 72.9748 42.0641 73.3038 41.4401 73.3748C41.1331 73.4168 40.7971 73.3908 40.5211 73.3388L39.7241 73.1968L38.131 72.9078C33.884 72.1298 29.651 71.2928 25.42 70.4488C21.185 69.6228 16.9581 68.7598 12.7331 67.8858L6.40005 66.5568L3.24304 65.8478C2.19904 65.5808 1.12205 65.3968 0.132047 64.9738ZM0.132047 64.9738C1.12405 65.3908 2.20205 65.5678 3.24505 65.8298L6.40603 66.5198L12.7461 67.8098C16.9801 68.6328 21.225 69.4008 25.472 70.1558C29.723 70.8888 33.9801 71.5858 38.2411 72.2388L39.8401 72.4788L40.639 72.5968C40.894 72.6358 41.103 72.6418 41.33 72.6068C41.774 72.5428 42.17 72.3028 42.404 71.9598C42.622 71.6578 42.715 71.0638 42.886 70.5598L44.6901 64.3468C47.0881 56.0608 49.377 47.7458 51.674 39.4338L55.0951 26.9598L56.7931 20.7198L57.2 19.1998C57.26 18.9288 57.211 18.6318 57.057 18.3968C56.981 18.2798 56.8841 18.1788 56.7721 18.1018C56.7171 18.0608 56.656 18.0298 56.593 18.0028C56.531 17.9718 56.3611 17.9098 56.2501 17.8648L54.753 17.2768C50.759 15.7148 46.6971 14.3258 42.5951 13.0708C38.4991 11.7938 34.3521 10.6778 30.1681 9.71976C25.9901 8.73476 21.773 7.89876 17.527 7.23776C16.478 7.09776 15.355 6.83676 14.446 6.86376C13.531 6.87176 12.896 7.41676 12.468 8.31676C12.056 9.18176 11.822 10.2888 11.501 11.3038C11.206 12.3388 10.882 13.3648 10.61 14.4068C8.31904 22.7068 6.44803 31.1328 4.85003 39.6088C4.05903 43.8488 3.30306 48.0958 2.57306 52.3478C2.20306 54.4728 1.83904 56.5988 1.42404 58.7158C1.22804 59.7768 0.99305 60.8298 0.76605 61.8838L0.374052 63.4538C0.318052 63.7198 0.190037 63.9608 0.0960366 64.2128C0.00303657 64.4528 -0.0739527 64.7688 0.132047 64.9738Z" fill="#6200EE"/>
<path d="M7.69629 52.4458C10.4053 52.7188 13.0643 53.1538 15.7113 53.6308C18.3613 54.0948 20.9883 54.6448 23.6163 55.1908C26.2363 55.7728 28.8573 56.3538 31.4633 57.0218C34.0723 57.6778 36.6743 58.3768 39.2543 59.2458C36.5313 59.1968 33.8403 58.9238 31.1653 58.5538C28.4883 58.1958 25.8353 57.6958 23.1953 57.1448C20.5623 56.5568 17.9393 55.9208 15.3523 55.1438C12.7643 54.3788 10.1983 53.5198 7.69629 52.4458Z" fill="#6200EE"/>
<path d="M10.8169 40.4828C13.4619 40.6978 16.0589 41.1038 18.6399 41.5788C21.2239 42.0408 23.7789 42.6158 26.3299 43.2138C28.8719 43.8478 31.4079 44.5058 33.9179 45.2778C36.4309 46.0368 38.9269 46.8658 41.3799 47.8888C38.7389 47.6768 36.1419 47.2718 33.5609 46.7968C30.9769 46.3348 28.4189 45.7588 25.8669 45.1578C23.3239 44.5208 20.7859 43.8628 18.2749 43.0898C15.7619 42.3288 13.2659 41.5018 10.8169 40.4828Z" fill="#6200EE"/>
<path d="M13.9121 30.3958C16.7091 30.5698 19.4641 30.9367 22.2051 31.3717C24.9491 31.7947 27.6681 32.3318 30.3821 32.8908C33.0891 33.4868 35.7901 34.1068 38.4671 34.8408C41.1471 35.5628 43.8121 36.3538 46.4351 37.3398C43.6381 37.1678 40.8821 36.8017 38.1411 36.3667C35.3981 35.9437 32.6781 35.4067 29.9641 34.8447C27.2581 34.2467 24.5561 33.6258 21.8801 32.8918C19.2011 32.1698 16.5361 31.3788 13.9121 30.3958Z" fill="#6200EE"/>
<path d="M16.9639 18.9568C19.7419 19.0858 22.4839 19.4558 25.2019 19.9108C27.9239 20.3538 30.6159 20.9278 33.3009 21.5238C35.9769 22.1558 38.6449 22.8128 41.2909 23.5648C43.9399 24.3048 46.5749 25.0958 49.1909 26.0388C46.4119 25.9128 43.6709 25.5428 40.9519 25.0878C38.2299 24.6448 35.5379 24.0698 32.8539 23.4718C30.1779 22.8368 27.5099 22.1808 24.8649 21.4278C22.2159 20.6878 19.5809 19.8968 16.9639 18.9568Z" fill="#6200EE"/>
<path d="M20.7471 7.12972L21.7421 3.55772C21.9111 2.96472 22.0891 2.36371 22.3721 1.78471C22.6491 1.21271 23.0751 0.645716 23.7001 0.330716C24.3221 0.0147162 25.0181 -0.0232848 25.6521 0.0097152C26.2951 0.0457152 26.8971 0.129716 27.5151 0.192716C28.7461 0.320716 29.9741 0.474715 31.2031 0.631715C36.1081 1.31071 40.9931 2.19372 45.8181 3.34572C50.6531 4.45872 55.4181 5.86572 60.1311 7.42472C62.4821 8.22272 64.8151 9.07072 67.1271 9.97772L67.5611 10.1457C67.6791 10.1907 67.8941 10.2707 68.1011 10.3877C68.5011 10.6107 68.8511 10.9247 69.1081 11.3017C69.6371 12.0347 69.7841 13.0627 69.5341 13.8867L68.5681 17.4637C65.9341 26.9867 63.1881 36.4797 60.2451 45.9117C58.7851 50.6317 57.2661 55.3327 55.7141 60.0227L54.5231 63.5317L53.9251 65.2857C53.8181 65.5737 53.7511 65.8677 53.5751 66.1997C53.4041 66.5117 53.1531 66.7747 52.8641 66.9707C52.2871 67.3707 51.4961 67.4267 50.8931 67.2047L49.1101 66.7017L45.5531 65.6607L49.1831 66.4087L50.9941 66.7997C51.5661 66.9627 52.1231 66.8637 52.5591 66.5367C52.7691 66.3727 52.9441 66.1657 53.0551 65.9277C53.1601 65.7077 53.2241 65.3917 53.3111 65.0957L53.8021 63.3097L54.7771 59.7367L58.7491 45.4707L66.6421 16.9337L67.6291 13.3667C67.7371 13.0077 67.6761 12.6957 67.4931 12.4167C67.4041 12.2807 67.2821 12.1737 67.1441 12.0947C67.0691 12.0417 66.6641 11.8957 66.4111 11.7927C64.1341 10.8747 61.8241 10.0447 59.5151 9.20871C54.8871 7.56471 50.1851 6.13272 45.4391 4.85272C40.6911 3.58172 35.8881 2.49872 31.0481 1.59272C29.8381 1.36372 28.6271 1.13572 27.4121 0.935716C26.2041 0.760716 24.9541 0.375715 23.9281 0.805715C22.8911 1.25771 22.4351 2.52172 22.0271 3.65172L20.7471 7.12972Z" fill="#6200EE"/>
<path d="M0.078125 65.3007C0.385125 61.5477 0.922114 57.8227 1.46011 54.1017C2.00611 50.3807 2.6571 46.6777 3.2901 42.9717C4.0021 39.2797 4.6931 35.5827 5.5051 31.9097C6.3231 28.2387 7.1881 24.5717 8.2991 20.9747C7.9581 22.8257 7.58412 24.6657 7.26712 26.5177L6.25912 32.0607L4.27213 43.1507L2.21512 54.2297L0.078125 65.3007Z" fill="#6200EE"/>
<path d="M40.6299 73.0337C37.2009 72.7087 33.8019 72.1727 30.4049 71.6377C27.0089 71.0947 23.6299 70.4547 20.2479 69.8327C16.8799 69.1377 13.5069 68.4627 10.1579 67.6757C6.81093 66.8837 3.46792 66.0497 0.190918 64.9917C1.87992 65.3257 3.55792 65.6897 5.24792 66.0007L10.3049 66.9877L20.4229 68.9357L30.5309 70.9487L40.6299 73.0337Z" fill="#6200EE"/>
</svg>
