<svg width="39" height="39" viewBox="0 0 39 39" fill="none" xmlns="http://www.w3.org/2000/svg">
<g filter="url(#filter0_d_3370_6117)">
<circle cx="20.5" cy="20.5" r="13" fill="#EEE8D7" stroke="#EAAA5F"/>
<path d="M19.779 14.0186C19.9865 13.2939 21.0135 13.2939 21.221 14.0186L22.1358 17.2142C22.2313 17.5476 22.543 17.7721 22.8895 17.757L26.2566 17.6105C27.0237 17.5771 27.3395 18.5812 26.6914 18.9929L23.931 20.7464C23.6284 20.9386 23.5042 21.3181 23.6344 21.652L24.8123 24.6716C25.0883 25.379 24.2588 26.0015 23.6566 25.5388L20.957 23.4645C20.6875 23.2574 20.3125 23.2574 20.043 23.4645L17.3434 25.5388C16.7412 26.0015 15.9117 25.379 16.1877 24.6716L17.3656 21.652C17.4958 21.3181 17.3716 20.9386 17.069 20.7464L14.3086 18.9929C13.6605 18.5812 13.9763 17.5771 14.7434 17.6105L18.1105 17.757C18.457 17.7721 18.7687 17.5476 18.8642 17.2142L19.779 14.0186Z" fill="#DE8318"/>
</g>
<defs>
<filter id="filter0_d_3370_6117" x="0.7" y="0.7" width="37.6" height="37.6" filterUnits="userSpaceOnUse" color-interpolation-filters="sRGB">
<feFlood flood-opacity="0" result="BackgroundImageFix"/>
<feColorMatrix in="SourceAlpha" type="matrix" values="0 0 0 0 0 0 0 0 0 0 0 0 0 0 0 0 0 0 127 0" result="hardAlpha"/>
<feOffset dx="-1" dy="-1"/>
<feGaussianBlur stdDeviation="2.65"/>
<feComposite in2="hardAlpha" operator="out"/>
<feColorMatrix type="matrix" values="0 0 0 0 0.758333 0 0 0 0 0 0 0 0 0 0 0 0 0 0.45 0"/>
<feBlend mode="normal" in2="BackgroundImageFix" result="effect1_dropShadow_3370_6117"/>
<feBlend mode="normal" in="SourceGraphic" in2="effect1_dropShadow_3370_6117" result="shape"/>
</filter>
</defs>
</svg>
