<svg width="285" height="155" viewBox="0 0 285 155" fill="none" xmlns="http://www.w3.org/2000/svg">
<rect width="285" height="155" rx="6" fill="#ECE9FF"/>
<path d="M194.564 16.2764H111.391V66.7953H194.564V16.2764Z" fill="#EFE6FD" stroke="#5A10D9" stroke-width="0.366896" stroke-miterlimit="10"/>
<path d="M192.013 16.2764H108.841V66.7953H192.013V16.2764Z" fill="#FEFEFE" stroke="#5A10D9" stroke-width="0.366896" stroke-miterlimit="10" stroke-linejoin="round"/>
<path d="M188.344 63.1266V19.9456L112.51 19.9456L112.51 63.1266L188.344 63.1266Z" fill="#EFE6FD" stroke="#5A10D9" stroke-width="0.366896" stroke-miterlimit="10"/>
<path d="M118.547 16.2764H115.552V15.4513C115.552 15.2022 115.754 15 116.003 15H118.096C118.345 15 118.547 15.2022 118.547 15.4513V16.2764Z" fill="#FEFEFE" stroke="#5A10D9" stroke-width="0.366896" stroke-miterlimit="10" stroke-linejoin="round"/>
<path d="M184.386 16.2764H181.39V15.4513C181.39 15.2022 181.593 15 181.842 15H183.934C184.184 15 184.386 15.2022 184.386 15.4513V16.2764Z" fill="#FEFEFE" stroke="#5A10D9" stroke-width="0.366896" stroke-miterlimit="10" stroke-linejoin="round"/>
<path d="M117.908 55.9551V57.459H182.249V55.9551" stroke="#5A10D9" stroke-width="0.366896" stroke-miterlimit="10" stroke-linejoin="round"/>
<path d="M128.631 55.9551V57.459" stroke="#5A10D9" stroke-width="0.366896" stroke-miterlimit="10" stroke-linejoin="round"/>
<path d="M139.355 55.9551V57.459" stroke="#5A10D9" stroke-width="0.366896" stroke-miterlimit="10" stroke-linejoin="round"/>
<path d="M150.079 55.9551V57.459" stroke="#5A10D9" stroke-width="0.366896" stroke-miterlimit="10" stroke-linejoin="round"/>
<path d="M160.802 55.9551V57.459" stroke="#5A10D9" stroke-width="0.366896" stroke-miterlimit="10" stroke-linejoin="round"/>
<path d="M171.525 55.9551V57.459" stroke="#5A10D9" stroke-width="0.366896" stroke-miterlimit="10" stroke-linejoin="round"/>
<path d="M172.476 32.4375L117.908 54.3423" stroke="#5A10D9" stroke-width="0.366896" stroke-miterlimit="10" stroke-linecap="round" stroke-linejoin="round"/>
<path d="M169.959 31.4221L172.574 32.3937L171.603 35.0085" stroke="#5A10D9" stroke-width="0.366896" stroke-miterlimit="10" stroke-linecap="round" stroke-linejoin="round"/>
<path d="M150.079 41.5356V56.8488" stroke="#5A10D9" stroke-width="0.366896" stroke-miterlimit="10" stroke-linejoin="round"/>
<path d="M149.969 45.9509H163.352" stroke="#5A10D9" stroke-width="0.366896" stroke-miterlimit="10" stroke-linecap="round" stroke-linejoin="round"/>
<path d="M176.975 44.2944H163.352V47.6075H176.975V44.2944Z" fill="#FEFEFE" stroke="#5A10D9" stroke-width="0.366896" stroke-miterlimit="10" stroke-linejoin="round"/>
<path d="M131.989 25.2502H119.238V27.5389H131.989V25.2502Z" fill="#FEFEFE" stroke="#5A10D9" stroke-width="0.366896" stroke-miterlimit="10" stroke-linejoin="round"/>
<path d="M119.237 29.98H124.169" stroke="#5A10D9" stroke-width="0.366896" stroke-miterlimit="10" stroke-linecap="round" stroke-linejoin="round"/>
<path d="M122.125 31.9524H126.212" stroke="#5A10D9" stroke-width="0.366896" stroke-miterlimit="10" stroke-linecap="round" stroke-linejoin="round"/>
<path d="M125.449 29.98H128.653" stroke="#5A10D9" stroke-width="0.366896" stroke-miterlimit="10" stroke-linecap="round" stroke-linejoin="round"/>
<path d="M119.264 31.9524H120.998" stroke="#5A10D9" stroke-width="0.366896" stroke-miterlimit="10" stroke-linecap="round" stroke-linejoin="round"/>
<path d="M129.927 29.98H131.661" stroke="#5A10D9" stroke-width="0.366896" stroke-miterlimit="10" stroke-linecap="round" stroke-linejoin="round"/>
<path d="M136.924 38.0679L139.013 37.289C139.097 37.2574 139.174 37.2097 139.241 37.1484L140.747 35.7429C140.773 35.7183 140.801 35.6959 140.831 35.6761C140.831 35.6761 140.945 35.599 141.098 35.5689C141.252 35.5385 142.838 35.5998 145.006 35.7348C145.245 37.1235 145.284 38.2253 145.273 38.9796C145.266 39.414 145.213 39.8249 144.992 40.2858C144.74 40.8093 144.242 41.141 143.715 41.352C142.816 41.7111 141.81 41.6943 140.898 41.3699L140.619 41.2709C139.857 41.5424 139.095 41.8135 138.332 42.0846L136.924 38.0679Z" fill="#FEFEFE" stroke="#5A10D9" stroke-width="0.366896" stroke-miterlimit="10" stroke-linejoin="round"/>
<path d="M140.619 41.2709C140.619 41.2709 140.215 40.3195 141.256 39.9027C141.256 39.9027 140.263 39.1227 141.136 38.5342" fill="#FEFEFE"/>
<path d="M140.619 41.2709C140.619 41.2709 140.215 40.3195 141.256 39.9027C141.256 39.9027 140.263 39.1227 141.136 38.5342" stroke="#5A10D9" stroke-width="0.366896" stroke-miterlimit="10" stroke-linejoin="round"/>
<path d="M144.658 39.6021C144.658 39.6021 143.612 40.4984 141.256 39.9029L144.658 39.6021Z" fill="#FEFEFE"/>
<path d="M144.658 39.6021C144.658 39.6021 143.612 40.4984 141.256 39.9029" stroke="#5A10D9" stroke-width="0.366896" stroke-miterlimit="10" stroke-linecap="round" stroke-linejoin="round"/>
<path d="M144.239 38.2561C144.239 38.2561 142.827 38.9066 141.302 38.4575L144.239 38.2561Z" fill="#FEFEFE"/>
<path d="M144.239 38.2561C144.239 38.2561 142.827 38.9066 141.302 38.4575" stroke="#5A10D9" stroke-width="0.366896" stroke-miterlimit="10" stroke-linecap="round" stroke-linejoin="round"/>
<path d="M140.647 42.2596L143.972 21.7212" stroke="#040404" stroke-width="0.366896" stroke-miterlimit="10" stroke-linejoin="round"/>
<path d="M141.157 36.0669C141.157 36.0669 144.19 36.2716 143.99 37.0021C143.789 37.7326 141.885 37.8027 141.885 37.8027C141.885 37.8027 141.81 38.5849 140.193 38.7518" fill="#FEFEFE"/>
<path d="M141.157 36.0669C141.157 36.0669 144.19 36.2716 143.99 37.0021C143.789 37.7326 141.885 37.8027 141.885 37.8027C141.885 37.8027 141.81 38.5849 140.193 38.7518" stroke="#5A10D9" stroke-width="0.366896" stroke-miterlimit="10" stroke-linecap="round" stroke-linejoin="round"/>
<path d="M113.691 37.4577C114.802 38.4641 115.926 39.4716 117.063 40.4806C119.551 42.6886 122.027 44.8349 124.488 46.9211C128.565 43.7038 132.642 40.4868 136.72 37.2695C138.054 38.8094 139.388 40.3493 140.722 41.8891C136.703 46.7182 132.864 50.1384 129.996 52.4223C125.299 56.1632 123.638 56.5128 122.38 56.5286C122.38 56.5286 120.349 56.5539 112.481 52.0488C112.885 47.1853 113.288 42.3213 113.691 37.4577Z" fill="#5A10D9"/>
<path d="M102.221 35.8422C103.362 49.4247 104.503 63.0072 105.648 76.5896C107.981 76.6117 110.311 76.6263 112.644 76.6483L108.201 35.8275C107.284 35.7395 106.422 35.7211 105.659 35.7065C104.903 35.6881 103.655 35.6661 102.221 35.8422Z" fill="white" stroke="#5A10D9" stroke-width="0.366896" stroke-miterlimit="10" stroke-linejoin="round"/>
<path d="M90.5974 76.4613C95.6129 76.5053 100.628 76.5457 105.647 76.5897C104.503 63.0072 103.362 49.4248 102.221 35.8423C101.571 35.901 100.669 36.0404 99.6377 36.3816C99.623 36.3853 99.5974 36.3963 99.5643 36.4073C99.1131 36.5577 97.1722 37.2292 95.6899 38.6013C95.5798 38.7004 95.4735 38.8068 95.3671 38.9169C93.3455 41.0449 92.9419 43.6975 92.7401 45.1541C91.1771 56.3884 90.6745 73.6032 90.5974 76.4613Z" fill="#5A10D9" stroke="#5A10D9" stroke-width="0.366896" stroke-miterlimit="10"/>
<path d="M108.201 35.8276C108.858 41.5424 109.442 47.4241 109.939 53.4658C110.584 61.3243 111.039 68.9447 111.334 76.3076C112.699 76.4811 114.189 76.6139 115.79 76.6737C117.309 76.7306 118.732 76.7148 120.045 76.6528C119.999 72.4662 119.882 68.1566 119.681 63.7315C119.442 58.453 119.101 53.3473 118.678 48.4239C118.759 46.1968 118.282 44.4757 117.916 43.4613C117.521 42.3683 116.43 39.4698 113.606 37.6287C112.091 36.6418 110.494 36.2209 109.995 36.1098C109.386 35.9744 108.781 35.8863 108.201 35.8276Z" fill="#5A10D9" stroke="#5A10D9" stroke-width="0.366896" stroke-miterlimit="10"/>
<path d="M102.297 36.6759L101.348 26.5627H107.157L108.106 36.6759C108.106 36.6759 107.948 38.3471 105.888 38.543C103.829 38.7393 102.297 36.6759 102.297 36.6759Z" fill="#FEFEFE" stroke="#5A10D9" stroke-width="0.366896" stroke-miterlimit="10" stroke-linecap="round" stroke-linejoin="round"/>
<path d="M110.142 35.2446C106.737 36.0646 103.19 32.9471 102.252 32.0768C101.717 31.5628 100.634 30.374 100.165 28.5186C100.019 27.9499 99.3513 25.3215 101.011 22.8626C102.678 20.3996 105.431 20.0419 105.724 20.0096C106.311 19.945 108.002 19.8371 109.678 20.8274C112.217 22.3291 112.758 25.1997 112.974 26.3396C113.09 26.9626 114.155 33.089 111.158 34.8567C110.757 35.0934 110.403 35.1818 110.142 35.2446Z" fill="#FEFEFE" stroke="#5A10D9" stroke-width="0.366896" stroke-miterlimit="10" stroke-linejoin="round"/>
<path d="M97.8108 26.4062C98.1105 28.2828 99.2336 31.444 101.083 31.5794C101.249 31.5915 101.952 31.8025 101.968 31.3937C102.112 27.6077 102.295 26.4561 102.471 26.4513C102.657 26.4465 102.967 28 103.231 27.9768C103.473 27.9559 103.57 26.5966 103.597 24.8692C103.758 24.8432 104.135 24.7592 104.464 24.4444C105.005 23.9248 104.962 23.2094 104.954 23.1037C108.082 22.1971 109.926 22.6059 111.052 23.2017C111.501 23.4398 111.994 23.7913 112.392 23.5939C113.264 23.1613 113.329 20.2603 112.065 19.7033C111.457 19.4355 110.734 19.794 110.439 19.962C109.338 18.8635 108.257 18.4442 107.586 18.2647C104.191 17.357 100.032 19.576 99.9516 21.4435C99.9443 21.613 99.9718 21.7525 99.9934 21.8372C99.584 22.0434 98.3655 22.7233 97.8757 24.1167C97.5855 24.9441 97.6871 25.6342 97.8108 26.4062Z" fill="#040404"/>
<path d="M111.563 28.1591C111.602 28.6177 111.541 28.9974 111.427 29.007C111.313 29.0169 111.189 28.6529 111.15 28.1943C111.11 27.7357 111.171 27.3559 111.285 27.3464C111.399 27.3365 111.524 27.7004 111.563 28.1591Z" fill="#040404"/>
<path d="M107.727 28.4863C107.766 28.9449 107.693 29.3257 107.563 29.3367C107.434 29.3477 107.297 28.9849 107.258 28.5262C107.219 28.0676 107.292 27.6868 107.422 27.6758C107.551 27.6648 107.688 28.0276 107.727 28.4863Z" fill="#040404"/>
<path d="M110.217 27.3464L110.736 30.1539L109.671 30.2449" fill="#FEFEFE"/>
<path d="M110.217 27.3464L110.736 30.1539L109.671 30.2449" stroke="#5A10D9" stroke-width="0.366896" stroke-miterlimit="10" stroke-linecap="round" stroke-linejoin="round"/>
<path d="M108.936 32.2148C108.936 32.2148 107.781 32.6943 107.127 31.7136L108.936 32.2148Z" fill="#FEFEFE"/>
<path d="M108.936 32.2148C108.936 32.2148 107.781 32.6943 107.127 31.7136" stroke="#5A10D9" stroke-width="0.366896" stroke-miterlimit="10" stroke-linecap="round" stroke-linejoin="round"/>
<path d="M102.466 30.2439C102.088 30.2762 101.705 29.4158 101.612 28.3224C101.519 27.2291 101.75 26.3166 102.129 26.2843C102.507 26.252 102.89 27.1124 102.983 28.2058C103.001 28.4222 103.007 28.6317 103.002 28.8287" fill="#FEFEFE"/>
<path d="M102.466 30.2439C102.088 30.2762 101.705 29.4158 101.612 28.3224C101.519 27.2291 101.75 26.3166 102.129 26.2843C102.507 26.252 102.89 27.1124 102.983 28.2058C103.001 28.4222 103.007 28.6317 103.002 28.8287" stroke="#5A10D9" stroke-width="0.366896" stroke-miterlimit="10" stroke-linecap="round" stroke-linejoin="round"/>
<path d="M102.099 34.5549C100.844 35.4751 99.589 36.3949 98.3342 37.3151C98.8427 38.3905 99.3512 39.4655 99.8597 40.5408C99.1623 41.2673 98.4648 41.9937 97.7673 42.7206C99.6807 46.2967 101.594 49.8728 103.507 53.449" fill="#5A10D9"/>
<path d="M102.099 34.5549C100.844 35.4751 99.589 36.3949 98.3342 37.3151C98.8427 38.3905 99.3512 39.4655 99.8597 40.5408C99.1623 41.2673 98.4648 41.9937 97.7673 42.7206C99.6807 46.2967 101.594 49.8728 103.507 53.449" stroke="#6C1C15" stroke-width="0.366896" stroke-miterlimit="10" stroke-linecap="round"/>
<path d="M108.013 35.6812C109.576 36.8967 111.138 38.1122 112.701 39.3277L111.343 41.747L114.131 43.6875C112.822 46.7897 111.513 49.8917 110.204 52.9939" fill="#5A10D9"/>
<path d="M108.013 35.6812C109.576 36.8967 111.138 38.1122 112.701 39.3277L111.343 41.747L114.131 43.6875C112.822 46.7897 111.513 49.8917 110.204 52.9939" stroke="#6C1C15" stroke-width="0.366896" stroke-miterlimit="10" stroke-linecap="round"/>
<path d="M95.6898 38.6013C93.9577 40.4769 91.5076 43.3372 88.9731 47.1217C84.8099 53.3388 84.2313 57.0657 83.5408 60.9232C83.0268 63.7946 85.8479 66.3599 89.5201 66.3599H97.7213C97.0441 57.1072 96.3671 47.8541 95.6898 38.6013Z" fill="#5A10D9" stroke="#5A10D9" stroke-width="0.366896" stroke-miterlimit="10" stroke-linecap="round" stroke-linejoin="round"/>
<path d="M94.5764 63.3688L93.613 57.8874C93.4251 56.8176 92.4096 56.0995 91.3386 56.2786L86.6475 57.0623" stroke="#6C1C15" stroke-width="0.366896" stroke-miterlimit="10" stroke-linecap="round"/>
<path d="M110.916 64.8437H97.1644L93.2734 46.1753H107.025L110.916 64.8437Z" fill="#EFE6FD" stroke="#5A10D9" stroke-width="0.366896" stroke-miterlimit="10"/>
<path d="M93.4097 57.8136L94.6366 54.9515L99.1116 54.2019L99.4979 55.0876L96.2722 56.269L96.2494 56.8142L100.952 57.4731V59.1994H100.157L100.27 60.6989L99.0888 61.0621V62.2208H94.2275L93.4097 57.8136Z" fill="#FEFEFE" stroke="#5A10D9" stroke-width="0.366896" stroke-miterlimit="10" stroke-linejoin="round"/>
<path d="M100.252 59.1993C99.5952 59.1828 98.9117 59.1509 98.2032 59.0999C97.5938 59.0559 97.005 59.0005 96.4377 58.9363" fill="#FEFEFE"/>
<path d="M100.252 59.1993C99.5952 59.1828 98.9117 59.1509 98.2032 59.0999C97.5938 59.0559 97.005 59.0005 96.4377 58.9363" stroke="#5A10D9" stroke-width="0.366896" stroke-miterlimit="10" stroke-linecap="round" stroke-linejoin="round"/>
<path d="M99.1453 61.0448C98.6213 61.0742 98.0303 61.0786 97.3853 61.0353C96.807 60.9964 96.278 60.9256 95.8054 60.8401" fill="#FEFEFE"/>
<path d="M99.1453 61.0448C98.6213 61.0742 98.0303 61.0786 97.3853 61.0353C96.807 60.9964 96.278 60.9256 95.8054 60.8401" stroke="#5A10D9" stroke-width="0.366896" stroke-miterlimit="10" stroke-linecap="round" stroke-linejoin="round"/>
<path d="M117.556 130.789V134.866L124.876 137.016C125.252 137.126 125.511 137.472 125.511 137.865C125.511 138.351 125.119 138.746 124.632 138.749L110.049 138.843C110.263 136.07 110.477 133.298 110.691 130.525C115.098 130.694 113.149 130.619 117.556 130.789Z" fill="#040404"/>
<path d="M100.034 131.3V135.118L106.888 137.132C107.241 137.235 107.483 137.559 107.483 137.927C107.483 138.382 107.115 138.752 106.66 138.755L93.0032 138.843C93.2035 136.246 93.4038 133.649 93.6041 131.052C97.7317 131.212 95.9064 131.141 100.034 131.3Z" fill="#040404"/>
<path d="M91.592 132.601C91.9659 113.894 92.3401 95.1864 92.714 76.4795C97.8762 76.4729 103.039 76.4663 108.201 76.4597L108.199 76.474C111.943 76.4693 115.686 76.4645 119.43 76.4597L118.55 132.601H109.36L105.74 95.0844L100.783 132.601H91.592Z" fill="#040404" stroke="#040404" stroke-width="0.366896" stroke-miterlimit="10"/>
<path d="M119.22 55.5093L118.7 48.6924" stroke="#6C1C15" stroke-width="0.366896" stroke-miterlimit="10" stroke-linecap="round"/>
<path d="M228.799 106.952H205.329V109.662H228.799V106.952Z" fill="#EFE6FD" stroke="#5A10D9" stroke-width="0.366896" stroke-miterlimit="10"/>
<path d="M228.799 109.662H205.329V140.786H228.799V109.662Z" fill="#EFE6FD" stroke="#5A10D9" stroke-width="0.366896" stroke-miterlimit="10"/>
<path d="M228.799 137.735H205.329V140.786H228.799V137.735Z" fill="#EFE6FD" stroke="#5A10D9" stroke-width="0.366896" stroke-miterlimit="10"/>
<path d="M229.791 136.852H223.514V138.617H229.791V136.852Z" fill="#EFE6FD" stroke="#5A10D9" stroke-width="0.366896" stroke-miterlimit="10"/>
<path d="M225.214 136.852H220.833V138.617H225.214V136.852Z" fill="#FEFEFE" stroke="#5A10D9" stroke-width="0.366896" stroke-miterlimit="10" stroke-linejoin="round"/>
<path d="M217.064 106.952H212.029V140.786H217.064V106.952Z" fill="#040404" stroke="#040404" stroke-width="0.366896" stroke-miterlimit="10"/>
<path d="M218.207 80.8169H55V85.6353H218.207V80.8169Z" fill="#EFE6FD" stroke="#5A10D9" stroke-width="0.366896" stroke-miterlimit="10"/>
<path d="M128.757 80.8169H55V85.6353H128.757V80.8169Z" fill="#FEFEFE" stroke="#5A10D9" stroke-width="0.366896" stroke-miterlimit="10" stroke-linejoin="round"/>
<path d="M151.223 85.6355H146.188V140.786H151.223V85.6355Z" fill="#FEFEFE" stroke="#5A10D9" stroke-width="0.366896" stroke-miterlimit="10" stroke-linejoin="round"/>
<path d="M151.223 85.6355V87.4894L146.188 89.8188V85.6355H151.223Z" fill="#5A10D9"/>
<path d="M62.296 85.6355H57.2607V140.786H62.296V85.6355Z" fill="#FEFEFE" stroke="#5A10D9" stroke-width="0.366896" stroke-miterlimit="10" stroke-linejoin="round"/>
<path d="M62.2957 85.6355V87.4894L57.2607 89.8188V85.6355H62.2957Z" fill="#040404" stroke="#040404" stroke-width="0.366896" stroke-miterlimit="10"/>
<path d="M125.913 85.6355H120.877V140.786H125.913V85.6355Z" fill="#FEFEFE" stroke="#5A10D9" stroke-width="0.366896" stroke-miterlimit="10" stroke-linejoin="round"/>
<path d="M125.913 85.6355V87.4894L120.877 89.8188V85.6355H125.913Z" fill="#040404" stroke="#040404" stroke-width="0.366896" stroke-miterlimit="10"/>
<path d="M214.84 85.6355H209.804V140.786H214.84V85.6355Z" fill="#FEFEFE" stroke="#5A10D9" stroke-width="0.366896" stroke-miterlimit="10" stroke-linejoin="round"/>
<path d="M214.84 85.6355V87.4894L209.804 89.8188V85.6355H214.84Z" fill="#040404" stroke="#040404" stroke-width="0.366896" stroke-miterlimit="10"/>
<path d="M173.284 80.817H191.501L188.622 69.0598H170.405L173.284 80.817Z" fill="#EFE6FD" stroke="#5A10D9" stroke-width="0.366896" stroke-miterlimit="10"/>
<path d="M188.287 79.4245L186.09 70.4524H172.18L174.377 79.4245H188.287Z" fill="#FEFEFE" stroke="#5A10D9" stroke-width="0.366896" stroke-miterlimit="10" stroke-linejoin="round"/>
<path d="M189.404 74.9388C189.485 75.3119 189.248 75.6142 188.875 75.6142C188.502 75.6142 188.134 75.3119 188.052 74.9388C187.971 74.5656 188.208 74.2629 188.581 74.2629C188.955 74.2629 189.323 74.5656 189.404 74.9388Z" fill="#EFE6FD" stroke="#5A10D9" stroke-width="0.366896" stroke-miterlimit="10"/>
<path d="M188.455 59.485C188.632 60.7537 188.772 61.762 188.948 63.0303C189.032 63.6295 189.308 64.1901 189.747 64.6058C191.143 65.9259 192.988 66.4689 194.607 65.9945C194.621 65.9904 194.635 65.9864 194.649 65.982C196.197 65.5113 196.928 63.7333 196.242 62.2679C195.653 61.0109 195.065 59.7539 194.476 58.4966" fill="#FEFEFE"/>
<path d="M188.455 59.485C188.632 60.7537 188.772 61.762 188.948 63.0303C189.032 63.6295 189.308 64.1901 189.747 64.6058C191.143 65.9259 192.988 66.4689 194.607 65.9945C194.621 65.9904 194.635 65.9864 194.649 65.982C196.197 65.5113 196.928 63.7333 196.242 62.2679C195.653 61.0109 195.065 59.7539 194.476 58.4966" stroke="#5A10D9" stroke-width="0.366896" stroke-miterlimit="10" stroke-linecap="round" stroke-linejoin="round"/>
<path d="M195.507 53.5105C195.188 55.4404 194.19 56.7392 193.691 57.3115C191.82 60.4962 188.481 62.0225 185.946 61.2153C183.881 60.5549 182.916 58.515 182.505 56.4787C182.196 56.3429 181.888 56.2072 181.58 56.0714L182.237 53.6132C182.24 53.1509 182.263 52.74 182.296 52.4062C182.417 51.2321 182.717 48.2676 185.168 46.5175C186.786 45.3654 188.514 45.3287 189.116 45.3471C189.417 45.3544 192.246 45.4755 194.154 47.8383C196.054 50.1901 195.603 52.9235 195.507 53.5105Z" fill="#FEFEFE" stroke="#5A10D9" stroke-width="0.366896" stroke-miterlimit="10" stroke-linejoin="round"/>
<path d="M183.089 53.7041C183.089 54.1737 183.016 54.5542 182.925 54.5542C182.835 54.5542 182.762 54.1737 182.762 53.7041C182.762 53.2345 182.835 52.854 182.925 52.854C183.016 52.854 183.089 53.2345 183.089 53.7041Z" fill="#5A10D9"/>
<path d="M186.263 56.7986C186.65 56.7986 186.965 55.8909 186.965 54.7715C186.965 53.6521 186.65 52.7444 186.263 52.7444C185.876 52.7444 185.562 53.6517 185.562 54.7715C185.562 54.9968 185.574 55.2132 185.598 55.4157" fill="#FEFEFE"/>
<path d="M186.263 56.7986C186.65 56.7986 186.965 55.8909 186.965 54.7715C186.965 53.6521 186.65 52.7444 186.263 52.7444C185.876 52.7444 185.562 53.6517 185.562 54.7715C185.562 54.9968 185.574 55.2132 185.598 55.4157" stroke="#5A10D9" stroke-width="0.366896" stroke-miterlimit="10" stroke-linecap="round" stroke-linejoin="round"/>
<path d="M191.074 132.438V136.013L184.657 137.898C184.326 137.995 184.1 138.298 184.1 138.642C184.1 139.069 184.444 139.415 184.87 139.418L197.657 139.5C197.469 137.069 197.281 134.638 197.094 132.206C193.229 132.355 194.938 132.289 191.074 132.438Z" fill="#040404"/>
<path d="M184.971 90.8062L190.464 132.438H197.918V91.5055L184.971 90.8062Z" fill="#5A10D9"/>
<path d="M186.999 106.174L187.629 110.951L197.918 106.174V102.256H186.999V106.174Z" fill="#6C1C15"/>
<path d="M178.525 132.438V136.013L172.108 137.898C171.778 137.995 171.551 138.298 171.551 138.642C171.551 139.069 171.895 139.415 172.322 139.418L185.108 139.5C184.921 137.069 184.733 134.638 184.545 132.206C180.68 132.355 182.39 132.289 178.525 132.438Z" fill="#040404"/>
<path d="M172.423 90.8062L177.915 132.438H185.37V91.5055L172.423 90.8062Z" fill="#5A10D9"/>
<path d="M185.37 94.8264C181.844 94.8726 178.319 94.9185 174.793 94.9647C178.319 100.038 181.844 105.11 185.37 110.184C185.37 105.064 185.37 99.9453 185.37 94.8264Z" fill="#6C1C15"/>
<path d="M172.423 90.806C172.423 93.0298 174.226 94.8327 176.45 94.8327H203.164C205.664 94.8327 207.585 92.6225 207.238 90.1474C207.119 89.3032 206.658 86.4858 206.539 85.6416L176.298 86.7819C174.134 86.8637 172.423 88.6413 172.423 90.806Z" fill="#5A10D9"/>
<path d="M196.602 60.7493C196.364 60.3483 196.126 59.9472 195.888 59.5462C195.768 59.3448 195.59 59.2061 195.388 59.1518C194.51 58.9166 193.367 58.7207 192.034 58.7691C190.44 58.8271 189.117 59.2149 188.161 59.5979C187.951 59.682 187.779 59.861 187.681 60.0977L187.229 61.1903C188.643 60.8803 190.297 60.6311 192.149 60.5603C193.799 60.4976 195.295 60.5882 196.602 60.7493Z" fill="white" stroke="#5A10D9" stroke-width="0.366896" stroke-miterlimit="10"/>
<path d="M211.915 80.716H207.45C207.538 83.431 207.421 86.3515 207.035 89.4921H184.28C184.124 89.3703 183.832 89.1054 183.681 88.6714C183.367 87.7706 183.948 86.969 184.007 86.8894C183.437 84.867 182.866 82.8447 182.296 80.822H168.302C167.323 76.8779 178.916 66.0655 178.916 66.0655C180.054 65.0125 185.737 59.942 194 60.4336C194.193 60.445 194.383 60.4593 194.572 60.4762C199.299 60.9007 203.614 63.3614 206.521 67.1144C209.695 71.2141 214.153 77.9088 211.915 80.716Z" fill="white" stroke="#5A10D9" stroke-width="0.366896" stroke-miterlimit="10"/>
<path d="M182.296 80.8223C181.509 78.1697 180.724 75.5167 179.937 72.864L182.296 80.8223Z" fill="white"/>
<path d="M182.296 80.8223C181.509 78.1697 180.724 75.5167 179.937 72.864" stroke="#5A10D9" stroke-width="0.366896" stroke-miterlimit="10" stroke-linecap="round"/>
<path d="M181.56 78.3406L179.153 76.0354" stroke="#5A10D9" stroke-width="0.366896" stroke-miterlimit="10" stroke-linecap="round" stroke-linejoin="round"/>
<path d="M198.801 54.8496C199.267 55.7283 197.02 58.5079 194.061 59.2413C193.448 59.3932 191.989 59.6592 190.312 59.0671C187.393 58.0365 186.311 55.2653 186.15 54.8302C186.118 54.8661 185.952 55.0532 185.746 55.211C185.704 55.2426 185.358 55.4524 185.1 55.4139C184.692 55.353 184.461 54.6544 184.318 54.0648C184.129 53.2859 183.934 52.044 184.089 50.3379C183.165 51.5274 182.669 51.7464 182.387 51.6422C181.612 51.356 181.482 48.2884 183.054 46.4037C183.436 45.9451 183.852 45.6369 184.186 45.4332C183.164 45.0311 182.663 44.6609 182.683 44.3223C182.714 43.8152 183.913 43.3794 186.28 43.0147C185.758 42.4606 185.703 42.1569 185.778 41.9793C186.195 41.003 191.454 41.7324 195.499 44.3986C196.758 45.2281 197.603 45.8027 198.202 46.9269C199.879 50.0767 197.634 53.9313 197.297 54.49C198.349 54.4159 198.688 54.6346 198.801 54.8496Z" fill="#040404"/>
<path d="M181.256 106.174H206.726C207.802 106.174 208.675 105.301 208.675 104.225C208.675 103.148 207.802 102.275 206.726 102.275H181.256C180.179 102.275 179.306 103.148 179.306 104.225C179.307 105.301 180.18 106.174 181.256 106.174Z" fill="#FEFEFE" stroke="#5A10D9" stroke-width="0.366896" stroke-miterlimit="10" stroke-linejoin="round"/>
<path d="M194.301 92.1824H210.033C212.188 92.1824 213.952 90.4191 213.952 88.264V72.5322C213.952 70.3771 212.188 68.6138 210.033 68.6138H194.301C192.146 68.6138 190.383 70.3771 190.383 72.5322V88.264C190.383 90.4191 192.146 92.1824 194.301 92.1824Z" fill="#EFE6FD" stroke="#5A10D9" stroke-width="0.366896" stroke-miterlimit="10"/>
<path d="M178.124 102.275H210.228C212.276 102.275 213.952 100.599 213.952 98.5508C213.952 96.5024 212.276 94.8264 210.228 94.8264H178.124C176.075 94.8264 174.399 96.5024 174.399 98.5508C174.399 100.599 176.075 102.275 178.124 102.275Z" fill="#EFE6FD" stroke="#5A10D9" stroke-width="0.366896" stroke-miterlimit="10"/>
<path d="M193.37 106.174H202.202C205.007 106.174 207.289 103.892 207.289 101.087V83.8181C207.289 82.7361 206.411 81.8589 205.329 81.8589C204.247 81.8589 203.37 82.7361 203.37 83.8181V101.087C203.37 101.732 202.846 102.256 202.202 102.256H193.37C192.288 102.256 191.411 103.133 191.411 104.215C191.411 105.297 192.288 106.174 193.37 106.174Z" fill="#FEFEFE" stroke="#5A10D9" stroke-width="0.366896" stroke-miterlimit="10" stroke-linejoin="round"/>
<path d="M202.769 87.3194H207.89C208.581 87.3194 209.141 86.7591 209.141 86.0683V80.9472C209.141 80.2563 208.581 79.696 207.89 79.696H202.769C202.078 79.696 201.518 80.2563 201.518 80.9472V86.0683C201.518 86.7591 202.078 87.3194 202.769 87.3194Z" fill="#FEFEFE" stroke="#5A10D9" stroke-width="0.366896" stroke-miterlimit="10" stroke-linejoin="round"/>
<path d="M203.433 80.7468V86.2682" stroke="#5A10D9" stroke-width="0.366896" stroke-miterlimit="10" stroke-linecap="round" stroke-linejoin="round"/>
<path d="M205.921 139.637L196.312 135.593V107.764L191.997 109.76V135.608L182.428 139.637C181.827 139.89 182.01 140.785 182.663 140.785H205.689C206.343 140.785 206.522 139.89 205.921 139.637Z" fill="#EFE6FD" stroke="#5A10D9" stroke-width="0.366896" stroke-miterlimit="10"/>
<path d="M196.312 106.176V107.764L191.997 109.76V106.176H196.312Z" fill="#EFE6FD" stroke="#5A10D9" stroke-width="0.366896" stroke-miterlimit="10"/>
<path d="M196.312 106.176V107.764L191.997 109.76V106.176H196.312Z" fill="#040404" stroke="#040404" stroke-width="0.366896" stroke-miterlimit="10"/>
<path d="M118.709 79.8105H96.6082L100.401 64.3228H122.502L118.709 79.8105Z" fill="#EFE6FD" stroke="#5A10D9" stroke-width="0.366896" stroke-miterlimit="10"/>
<path d="M98.946 77.9762L101.84 66.157H120.164L117.27 77.9762H98.946Z" fill="#FEFEFE" stroke="#5A10D9" stroke-width="0.366896" stroke-miterlimit="10" stroke-linejoin="round"/>
<path d="M118.709 79.8105H85.3833V80.8169H118.709V79.8105Z" fill="#FEFEFE" stroke="#5A10D9" stroke-width="0.366896" stroke-miterlimit="10" stroke-linejoin="round"/>
<path d="M118.709 79.8105H105.566V80.8169H118.709V79.8105Z" fill="#EFE6FD" stroke="#5A10D9" stroke-width="0.366896" stroke-miterlimit="10"/>
<path d="M122.998 72.8052H116.524V80.8171H122.998V72.8052Z" fill="#FEFEFE" stroke="#5A10D9" stroke-width="0.366896" stroke-miterlimit="10" stroke-linejoin="round"/>
<path d="M116.524 74.0332C117.332 74.0332 117.332 74.767 118.141 74.767C118.95 74.767 118.95 74.0332 119.759 74.0332C120.569 74.0332 120.569 74.767 121.378 74.767C122.188 74.767 122.188 74.0332 122.997 74.0332" stroke="#5A10D9" stroke-width="0.366896" stroke-miterlimit="10"/>
<path d="M116.524 75.6951C117.332 75.6951 117.332 76.4289 118.141 76.4289C118.95 76.4289 118.95 75.6951 119.759 75.6951C120.569 75.6951 120.569 76.4289 121.378 76.4289C122.188 76.4289 122.188 75.6951 122.997 75.6951" stroke="#5A10D9" stroke-width="0.366896" stroke-miterlimit="10"/>
<path d="M116.524 77.3567C117.332 77.3567 117.332 78.0905 118.141 78.0905C118.95 78.0905 118.95 77.3567 119.759 77.3567C120.569 77.3567 120.569 78.0905 121.378 78.0905C122.188 78.0905 122.188 77.3567 122.997 77.3567" stroke="#5A10D9" stroke-width="0.366896" stroke-miterlimit="10"/>
<path d="M116.524 79.0183C117.332 79.0183 117.332 79.7521 118.141 79.7521C118.95 79.7521 118.95 79.0183 119.759 79.0183C120.569 79.0183 120.569 79.7521 121.378 79.7521C122.188 79.7521 122.188 79.0183 122.997 79.0183" stroke="#5A10D9" stroke-width="0.366896" stroke-miterlimit="10"/>
<path d="M90.8466 54.9633L90.1311 55.3119C89.8706 57.6783 88.9681 60.419 86.5099 61.2079C83.9746 62.0187 80.6359 60.4888 78.7647 57.3041C78.2657 56.7354 77.2678 55.4329 76.9523 53.5067C76.8532 52.916 76.4019 50.1863 78.3024 47.8309C80.2103 45.4717 83.039 45.347 83.3399 45.3396C83.9416 45.325 85.6697 45.3617 87.2877 46.5137C89.7386 48.2601 90.0394 51.2246 90.1605 52.4024L90.8466 54.9633Z" fill="#FEFEFE" stroke="#5A10D9" stroke-width="0.366896" stroke-miterlimit="10" stroke-linejoin="round"/>
<path d="M89.6702 52.4194C89.6702 52.8891 89.5968 53.2695 89.5065 53.2695C89.4163 53.2695 89.3433 52.8887 89.3433 52.4194C89.3433 51.9498 89.4163 51.5693 89.5065 51.5693C89.5968 51.5693 89.6702 51.9498 89.6702 52.4194Z" fill="#040404"/>
<path d="M77.8076 65.9757C76.6556 65.2954 76.0392 63.818 76.2142 62.2616C76.5701 61.4647 76.9817 60.6241 77.4587 59.7535C78.1107 58.5636 78.7832 57.5018 79.4366 56.5659C79.5702 56.4646 80.5373 55.7576 81.8156 56.0493C82.7893 56.2713 83.4193 56.9746 83.7653 57.6097C84.0316 58.0984 84.1135 58.6671 84.0368 59.2182C83.8603 60.4869 83.6838 61.7553 83.5077 63.024C83.4068 63.7493 83.0847 64.1364 82.7086 64.5994C81.7389 65.7944 79.5342 66.9949 77.8076 65.9757Z" fill="#FEFEFE" stroke="#5A10D9" stroke-width="0.366896" stroke-miterlimit="10" stroke-linejoin="round"/>
<path d="M74.8816 52.4846C75.0217 54.2729 75.6154 55.6483 76.0366 56.4515C75.1094 57.1328 75.0313 57.6332 75.0559 57.8901C75.1637 59.0157 77.6472 59.6237 79.077 59.7535C80.0387 59.8409 82.2155 60.039 84.2099 58.5112C86.4538 56.7927 86.722 54.2266 86.7602 53.7926C86.8233 53.8649 87.4246 54.5411 87.8099 54.3763C87.997 54.2963 88.1335 54.0193 88.1335 53.3795C88.1335 51.3513 87.9045 49.4225 87.9045 49.4225C87.9045 49.4225 88.8445 48.9892 89.6289 48.2866C89.7885 48.1435 90.6955 46.9768 90.4218 45.5323C90.3693 45.2546 90.0795 43.8053 89.0159 43.6032C88.1621 43.441 87.4415 44.2034 87.3641 44.2878C86.5514 43.897 85.1946 43.3768 83.4688 43.3309C82.7174 43.3108 79.0389 43.2205 76.6251 46.0335C74.5561 48.4444 74.799 51.4331 74.8816 52.4846Z" fill="#040404"/>
<path d="M86.6468 55.7607C86.2594 55.7607 85.9453 54.8534 85.9453 53.7336C85.9453 52.6142 86.2594 51.7065 86.6468 51.7065C87.0343 51.7065 87.3483 52.6139 87.3483 53.7336C87.3483 53.9552 87.3358 54.1688 87.3131 54.3684" fill="#FEFEFE"/>
<path d="M86.6468 55.7607C86.2594 55.7607 85.9453 54.8534 85.9453 53.7336C85.9453 52.6142 86.2594 51.7065 86.6468 51.7065C87.0343 51.7065 87.3483 52.6139 87.3483 53.7336C87.3483 53.9552 87.3358 54.1688 87.3131 54.3684" stroke="#5A10D9" stroke-width="0.366896" stroke-miterlimit="10" stroke-linecap="round" stroke-linejoin="round"/>
<path d="M81.9167 132.431V136.296L88.8551 138.334C89.2121 138.439 89.4575 138.767 89.4575 139.139C89.4575 139.6 89.0855 139.975 88.6243 139.978L74.8 140.067C75.0029 137.438 75.2058 134.809 75.4084 132.181C79.5866 132.342 77.7385 132.271 81.9167 132.431Z" fill="#040404"/>
<path d="M87.485 90.7998L81.9925 132.431H74.5383V91.4991L87.485 90.7998Z" fill="#5A10D9"/>
<path d="M74.5383 105.181V112.088L85.3786 106.766L85.9708 102.275L74.5383 105.181Z" fill="#6C1C15"/>
<path d="M98.4096 132.431V136.296L105.348 138.334C105.705 138.439 105.95 138.767 105.95 139.139C105.95 139.6 105.578 139.975 105.117 139.978L91.293 140.067C91.4959 137.438 91.6988 134.809 91.9013 132.181C96.0795 132.342 94.2318 132.271 98.4096 132.431Z" fill="#040404"/>
<path d="M104.149 91.3432C103.893 92.1804 103.521 93.1553 102.969 94.1903C102.052 95.9103 100.971 97.175 100.099 98.0379C89.7863 96.9673 79.4735 95.8971 69.1608 94.8265C66.6616 94.8265 64.7401 92.6163 65.0876 90.1412C65.2061 89.297 65.6676 86.4796 65.7861 85.6357L100.274 87.3194C100.554 87.3301 101.925 87.4111 103.022 88.55C104.119 89.6888 104.149 91.0625 104.149 91.3432Z" fill="#5A10D9"/>
<path d="M104.149 91.3433C102.348 105.039 100.548 118.736 98.7472 132.432H91.293V91.4992C95.5783 91.4471 99.8636 91.3954 104.149 91.3433Z" fill="#5A10D9"/>
<path d="M91.4241 94.8265C94.3229 94.8071 97.2221 94.788 100.121 94.7686C97.1785 100.475 94.236 106.181 91.2935 111.888L91.4241 94.8265Z" fill="#6C1C15"/>
<path d="M108.107 76.1914C108.107 76.1914 108.11 76.2164 108.115 76.2619C108.163 76.7395 108.417 79.4792 107.89 79.4102C107.313 79.3346 107.139 76.7461 107.139 76.7461L108.11 76.2164" fill="#FEFEFE"/>
<path d="M108.107 76.1914C108.107 76.1914 108.11 76.2164 108.115 76.2619C108.163 76.7395 108.417 79.4792 107.89 79.4102C107.313 79.3346 107.139 76.7461 107.139 76.7461L108.11 76.2164" stroke="#5A10D9" stroke-width="0.366896" stroke-miterlimit="10" stroke-linejoin="round"/>
<path d="M106.833 75.9226C106.833 75.9226 106.836 75.9476 106.843 75.9934C106.91 76.4737 107.27 79.2269 106.65 79.1458C105.971 79.057 105.709 76.4568 105.709 76.4568L106.836 75.9472" fill="#FEFEFE"/>
<path d="M106.833 75.9226C106.833 75.9226 106.836 75.9476 106.843 75.9934C106.91 76.4737 107.27 79.2269 106.65 79.1458C105.971 79.057 105.709 76.4568 105.709 76.4568L106.836 75.9472" stroke="#5A10D9" stroke-width="0.366896" stroke-miterlimit="10" stroke-linejoin="round"/>
<path d="M100.035 77.1593C100.152 76.8621 100.573 75.8356 101.6 75.2452C101.739 75.1649 101.877 75.0996 102.093 75.0144C102.693 74.7789 103.754 74.3625 105.118 74.3841C107.764 74.4259 109.226 76.0814 109.309 76.2472C109.345 76.318 109.368 76.391 109.368 76.391C109.421 76.5756 109.366 76.7429 109.646 77.9316C109.824 78.6893 110.011 79.3185 109.742 79.5155C109.681 79.5599 109.619 79.5669 109.596 79.5694C109.034 79.6318 108.379 78.0325 108.273 77.7684C108.036 77.6238 107.799 77.4792 107.562 77.3347C107.493 77.5387 107.347 77.8821 107.03 78.1771C106.623 78.5575 106.152 78.6529 105.919 78.7003C105.022 78.8819 102.744 78.832 99.7527 78.4706C99.7681 78.1628 99.825 77.6902 100.035 77.1593Z" fill="#FEFEFE" stroke="#5A10D9" stroke-width="0.366896" stroke-miterlimit="10" stroke-linejoin="round"/>
<path d="M98.5569 80.8171C100.585 80.8703 102.169 80.6216 103.247 80.3791C104.713 80.0489 105.029 79.6471 105.168 79.4783C105.893 78.5952 105.725 75.6479 103.957 74.2695C103.393 73.8296 103.149 73.9268 101.69 73.3651C100.258 72.814 99.163 72.2087 98.4736 71.7922C98.5015 74.8008 98.5294 77.809 98.5569 80.8171Z" fill="white" stroke="#5A10D9" stroke-width="0.366896" stroke-miterlimit="10"/>
<path d="M102.07 77.6374C101.916 78.8041 101.109 79.9011 100.129 80.4148C97.693 81.6952 94.1598 79.4095 92.2116 78.151C91.6319 77.7768 91.1733 77.4319 90.8614 77.1861C90.1698 80.355 89.4786 83.5242 88.7873 86.6931C88.9521 86.8442 89.4808 87.3682 89.6048 88.2296C89.7002 88.8922 89.5064 89.4136 89.4085 89.6356C81.3698 89.5853 73.3311 89.5347 65.2928 89.4844C64.9076 86.3475 64.7902 83.427 64.8782 80.7119H60.4094C60.5635 78.694 61.0882 74.7646 63.2602 70.6443C65.0433 67.2542 67.2887 64.9795 68.0702 64.22C68.2903 64.0072 68.4775 63.8347 68.6095 63.7137C70.2936 62.602 73.6947 60.7015 78.3249 60.4263C86.5874 59.9347 92.2743 65.0051 93.408 66.0618C95.7158 68.6888 97.4145 70.6003 98.2914 71.5873C101.175 74.8233 102.279 76.0267 102.07 77.6374Z" fill="white" stroke="#5A10D9" stroke-width="0.366896" stroke-miterlimit="10" stroke-linejoin="round"/>
<path d="M90.8613 77.1861L92.7141 69.7751" stroke="#5A10D9" stroke-width="0.366896" stroke-miterlimit="10" stroke-linecap="round"/>
<path d="M91.364 75.1752L93.5823 72.5369" stroke="#5A10D9" stroke-width="0.366896" stroke-miterlimit="10" stroke-linecap="round" stroke-linejoin="round"/>
<path d="M75.4902 60.7556C75.7283 60.3688 75.9665 59.9818 76.2049 59.5951C76.3246 59.4006 76.5029 59.2667 76.705 59.2146C77.583 58.9879 78.7255 58.7989 80.0581 58.8455C81.6526 58.9013 82.9753 59.2755 83.9318 59.6453C84.1416 59.7264 84.3137 59.8989 84.4117 60.1274L84.8644 61.1815C83.4504 60.8825 81.7961 60.6418 79.944 60.5739C78.2937 60.5127 76.7971 60.6004 75.4902 60.7556Z" fill="white" stroke="#5A10D9" stroke-width="0.366896" stroke-miterlimit="10"/>
<path d="M90.926 139.637L81.317 135.593V107.764L77.0023 109.76V135.608L67.4337 139.637C66.8319 139.89 67.0154 140.785 67.6685 140.785H90.6948C91.3479 140.785 91.5277 139.89 90.926 139.637Z" fill="#EFE6FD" stroke="#5A10D9" stroke-width="0.366896" stroke-miterlimit="10"/>
<path d="M81.3169 106.176V107.764L77.0022 109.76V106.176H81.3169Z" fill="#EFE6FD" stroke="#5A10D9" stroke-width="0.366896" stroke-miterlimit="10"/>
<path d="M81.3169 106.176V107.764L77.0022 109.76V106.176H81.3169Z" fill="#040404" stroke="#040404" stroke-width="0.366896" stroke-miterlimit="10"/>
<path d="M91.9154 106.174H66.4455C65.3687 106.174 64.4958 105.301 64.4958 104.225C64.4958 103.148 65.3687 102.275 66.4455 102.275H91.9154C92.9923 102.275 93.8651 103.148 93.8651 104.225C93.8647 105.301 92.9919 106.174 91.9154 106.174Z" fill="#FEFEFE" stroke="#5A10D9" stroke-width="0.366896" stroke-miterlimit="10" stroke-linejoin="round"/>
<path d="M78.8702 92.1824H63.1384C60.9833 92.1824 59.22 90.4191 59.22 88.264V72.5322C59.22 70.3771 60.9833 68.6138 63.1384 68.6138H78.8702C81.0253 68.6138 82.7886 70.3771 82.7886 72.5322V88.264C82.7886 90.4191 81.0253 92.1824 78.8702 92.1824Z" fill="#EFE6FD" stroke="#5A10D9" stroke-width="0.366896" stroke-miterlimit="10"/>
<path d="M95.0481 102.275H62.9443C60.8959 102.275 59.22 100.599 59.22 98.5508C59.22 96.5024 60.8959 94.8264 62.9443 94.8264H95.0484C97.0968 94.8264 98.7728 96.5024 98.7728 98.5508C98.7728 100.599 97.0968 102.275 95.0481 102.275Z" fill="#EFE6FD" stroke="#5A10D9" stroke-width="0.366896" stroke-miterlimit="10"/>
<path d="M79.8015 106.174H70.9703C68.165 106.174 65.8833 103.892 65.8833 101.087V83.8181C65.8833 82.7361 66.7605 81.8589 67.8425 81.8589C68.9245 81.8589 69.8017 82.7361 69.8017 83.8181V101.087C69.8017 101.732 70.326 102.256 70.9703 102.256H79.8015C80.8835 102.256 81.7607 103.133 81.7607 104.215C81.7607 105.297 80.8835 106.174 79.8015 106.174Z" fill="#FEFEFE" stroke="#5A10D9" stroke-width="0.366896" stroke-miterlimit="10" stroke-linejoin="round"/>
<path d="M70.403 87.3194H65.2819C64.591 87.3194 64.0308 86.7591 64.0308 86.0683V80.9472C64.0308 80.2563 64.591 79.696 65.2819 79.696H70.403C71.0939 79.696 71.6541 80.2563 71.6541 80.9472V86.0683C71.6541 86.7591 71.0939 87.3194 70.403 87.3194Z" fill="#FEFEFE" stroke="#5A10D9" stroke-width="0.366896" stroke-miterlimit="10" stroke-linejoin="round"/>
<path d="M69.9558 80.7468V86.2682" stroke="#5A10D9" stroke-width="0.366896" stroke-miterlimit="10" stroke-linecap="round" stroke-linejoin="round"/>
<path d="M155.732 55.0691C155.378 58.0648 153.388 62.4749 150.231 62.8645C146.342 63.3444 142.02 57.546 142.57 52.7797C142.628 52.273 142.913 49.7399 145.096 48.0133C147.483 46.126 150.284 46.6261 150.581 46.6844C151.173 46.8004 152.862 47.2142 154.196 48.6932C156.22 50.9353 155.87 53.8954 155.732 55.0691Z" fill="#FEFEFE" stroke="#5A10D9" stroke-width="0.366896" stroke-miterlimit="10" stroke-linejoin="round"/>
<path d="M151.136 65.9782C152.765 65.3461 153.478 63.5299 153.559 62.2641C153.574 62.0253 153.283 60.9958 152.701 58.9463C152.247 57.3511 152.113 56.9291 151.65 56.5523C150.77 55.8347 149.591 56.0086 149.344 56.0519C148.21 56.2496 147.556 57.0153 147.388 57.2179C147.233 57.4054 147.011 57.7165 146.469 60.1244C146.084 61.8374 146.037 62.3918 146.095 63.0266C146.142 63.5435 146.132 64.1096 146.542 64.602C147.092 65.2613 147.704 65.6238 148.126 65.7996C148.519 65.9621 149.803 66.4959 151.136 65.9782Z" fill="#FEFEFE" stroke="#5A10D9" stroke-width="0.366896" stroke-miterlimit="10" stroke-linejoin="round"/>
<path d="M143.403 54.4232C143.579 55.5286 143.411 56.4745 143.028 56.535C142.645 56.5959 142.193 55.7488 142.017 54.6433C141.841 53.5375 142.009 52.592 142.392 52.5311C142.775 52.4709 143.227 53.3177 143.403 54.4232Z" fill="#FEFEFE" stroke="#5A10D9" stroke-width="0.366896" stroke-miterlimit="10" stroke-linejoin="round"/>
<path d="M156.634 54.6331C156.476 55.7412 156.036 56.5949 155.652 56.5402C155.269 56.4852 155.087 55.5423 155.245 54.4343C155.404 53.3262 155.844 52.4725 156.228 52.5271C156.611 52.5818 156.793 53.5251 156.634 54.6331Z" fill="#FEFEFE" stroke="#5A10D9" stroke-width="0.366896" stroke-miterlimit="10" stroke-linejoin="round"/>
<path d="M148.045 133.938V137.513L141.07 139.561C141.07 139.969 141.07 140.377 141.07 140.785C145.583 140.785 150.097 140.785 154.61 140.785C154.434 138.503 154.258 136.22 154.082 133.938C152.069 133.938 150.057 133.938 148.045 133.938Z" fill="#040404"/>
<path d="M141.942 92.3062L147.434 133.938H154.888V93.0058L141.942 92.3062Z" fill="#5A10D9"/>
<path d="M144.424 111.121C147.912 109.648 151.4 108.175 154.888 106.702C154.888 105.22 154.888 103.738 154.888 102.256L143.257 102.276C143.646 105.224 144.035 108.173 144.424 111.121Z" fill="#6C1C15"/>
<path d="M135.496 133.938V137.513L129.079 139.398C128.748 139.495 128.522 139.798 128.522 140.142C128.522 140.568 128.866 140.915 129.293 140.918L142.079 141C141.891 138.569 141.704 136.137 141.516 133.706C137.651 133.855 139.36 133.789 135.496 133.938Z" fill="#040404"/>
<path d="M129.393 92.3062L134.885 133.938H142.34V93.0058L129.393 92.3062Z" fill="#5A10D9"/>
<path d="M129.393 92.3061C129.393 94.5298 131.196 96.3328 133.42 96.3328H160.135C161.384 96.3328 162.489 95.7802 163.238 94.9184C163.437 94.6902 163.928 94.0386 164.207 91.6479C164.334 90.5692 164.43 89.0132 164.249 87.1116C153.922 87.5019 143.595 87.8923 133.267 88.2823C131.105 88.3642 129.393 90.1414 129.393 92.3061Z" fill="#5A10D9"/>
<path d="M138.939 94.9646H132.539L142.34 110.756L142.292 94.9646H138.939Z" fill="#6C1C15"/>
<path d="M168.885 80.7122H164.42C164.508 83.4235 164.391 86.3477 164.006 89.4847H141.251C140.591 86.5972 139.93 83.706 139.266 80.8186H125.273C124.293 76.8745 135.887 66.062 135.887 66.062C137.024 65.0091 142.708 59.9386 150.97 60.4302C155.6 60.7054 159.001 62.6059 160.689 63.7176C160.689 63.7176 172.221 76.5296 168.885 80.7122Z" fill="white" stroke="#5A10D9" stroke-width="0.366896" stroke-miterlimit="10"/>
<path d="M139.266 80.8186L136.978 72.0667" stroke="#5A10D9" stroke-width="0.366896" stroke-miterlimit="10" stroke-linecap="round" stroke-linejoin="round"/>
<path d="M138.122 76.9141L136.022 75.3467" stroke="#5A10D9" stroke-width="0.366896" stroke-miterlimit="10" stroke-linecap="round" stroke-linejoin="round"/>
<path d="M143.028 56.5354C137.433 61.3891 137.228 69.5521 141.587 73.9428C145.279 77.6605 151.666 78.0898 155.613 75.1524C160.591 71.4483 161.49 62.5378 155.652 56.5402L155.94 52.6419C155.94 52.6419 156.749 46.5129 149.599 45.9028C149.599 45.9028 149.859 44.3552 146.939 44.6605C144.018 44.9657 148.551 46.0771 148.551 46.0771C147.914 46.1427 144.95 46.5129 143.504 48.8302C142.757 50.0271 142.676 51.3255 142.601 52.5286C142.495 54.2306 142.775 55.6285 143.028 56.5354Z" fill="#040404"/>
<path d="M163.876 139.637L154.267 135.593V107.764L149.952 109.76V135.608L140.384 139.637C139.782 139.89 139.965 140.785 140.618 140.785H163.645C164.298 140.785 164.478 139.89 163.876 139.637Z" fill="#EFE6FD" stroke="#5A10D9" stroke-width="0.366896" stroke-miterlimit="10"/>
<path d="M154.267 106.176V107.764L149.952 109.76V106.176H154.267Z" fill="#EFE6FD" stroke="#5A10D9" stroke-width="0.366896" stroke-miterlimit="10"/>
<path d="M154.267 106.176V107.764L149.952 109.76V106.176H154.267Z" fill="#040404" stroke="#040404" stroke-width="0.366896" stroke-miterlimit="10"/>
<path d="M139.396 106.174H164.865C165.942 106.174 166.815 105.301 166.815 104.225C166.815 103.148 165.942 102.275 164.865 102.275H139.396C138.319 102.275 137.446 103.148 137.446 104.225C137.446 105.301 138.319 106.174 139.396 106.174Z" fill="#FEFEFE" stroke="#5A10D9" stroke-width="0.366896" stroke-miterlimit="10" stroke-linejoin="round"/>
<path d="M152.441 92.1824H168.173C170.328 92.1824 172.091 90.4191 172.091 88.264V72.5322C172.091 70.3771 170.328 68.6138 168.173 68.6138H152.441C150.286 68.6138 148.522 70.3771 148.522 72.5322V88.264C148.522 90.4191 150.286 92.1824 152.441 92.1824Z" fill="#EFE6FD" stroke="#5A10D9" stroke-width="0.366896" stroke-miterlimit="10"/>
<path d="M136.263 102.275H168.367C170.415 102.275 172.091 100.599 172.091 98.551C172.091 96.5026 170.415 94.8267 168.367 94.8267H136.263C134.215 94.8267 132.539 96.5026 132.539 98.551C132.539 100.599 134.215 102.275 136.263 102.275Z" fill="#EFE6FD" stroke="#5A10D9" stroke-width="0.366896" stroke-miterlimit="10"/>
<path d="M151.51 106.174H160.341C163.146 106.174 165.428 103.892 165.428 101.087V83.8184C165.428 82.7364 164.55 81.8591 163.468 81.8591C162.387 81.8591 161.509 82.7364 161.509 83.8184V101.087C161.509 101.732 160.985 102.256 160.341 102.256H151.51C150.428 102.256 149.55 103.133 149.55 104.215C149.55 105.297 150.428 106.174 151.51 106.174Z" fill="#FEFEFE" stroke="#5A10D9" stroke-width="0.366896" stroke-miterlimit="10" stroke-linejoin="round"/>
<path d="M160.908 87.3196H166.029C166.72 87.3196 167.281 86.7594 167.281 86.0685V80.9474C167.281 80.2565 166.72 79.6963 166.029 79.6963H160.908C160.217 79.6963 159.657 80.2565 159.657 80.9474V86.0685C159.657 86.7594 160.217 87.3196 160.908 87.3196Z" fill="#FEFEFE" stroke="#5A10D9" stroke-width="0.366896" stroke-miterlimit="10" stroke-linejoin="round"/>
<path d="M161.539 80.8171V86.3389" stroke="#5A10D9" stroke-width="0.366896" stroke-miterlimit="10" stroke-linecap="round" stroke-linejoin="round"/>
</svg>
