<svg width="36" height="35" viewBox="0 0 36 35" fill="none" xmlns="http://www.w3.org/2000/svg">
<path d="M14.5187 2.16317C16.1226 -0.255281 19.6815 -0.231588 21.253 2.208L24.6007 7.40492C25.1281 8.22378 25.9348 8.82344 26.8709 9.09258L32.6515 10.7545C35.2357 11.4975 36.3775 14.5179 34.931 16.7846L30.8562 23.1699C30.4437 23.8163 30.2246 24.5671 30.2246 25.3339V30.892C30.2246 33.7428 27.3411 35.689 24.6973 34.6227L18.8183 32.2517C17.8001 31.841 16.6583 31.8644 15.6578 32.3163L11.2943 34.2871C8.63179 35.4897 5.61577 33.5426 5.61577 30.6211V25.3339C5.61577 24.5671 5.39662 23.8163 4.98413 23.1699L0.894845 16.7619C-0.547301 14.502 0.582894 11.4903 3.15577 10.7372L8.79002 9.08792C9.70076 8.82132 10.4879 8.24134 11.0124 7.45048L14.5187 2.16317Z" fill="#FFC727"/>
</svg>
