<svg width="96" height="50" viewBox="0 0 96 50" fill="none" xmlns="http://www.w3.org/2000/svg">
<path d="M0 36.0061L2.312 38.1341L2.317 38.1381C2.351 38.1691 2.35301 38.2221 2.32201 38.2561C2.29101 38.2901 2.238 38.2921 2.204 38.2611L2.201 38.2581L0 36.0061Z" fill="#6200EE"/>
<path d="M6.46914 41.2911L9.12613 42.9401L9.14314 42.9501C9.26914 43.0281 9.30714 43.1931 9.22914 43.3181C9.15114 43.4441 8.98613 43.4821 8.86113 43.4041C8.85813 43.4021 8.85514 43.4001 8.85214 43.3981L6.23314 41.6261C6.13914 41.5631 6.11513 41.4351 6.17813 41.3411C6.24013 41.2501 6.36314 41.2241 6.45514 41.2811L6.46914 41.2911Z" fill="#6200EE"/>
<path d="M13.7942 45.2271L16.7152 46.3021L16.7472 46.3141C16.9712 46.3961 17.0862 46.6451 17.0042 46.8701C16.9222 47.0941 16.6732 47.2091 16.4482 47.1271C16.4432 47.1251 16.4372 47.1231 16.4322 47.1211L13.4972 45.9071C13.3082 45.8291 13.2182 45.6121 13.2962 45.4241C13.3722 45.2401 13.5802 45.1501 13.7652 45.2181L13.7942 45.2271Z" fill="#6200EE"/>
<path d="M21.7308 47.5671L24.7928 47.9941L24.8418 48.0011C25.1478 48.0441 25.3618 48.3261 25.3188 48.6331C25.2758 48.9391 24.9928 49.1531 24.6868 49.1101C24.6828 49.1091 24.6768 49.1091 24.6738 49.1081L21.5288 48.5921C21.2448 48.5451 21.0518 48.2771 21.0988 47.9931C21.1448 47.7131 21.4048 47.5221 21.6848 47.5611L21.7308 47.5671Z" fill="#6200EE"/>
<path d="M29.935 48.0872C30.449 48.0662 30.956 47.9772 31.467 47.9262L32.995 47.7472L33.053 47.7402C33.415 47.6982 33.744 47.9572 33.786 48.3192C33.828 48.6812 33.569 49.0102 33.206 49.0522C33.202 49.0522 33.195 49.0532 33.191 49.0542L31.592 49.2032C31.059 49.2442 30.528 49.3212 29.994 49.3312H29.971C29.627 49.3372 29.343 49.0632 29.337 48.7192C29.332 48.3812 29.599 48.1012 29.935 48.0872Z" fill="#6200EE"/>
<path d="M37.9649 46.5111L40.8259 45.3901L40.8939 45.3631C41.2859 45.2091 41.7279 45.4031 41.8809 45.7941C42.0349 46.1861 41.8419 46.6281 41.4499 46.7811C41.4449 46.7831 41.4369 46.7861 41.4329 46.7871L38.4119 47.8881C38.0369 48.0251 37.6219 47.8311 37.4849 47.4561C37.3499 47.0871 37.5359 46.6791 37.8989 46.5361L37.9649 46.5111Z" fill="#6200EE"/>
<path d="M45.3029 42.9311L47.7779 41.1311L47.8469 41.0812C48.2259 40.8052 48.7579 40.8891 49.0339 41.2681C49.3099 41.6471 49.2259 42.1791 48.8469 42.4551C48.8449 42.4571 48.8389 42.4611 48.8359 42.4631L46.1959 44.3201C45.8239 44.5821 45.3099 44.4922 45.0479 44.1202C44.7889 43.7522 44.8739 43.2441 45.2369 42.9801L45.3029 42.9311Z" fill="#6200EE"/>
<path d="M51.4608 37.6201L53.3398 35.2231L53.4008 35.1451C53.7018 34.7621 54.2558 34.6941 54.6398 34.9951C55.0238 35.2961 55.0908 35.8501 54.7898 36.2341L54.7858 36.2391L52.7648 38.7741C52.4658 39.1501 51.9188 39.2111 51.5428 38.9121C51.1688 38.6141 51.1058 38.0711 51.3998 37.6961L51.4608 37.6201Z" fill="#6200EE"/>
<path d="M55.8089 30.8152C56.0189 30.3522 56.1819 29.8792 56.3259 29.4042L56.7899 27.9852L56.8269 27.8712C56.9839 27.3912 57.5009 27.1282 57.9809 27.2852C58.4609 27.4422 58.7239 27.9592 58.5669 28.4392L58.5649 28.4442L58.0429 30.0102C57.8759 30.5372 57.6909 31.0522 57.4639 31.5432L57.4529 31.5682C57.2429 32.0212 56.7059 32.2192 56.2529 32.0092C55.8019 31.8002 55.6039 31.2662 55.8089 30.8152Z" fill="#6200EE"/>
<path d="M57.3139 23.0601C57.2679 22.0751 57.1229 21.1011 56.8589 20.1721C56.7149 19.6671 57.0079 19.1411 57.5129 18.9981C58.0179 18.8541 58.5439 19.1471 58.6869 19.6521L58.6889 19.6601C58.9899 20.7531 59.1439 21.8691 59.1879 22.9801C59.2089 23.4981 58.8049 23.9341 58.2879 23.9541C57.7729 23.9741 57.3389 23.5741 57.3139 23.0601Z" fill="#6200EE"/>
<path d="M54.4908 16.1711C53.8038 15.5471 53.0078 15.0561 52.1458 14.7511C51.6338 14.5691 51.3658 14.0071 51.5468 13.4951C51.7278 12.9831 52.2908 12.7151 52.8028 12.8961L52.8108 12.8991L52.8168 12.9011C53.9298 13.3071 54.9478 13.9471 55.8048 14.7411C56.1988 15.1051 56.2218 15.7201 55.8578 16.1141C55.4958 16.5051 54.8838 16.5281 54.4908 16.1711Z" fill="#6200EE"/>
<path d="M47.584 14.5961C46.69 14.8361 45.845 15.2422 45.123 15.7982C44.693 16.1292 44.076 16.0491 43.745 15.6201C43.415 15.1921 43.493 14.5792 43.917 14.2462C44.852 13.5142 45.93 12.9892 47.058 12.6772C47.587 12.5292 48.136 12.8381 48.284 13.3681C48.432 13.8971 48.123 14.4461 47.593 14.5941L47.584 14.5961Z" fill="#6200EE"/>
<path d="M42.623 19.5911C42.371 20.4901 42.28 21.4361 42.37 22.3571C42.421 22.8791 42.04 23.3431 41.519 23.3951C41 23.4461 40.537 23.0681 40.482 22.5501C40.359 21.3831 40.464 20.2031 40.769 19.0801C40.908 18.5671 41.436 18.2641 41.948 18.4031C42.461 18.5421 42.764 19.0701 42.625 19.5821L42.623 19.5911Z" fill="#6200EE"/>
<path d="M44.246 26.5211C44.875 27.2251 45.632 27.8301 46.463 28.3371C46.894 28.6001 47.031 29.1631 46.767 29.5951C46.505 30.0241 45.946 30.1611 45.515 29.9031C44.552 29.3261 43.643 28.6181 42.867 27.7631C42.522 27.3841 42.55 26.7971 42.929 26.4521C43.308 26.1071 43.895 26.1351 44.24 26.5141L44.246 26.5211Z" fill="#6200EE"/>
<path d="M51.0561 30.1641L54.0421 30.6921L54.1471 30.7101C54.6261 30.7951 54.9451 31.2511 54.8601 31.7301C54.7761 32.2061 54.3231 32.5241 53.8471 32.4441L50.6381 31.9031C50.1521 31.8211 49.8241 31.3611 49.9061 30.8741C49.9881 30.3881 50.4491 30.0601 50.9351 30.1421L50.9421 30.1431L51.0561 30.1641Z" fill="#6200EE"/>
<path d="M59.1582 30.8892L62.2422 30.7272L62.2982 30.7242C62.7652 30.7002 63.1642 31.0592 63.1892 31.5262C63.2132 31.9912 62.8582 32.3882 62.3942 32.4162L59.2002 32.6092C58.7262 32.6382 58.3182 32.2772 58.2892 31.8022C58.2602 31.3282 58.6222 30.9202 59.0962 30.8912H59.1032L59.1582 30.8892Z" fill="#6200EE"/>
<path d="M67.34 30.0351L70.35 29.3411L70.404 29.3291C70.81 29.2351 71.215 29.4891 71.308 29.8941C71.4 30.2931 71.155 30.6921 70.76 30.7941L67.66 31.5881C67.236 31.6971 66.804 31.4411 66.695 31.0171C66.586 30.5931 66.842 30.1611 67.266 30.0521C67.271 30.0511 67.276 30.0501 67.281 30.0481L67.34 30.0351Z" fill="#6200EE"/>
<path d="M75.2219 27.6931L78.0229 26.3991L78.0729 26.3761C78.3999 26.2251 78.7869 26.3681 78.9379 26.6951C79.0869 27.0171 78.9499 27.3981 78.6339 27.5541L75.7649 28.9651C75.4229 29.1331 75.0079 28.9921 74.8399 28.6501C74.6719 28.3081 74.8129 27.8931 75.1549 27.7251C75.1589 27.7231 75.1629 27.7211 75.1669 27.7191L75.2219 27.6931Z" fill="#6200EE"/>
<path d="M82.414 23.7231C83.256 23.1281 84.033 22.4531 84.834 21.8061L84.868 21.7791C85.104 21.5881 85.451 21.6251 85.642 21.8611C85.83 22.0941 85.797 22.4331 85.571 22.6261C84.76 23.3171 83.968 24.0361 83.112 24.6731L83.106 24.6781C82.845 24.8721 82.4749 24.8181 82.2809 24.5571C82.0869 24.2961 82.141 23.9261 82.402 23.7321C82.406 23.7291 82.411 23.7251 82.414 23.7231Z" fill="#6200EE"/>
<path d="M88.4238 18.111L90.2928 15.6371L90.3178 15.6041C90.4568 15.4201 90.7178 15.3841 90.9008 15.5231C91.0798 15.6581 91.1188 15.9101 90.9918 16.0931L89.1718 18.7111C89.0208 18.9291 88.7218 18.9821 88.5038 18.8311C88.2858 18.6801 88.2328 18.3811 88.3838 18.1631C88.3868 18.1581 88.3908 18.1541 88.3938 18.1491L88.4238 18.111Z" fill="#6200EE"/>
<path d="M92.8408 11.1331L93.9898 8.23812L93.9998 8.21312C94.0508 8.08512 94.1968 8.02212 94.3248 8.07312C94.4498 8.12312 94.5128 8.26312 94.4688 8.38912L93.4158 11.3841C93.3588 11.5471 93.1798 11.6331 93.0158 11.5761C92.8528 11.5191 92.7668 11.3401 92.8238 11.1761C92.8248 11.1721 92.8268 11.1691 92.8278 11.1661L92.8408 11.1331Z" fill="#6200EE"/>
<path d="M95.1832 3.18411L95.4382 0.0621129L95.4392 0.0551091C95.4422 0.0221091 95.4702 -0.0018836 95.5032 0.000116403C95.5352 0.0021164 95.5592 0.030121 95.5582 0.061121L95.4692 3.21711C95.4672 3.29611 95.4012 3.35911 95.3212 3.35711C95.2422 3.35511 95.1792 3.28912 95.1812 3.20912C95.1812 3.20712 95.1812 3.20411 95.1812 3.20211L95.1832 3.18411Z" fill="#6200EE"/>
</svg>
