<svg width="68" height="66" viewBox="0 0 68 66" fill="none" xmlns="http://www.w3.org/2000/svg">
<path d="M6.77192 0L5.33516 2.08874L5.33186 2.09353C5.31207 2.12229 5.27248 2.13028 5.24279 2.11111C5.21309 2.09194 5.20487 2.0536 5.22466 2.02484L5.2263 2.02245L6.77192 0Z" fill="#6200EE"/>
<path d="M3.37018 5.79592L2.44974 8.12749L2.44397 8.14347C2.40273 8.2481 2.28229 8.30002 2.17425 8.26008C2.06703 8.22014 2.0126 8.10353 2.05383 7.99889C2.05466 7.9965 2.05548 7.9941 2.05713 7.9917L3.07821 5.66732C3.11285 5.58824 3.20688 5.5515 3.28853 5.58505C3.36771 5.6178 3.40646 5.70566 3.37595 5.78314L3.37018 5.79592Z" fill="#6200EE"/>
<path d="M1.36629 12.1451L0.991 14.6068L0.986898 14.6332C0.95968 14.8113 0.788941 14.9343 0.605017 14.9079C0.421092 14.8816 0.294082 14.7162 0.321299 14.5381C0.322124 14.5349 0.322941 14.5301 0.323766 14.5261L0.802124 12.0308C0.830991 11.8791 0.981111 11.7792 1.13782 11.8072C1.2904 11.8343 1.39268 11.9741 1.37041 12.1219L1.36629 12.1451Z" fill="#6200EE"/>
<path d="M0.830128 18.7387L0.999196 21.2092L1.00166 21.2452C1.01816 21.4824 0.832603 21.6869 0.58847 21.7029C0.343512 21.7188 0.132371 21.5391 0.115875 21.3027C0.115875 21.3003 0.11587 21.2955 0.115045 21.2931L0.000394935 18.7499C-0.00950236 18.5286 0.167833 18.3409 0.396296 18.3313C0.621459 18.3217 0.81279 18.4887 0.827636 18.7051L0.830128 18.7387Z" fill="#6200EE"/>
<path d="M1.76116 25.2594C1.8791 25.6548 1.98383 26.0542 2.11085 26.4464L2.50922 27.6181L2.51747 27.6421C2.60737 27.9073 2.45809 28.1932 2.18427 28.2803C1.91044 28.3674 1.61517 28.2228 1.52527 27.9576C1.52444 27.9544 1.52279 27.9496 1.52197 27.9464L1.13762 26.7235C1.01555 26.3146 0.915763 25.8992 0.804419 25.4871C0.735138 25.2323 0.892665 24.9711 1.15577 24.904C1.41475 24.8377 1.68033 24.9846 1.75373 25.2331L1.76116 25.2594Z" fill="#6200EE"/>
<path d="M4.22025 31.3744L5.50443 33.5006L5.53001 33.5422C5.69744 33.8193 5.60092 34.1756 5.31473 34.3369C5.02853 34.4991 4.66068 34.4056 4.49325 34.1285C4.4916 34.1253 4.4883 34.1197 4.48666 34.1173L3.20497 31.88C3.05238 31.6132 3.15134 31.2769 3.42682 31.1291C3.69817 30.983 4.03963 31.0748 4.19551 31.3328L4.22025 31.3744Z" fill="#6200EE"/>
<path d="M8.03094 36.7908L9.7605 38.5928L9.7976 38.6319C10.0525 38.8979 10.0368 39.3133 9.76214 39.5601C9.48749 39.8069 9.05862 39.7917 8.80376 39.5257C8.80129 39.5233 8.79634 39.5177 8.79304 39.5145L7.03461 37.5967C6.79707 37.3371 6.821 36.941 7.08905 36.7101C7.35298 36.4833 7.75463 36.5024 7.99381 36.7517L8.03094 36.7908Z" fill="#6200EE"/>
<path d="M12.9439 41.2868L15.019 42.6942L15.0677 42.7277C15.391 42.9474 15.4701 43.3795 15.2433 43.6926C15.0165 44.0057 14.5703 44.0824 14.247 43.8628L14.2429 43.8596L12.082 42.3707C11.7644 42.1518 11.6902 41.7253 11.9162 41.4178C12.1414 41.1118 12.5785 41.0392 12.8952 41.254L12.9439 41.2868Z" fill="#6200EE"/>
<path d="M18.7216 44.6442L19.8936 45.1059C20.2854 45.2537 20.6722 45.4286 21.0673 45.5548C21.4566 45.6794 21.6677 46.086 21.5391 46.4622C21.4104 46.8392 20.9914 47.0437 20.6021 46.9191L20.5955 46.9175L20.5774 46.9111C20.151 46.7705 19.7534 46.5884 19.3402 46.4287L18.1121 45.9334C17.7393 45.7833 17.5628 45.3679 17.7179 45.0069C17.8721 44.6474 18.2969 44.4765 18.668 44.6227L18.7216 44.6442Z" fill="#6200EE"/>
<path d="M25.1239 46.4926L27.6229 46.6946L27.7087 46.7018C28.1302 46.7362 28.4436 47.0948 28.409 47.5038C28.3735 47.9127 28.0032 48.2163 27.5809 48.1819L27.5751 48.1811L24.907 47.9455C24.4913 47.9088 24.1845 47.5525 24.2224 47.1491C24.2603 46.7482 24.6249 46.4518 25.0389 46.4854L25.1239 46.4926Z" fill="#6200EE"/>
<path d="M31.775 46.4085C32.5931 46.2687 33.399 46.0778 34.1841 45.8302C34.6007 45.6984 35.0485 45.9188 35.1846 46.323C35.3198 46.7264 35.0922 47.1601 34.6757 47.2919L34.6699 47.2935C33.8072 47.5587 32.928 47.76 32.0414 47.9045C31.6141 47.974 31.21 47.6961 31.1382 47.2823C31.0657 46.8709 31.351 46.4811 31.775 46.4085Z" fill="#6200EE"/>
<path d="M37.8503 44.1033C38.5184 43.6568 39.137 43.1488 39.6887 42.5825C39.9989 42.2638 40.5176 42.2494 40.8467 42.5497C41.1758 42.8508 41.1907 43.3525 40.8805 43.6712L40.8756 43.676C40.2356 44.323 39.5238 44.8981 38.7642 45.3973C38.3938 45.6409 37.8907 45.5474 37.64 45.1888C37.3909 44.8326 37.4849 44.3477 37.8503 44.1033Z" fill="#6200EE"/>
<path d="M41.8439 39.3452C42.1235 38.6463 42.2679 37.9234 42.1574 37.2924C42.0807 36.8682 42.3735 36.4648 42.8114 36.3914C43.2485 36.3171 43.6659 36.6038 43.7426 37.0272C43.9257 38.0632 43.698 39.0456 43.3657 39.9067C43.2081 40.3148 42.7397 40.5217 42.3182 40.3692C41.8967 40.2166 41.6831 39.7621 41.8406 39.3547C41.8415 39.3531 41.8439 39.3468 41.8439 39.3452Z" fill="#6200EE"/>
<path d="M39.8075 35.2149C39.0801 35.052 38.2891 35.0376 37.5295 35.1534C37.1055 35.2197 36.7055 34.941 36.6362 34.5304C36.5678 34.1214 36.8573 33.7348 37.2787 33.6661C38.2256 33.516 39.1972 33.5208 40.158 33.7268C40.5828 33.8179 40.8508 34.2253 40.7568 34.6366C40.6628 35.048 40.2422 35.3076 39.8174 35.2165L39.8075 35.2149Z" fill="#6200EE"/>
<path d="M33.9376 36.6884C33.2893 37.1469 32.6955 37.6837 32.1651 38.278C31.8938 38.5823 31.4187 38.6166 31.1045 38.3538C30.7919 38.0927 30.7556 37.635 31.0228 37.3306C31.6175 36.6533 32.2905 36.0343 33.0345 35.4999C33.3726 35.2571 33.8493 35.325 34.1009 35.6525C34.3516 35.98 34.2807 36.4416 33.9434 36.6853L33.9376 36.6884Z" fill="#6200EE"/>
<path d="M30.06 41.6423C29.7507 42.3788 29.509 43.144 29.3391 43.9236C29.2566 44.3038 28.8715 44.5466 28.4789 44.4667C28.0887 44.3869 27.838 44.0162 27.9172 43.6384C28.0986 42.7758 28.3584 41.9291 28.6949 41.1104C28.8451 40.7445 29.2731 40.5664 29.6509 40.7118C30.0286 40.8572 30.2125 41.2717 30.0624 41.6375L30.06 41.6423Z" fill="#6200EE"/>
<path d="M29.1054 47.8752L29.1928 48.4623C29.2275 48.658 29.2365 48.8553 29.2926 49.0486L29.5788 50.2164L29.5936 50.2763C29.6827 50.6405 29.4501 51.0055 29.0749 51.0918C28.7012 51.1773 28.326 50.9552 28.2344 50.5942L27.9111 49.321C27.8501 49.1109 27.8344 48.8872 27.7948 48.6708L27.6934 48.0158C27.6348 47.6404 27.902 47.2905 28.2897 47.2346C28.6773 47.1779 29.0386 47.4367 29.0963 47.8121L29.0971 47.8161L29.1054 47.8752Z" fill="#6200EE"/>
<path d="M31.1976 53.9087L32.5882 55.9312L32.6327 55.9967C32.8249 56.2763 32.7474 56.6549 32.4579 56.841C32.1733 57.0247 31.789 56.9536 31.5943 56.6836L30.0603 54.5589C29.8516 54.2698 29.9242 53.872 30.2227 53.6699C30.5213 53.4678 30.9321 53.5381 31.1407 53.8273C31.1432 53.8305 31.1448 53.8337 31.1473 53.8368L31.1976 53.9087Z" fill="#6200EE"/>
<path d="M35.4466 58.9153L37.4161 60.4633L37.4582 60.4969C37.6941 60.6822 37.7304 61.0185 37.539 61.2469C37.3502 61.4722 37.0095 61.5089 36.7736 61.3324L34.6787 59.7612C34.4255 59.5711 34.3785 59.2181 34.5756 58.972C34.7719 58.7268 35.1365 58.6813 35.3905 58.8714C35.393 58.8738 35.3963 58.8754 35.3987 58.8778L35.4466 58.9153Z" fill="#6200EE"/>
<path d="M41.0192 62.6192L43.3401 63.6296L43.3821 63.648C43.6197 63.7518 43.7261 64.0226 43.6197 64.2527C43.5141 64.4795 43.2403 64.5825 43.0052 64.4867L40.5721 63.4906C40.3165 63.386 40.1969 63.1008 40.3049 62.8532C40.413 62.6056 40.7074 62.4898 40.9631 62.5944C40.9656 62.5952 40.9688 62.5968 40.9713 62.5976L41.0192 62.6192Z" fill="#6200EE"/>
<path d="M47.4052 64.8217L49.9224 65.2426L49.9595 65.249C50.1674 65.2842 50.3076 65.4759 50.2713 65.6772C50.2358 65.8745 50.0445 66.0086 49.8416 65.9807L47.2345 65.626C47.0027 65.5949 46.8411 65.3872 46.8732 65.1628C46.9054 64.9383 47.1198 64.7818 47.3516 64.8129C47.3549 64.8137 47.359 64.8137 47.3631 64.8145L47.4052 64.8217Z" fill="#6200EE"/>
<path d="M54.1789 65.4123L56.7283 65.1631L56.7572 65.1599C56.8966 65.1464 57.0211 65.2446 57.0351 65.3796C57.0492 65.5114 56.9518 65.6296 56.8174 65.648L54.2177 65.997C54.0519 66.0194 53.8993 65.9076 53.8762 65.747C53.8531 65.5865 53.9686 65.4387 54.1344 65.4163C54.1377 65.4155 54.141 65.4155 54.1443 65.4155L54.1789 65.4123Z" fill="#6200EE"/>
<path d="M60.8566 64.0988C61.6558 63.8009 62.4344 63.4478 63.1849 63.0436C63.2451 63.0109 63.321 63.0325 63.3548 63.0908C63.387 63.1475 63.3672 63.2186 63.3111 63.2529C62.568 63.693 61.7894 64.078 60.9886 64.4111C60.9003 64.4479 60.798 64.4087 60.7601 64.3233C60.7221 64.2378 60.7626 64.1387 60.8516 64.102C60.8516 64.1004 60.8549 64.0996 60.8566 64.0988Z" fill="#6200EE"/>
<path d="M66.6553 60.5951L67.1254 60.147L66.6792 60.6182C66.6726 60.6246 66.6619 60.6254 66.6553 60.619C66.6487 60.6126 66.6479 60.6023 66.6545 60.5959L66.6553 60.5951Z" fill="#6200EE"/>
</svg>
