<svg width="43" height="51" viewBox="0 0 43 51" fill="none" xmlns="http://www.w3.org/2000/svg">
<path d="M0.0768822 49.9595C-0.0601178 48.8745 0.00588144 47.8355 0.119881 46.8085C0.245881 45.7845 0.447883 44.7786 0.714883 43.7896C0.981883 42.8016 1.31589 41.8306 1.72389 40.8836C2.14389 39.9396 2.61287 39.0096 3.28187 38.1436C3.41687 39.2466 3.35089 40.2866 3.23689 41.3116C3.11189 42.3336 2.91187 43.3326 2.64387 44.3136C2.37687 45.2946 2.04487 46.2575 1.63587 47.2025C1.21487 48.1445 0.747882 49.0755 0.0768822 49.9595Z" fill="#6200EE"/>
<path d="M3.11279 37.9475C4.90079 34.8835 6.8478 31.9355 8.8508 29.0295C10.8438 26.1165 12.9308 23.2725 15.0358 20.4415C17.1708 17.6335 19.3268 14.8395 21.5758 12.1155C23.8148 9.38354 26.1108 6.69454 28.5668 4.12354C26.7808 7.18954 24.8348 10.1375 22.8308 13.0425C20.8378 15.9555 18.7508 18.7995 16.6438 21.6285C14.5068 24.4355 12.3508 27.2285 10.1018 29.9525C7.86181 32.6855 5.56679 35.3745 3.11279 37.9475Z" fill="#6200EE"/>
<path d="M0.0439453 50.3455C0.687945 49.6385 1.40896 49.1255 2.14896 48.6575C2.89296 48.2015 3.66697 47.8175 4.46497 47.4965C5.26297 47.1745 6.08695 46.9185 6.94095 46.7335C7.79895 46.5605 8.67497 46.4335 9.62997 46.5025C8.98697 47.2115 8.26597 47.7255 7.52597 48.1935C6.78197 48.6495 6.00795 49.0335 5.20895 49.3525C4.40995 49.6715 3.58596 49.9285 2.73196 50.1125C1.87396 50.2845 0.997945 50.4115 0.0439453 50.3455Z" fill="#6200EE"/>
<path d="M9.72681 46.6185C12.2068 43.5795 14.7408 40.6205 17.2878 37.6725C19.8248 34.7155 22.4048 31.8015 24.9688 28.8715C27.5588 25.9655 30.1338 23.0455 32.7598 20.1665C35.3748 17.2775 38.0068 14.4035 40.7318 11.5825C38.6628 14.9165 36.3548 18.0835 33.9558 21.1705C31.5638 24.2665 29.0418 27.2545 26.4678 30.1955C23.8638 33.1105 21.2078 35.9805 18.4268 38.7325C15.6538 41.4905 12.7908 44.1665 9.72681 46.6185Z" fill="#6200EE"/>
<path d="M28.6838 3.88956C29.9378 3.62556 31.2208 3.70855 32.4628 3.96655C33.7038 4.23655 34.9028 4.71156 36.0028 5.35256C37.1038 5.99356 38.1058 6.80455 38.9508 7.75255C39.7868 8.70655 40.4888 9.78556 40.8728 11.0086L37.9058 8.92856C36.9448 8.27056 35.9798 7.65756 34.9948 7.07956C34.0088 6.50256 33.0008 5.96356 31.9548 5.44956C30.9108 4.92356 29.8288 4.45256 28.6838 3.88956Z" fill="#6200EE"/>
<path d="M29.1208 3.40749C29.3038 2.50349 29.9218 1.68749 30.6958 1.09949C31.4828 0.522489 32.4348 0.140499 33.4438 0.0384993C35.4558 -0.176501 37.4098 0.534493 38.9988 1.53549C40.5908 2.52649 42.1179 4.02449 42.6599 6.03249C42.9339 7.04449 42.8588 8.0955 42.5108 9.0235C42.1518 9.9405 41.4628 10.7575 40.5848 11.0585C41.8108 9.70149 41.7648 7.86549 41.1828 6.53949C40.5498 5.15449 39.3108 4.10249 37.9348 3.22849C36.5438 2.36049 35.0568 1.6875 33.4978 1.5925C31.9798 1.5205 30.2828 2.00449 29.1208 3.40749Z" fill="#6200EE"/>
<path d="M27.1128 7.15646C28.3188 7.02946 29.4978 7.18446 30.6448 7.45546C31.7878 7.73846 32.8938 8.16746 33.9338 8.71747C34.9738 9.26747 35.9498 9.94245 36.8248 10.7305C37.6928 11.5265 38.4818 12.4175 39.0518 13.4885C37.9258 13.0445 36.9258 12.5235 35.9268 12.0215L32.9968 10.4845L30.0818 8.91845C29.1058 8.37045 28.1128 7.83646 27.1128 7.15646Z" fill="#6200EE"/>
<path d="M3.47778 38.1485C4.37178 37.6995 5.42078 37.6614 6.40378 37.8644C7.38978 38.0774 8.32077 38.5515 9.09277 39.2065C9.86577 39.8605 10.4838 40.7034 10.8528 41.6424C11.2128 42.5794 11.3428 43.6225 11.0418 44.5765C10.5088 43.7405 10.0278 43.0504 9.48978 42.4244C8.96078 41.7984 8.39877 41.2424 7.79877 40.7284C7.19677 40.2164 6.55679 39.7515 5.85379 39.3295C5.14879 38.8995 4.38778 38.5365 3.47778 38.1485Z" fill="#6200EE"/>
<path d="M1.34375 45.2875C1.79675 44.9415 2.28274 44.8605 2.74774 44.8765C3.21174 44.9045 3.65374 45.0605 4.03174 45.3105C4.40974 45.5605 4.72374 45.9085 4.92874 46.3255C5.12374 46.7475 5.23575 47.2285 5.08875 47.7815C4.52875 47.6825 4.15575 47.5565 3.80875 47.4295C3.47175 47.2965 3.18676 47.1525 2.92276 46.9745C2.65776 46.7975 2.41474 46.5905 2.16174 46.3295C1.91174 46.0585 1.65175 45.7635 1.34375 45.2875Z" fill="#6200EE"/>
<path d="M7.64087 38.9625C9.32487 36.2255 11.1629 33.6125 13.0539 31.0425C14.9359 28.4655 16.9079 25.9615 18.8979 23.4725C20.9169 21.0065 22.9559 18.5575 25.0849 16.1805C27.2039 13.7965 29.3789 11.4565 31.7079 9.24146C30.0259 11.9805 28.1889 14.5945 26.2969 17.1635C24.4149 19.7405 22.4419 22.2435 20.4499 24.7315C18.4289 27.1955 16.3899 29.6455 14.2609 32.0215C12.1419 34.4055 9.96787 36.7465 7.64087 38.9625Z" fill="#6200EE"/>
<path d="M10.4688 42.3515C12.3058 39.5605 14.2917 36.8985 16.3297 34.2825C18.3587 31.6585 20.4757 29.1105 22.6107 26.5775C24.7737 24.0695 26.9547 21.5766 29.2247 19.1616C31.4847 16.7376 33.7988 14.3605 36.2628 12.1125C34.4278 14.9055 32.4427 17.5675 30.4037 20.1835C28.3747 22.8075 26.2568 25.3556 24.1208 27.8866C21.9558 30.3936 19.7748 32.8856 17.5048 35.3006C15.2438 37.7246 12.9307 40.1025 10.4688 42.3515Z" fill="#6200EE"/>
</svg>
