<svg width="32" height="28" viewBox="0 0 32 28" fill="none" xmlns="http://www.w3.org/2000/svg">
<path d="M0 14.2944C3.38778 12.0535 7.09042 10.3278 10.7672 8.62291C14.4419 6.9071 18.1684 5.31086 21.6828 3.36189L22.74 2.77499L22.455 3.9647C21.4914 7.98021 20.1563 11.909 18.4983 15.6984C16.8173 19.4777 14.8086 23.1116 12.5318 26.5662L11.5862 28L11.093 26.346C8.83811 18.7882 6.57328 11.2325 4.37521 3.65782L3.31403 0L5.79808 2.88261C8.88993 6.47066 12.2378 9.84251 15.791 12.9862C19.3582 16.1139 23.1076 19.0413 27.0355 21.7207L31.5641 24.8095L26.4994 22.7619C22.1899 21.0202 17.8536 19.3661 13.4564 17.8855C9.05929 16.3949 4.56453 15.2052 0 14.2944C4.62033 14.8783 9.18188 15.9176 13.6707 17.189C18.1635 18.4604 22.5496 20.0616 26.9219 21.6609L26.3858 22.7021C22.3394 20.1134 18.4454 17.2687 14.7966 14.128C11.1348 11.0033 7.69423 7.61254 4.5416 3.9647L5.96347 3.18851C8.2283 10.7443 10.4254 18.3189 12.6334 25.8906L11.1946 25.6704C13.4764 22.3205 15.4921 18.7872 17.2019 15.1095C18.9347 11.4427 20.3556 7.62352 21.4177 3.70067L22.1889 4.30347C18.5521 6.18369 14.7787 7.69824 11.0202 9.20979C7.26877 10.7343 3.53226 12.2976 0 14.2944Z" fill="#6200EE"/>
</svg>
