<svg width="707" height="272" viewBox="0 0 707 272" fill="none" xmlns="http://www.w3.org/2000/svg">
<g opacity="0.45">
<g clip-path="url(#clip0_9762_6157)">
<path d="M0.889648 40C0.889648 17.9086 18.7983 0 40.8896 0H706.89V272H40.8896C18.7982 272 0.889648 254.091 0.889648 232V40Z" fill="white"/>
<mask id="path-2-inside-1_9762_6157" fill="white">
<path d="M0.889648 40C0.889648 17.9086 18.7983 0 40.8896 0H706.89V272H40.8896C18.7982 272 0.889648 254.091 0.889648 232V40Z"/>
</mask>
<path d="M706.89 0H707.89V-1H706.89V0ZM706.89 272V273H707.89V272H706.89ZM40.8896 1H706.89V-1H40.8896V1ZM705.89 0V272H707.89V0H705.89ZM706.89 271H40.8896V273H706.89V271ZM1.88965 232V40H-0.110352V232H1.88965ZM40.8896 271C19.3505 271 1.88965 253.539 1.88965 232H-0.110352C-0.110352 254.644 18.246 273 40.8896 273V271ZM40.8896 -1C18.246 -1 -0.110352 17.3563 -0.110352 40H1.88965C1.88965 18.4609 19.3505 1 40.8896 1V-1Z" fill="#5B68C7" mask="url(#path-2-inside-1_9762_6157)"/>
</g>
</g>
<defs>
<clipPath id="clip0_9762_6157">
<path d="M0.889648 40C0.889648 17.9086 18.7983 0 40.8896 0H706.89V272H40.8896C18.7982 272 0.889648 254.091 0.889648 232V40Z" fill="white"/>
</clipPath>
</defs>
</svg>
