<svg width="968" height="73" viewBox="0 0 968 73" fill="none" xmlns="http://www.w3.org/2000/svg">
<path d="M2.82 29.9004V8.90039H6.72V26.6004H17.7V29.9004H2.82ZM35.3325 21.9804C35.3325 22.2804 35.3025 22.7304 35.2725 23.0904H22.7025C23.1525 25.4304 25.1025 26.9304 27.8925 26.9304C29.6925 26.9304 31.1025 26.3604 32.2425 25.1904L34.2525 27.5004C32.8125 29.2104 30.5625 30.1104 27.8025 30.1104C22.4325 30.1104 18.9525 26.6604 18.9525 21.8904C18.9525 17.1204 22.4625 13.7004 27.2325 13.7004C31.9125 13.7004 35.3325 16.9704 35.3325 21.9804ZM27.2325 16.7004C24.8025 16.7004 23.0325 18.2604 22.6725 20.6004H31.7625C31.4625 18.2904 29.6925 16.7004 27.2325 16.7004ZM44.6152 13.7004C49.2352 13.7004 51.9052 15.8904 51.9052 20.5104V29.9004H48.3652V27.9504C47.4652 29.3304 45.7252 30.1104 43.3252 30.1104C39.6652 30.1104 37.3552 28.1004 37.3552 25.3104C37.3552 22.6404 39.1552 20.5404 44.0152 20.5404H48.1552V20.3004C48.1552 18.1104 46.8352 16.8204 44.1652 16.8204C42.3652 16.8204 40.5052 17.4204 39.3052 18.4104L37.8352 15.6804C39.5452 14.3604 42.0352 13.7004 44.6152 13.7004ZM44.1052 27.3804C45.9352 27.3804 47.5252 26.5404 48.1552 24.8904V23.0304H44.2852C41.7352 23.0304 41.0452 23.9904 41.0452 25.1604C41.0452 26.5104 42.1852 27.3804 44.1052 27.3804ZM60.2878 16.2204C61.3678 14.5404 63.3178 13.7004 65.9878 13.7004V17.2704C65.6578 17.2104 65.3878 17.1804 65.1178 17.1804C62.2678 17.1804 60.4678 18.8604 60.4678 22.1304V29.9004H56.7178V13.8804H60.2878V16.2204ZM78.259 13.7004C82.099 13.7004 84.949 15.8904 84.949 20.7204V29.9004H81.199V21.2004C81.199 18.3504 79.789 16.9704 77.389 16.9704C74.719 16.9704 72.919 18.5904 72.919 21.8004V29.9004H69.169V13.8804H72.739V15.9504C73.969 14.4804 75.919 13.7004 78.259 13.7004ZM91.5961 11.2404C90.2161 11.2404 89.1961 10.2504 89.1961 8.99039C89.1961 7.73039 90.2161 6.74039 91.5961 6.74039C92.9761 6.74039 93.9961 7.67039 93.9961 8.90039C93.9961 10.2204 93.0061 11.2404 91.5961 11.2404ZM89.7061 29.9004V13.8804H93.4561V29.9004H89.7061ZM107.468 13.7004C111.308 13.7004 114.158 15.8904 114.158 20.7204V29.9004H110.408V21.2004C110.408 18.3504 108.998 16.9704 106.598 16.9704C103.928 16.9704 102.128 18.5904 102.128 21.8004V29.9004H98.378V13.8804H101.948V15.9504C103.178 14.4804 105.128 13.7004 107.468 13.7004ZM131.392 13.8804H134.962V27.4704C134.962 33.2904 131.932 35.9304 126.322 35.9304C123.322 35.9304 120.352 35.1504 118.522 33.6504L120.202 30.8304C121.612 32.0004 123.892 32.7504 126.112 32.7504C129.652 32.7504 131.212 31.1304 131.212 27.8904V27.0504C129.892 28.4904 128.002 29.1804 125.842 29.1804C121.252 29.1804 117.742 26.0604 117.742 21.4104C117.742 16.7604 121.252 13.7004 125.842 13.7004C128.092 13.7004 130.072 14.4204 131.392 16.0104V13.8804ZM126.412 26.0004C129.232 26.0004 131.272 24.1404 131.272 21.4104C131.272 18.7104 129.232 16.8804 126.412 16.8804C123.562 16.8804 121.522 18.7104 121.522 21.4104C121.522 24.1404 123.562 26.0004 126.412 26.0004ZM153.133 30.1104C150.463 30.1104 147.793 29.3304 146.353 28.3104L147.793 25.4604C149.203 26.3904 151.363 27.0504 153.373 27.0504C155.743 27.0504 156.733 26.3904 156.733 25.2804C156.733 22.2204 146.833 25.1004 146.833 18.7104C146.833 15.6804 149.563 13.7004 153.883 13.7004C156.013 13.7004 158.443 14.2104 159.883 15.0804L158.443 17.9304C156.913 17.0304 155.383 16.7304 153.853 16.7304C151.573 16.7304 150.493 17.4804 150.493 18.5304C150.493 21.7704 160.393 18.8904 160.393 25.1604C160.393 28.1604 157.633 30.1104 153.133 30.1104ZM172.712 13.7004C176.552 13.7004 179.402 15.8904 179.402 20.7204V29.9004H175.652V21.2004C175.652 18.3504 174.242 16.9704 171.842 16.9704C169.172 16.9704 167.372 18.5904 167.372 21.8004V29.9004H163.622V7.64039H167.372V15.7404C168.602 14.4204 170.492 13.7004 172.712 13.7004ZM191.506 30.1104C186.586 30.1104 182.986 26.6904 182.986 21.8904C182.986 17.0904 186.586 13.7004 191.506 13.7004C196.486 13.7004 200.056 17.0904 200.056 21.8904C200.056 26.6904 196.486 30.1104 191.506 30.1104ZM191.506 26.9004C194.236 26.9004 196.276 24.9504 196.276 21.8904C196.276 18.8304 194.236 16.8804 191.506 16.8804C188.806 16.8804 186.766 18.8304 186.766 21.8904C186.766 24.9504 188.806 26.9004 191.506 26.9004ZM215.402 13.8804H219.152V29.9004H215.582V27.8604C214.382 29.3304 212.492 30.1104 210.422 30.1104C206.312 30.1104 203.522 27.8604 203.522 23.0304V13.8804H207.272V22.5204C207.272 25.4304 208.652 26.8104 211.022 26.8104C213.632 26.8104 215.402 25.1904 215.402 21.9804V13.8804ZM224.062 29.9004V7.64039H227.812V29.9004H224.062ZM244.673 7.64039H248.423V29.9004H244.823V27.8304C243.563 29.3604 241.703 30.1104 239.513 30.1104C234.863 30.1104 231.413 26.8704 231.413 21.8904C231.413 16.9104 234.863 13.7004 239.513 13.7004C241.583 13.7004 243.413 14.3904 244.673 15.8604V7.64039ZM239.963 26.9004C242.663 26.9004 244.733 24.9504 244.733 21.8904C244.733 18.8304 242.663 16.8804 239.963 16.8804C237.263 16.8804 235.193 18.8304 235.193 21.8904C235.193 24.9504 237.263 26.9004 239.963 26.9004ZM262.419 13.7004C266.259 13.7004 269.109 15.8904 269.109 20.7204V29.9004H265.359V21.2004C265.359 18.3504 263.949 16.9704 261.549 16.9704C258.879 16.9704 257.079 18.5904 257.079 21.8004V29.9004H253.329V13.8804H256.899V15.9504C258.129 14.4804 260.079 13.7004 262.419 13.7004ZM273.326 17.2104L273.086 8.90039H276.326L276.056 17.2104H273.326ZM289.038 26.3604L290.088 29.0304C289.188 29.7504 287.838 30.1104 286.488 30.1104C282.978 30.1104 280.968 28.2504 280.968 24.7104V17.0004H278.328V14.0004H280.968V10.3404H284.718V14.0004H289.008V17.0004H284.718V24.6204C284.718 26.1804 285.498 27.0204 286.938 27.0204C287.718 27.0204 288.468 26.8104 289.038 26.3604ZM307.974 10.4604C306.414 10.4604 305.604 11.3304 305.604 13.0404V14.0004H310.014V17.0004H305.724V29.9004H301.974V17.0004H299.334V14.0004H301.974V12.9804C301.974 9.62039 303.984 7.43039 307.704 7.43039C308.994 7.43039 310.254 7.70039 311.094 8.30039L310.044 11.1204C309.474 10.7304 308.754 10.4604 307.974 10.4604ZM327.364 21.9804C327.364 22.2804 327.334 22.7304 327.304 23.0904H314.734C315.184 25.4304 317.134 26.9304 319.924 26.9304C321.724 26.9304 323.134 26.3604 324.274 25.1904L326.284 27.5004C324.844 29.2104 322.594 30.1104 319.834 30.1104C314.464 30.1104 310.984 26.6604 310.984 21.8904C310.984 17.1204 314.494 13.7004 319.264 13.7004C323.944 13.7004 327.364 16.9704 327.364 21.9804ZM319.264 16.7004C316.834 16.7004 315.064 18.2604 314.704 20.6004H323.794C323.494 18.2904 321.724 16.7004 319.264 16.7004ZM346.026 21.9804C346.026 22.2804 345.996 22.7304 345.966 23.0904H333.396C333.846 25.4304 335.796 26.9304 338.586 26.9304C340.386 26.9304 341.796 26.3604 342.936 25.1904L344.946 27.5004C343.506 29.2104 341.256 30.1104 338.496 30.1104C333.126 30.1104 329.646 26.6604 329.646 21.8904C329.646 17.1204 333.156 13.7004 337.926 13.7004C342.606 13.7004 346.026 16.9704 346.026 21.9804ZM337.926 16.7004C335.496 16.7004 333.726 18.2604 333.366 20.6004H342.456C342.156 18.2904 340.386 16.7004 337.926 16.7004ZM349.628 29.9004V7.64039H353.378V29.9004H349.628ZM366.591 29.9004V7.64039H370.341V29.9004H366.591ZM377.153 11.2404C375.773 11.2404 374.753 10.2504 374.753 8.99039C374.753 7.73039 375.773 6.74039 377.153 6.74039C378.533 6.74039 379.553 7.67039 379.553 8.90039C379.553 10.2204 378.563 11.2404 377.153 11.2404ZM375.263 29.9004V13.8804H379.013V29.9004H375.263ZM396.025 29.9004L390.475 23.0304L387.685 25.6704V29.9004H383.935V7.64039H387.685V21.0804L395.455 13.8804H399.955L393.265 20.6004L400.585 29.9004H396.025ZM417.393 21.9804C417.393 22.2804 417.363 22.7304 417.333 23.0904H404.763C405.213 25.4304 407.163 26.9304 409.953 26.9304C411.753 26.9304 413.163 26.3604 414.303 25.1904L416.313 27.5004C414.873 29.2104 412.623 30.1104 409.863 30.1104C404.493 30.1104 401.013 26.6604 401.013 21.8904C401.013 17.1204 404.523 13.7004 409.293 13.7004C413.973 13.7004 417.393 16.9704 417.393 21.9804ZM409.293 16.7004C406.863 16.7004 405.093 18.2604 404.733 20.6004H413.823C413.523 18.2904 411.753 16.7004 409.293 16.7004ZM435.406 13.7004C440.026 13.7004 442.696 15.8904 442.696 20.5104V29.9004H439.156V27.9504C438.256 29.3304 436.516 30.1104 434.116 30.1104C430.456 30.1104 428.146 28.1004 428.146 25.3104C428.146 22.6404 429.946 20.5404 434.806 20.5404H438.946V20.3004C438.946 18.1104 437.626 16.8204 434.956 16.8204C433.156 16.8204 431.296 17.4204 430.096 18.4104L428.626 15.6804C430.336 14.3604 432.826 13.7004 435.406 13.7004ZM434.896 27.3804C436.726 27.3804 438.316 26.5404 438.946 24.8904V23.0304H435.076C432.526 23.0304 431.836 23.9904 431.836 25.1604C431.836 26.5104 432.976 27.3804 434.896 27.3804ZM463.15 30.1104C458.08 30.1104 454.48 26.6904 454.48 21.8904C454.48 17.0904 458.08 13.7004 463.15 13.7004C466.27 13.7004 468.76 14.9904 469.99 17.4204L467.11 19.1004C466.15 17.5704 464.71 16.8804 463.12 16.8804C460.36 16.8804 458.26 18.8004 458.26 21.8904C458.26 25.0104 460.36 26.9004 463.12 26.9004C464.71 26.9004 466.15 26.2104 467.11 24.6804L469.99 26.3604C468.76 28.7604 466.27 30.1104 463.15 30.1104ZM482.175 13.7004C486.015 13.7004 488.865 15.8904 488.865 20.7204V29.9004H485.115V21.2004C485.115 18.3504 483.705 16.9704 481.305 16.9704C478.635 16.9704 476.835 18.5904 476.835 21.8004V29.9004H473.085V7.64039H476.835V15.7404C478.065 14.4204 479.955 13.7004 482.175 13.7004ZM500.969 30.1104C496.049 30.1104 492.449 26.6904 492.449 21.8904C492.449 17.0904 496.049 13.7004 500.969 13.7004C505.949 13.7004 509.519 17.0904 509.519 21.8904C509.519 26.6904 505.949 30.1104 500.969 30.1104ZM500.969 26.9004C503.699 26.9004 505.739 24.9504 505.739 21.8904C505.739 18.8304 503.699 16.8804 500.969 16.8804C498.269 16.8804 496.229 18.8304 496.229 21.8904C496.229 24.9504 498.269 26.9004 500.969 26.9004ZM516.675 16.2204C517.755 14.5404 519.705 13.7004 522.375 13.7004V17.2704C522.045 17.2104 521.775 17.1804 521.505 17.1804C518.655 17.1804 516.855 18.8604 516.855 22.1304V29.9004H513.105V13.8804H516.675V16.2204ZM540.469 21.9804C540.469 22.2804 540.439 22.7304 540.409 23.0904H527.839C528.289 25.4304 530.239 26.9304 533.029 26.9304C534.829 26.9304 536.239 26.3604 537.379 25.1904L539.389 27.5004C537.949 29.2104 535.699 30.1104 532.939 30.1104C527.569 30.1104 524.089 26.6604 524.089 21.8904C524.089 17.1204 527.599 13.7004 532.369 13.7004C537.049 13.7004 540.469 16.9704 540.469 21.9804ZM532.369 16.7004C529.939 16.7004 528.169 18.2604 527.809 20.6004H536.899C536.599 18.2904 534.829 16.7004 532.369 16.7004ZM544.311 22.9404L543.591 8.90039H548.031L547.281 22.9404H544.311ZM545.811 30.1104C544.401 30.1104 543.381 29.0604 543.381 27.7704C543.381 26.4804 544.401 25.4604 545.811 25.4604C547.191 25.4604 548.181 26.4804 548.181 27.7704C548.181 29.0604 547.191 30.1104 545.811 30.1104ZM579.173 30.2004C572.663 30.2004 567.863 25.6104 567.863 19.4004C567.863 13.1904 572.663 8.60039 579.173 8.60039C585.683 8.60039 590.483 13.1604 590.483 19.4004C590.483 25.6404 585.683 30.2004 579.173 30.2004ZM579.173 26.7804C583.403 26.7804 586.553 23.6904 586.553 19.4004C586.553 15.1104 583.403 12.0204 579.173 12.0204C574.943 12.0204 571.793 15.1104 571.793 19.4004C571.793 23.6904 574.943 26.7804 579.173 26.7804ZM606.017 13.8804H609.767V29.9004H606.197V27.8604C604.997 29.3304 603.107 30.1104 601.037 30.1104C596.927 30.1104 594.137 27.8604 594.137 23.0304V13.8804H597.887V22.5204C597.887 25.4304 599.267 26.8104 601.637 26.8104C604.247 26.8104 606.017 25.1904 606.017 21.9804V13.8804ZM618.247 16.2204C619.327 14.5404 621.277 13.7004 623.947 13.7004V17.2704C623.617 17.2104 623.347 17.1804 623.077 17.1804C620.227 17.1804 618.427 18.8604 618.427 22.1304V29.9004H614.677V13.8804H618.247V16.2204ZM641.685 13.7004C646.305 13.7004 648.975 15.8904 648.975 20.5104V29.9004H645.435V27.9504C644.535 29.3304 642.795 30.1104 640.395 30.1104C636.735 30.1104 634.425 28.1004 634.425 25.3104C634.425 22.6404 636.225 20.5404 641.085 20.5404H645.225V20.3004C645.225 18.1104 643.905 16.8204 641.235 16.8204C639.435 16.8204 637.575 17.4204 636.375 18.4104L634.905 15.6804C636.615 14.3604 639.105 13.7004 641.685 13.7004ZM641.175 27.3804C643.005 27.3804 644.595 26.5404 645.225 24.8904V23.0304H641.355C638.805 23.0304 638.115 23.9904 638.115 25.1604C638.115 26.5104 639.255 27.3804 641.175 27.3804ZM662.668 13.7004C667.348 13.7004 670.798 16.9404 670.798 21.8904C670.798 26.8704 667.348 30.1104 662.668 30.1104C660.628 30.1104 658.828 29.4204 657.538 27.9504V35.7204H653.788V13.8804H657.358V15.9804C658.618 14.4504 660.478 13.7004 662.668 13.7004ZM662.248 26.9004C664.948 26.9004 666.988 24.9504 666.988 21.8904C666.988 18.8304 664.948 16.8804 662.248 16.8804C659.548 16.8804 657.478 18.8304 657.478 21.8904C657.478 24.9504 659.548 26.9004 662.248 26.9004ZM683.235 13.7004C687.915 13.7004 691.365 16.9404 691.365 21.8904C691.365 26.8704 687.915 30.1104 683.235 30.1104C681.195 30.1104 679.395 29.4204 678.105 27.9504V35.7204H674.355V13.8804H677.925V15.9804C679.185 14.4504 681.045 13.7004 683.235 13.7004ZM682.815 26.9004C685.515 26.9004 687.555 24.9504 687.555 21.8904C687.555 18.8304 685.515 16.8804 682.815 16.8804C680.115 16.8804 678.045 18.8304 678.045 21.8904C678.045 24.9504 680.115 26.9004 682.815 26.9004ZM705.102 11.2404C703.722 11.2404 702.702 10.2504 702.702 8.99039C702.702 7.73039 703.722 6.74039 705.102 6.74039C706.482 6.74039 707.502 7.67039 707.502 8.90039C707.502 10.2204 706.512 11.2404 705.102 11.2404ZM703.212 29.9004V13.8804H706.962V29.9004H703.212ZM720.974 13.7004C724.814 13.7004 727.664 15.8904 727.664 20.7204V29.9004H723.914V21.2004C723.914 18.3504 722.504 16.9704 720.104 16.9704C717.434 16.9704 715.634 18.5904 715.634 21.8004V29.9004H711.884V13.8804H715.454V15.9504C716.684 14.4804 718.634 13.7004 720.974 13.7004ZM734.461 11.2404C733.081 11.2404 732.061 10.2504 732.061 8.99039C732.061 7.73039 733.081 6.74039 734.461 6.74039C735.841 6.74039 736.861 7.67039 736.861 8.90039C736.861 10.2204 735.871 11.2404 734.461 11.2404ZM730.771 35.9304C729.391 35.9304 728.041 35.6604 727.171 35.0004L728.251 32.2104C728.821 32.6304 729.601 32.8404 730.441 32.8404C731.821 32.8404 732.601 32.0004 732.601 30.2904V13.8804H736.351V30.2004C736.351 33.7104 734.341 35.9304 730.771 35.9304ZM756.329 21.9804C756.329 22.2804 756.299 22.7304 756.269 23.0904H743.699C744.149 25.4304 746.099 26.9304 748.889 26.9304C750.689 26.9304 752.099 26.3604 753.239 25.1904L755.249 27.5004C753.809 29.2104 751.559 30.1104 748.799 30.1104C743.429 30.1104 739.949 26.6604 739.949 21.8904C739.949 17.1204 743.459 13.7004 748.229 13.7004C752.909 13.7004 756.329 16.9704 756.329 21.9804ZM748.229 16.7004C745.799 16.7004 744.029 18.2604 743.669 20.6004H752.759C752.459 18.2904 750.689 16.7004 748.229 16.7004ZM767.281 30.1104C762.211 30.1104 758.611 26.6904 758.611 21.8904C758.611 17.0904 762.211 13.7004 767.281 13.7004C770.401 13.7004 772.891 14.9904 774.121 17.4204L771.241 19.1004C770.281 17.5704 768.841 16.8804 767.251 16.8804C764.491 16.8804 762.391 18.8004 762.391 21.8904C762.391 25.0104 764.491 26.9004 767.251 26.9004C768.841 26.9004 770.281 26.2104 771.241 24.6804L774.121 26.3604C772.891 28.7604 770.401 30.1104 767.281 30.1104ZM786.147 26.3604L787.197 29.0304C786.297 29.7504 784.947 30.1104 783.597 30.1104C780.087 30.1104 778.077 28.2504 778.077 24.7104V17.0004H775.437V14.0004H778.077V10.3404H781.827V14.0004H786.117V17.0004H781.827V24.6204C781.827 26.1804 782.607 27.0204 784.047 27.0204C784.827 27.0204 785.577 26.8104 786.147 26.3604ZM795.232 30.1104C792.562 30.1104 789.892 29.3304 788.452 28.3104L789.892 25.4604C791.302 26.3904 793.462 27.0504 795.472 27.0504C797.842 27.0504 798.832 26.3904 798.832 25.2804C798.832 22.2204 788.932 25.1004 788.932 18.7104C788.932 15.6804 791.662 13.7004 795.982 13.7004C798.112 13.7004 800.542 14.2104 801.982 15.0804L800.542 17.9304C799.012 17.0304 797.482 16.7304 795.952 16.7304C793.672 16.7304 792.592 17.4804 792.592 18.5304C792.592 21.7704 802.492 18.8904 802.492 25.1604C802.492 28.1604 799.732 30.1104 795.232 30.1104ZM820.133 13.7004C824.753 13.7004 827.423 15.8904 827.423 20.5104V29.9004H823.883V27.9504C822.983 29.3304 821.243 30.1104 818.843 30.1104C815.183 30.1104 812.873 28.1004 812.873 25.3104C812.873 22.6404 814.673 20.5404 819.533 20.5404H823.673V20.3004C823.673 18.1104 822.353 16.8204 819.683 16.8204C817.883 16.8204 816.023 17.4204 814.823 18.4104L813.353 15.6804C815.063 14.3604 817.553 13.7004 820.133 13.7004ZM819.623 27.3804C821.453 27.3804 823.043 26.5404 823.673 24.8904V23.0304H819.803C817.253 23.0304 816.563 23.9904 816.563 25.1604C816.563 26.5104 817.703 27.3804 819.623 27.3804ZM847.036 10.4604C845.476 10.4604 844.666 11.3304 844.666 13.0404V14.0004H849.076V17.0004H844.786V29.9004H841.036V17.0004H838.396V14.0004H841.036V12.9804C841.036 9.62039 843.046 7.43039 846.766 7.43039C848.056 7.43039 849.316 7.70039 850.156 8.30039L849.106 11.1204C848.536 10.7304 847.816 10.4604 847.036 10.4604ZM863.361 13.8804H867.111V29.9004H863.541V27.8604C862.341 29.3304 860.451 30.1104 858.381 30.1104C854.271 30.1104 851.481 27.8604 851.481 23.0304V13.8804H855.231V22.5204C855.231 25.4304 856.611 26.8104 858.981 26.8104C861.591 26.8104 863.361 25.1904 863.361 21.9804V13.8804ZM881.111 13.7004C884.951 13.7004 887.801 15.8904 887.801 20.7204V29.9004H884.051V21.2004C884.051 18.3504 882.641 16.9704 880.241 16.9704C877.571 16.9704 875.771 18.5904 875.771 21.8004V29.9004H872.021V13.8804H875.591V15.9504C876.821 14.4804 878.771 13.7004 881.111 13.7004ZM893.788 25.1304C895.198 25.1304 896.218 26.1504 896.218 27.6204C896.218 28.2804 896.068 28.8204 895.528 30.2004L893.998 34.4304H891.568L892.768 29.8404C891.928 29.4804 891.358 28.7004 891.358 27.6204C891.358 26.1204 892.408 25.1304 893.788 25.1304ZM9.81 66.1104C4.74 66.1104 1.14 62.6904 1.14 57.8904C1.14 53.0904 4.74 49.7004 9.81 49.7004C12.93 49.7004 15.42 50.9904 16.65 53.4204L13.77 55.1004C12.81 53.5704 11.37 52.8804 9.78 52.8804C7.02 52.8804 4.92 54.8004 4.92 57.8904C4.92 61.0104 7.02 62.9004 9.78 62.9004C11.37 62.9004 12.81 62.2104 13.77 60.6804L16.65 62.3604C15.42 64.7604 12.93 66.1104 9.81 66.1104ZM26.8573 66.1104C21.9373 66.1104 18.3373 62.6904 18.3373 57.8904C18.3373 53.0904 21.9373 49.7004 26.8573 49.7004C31.8373 49.7004 35.4073 53.0904 35.4073 57.8904C35.4073 62.6904 31.8373 66.1104 26.8573 66.1104ZM26.8573 62.9004C29.5873 62.9004 31.6273 60.9504 31.6273 57.8904C31.6273 54.8304 29.5873 52.8804 26.8573 52.8804C24.1573 52.8804 22.1173 54.8304 22.1173 57.8904C22.1173 60.9504 24.1573 62.9004 26.8573 62.9004ZM59.2132 49.7004C63.0832 49.7004 65.7832 51.8904 65.7832 56.7204V65.9004H62.0332V57.2004C62.0332 54.3504 60.7132 52.9704 58.4332 52.9704C55.9732 52.9704 54.2632 54.5904 54.2632 57.7704V65.9004H50.5132V57.2004C50.5132 54.3504 49.1932 52.9704 46.9132 52.9704C44.4232 52.9704 42.7432 54.5904 42.7432 57.7704V65.9004H38.9932V49.8804H42.5632V51.9204C43.7632 50.4804 45.6232 49.7004 47.8132 49.7004C50.1532 49.7004 52.1032 50.5704 53.2132 52.3704C54.5032 50.7204 56.6632 49.7004 59.2132 49.7004ZM79.4552 49.7004C84.1352 49.7004 87.5852 52.9404 87.5852 57.8904C87.5852 62.8704 84.1352 66.1104 79.4552 66.1104C77.4152 66.1104 75.6152 65.4204 74.3252 63.9504V71.7204H70.5752V49.8804H74.1452V51.9804C75.4052 50.4504 77.2652 49.7004 79.4552 49.7004ZM79.0352 62.9004C81.7352 62.9004 83.7752 60.9504 83.7752 57.8904C83.7752 54.8304 81.7352 52.8804 79.0352 52.8804C76.3352 52.8804 74.2652 54.8304 74.2652 57.8904C74.2652 60.9504 76.3352 62.9004 79.0352 62.9004ZM106.202 57.9804C106.202 58.2804 106.172 58.7304 106.142 59.0904H93.5716C94.0216 61.4304 95.9716 62.9304 98.7616 62.9304C100.562 62.9304 101.972 62.3604 103.112 61.1904L105.122 63.5004C103.682 65.2104 101.432 66.1104 98.6716 66.1104C93.3016 66.1104 89.8216 62.6604 89.8216 57.8904C89.8216 53.1204 93.3316 49.7004 98.1016 49.7004C102.782 49.7004 106.202 52.9704 106.202 57.9804ZM98.1016 52.7004C95.6716 52.7004 93.9016 54.2604 93.5416 56.6004H102.632C102.332 54.2904 100.562 52.7004 98.1016 52.7004ZM118.384 62.3604L119.434 65.0304C118.534 65.7504 117.184 66.1104 115.834 66.1104C112.324 66.1104 110.314 64.2504 110.314 60.7104V53.0004H107.674V50.0004H110.314V46.3404H114.064V50.0004H118.354V53.0004H114.064V60.6204C114.064 62.1804 114.844 63.0204 116.284 63.0204C117.064 63.0204 117.814 62.8104 118.384 62.3604ZM124.409 47.2404C123.029 47.2404 122.009 46.2504 122.009 44.9904C122.009 43.7304 123.029 42.7404 124.409 42.7404C125.789 42.7404 126.809 43.6704 126.809 44.9004C126.809 46.2204 125.819 47.2404 124.409 47.2404ZM122.519 65.9004V49.8804H126.269V65.9004H122.519ZM139.77 62.3604L140.82 65.0304C139.92 65.7504 138.57 66.1104 137.22 66.1104C133.71 66.1104 131.7 64.2504 131.7 60.7104V53.0004H129.06V50.0004H131.7V46.3404H135.45V50.0004H139.74V53.0004H135.45V60.6204C135.45 62.1804 136.23 63.0204 137.67 63.0204C138.45 63.0204 139.2 62.8104 139.77 62.3604ZM145.795 47.2404C144.415 47.2404 143.395 46.2504 143.395 44.9904C143.395 43.7304 144.415 42.7404 145.795 42.7404C147.175 42.7404 148.195 43.6704 148.195 44.9004C148.195 46.2204 147.205 47.2404 145.795 47.2404ZM143.905 65.9004V49.8804H147.655V65.9004H143.905ZM163.977 49.8804H167.577L160.707 65.9004H156.837L149.967 49.8804H153.867L158.847 61.7604L163.977 49.8804ZM184.541 57.9804C184.541 58.2804 184.511 58.7304 184.481 59.0904H171.911C172.361 61.4304 174.311 62.9304 177.101 62.9304C178.901 62.9304 180.311 62.3604 181.451 61.1904L183.461 63.5004C182.021 65.2104 179.771 66.1104 177.011 66.1104C171.641 66.1104 168.161 62.6604 168.161 57.8904C168.161 53.1204 171.671 49.7004 176.441 49.7004C181.121 49.7004 184.541 52.9704 184.541 57.9804ZM176.441 52.7004C174.011 52.7004 172.241 54.2604 171.881 56.6004H180.971C180.671 54.2904 178.901 52.7004 176.441 52.7004ZM211.495 57.9804C211.495 58.2804 211.465 58.7304 211.435 59.0904H198.865C199.315 61.4304 201.265 62.9304 204.055 62.9304C205.855 62.9304 207.265 62.3604 208.405 61.1904L210.415 63.5004C208.975 65.2104 206.725 66.1104 203.965 66.1104C198.595 66.1104 195.115 62.6604 195.115 57.8904C195.115 53.1204 198.625 49.7004 203.395 49.7004C208.075 49.7004 211.495 52.9704 211.495 57.9804ZM203.395 52.7004C200.965 52.7004 199.195 54.2604 198.835 56.6004H207.925C207.625 54.2904 205.855 52.7004 203.395 52.7004ZM215.097 65.9004V43.6404H218.847V65.9004H215.097ZM238.829 57.9804C238.829 58.2804 238.799 58.7304 238.769 59.0904H226.199C226.649 61.4304 228.599 62.9304 231.389 62.9304C233.189 62.9304 234.599 62.3604 235.739 61.1904L237.749 63.5004C236.309 65.2104 234.059 66.1104 231.299 66.1104C225.929 66.1104 222.449 62.6604 222.449 57.8904C222.449 53.1204 225.959 49.7004 230.729 49.7004C235.409 49.7004 238.829 52.9704 238.829 57.9804ZM230.729 52.7004C228.299 52.7004 226.529 54.2604 226.169 56.6004H235.259C234.959 54.2904 233.189 52.7004 230.729 52.7004ZM262.651 49.7004C266.521 49.7004 269.221 51.8904 269.221 56.7204V65.9004H265.471V57.2004C265.471 54.3504 264.151 52.9704 261.871 52.9704C259.411 52.9704 257.701 54.5904 257.701 57.7704V65.9004H253.951V57.2004C253.951 54.3504 252.631 52.9704 250.351 52.9704C247.861 52.9704 246.181 54.5904 246.181 57.7704V65.9004H242.431V49.8804H246.001V51.9204C247.201 50.4804 249.061 49.7004 251.251 49.7004C253.591 49.7004 255.541 50.5704 256.651 52.3704C257.941 50.7204 260.101 49.7004 262.651 49.7004ZM289.219 57.9804C289.219 58.2804 289.189 58.7304 289.159 59.0904H276.589C277.039 61.4304 278.989 62.9304 281.779 62.9304C283.579 62.9304 284.989 62.3604 286.129 61.1904L288.139 63.5004C286.699 65.2104 284.449 66.1104 281.689 66.1104C276.319 66.1104 272.839 62.6604 272.839 57.8904C272.839 53.1204 276.349 49.7004 281.119 49.7004C285.799 49.7004 289.219 52.9704 289.219 57.9804ZM281.119 52.7004C278.689 52.7004 276.919 54.2604 276.559 56.6004H285.649C285.349 54.2904 283.579 52.7004 281.119 52.7004ZM301.911 49.7004C305.751 49.7004 308.601 51.8904 308.601 56.7204V65.9004H304.851V57.2004C304.851 54.3504 303.441 52.9704 301.041 52.9704C298.371 52.9704 296.571 54.5904 296.571 57.8004V65.9004H292.821V49.8804H296.391V51.9504C297.621 50.4804 299.571 49.7004 301.911 49.7004ZM321.938 62.3604L322.988 65.0304C322.088 65.7504 320.738 66.1104 319.388 66.1104C315.878 66.1104 313.868 64.2504 313.868 60.7104V53.0004H311.228V50.0004H313.868V46.3404H317.618V50.0004H321.908V53.0004H317.618V60.6204C317.618 62.1804 318.398 63.0204 319.838 63.0204C320.618 63.0204 321.368 62.8104 321.938 62.3604ZM356.024 49.8804H359.354L353.444 65.9004H349.844L345.704 54.8604L341.504 65.9004H337.904L332.024 49.8804H335.564L339.794 61.7004L344.204 49.8804H347.354L351.674 61.7604L356.024 49.8804ZM363.823 47.2404C362.443 47.2404 361.423 46.2504 361.423 44.9904C361.423 43.7304 362.443 42.7404 363.823 42.7404C365.203 42.7404 366.223 43.6704 366.223 44.9004C366.223 46.2204 365.233 47.2404 363.823 47.2404ZM361.933 65.9004V49.8804H365.683V65.9004H361.933ZM379.185 62.3604L380.235 65.0304C379.335 65.7504 377.985 66.1104 376.635 66.1104C373.125 66.1104 371.115 64.2504 371.115 60.7104V53.0004H368.475V50.0004H371.115V46.3404H374.865V50.0004H379.155V53.0004H374.865V60.6204C374.865 62.1804 375.645 63.0204 377.085 63.0204C377.865 63.0204 378.615 62.8104 379.185 62.3604ZM392.409 49.7004C396.249 49.7004 399.099 51.8904 399.099 56.7204V65.9004H395.349V57.2004C395.349 54.3504 393.939 52.9704 391.539 52.9704C388.869 52.9704 387.069 54.5904 387.069 57.8004V65.9004H383.319V43.6404H387.069V51.7404C388.299 50.4204 390.189 49.7004 392.409 49.7004ZM421.028 49.7004C425.708 49.7004 429.158 52.9404 429.158 57.8904C429.158 62.8704 425.708 66.1104 421.028 66.1104C418.988 66.1104 417.188 65.4204 415.898 63.9504V71.7204H412.148V49.8804H415.718V51.9804C416.978 50.4504 418.838 49.7004 421.028 49.7004ZM420.608 62.9004C423.308 62.9004 425.348 60.9504 425.348 57.8904C425.348 54.8304 423.308 52.8804 420.608 52.8804C417.908 52.8804 415.838 54.8304 415.838 57.8904C415.838 60.9504 417.908 62.9004 420.608 62.9004ZM439.914 66.1104C434.994 66.1104 431.394 62.6904 431.394 57.8904C431.394 53.0904 434.994 49.7004 439.914 49.7004C444.894 49.7004 448.464 53.0904 448.464 57.8904C448.464 62.6904 444.894 66.1104 439.914 66.1104ZM439.914 62.9004C442.644 62.9004 444.684 60.9504 444.684 57.8904C444.684 54.8304 442.644 52.8804 439.914 52.8804C437.214 52.8804 435.174 54.8304 435.174 57.8904C435.174 60.9504 437.214 62.9004 439.914 62.9004ZM453.94 47.2404C452.56 47.2404 451.54 46.2504 451.54 44.9904C451.54 43.7304 452.56 42.7404 453.94 42.7404C455.32 42.7404 456.34 43.6704 456.34 44.9004C456.34 46.2204 455.35 47.2404 453.94 47.2404ZM452.05 65.9004V49.8804H455.8V65.9004H452.05ZM469.812 49.7004C473.652 49.7004 476.502 51.8904 476.502 56.7204V65.9004H472.752V57.2004C472.752 54.3504 471.342 52.9704 468.942 52.9704C466.272 52.9704 464.472 54.5904 464.472 57.8004V65.9004H460.722V49.8804H464.292V51.9504C465.522 50.4804 467.472 49.7004 469.812 49.7004ZM489.839 62.3604L490.889 65.0304C489.989 65.7504 488.639 66.1104 487.289 66.1104C483.779 66.1104 481.769 64.2504 481.769 60.7104V53.0004H479.129V50.0004H481.769V46.3404H485.519V50.0004H489.809V53.0004H485.519V60.6204C485.519 62.1804 486.299 63.0204 487.739 63.0204C488.519 63.0204 489.269 62.8104 489.839 62.3604ZM498.924 66.1104C496.254 66.1104 493.584 65.3304 492.144 64.3104L493.584 61.4604C494.994 62.3904 497.154 63.0504 499.164 63.0504C501.534 63.0504 502.524 62.3904 502.524 61.2804C502.524 58.2204 492.624 61.1004 492.624 54.7104C492.624 51.6804 495.354 49.7004 499.674 49.7004C501.804 49.7004 504.234 50.2104 505.674 51.0804L504.234 53.9304C502.704 53.0304 501.174 52.7304 499.644 52.7304C497.364 52.7304 496.284 53.4804 496.284 54.5304C496.284 57.7704 506.184 54.8904 506.184 61.1604C506.184 64.1604 503.424 66.1104 498.924 66.1104ZM523.824 49.7004C528.444 49.7004 531.114 51.8904 531.114 56.5104V65.9004H527.574V63.9504C526.674 65.3304 524.934 66.1104 522.534 66.1104C518.874 66.1104 516.564 64.1004 516.564 61.3104C516.564 58.6404 518.364 56.5404 523.224 56.5404H527.364V56.3004C527.364 54.1104 526.044 52.8204 523.374 52.8204C521.574 52.8204 519.714 53.4204 518.514 54.4104L517.044 51.6804C518.754 50.3604 521.244 49.7004 523.824 49.7004ZM523.314 63.3804C525.144 63.3804 526.734 62.5404 527.364 60.8904V59.0304H523.494C520.944 59.0304 520.254 59.9904 520.254 61.1604C520.254 62.5104 521.394 63.3804 523.314 63.3804ZM545.017 49.7004C548.857 49.7004 551.707 51.8904 551.707 56.7204V65.9004H547.957V57.2004C547.957 54.3504 546.547 52.9704 544.147 52.9704C541.477 52.9704 539.677 54.5904 539.677 57.8004V65.9004H535.927V49.8804H539.497V51.9504C540.727 50.4804 542.677 49.7004 545.017 49.7004ZM568.55 43.6404H572.3V65.9004H568.7V63.8304C567.44 65.3604 565.58 66.1104 563.39 66.1104C558.74 66.1104 555.29 62.8704 555.29 57.8904C555.29 52.9104 558.74 49.7004 563.39 49.7004C565.46 49.7004 567.29 50.3904 568.55 51.8604V43.6404ZM563.84 62.9004C566.54 62.9004 568.61 60.9504 568.61 57.8904C568.61 54.8304 566.54 52.8804 563.84 52.8804C561.14 52.8804 559.07 54.8304 559.07 57.8904C559.07 60.9504 561.14 62.9004 563.84 62.9004ZM585.497 65.9004V43.6404H589.247V65.9004H585.497ZM609.229 57.9804C609.229 58.2804 609.199 58.7304 609.169 59.0904H596.599C597.049 61.4304 598.999 62.9304 601.789 62.9304C603.589 62.9304 604.999 62.3604 606.139 61.1904L608.149 63.5004C606.709 65.2104 604.459 66.1104 601.699 66.1104C596.329 66.1104 592.849 62.6604 592.849 57.8904C592.849 53.1204 596.359 49.7004 601.129 49.7004C605.809 49.7004 609.229 52.9704 609.229 57.9804ZM601.129 52.7004C598.699 52.7004 596.929 54.2604 596.569 56.6004H605.659C605.359 54.2904 603.589 52.7004 601.129 52.7004ZM623.938 49.8804H627.538L620.668 65.9004H616.798L609.928 49.8804H613.828L618.808 61.7604L623.938 49.8804ZM644.502 57.9804C644.502 58.2804 644.472 58.7304 644.442 59.0904H631.872C632.322 61.4304 634.272 62.9304 637.062 62.9304C638.862 62.9304 640.272 62.3604 641.412 61.1904L643.422 63.5004C641.982 65.2104 639.732 66.1104 636.972 66.1104C631.602 66.1104 628.122 62.6604 628.122 57.8904C628.122 53.1204 631.632 49.7004 636.402 49.7004C641.082 49.7004 644.502 52.9704 644.502 57.9804ZM636.402 52.7004C633.972 52.7004 632.202 54.2604 631.842 56.6004H640.932C640.632 54.2904 638.862 52.7004 636.402 52.7004ZM648.105 65.9004V43.6404H651.855V65.9004H648.105ZM661.726 66.1104C659.056 66.1104 656.386 65.3304 654.946 64.3104L656.386 61.4604C657.796 62.3904 659.956 63.0504 661.966 63.0504C664.336 63.0504 665.326 62.3904 665.326 61.2804C665.326 58.2204 655.426 61.1004 655.426 54.7104C655.426 51.6804 658.156 49.7004 662.476 49.7004C664.606 49.7004 667.036 50.2104 668.476 51.0804L667.036 53.9304C665.506 53.0304 663.976 52.7304 662.446 52.7304C660.166 52.7304 659.086 53.4804 659.086 54.5304C659.086 57.7704 668.986 54.8904 668.986 61.1604C668.986 64.1604 666.226 66.1104 661.726 66.1104Z" fill="#5B437D"/>
</svg>
