<svg width="499" height="127" viewBox="0 0 499 127" fill="none" xmlns="http://www.w3.org/2000/svg">
<path d="M5.124 20.1602V7.28716H0.084V5.46016H12.243V7.28716H7.203V20.1602H5.124ZM20.1792 8.92516C22.8882 8.92516 24.7992 10.4792 24.7992 13.7552V20.1602H22.7832V13.9862C22.7832 11.8022 21.6912 10.7312 19.7802 10.7312C17.6382 10.7312 16.2522 12.0122 16.2522 14.4272V20.1602H14.2362V4.57816H16.2522V10.6052C17.0922 9.53416 18.4782 8.92516 20.1792 8.92516ZM38.6507 14.6582C38.6507 14.8262 38.6297 15.0782 38.6087 15.2672H29.5787C29.8307 17.2202 31.4057 18.5222 33.6107 18.5222C34.9127 18.5222 36.0047 18.0812 36.8237 17.1782L37.9367 18.4802C36.9287 19.6562 35.3957 20.2862 33.5477 20.2862C29.9567 20.2862 27.5627 17.9132 27.5627 14.5952C27.5627 11.2982 29.9357 8.92516 33.1487 8.92516C36.3617 8.92516 38.6507 11.2352 38.6507 14.6582ZM33.1487 10.6262C31.2167 10.6262 29.7887 11.9282 29.5787 13.8182H36.7187C36.5087 11.9492 35.1017 10.6262 33.1487 10.6262ZM55.5737 4.57816H57.5897V20.1602H55.6577V18.3962C54.7547 19.6562 53.3267 20.2862 51.6887 20.2862C48.4337 20.2862 46.0607 17.9972 46.0607 14.5952C46.0607 11.1932 48.4337 8.92516 51.6887 8.92516C53.2637 8.92516 54.6497 9.51316 55.5737 10.7102V4.57816ZM51.8567 18.5222C53.9777 18.5222 55.5947 16.9682 55.5947 14.5952C55.5947 12.2222 53.9777 10.6892 51.8567 10.6892C49.7147 10.6892 48.0977 12.2222 48.0977 14.5952C48.0977 16.9682 49.7147 18.5222 51.8567 18.5222ZM65.4572 8.92516C68.5022 8.92516 70.2242 10.3952 70.2242 13.4402V20.1602H68.3132V18.6902C67.6412 19.6982 66.4022 20.2862 64.6592 20.2862C62.1392 20.2862 60.5432 18.9422 60.5432 17.0102C60.5432 15.2252 61.6982 13.7552 65.0162 13.7552H68.2082V13.3562C68.2082 11.6552 67.2212 10.6682 65.2262 10.6682C63.9032 10.6682 62.5592 11.1302 61.6982 11.8652L60.8582 10.3532C62.0132 9.42916 63.6722 8.92516 65.4572 8.92516ZM64.9952 18.7322C66.5072 18.7322 67.7042 18.0392 68.2082 16.7582V15.2042H65.1002C63.1052 15.2042 62.5382 15.9812 62.5382 16.9262C62.5382 18.0392 63.4622 18.7322 64.9952 18.7322ZM74.9629 6.88816C74.1859 6.88816 73.5979 6.32116 73.5979 5.58616C73.5979 4.85116 74.1859 4.26316 74.9629 4.26316C75.7399 4.26316 76.3279 4.83016 76.3279 5.54416C76.3279 6.30016 75.7609 6.88816 74.9629 6.88816ZM73.9549 20.1602V9.03016H75.9709V20.1602H73.9549ZM79.8202 20.1602V4.57816H81.8362V20.1602H79.8202ZM93.5604 9.03016H95.5344L90.1374 21.2732C89.1504 23.6252 87.8694 24.3602 86.1684 24.3602C85.0974 24.3602 84.0054 24.0032 83.3124 23.3312L84.1734 21.8192C84.7194 22.3442 85.4124 22.6382 86.1684 22.6382C87.1344 22.6382 87.7434 22.1972 88.2894 20.9162L88.6464 20.1392L83.7324 9.03016H85.8324L89.7174 17.9342L93.5604 9.03016ZM111.792 9.03016H113.703V18.6482C113.703 22.5752 111.708 24.3602 107.928 24.3602C105.891 24.3602 103.833 23.7932 102.615 22.7012L103.581 21.1472C104.61 22.0292 106.227 22.5962 107.865 22.5962C110.49 22.5962 111.687 21.3782 111.687 18.8582V17.9762C110.721 19.1312 109.272 19.6982 107.676 19.6982C104.463 19.6982 102.027 17.5142 102.027 14.3012C102.027 11.0882 104.463 8.92516 107.676 8.92516C109.335 8.92516 110.847 9.53416 111.792 10.7522V9.03016ZM107.907 17.9342C110.133 17.9342 111.729 16.4432 111.729 14.3012C111.729 12.1382 110.133 10.6892 107.907 10.6892C105.66 10.6892 104.064 12.1382 104.064 14.3012C104.064 16.4432 105.66 17.9342 107.907 17.9342ZM119.487 10.8992C120.201 9.59716 121.587 8.92516 123.54 8.92516V10.8782C123.372 10.8572 123.225 10.8572 123.078 10.8572C120.915 10.8572 119.571 12.1802 119.571 14.6162V20.1602H117.555V9.03016H119.487V10.8992ZM130.689 20.2862C127.35 20.2862 124.893 17.9132 124.893 14.5952C124.893 11.2772 127.35 8.92516 130.689 8.92516C134.028 8.92516 136.464 11.2772 136.464 14.5952C136.464 17.9132 134.028 20.2862 130.689 20.2862ZM130.689 18.5222C132.831 18.5222 134.427 16.9682 134.427 14.5952C134.427 12.2222 132.831 10.6892 130.689 10.6892C128.547 10.6892 126.93 12.2222 126.93 14.5952C126.93 16.9682 128.547 18.5222 130.689 18.5222ZM153.98 9.03016H155.786L151.628 20.1602H149.696L146.483 11.7182L143.228 20.1602H141.296L137.159 9.03016H139.07L142.304 17.8922L145.664 9.03016H147.365L150.662 17.9342L153.98 9.03016ZM163.768 18.0602L164.398 19.5092C163.789 20.0342 162.865 20.2862 161.962 20.2862C159.715 20.2862 158.434 19.0472 158.434 16.8002V10.6892H156.544V9.03016H158.434V6.59416H160.45V9.03016H163.642V10.6892H160.45V16.7162C160.45 17.9132 161.08 18.5852 162.193 18.5852C162.781 18.5852 163.348 18.3962 163.768 18.0602ZM172.778 8.92516C175.487 8.92516 177.398 10.4792 177.398 13.7552V20.1602H175.382V13.9862C175.382 11.8022 174.29 10.7312 172.379 10.7312C170.237 10.7312 168.851 12.0122 168.851 14.4272V20.1602H166.835V4.57816H168.851V10.6052C169.691 9.53416 171.077 8.92516 172.778 8.92516ZM200.691 8.92516C203.4 8.92516 205.248 10.4792 205.248 13.7552V20.1602H203.232V13.9862C203.232 11.8022 202.182 10.7312 200.355 10.7312C198.339 10.7312 197.016 12.0122 197.016 14.4272V20.1602H195V13.9862C195 11.8022 193.95 10.7312 192.123 10.7312C190.107 10.7312 188.784 12.0122 188.784 14.4272V20.1602H186.768V9.03016H188.7V10.6892C189.498 9.55516 190.863 8.92516 192.543 8.92516C194.244 8.92516 195.672 9.59716 196.407 10.9832C197.247 9.72316 198.801 8.92516 200.691 8.92516ZM219.078 14.6582C219.078 14.8262 219.057 15.0782 219.036 15.2672H210.006C210.258 17.2202 211.833 18.5222 214.038 18.5222C215.34 18.5222 216.432 18.0812 217.251 17.1782L218.364 18.4802C217.356 19.6562 215.823 20.2862 213.975 20.2862C210.384 20.2862 207.99 17.9132 207.99 14.5952C207.99 11.2982 210.363 8.92516 213.576 8.92516C216.789 8.92516 219.078 11.2352 219.078 14.6582ZM213.576 10.6262C211.644 10.6262 210.216 11.9282 210.006 13.8182H217.146C216.936 11.9492 215.529 10.6262 213.576 10.6262ZM227.506 18.0602L228.136 19.5092C227.527 20.0342 226.603 20.2862 225.7 20.2862C223.453 20.2862 222.172 19.0472 222.172 16.8002V10.6892H220.282V9.03016H222.172V6.59416H224.188V9.03016H227.38V10.6892H224.188V16.7162C224.188 17.9132 224.818 18.5852 225.931 18.5852C226.519 18.5852 227.086 18.3962 227.506 18.0602ZM240.263 14.6582C240.263 14.8262 240.242 15.0782 240.221 15.2672H231.191C231.443 17.2202 233.018 18.5222 235.223 18.5222C236.525 18.5222 237.617 18.0812 238.436 17.1782L239.549 18.4802C238.541 19.6562 237.008 20.2862 235.16 20.2862C231.569 20.2862 229.175 17.9132 229.175 14.5952C229.175 11.2982 231.548 8.92516 234.761 8.92516C237.974 8.92516 240.263 11.2352 240.263 14.6582ZM234.761 10.6262C232.829 10.6262 231.401 11.9282 231.191 13.8182H238.331C238.121 11.9492 236.714 10.6262 234.761 10.6262ZM244.994 10.8992C245.708 9.59716 247.094 8.92516 249.047 8.92516V10.8782C248.879 10.8572 248.732 10.8572 248.585 10.8572C246.422 10.8572 245.078 12.1802 245.078 14.6162V20.1602H243.062V9.03016H244.994V10.8992ZM258.323 6.88816C257.546 6.88816 256.958 6.32116 256.958 5.58616C256.958 4.85116 257.546 4.26316 258.323 4.26316C259.1 4.26316 259.688 4.83016 259.688 5.54416C259.688 6.30016 259.121 6.88816 258.323 6.88816ZM257.315 20.1602V9.03016H259.331V20.1602H257.315ZM266.373 20.2862C264.525 20.2862 262.698 19.7192 261.774 18.9842L262.614 17.3882C263.559 18.0602 265.071 18.5432 266.52 18.5432C268.389 18.5432 269.166 17.9762 269.166 17.0312C269.166 14.5322 262.131 16.6952 262.131 12.2642C262.131 10.2692 263.916 8.92516 266.772 8.92516C268.221 8.92516 269.859 9.30316 270.825 9.93316L269.964 11.5292C268.956 10.8782 267.843 10.6472 266.751 10.6472C264.987 10.6472 264.126 11.2982 264.126 12.1802C264.126 14.8052 271.182 12.6632 271.182 16.9892C271.182 19.0052 269.334 20.2862 266.373 20.2862ZM287.216 9.03016H289.19L283.793 21.2732C282.806 23.6252 281.525 24.3602 279.824 24.3602C278.753 24.3602 277.661 24.0032 276.968 23.3312L277.829 21.8192C278.375 22.3442 279.068 22.6382 279.824 22.6382C280.79 22.6382 281.399 22.1972 281.945 20.9162L282.302 20.1392L277.388 9.03016H279.488L283.373 17.9342L287.216 9.03016ZM295.531 20.2862C292.192 20.2862 289.735 17.9132 289.735 14.5952C289.735 11.2772 292.192 8.92516 295.531 8.92516C298.87 8.92516 301.306 11.2772 301.306 14.5952C301.306 17.9132 298.87 20.2862 295.531 20.2862ZM295.531 18.5222C297.673 18.5222 299.269 16.9682 299.269 14.5952C299.269 12.2222 297.673 10.6892 295.531 10.6892C293.389 10.6892 291.772 12.2222 291.772 14.5952C291.772 16.9682 293.389 18.5222 295.531 18.5222ZM312.452 9.03016H314.468V20.1602H312.557V18.4802C311.738 19.6352 310.352 20.2862 308.777 20.2862C305.9 20.2862 303.989 18.7112 303.989 15.4352V9.03016H306.005V15.2042C306.005 17.3882 307.097 18.4802 309.008 18.4802C311.108 18.4802 312.452 17.1782 312.452 14.7842V9.03016ZM320.238 10.8992C320.952 9.59716 322.338 8.92516 324.291 8.92516V10.8782C324.123 10.8572 323.976 10.8572 323.829 10.8572C321.666 10.8572 320.322 12.1802 320.322 14.6162V20.1602H318.306V9.03016H320.238V10.8992ZM341.042 4.57816H343.058V20.1602H341.126V18.3962C340.223 19.6562 338.795 20.2862 337.157 20.2862C333.902 20.2862 331.529 17.9972 331.529 14.5952C331.529 11.1932 333.902 8.92516 337.157 8.92516C338.732 8.92516 340.118 9.51316 341.042 10.7102V4.57816ZM337.325 18.5222C339.446 18.5222 341.063 16.9682 341.063 14.5952C341.063 12.2222 339.446 10.6892 337.325 10.6892C335.183 10.6892 333.566 12.2222 333.566 14.5952C333.566 16.9682 335.183 18.5222 337.325 18.5222ZM350.926 8.92516C353.971 8.92516 355.693 10.3952 355.693 13.4402V20.1602H353.782V18.6902C353.11 19.6982 351.871 20.2862 350.128 20.2862C347.608 20.2862 346.012 18.9422 346.012 17.0102C346.012 15.2252 347.167 13.7552 350.485 13.7552H353.677V13.3562C353.677 11.6552 352.69 10.6682 350.695 10.6682C349.372 10.6682 348.028 11.1302 347.167 11.8652L346.327 10.3532C347.482 9.42916 349.141 8.92516 350.926 8.92516ZM350.464 18.7322C351.976 18.7322 353.173 18.0392 353.677 16.7582V15.2042H350.569C348.574 15.2042 348.007 15.9812 348.007 16.9262C348.007 18.0392 348.931 18.7322 350.464 18.7322ZM360.432 6.88816C359.655 6.88816 359.067 6.32116 359.067 5.58616C359.067 4.85116 359.655 4.26316 360.432 4.26316C361.209 4.26316 361.797 4.83016 361.797 5.54416C361.797 6.30016 361.23 6.88816 360.432 6.88816ZM359.424 20.1602V9.03016H361.44V20.1602H359.424ZM365.289 20.1602V4.57816H367.305V20.1602H365.289ZM379.029 9.03016H381.003L375.606 21.2732C374.619 23.6252 373.338 24.3602 371.637 24.3602C370.566 24.3602 369.474 24.0032 368.781 23.3312L369.642 21.8192C370.188 22.3442 370.881 22.6382 371.637 22.6382C372.603 22.6382 373.212 22.1972 373.758 20.9162L374.115 20.1392L369.201 9.03016H371.301L375.186 17.9342L379.029 9.03016ZM391.716 20.2862C389.868 20.2862 388.041 19.7192 387.117 18.9842L387.957 17.3882C388.902 18.0602 390.414 18.5432 391.863 18.5432C393.732 18.5432 394.509 17.9762 394.509 17.0312C394.509 14.5322 387.474 16.6952 387.474 12.2642C387.474 10.2692 389.259 8.92516 392.115 8.92516C393.564 8.92516 395.202 9.30316 396.168 9.93316L395.307 11.5292C394.299 10.8782 393.186 10.6472 392.094 10.6472C390.33 10.6472 389.469 11.2982 389.469 12.1802C389.469 14.8052 396.525 12.6632 396.525 16.9892C396.525 19.0052 394.677 20.2862 391.716 20.2862ZM409.104 14.6582C409.104 14.8262 409.083 15.0782 409.062 15.2672H400.032C400.284 17.2202 401.859 18.5222 404.064 18.5222C405.366 18.5222 406.458 18.0812 407.277 17.1782L408.39 18.4802C407.382 19.6562 405.849 20.2862 404.001 20.2862C400.41 20.2862 398.016 17.9132 398.016 14.5952C398.016 11.2982 400.389 8.92516 403.602 8.92516C406.815 8.92516 409.104 11.2352 409.104 14.6582ZM403.602 10.6262C401.67 10.6262 400.242 11.9282 400.032 13.8182H407.172C406.962 11.9492 405.555 10.6262 403.602 10.6262ZM411.903 20.1602V4.57816H413.919V20.1602H411.903ZM421.842 6.11116C420.645 6.11116 420.036 6.78316 420.036 8.06416V9.03016H423.27V10.6892H420.078V20.1602H418.062V10.6892H416.172V9.03016H418.062V8.04316C418.062 5.88016 419.364 4.45216 421.737 4.45216C422.598 4.45216 423.438 4.66216 424.005 5.10316L423.396 6.63616C422.976 6.32116 422.43 6.11116 421.842 6.11116ZM424.253 15.2672V13.5242H429.902V15.2672H424.253ZM436.198 20.2862C434.35 20.2862 432.523 19.7192 431.599 18.9842L432.439 17.3882C433.384 18.0602 434.896 18.5432 436.345 18.5432C438.214 18.5432 438.991 17.9762 438.991 17.0312C438.991 14.5322 431.956 16.6952 431.956 12.2642C431.956 10.2692 433.741 8.92516 436.597 8.92516C438.046 8.92516 439.684 9.30316 440.65 9.93316L439.789 11.5292C438.781 10.8782 437.668 10.6472 436.576 10.6472C434.812 10.6472 433.951 11.2982 433.951 12.1802C433.951 14.8052 441.007 12.6632 441.007 16.9892C441.007 19.0052 439.159 20.2862 436.198 20.2862ZM449.154 18.0602L449.784 19.5092C449.175 20.0342 448.251 20.2862 447.348 20.2862C445.101 20.2862 443.82 19.0472 443.82 16.8002V10.6892H441.93V9.03016H443.82V6.59416H445.836V9.03016H449.028V10.6892H445.836V16.7162C445.836 17.9132 446.466 18.5852 447.579 18.5852C448.167 18.5852 448.734 18.3962 449.154 18.0602ZM460.58 9.03016H462.596V20.1602H460.685V18.4802C459.866 19.6352 458.48 20.2862 456.905 20.2862C454.028 20.2862 452.117 18.7112 452.117 15.4352V9.03016H454.133V15.2042C454.133 17.3882 455.225 18.4802 457.136 18.4802C459.236 18.4802 460.58 17.1782 460.58 14.7842V9.03016ZM474.917 4.57816H476.933V20.1602H475.001V18.3962C474.098 19.6562 472.67 20.2862 471.032 20.2862C467.777 20.2862 465.404 17.9972 465.404 14.5952C465.404 11.1932 467.777 8.92516 471.032 8.92516C472.607 8.92516 473.993 9.51316 474.917 10.7102V4.57816ZM471.2 18.5222C473.321 18.5222 474.938 16.9682 474.938 14.5952C474.938 12.2222 473.321 10.6892 471.2 10.6892C469.058 10.6892 467.441 12.2222 467.441 14.5952C467.441 16.9682 469.058 18.5222 471.2 18.5222ZM488.623 9.03016H490.597L485.2 21.2732C484.213 23.6252 482.932 24.3602 481.231 24.3602C480.16 24.3602 479.068 24.0032 478.375 23.3312L479.236 21.8192C479.782 22.3442 480.475 22.6382 481.231 22.6382C482.197 22.6382 482.806 22.1972 483.352 20.9162L483.709 20.1392L478.795 9.03016H480.895L484.78 17.9342L488.623 9.03016ZM5.103 45.2862C3.255 45.2862 1.428 44.7192 0.504 43.9842L1.344 42.3882C2.289 43.0602 3.801 43.5432 5.25 43.5432C7.119 43.5432 7.896 42.9762 7.896 42.0312C7.896 39.5322 0.861 41.6952 0.861 37.2642C0.861 35.2692 2.646 33.9252 5.502 33.9252C6.951 33.9252 8.589 34.3032 9.555 34.9332L8.694 36.5292C7.686 35.8782 6.573 35.6472 5.481 35.6472C3.717 35.6472 2.856 36.2982 2.856 37.1802C2.856 39.8052 9.912 37.6632 9.912 41.9892C9.912 44.0052 8.064 45.2862 5.103 45.2862ZM18.3745 33.9252C21.0835 33.9252 22.9945 35.4792 22.9945 38.7552V45.1602H20.9785V38.9862C20.9785 36.8022 19.8865 35.7312 17.9755 35.7312C15.8335 35.7312 14.4475 37.0122 14.4475 39.4272V45.1602H12.4315V34.0302H14.3635V35.7102C15.1825 34.5762 16.6105 33.9252 18.3745 33.9252ZM30.7785 33.9252C33.8235 33.9252 35.5455 35.3952 35.5455 38.4402V45.1602H33.6345V43.6902C32.9625 44.6982 31.7235 45.2862 29.9805 45.2862C27.4605 45.2862 25.8645 43.9422 25.8645 42.0102C25.8645 40.2252 27.0195 38.7552 30.3375 38.7552H33.5295V38.3562C33.5295 36.6552 32.5425 35.6682 30.5475 35.6682C29.2245 35.6682 27.8805 36.1302 27.0195 36.8652L26.1795 35.3532C27.3345 34.4292 28.9935 33.9252 30.7785 33.9252ZM30.3165 43.7322C31.8285 43.7322 33.0255 43.0392 33.5295 41.7582V40.2042H30.4215C28.4265 40.2042 27.8595 40.9812 27.8595 41.9262C27.8595 43.0392 28.7835 43.7322 30.3165 43.7322ZM45.1772 33.9252C48.4322 33.9252 50.8052 36.1932 50.8052 39.5952C50.8052 43.0182 48.4322 45.2862 45.1772 45.2862C43.6022 45.2862 42.2162 44.6772 41.2922 43.4802V49.2342H39.2762V34.0302H41.2082V35.7942C42.1112 34.5552 43.5392 33.9252 45.1772 33.9252ZM45.0092 43.5222C47.1512 43.5222 48.7682 41.9682 48.7682 39.5952C48.7682 37.2432 47.1512 35.6892 45.0092 35.6892C42.8882 35.6892 41.2712 37.2432 41.2712 39.5952C41.2712 41.9682 42.8882 43.5222 45.0092 43.5222ZM56.7827 45.2862C54.9347 45.2862 53.1077 44.7192 52.1837 43.9842L53.0237 42.3882C53.9687 43.0602 55.4807 43.5432 56.9297 43.5432C58.7987 43.5432 59.5757 42.9762 59.5757 42.0312C59.5757 39.5322 52.5407 41.6952 52.5407 37.2642C52.5407 35.2692 54.3257 33.9252 57.1817 33.9252C58.6307 33.9252 60.2687 34.3032 61.2347 34.9332L60.3737 36.5292C59.3657 35.8782 58.2527 35.6472 57.1607 35.6472C55.3967 35.6472 54.5357 36.2982 54.5357 37.1802C54.5357 39.8052 61.5917 37.6632 61.5917 41.9892C61.5917 44.0052 59.7437 45.2862 56.7827 45.2862ZM70.0542 33.9252C72.7632 33.9252 74.6742 35.4792 74.6742 38.7552V45.1602H72.6582V38.9862C72.6582 36.8022 71.5662 35.7312 69.6552 35.7312C67.5132 35.7312 66.1272 37.0122 66.1272 39.4272V45.1602H64.1112V29.5782H66.1272V35.6052C66.9672 34.5342 68.3532 33.9252 70.0542 33.9252ZM83.2337 45.2862C79.8947 45.2862 77.4377 42.9132 77.4377 39.5952C77.4377 36.2772 79.8947 33.9252 83.2337 33.9252C86.5727 33.9252 89.0087 36.2772 89.0087 39.5952C89.0087 42.9132 86.5727 45.2862 83.2337 45.2862ZM83.2337 43.5222C85.3757 43.5222 86.9717 41.9682 86.9717 39.5952C86.9717 37.2222 85.3757 35.6892 83.2337 35.6892C81.0917 35.6892 79.4747 37.2222 79.4747 39.5952C79.4747 41.9682 81.0917 43.5222 83.2337 43.5222ZM97.4247 43.0602L98.0547 44.5092C97.4457 45.0342 96.5217 45.2862 95.6187 45.2862C93.3717 45.2862 92.0907 44.0472 92.0907 41.8002V35.6892H90.2007V34.0302H92.0907V31.5942H94.1067V34.0302H97.2987V35.6892H94.1067V41.7162C94.1067 42.9132 94.7367 43.5852 95.8497 43.5852C96.4377 43.5852 97.0047 43.3962 97.4247 43.0602ZM101.18 45.2862C100.403 45.2862 99.7521 44.6772 99.7521 43.8372C99.7521 42.9972 100.403 42.4092 101.18 42.4092C101.936 42.4092 102.566 42.9972 102.566 43.8372C102.566 44.6772 101.936 45.2862 101.18 45.2862ZM111.389 45.1602V30.4602H113.489V45.1602H111.389ZM123.224 43.0602L123.854 44.5092C123.245 45.0342 122.321 45.2862 121.418 45.2862C119.171 45.2862 117.89 44.0472 117.89 41.8002V35.6892H116V34.0302H117.89V31.5942H119.906V34.0302H123.098V35.6892H119.906V41.7162C119.906 42.9132 120.536 43.5852 121.649 43.5852C122.237 43.5852 122.804 43.3962 123.224 43.0602ZM131.931 45.1602V29.5782H133.947V45.1602H131.931ZM147.855 39.6582C147.855 39.8262 147.834 40.0782 147.813 40.2672H138.783C139.035 42.2202 140.61 43.5222 142.815 43.5222C144.117 43.5222 145.209 43.0812 146.028 42.1782L147.141 43.4802C146.133 44.6562 144.6 45.2862 142.752 45.2862C139.161 45.2862 136.767 42.9132 136.767 39.5952C136.767 36.2982 139.14 33.9252 142.353 33.9252C145.566 33.9252 147.855 36.2352 147.855 39.6582ZM142.353 35.6262C140.421 35.6262 138.993 36.9282 138.783 38.8182H145.923C145.713 36.9492 144.306 35.6262 142.353 35.6262ZM156.282 43.0602L156.912 44.5092C156.303 45.0342 155.379 45.2862 154.476 45.2862C152.229 45.2862 150.948 44.0472 150.948 41.8002V35.6892H149.058V34.0302H150.948V31.5942H152.964V34.0302H156.156V35.6892H152.964V41.7162C152.964 42.9132 153.594 43.5852 154.707 43.5852C155.295 43.5852 155.862 43.3962 156.282 43.0602ZM162.541 45.2862C160.693 45.2862 158.866 44.7192 157.942 43.9842L158.782 42.3882C159.727 43.0602 161.239 43.5432 162.688 43.5432C164.557 43.5432 165.334 42.9762 165.334 42.0312C165.334 39.5322 158.299 41.6952 158.299 37.2642C158.299 35.2692 160.084 33.9252 162.94 33.9252C164.389 33.9252 166.027 34.3032 166.993 34.9332L166.132 36.5292C165.124 35.8782 164.011 35.6472 162.919 35.6472C161.155 35.6472 160.294 36.2982 160.294 37.1802C160.294 39.8052 167.35 37.6632 167.35 41.9892C167.35 44.0052 165.502 45.2862 162.541 45.2862ZM183.385 34.0302H185.359L179.962 46.2732C178.975 48.6252 177.694 49.3602 175.993 49.3602C174.922 49.3602 173.83 49.0032 173.137 48.3312L173.998 46.8192C174.544 47.3442 175.237 47.6382 175.993 47.6382C176.959 47.6382 177.568 47.1972 178.114 45.9162L178.471 45.1392L173.557 34.0302H175.657L179.542 42.9342L183.385 34.0302ZM191.699 45.2862C188.36 45.2862 185.903 42.9132 185.903 39.5952C185.903 36.2772 188.36 33.9252 191.699 33.9252C195.038 33.9252 197.474 36.2772 197.474 39.5952C197.474 42.9132 195.038 45.2862 191.699 45.2862ZM191.699 43.5222C193.841 43.5222 195.437 41.9682 195.437 39.5952C195.437 37.2222 193.841 35.6892 191.699 35.6892C189.557 35.6892 187.94 37.2222 187.94 39.5952C187.94 41.9682 189.557 43.5222 191.699 43.5222ZM208.621 34.0302H210.637V45.1602H208.726V43.4802C207.907 44.6352 206.521 45.2862 204.946 45.2862C202.069 45.2862 200.158 43.7112 200.158 40.4352V34.0302H202.174V40.2042C202.174 42.3882 203.266 43.4802 205.177 43.4802C207.277 43.4802 208.621 42.1782 208.621 39.7842V34.0302ZM223.306 45.2862C221.458 45.2862 219.631 44.7192 218.707 43.9842L219.547 42.3882C220.492 43.0602 222.004 43.5432 223.453 43.5432C225.322 43.5432 226.099 42.9762 226.099 42.0312C226.099 39.5322 219.064 41.6952 219.064 37.2642C219.064 35.2692 220.849 33.9252 223.705 33.9252C225.154 33.9252 226.792 34.3032 227.758 34.9332L226.897 36.5292C225.889 35.8782 224.776 35.6472 223.684 35.6472C221.92 35.6472 221.059 36.2982 221.059 37.1802C221.059 39.8052 228.115 37.6632 228.115 41.9892C228.115 44.0052 226.267 45.2862 223.306 45.2862ZM240.694 39.6582C240.694 39.8262 240.673 40.0782 240.652 40.2672H231.622C231.874 42.2202 233.449 43.5222 235.654 43.5222C236.956 43.5222 238.048 43.0812 238.867 42.1782L239.98 43.4802C238.972 44.6562 237.439 45.2862 235.591 45.2862C232 45.2862 229.606 42.9132 229.606 39.5952C229.606 36.2982 231.979 33.9252 235.192 33.9252C238.405 33.9252 240.694 36.2352 240.694 39.6582ZM235.192 35.6262C233.26 35.6262 231.832 36.9282 231.622 38.8182H238.762C238.552 36.9492 237.145 35.6262 235.192 35.6262ZM253.552 39.6582C253.552 39.8262 253.531 40.0782 253.51 40.2672H244.48C244.732 42.2202 246.307 43.5222 248.512 43.5222C249.814 43.5222 250.906 43.0812 251.725 42.1782L252.838 43.4802C251.83 44.6562 250.297 45.2862 248.449 45.2862C244.858 45.2862 242.464 42.9132 242.464 39.5952C242.464 36.2982 244.837 33.9252 248.05 33.9252C251.263 33.9252 253.552 36.2352 253.552 39.6582ZM248.05 35.6262C246.118 35.6262 244.69 36.9282 244.48 38.8182H251.62C251.41 36.9492 250.003 35.6262 248.05 35.6262ZM272.05 39.6582C272.05 39.8262 272.029 40.0782 272.008 40.2672H262.978C263.23 42.2202 264.805 43.5222 267.01 43.5222C268.312 43.5222 269.404 43.0812 270.223 42.1782L271.336 43.4802C270.328 44.6562 268.795 45.2862 266.947 45.2862C263.356 45.2862 260.962 42.9132 260.962 39.5952C260.962 36.2982 263.335 33.9252 266.548 33.9252C269.761 33.9252 272.05 36.2352 272.05 39.6582ZM266.548 35.6262C264.616 35.6262 263.188 36.9282 262.978 38.8182H270.118C269.908 36.9492 268.501 35.6262 266.548 35.6262ZM283.929 45.1602H281.64L278.427 40.8972L275.172 45.1602H272.925L277.314 39.4692L273.135 34.0302H275.382L278.448 38.0412L281.493 34.0302H283.698L279.498 39.4692L283.929 45.1602ZM289.977 33.9252C293.022 33.9252 294.744 35.3952 294.744 38.4402V45.1602H292.833V43.6902C292.161 44.6982 290.922 45.2862 289.179 45.2862C286.659 45.2862 285.063 43.9422 285.063 42.0102C285.063 40.2252 286.218 38.7552 289.536 38.7552H292.728V38.3562C292.728 36.6552 291.741 35.6682 289.746 35.6682C288.423 35.6682 287.079 36.1302 286.218 36.8652L285.378 35.3532C286.533 34.4292 288.192 33.9252 289.977 33.9252ZM289.515 43.7322C291.027 43.7322 292.224 43.0392 292.728 41.7582V40.2042H289.62C287.625 40.2042 287.058 40.9812 287.058 41.9262C287.058 43.0392 287.982 43.7322 289.515 43.7322ZM303.387 45.2862C299.964 45.2862 297.507 42.9132 297.507 39.5952C297.507 36.2772 299.964 33.9252 303.387 33.9252C305.382 33.9252 307.041 34.7442 307.923 36.2982L306.39 37.2852C305.676 36.1932 304.584 35.6892 303.366 35.6892C301.182 35.6892 299.544 37.2222 299.544 39.5952C299.544 42.0102 301.182 43.5222 303.366 43.5222C304.584 43.5222 305.676 43.0182 306.39 41.9262L307.923 42.8922C307.041 44.4462 305.382 45.2862 303.387 45.2862ZM316.305 43.0602L316.935 44.5092C316.326 45.0342 315.402 45.2862 314.499 45.2862C312.252 45.2862 310.971 44.0472 310.971 41.8002V35.6892H309.081V34.0302H310.971V31.5942H312.987V34.0302H316.179V35.6892H312.987V41.7162C312.987 42.9132 313.617 43.5852 314.73 43.5852C315.318 43.5852 315.885 43.3962 316.305 43.0602ZM319.372 45.1602V29.5782H321.388V45.1602H319.372ZM333.112 34.0302H335.086L329.689 46.2732C328.702 48.6252 327.421 49.3602 325.72 49.3602C324.649 49.3602 323.557 49.0032 322.864 48.3312L323.725 46.8192C324.271 47.3442 324.964 47.6382 325.72 47.6382C326.686 47.6382 327.295 47.1972 327.841 45.9162L328.198 45.1392L323.284 34.0302H325.384L329.269 42.9342L333.112 34.0302ZM348.55 33.9252C351.259 33.9252 353.17 35.4792 353.17 38.7552V45.1602H351.154V38.9862C351.154 36.8022 350.062 35.7312 348.151 35.7312C346.009 35.7312 344.623 37.0122 344.623 39.4272V45.1602H342.607V29.5782H344.623V35.6052C345.463 34.5342 346.849 33.9252 348.55 33.9252ZM361.73 45.2862C358.391 45.2862 355.934 42.9132 355.934 39.5952C355.934 36.2772 358.391 33.9252 361.73 33.9252C365.069 33.9252 367.505 36.2772 367.505 39.5952C367.505 42.9132 365.069 45.2862 361.73 45.2862ZM361.73 43.5222C363.872 43.5222 365.468 41.9682 365.468 39.5952C365.468 37.2222 363.872 35.6892 361.73 35.6892C359.588 35.6892 357.971 37.2222 357.971 39.5952C357.971 41.9682 359.588 43.5222 361.73 43.5222ZM385.021 34.0302H386.827L382.669 45.1602H380.737L377.524 36.7182L374.269 45.1602H372.337L368.2 34.0302H370.111L373.345 42.8922L376.705 34.0302H378.406L381.703 42.9342L385.021 34.0302ZM408.436 33.9252C411.145 33.9252 412.993 35.4792 412.993 38.7552V45.1602H410.977V38.9862C410.977 36.8022 409.927 35.7312 408.1 35.7312C406.084 35.7312 404.761 37.0122 404.761 39.4272V45.1602H402.745V38.9862C402.745 36.8022 401.695 35.7312 399.868 35.7312C397.852 35.7312 396.529 37.0122 396.529 39.4272V45.1602H394.513V34.0302H396.445V35.6892C397.243 34.5552 398.608 33.9252 400.288 33.9252C401.989 33.9252 403.417 34.5972 404.152 35.9832C404.992 34.7232 406.546 33.9252 408.436 33.9252ZM425.06 34.0302H427.076V45.1602H425.165V43.4802C424.346 44.6352 422.96 45.2862 421.385 45.2862C418.508 45.2862 416.597 43.7112 416.597 40.4352V34.0302H418.613V40.2042C418.613 42.3882 419.705 43.4802 421.616 43.4802C423.716 43.4802 425.06 42.1782 425.06 39.7842V34.0302ZM435.765 45.2862C432.342 45.2862 429.885 42.9132 429.885 39.5952C429.885 36.2772 432.342 33.9252 435.765 33.9252C437.76 33.9252 439.419 34.7442 440.301 36.2982L438.768 37.2852C438.054 36.1932 436.962 35.6892 435.744 35.6892C433.56 35.6892 431.922 37.2222 431.922 39.5952C431.922 42.0102 433.56 43.5222 435.744 43.5222C436.962 43.5222 438.054 43.0182 438.768 41.9262L440.301 42.8922C439.419 44.4462 437.76 45.2862 435.765 45.2862ZM448.71 33.9252C451.419 33.9252 453.33 35.4792 453.33 38.7552V45.1602H451.314V38.9862C451.314 36.8022 450.222 35.7312 448.311 35.7312C446.169 35.7312 444.783 37.0122 444.783 39.4272V45.1602H442.767V29.5782H444.783V35.6052C445.623 34.5342 447.009 33.9252 448.71 33.9252ZM7.812 59.9252C11.067 59.9252 13.44 62.1932 13.44 65.5952C13.44 69.0182 11.067 71.2862 7.812 71.2862C6.237 71.2862 4.851 70.6772 3.927 69.4802V75.2342H1.911V60.0302H3.843V61.7942C4.746 60.5552 6.174 59.9252 7.812 59.9252ZM7.644 69.5222C9.786 69.5222 11.403 67.9682 11.403 65.5952C11.403 63.2432 9.786 61.6892 7.644 61.6892C5.523 61.6892 3.906 63.2432 3.906 65.5952C3.906 67.9682 5.523 69.5222 7.644 69.5222ZM18.1575 61.8992C18.8715 60.5972 20.2575 59.9252 22.2105 59.9252V61.8782C22.0425 61.8572 21.8955 61.8572 21.7485 61.8572C19.5855 61.8572 18.2415 63.1802 18.2415 65.6162V71.1602H16.2255V60.0302H18.1575V61.8992ZM29.3596 71.2862C26.0206 71.2862 23.5636 68.9132 23.5636 65.5952C23.5636 62.2772 26.0206 59.9252 29.3596 59.9252C32.6986 59.9252 35.1346 62.2772 35.1346 65.5952C35.1346 68.9132 32.6986 71.2862 29.3596 71.2862ZM29.3596 69.5222C31.5016 69.5222 33.0976 67.9682 33.0976 65.5952C33.0976 63.2222 31.5016 61.6892 29.3596 61.6892C27.2176 61.6892 25.6006 63.2222 25.6006 65.5952C25.6006 67.9682 27.2176 69.5222 29.3596 69.5222ZM46.6587 60.0302H48.5697V69.6482C48.5697 73.5752 46.5747 75.3602 42.7947 75.3602C40.7577 75.3602 38.6997 74.7932 37.4817 73.7012L38.4477 72.1472C39.4767 73.0292 41.0937 73.5962 42.7317 73.5962C45.3567 73.5962 46.5537 72.3782 46.5537 69.8582V68.9762C45.5877 70.1312 44.1387 70.6982 42.5427 70.6982C39.3297 70.6982 36.8937 68.5142 36.8937 65.3012C36.8937 62.0882 39.3297 59.9252 42.5427 59.9252C44.2017 59.9252 45.7137 60.5342 46.6587 61.7522V60.0302ZM42.7737 68.9342C44.9997 68.9342 46.5957 67.4432 46.5957 65.3012C46.5957 63.1382 44.9997 61.6892 42.7737 61.6892C40.5267 61.6892 38.9307 63.1382 38.9307 65.3012C38.9307 67.4432 40.5267 68.9342 42.7737 68.9342ZM54.3537 61.8992C55.0677 60.5972 56.4537 59.9252 58.4067 59.9252V61.8782C58.2387 61.8572 58.0917 61.8572 57.9447 61.8572C55.7817 61.8572 54.4377 63.1802 54.4377 65.6162V71.1602H52.4217V60.0302H54.3537V61.8992ZM70.8479 65.6582C70.8479 65.8262 70.8269 66.0782 70.8059 66.2672H61.7759C62.0279 68.2202 63.6029 69.5222 65.8079 69.5222C67.1099 69.5222 68.2019 69.0812 69.0209 68.1782L70.1339 69.4802C69.1259 70.6562 67.5929 71.2862 65.7449 71.2862C62.1539 71.2862 59.7599 68.9132 59.7599 65.5952C59.7599 62.2982 62.1329 59.9252 65.3459 59.9252C68.5589 59.9252 70.8479 62.2352 70.8479 65.6582ZM65.3459 61.6262C63.4139 61.6262 61.9859 62.9282 61.7759 64.8182H68.9159C68.7059 62.9492 67.2989 61.6262 65.3459 61.6262ZM76.8393 71.2862C74.9913 71.2862 73.1643 70.7192 72.2403 69.9842L73.0803 68.3882C74.0253 69.0602 75.5373 69.5432 76.9863 69.5432C78.8553 69.5432 79.6323 68.9762 79.6323 68.0312C79.6323 65.5322 72.5973 67.6952 72.5973 63.2642C72.5973 61.2692 74.3823 59.9252 77.2383 59.9252C78.6873 59.9252 80.3253 60.3032 81.2913 60.9332L80.4303 62.5292C79.4223 61.8782 78.3093 61.6472 77.2173 61.6472C75.4533 61.6472 74.5923 62.2982 74.5923 63.1802C74.5923 65.8052 81.6483 63.6632 81.6483 67.9892C81.6483 70.0052 79.8003 71.2862 76.8393 71.2862ZM87.3598 71.2862C85.5118 71.2862 83.6848 70.7192 82.7608 69.9842L83.6008 68.3882C84.5458 69.0602 86.0578 69.5432 87.5068 69.5432C89.3758 69.5432 90.1528 68.9762 90.1528 68.0312C90.1528 65.5322 83.1178 67.6952 83.1178 63.2642C83.1178 61.2692 84.9028 59.9252 87.7588 59.9252C89.2078 59.9252 90.8458 60.3032 91.8118 60.9332L90.9508 62.5292C89.9428 61.8782 88.8298 61.6472 87.7378 61.6472C85.9738 61.6472 85.1128 62.2982 85.1128 63.1802C85.1128 65.8052 92.1688 63.6632 92.1688 67.9892C92.1688 70.0052 90.3208 71.2862 87.3598 71.2862ZM108.203 60.0302H110.177L104.78 72.2732C103.793 74.6252 102.512 75.3602 100.811 75.3602C99.74 75.3602 98.648 75.0032 97.955 74.3312L98.816 72.8192C99.362 73.3442 100.055 73.6382 100.811 73.6382C101.777 73.6382 102.386 73.1972 102.932 71.9162L103.289 71.1392L98.375 60.0302H100.475L104.36 68.9342L108.203 60.0302ZM116.518 71.2862C113.179 71.2862 110.722 68.9132 110.722 65.5952C110.722 62.2772 113.179 59.9252 116.518 59.9252C119.857 59.9252 122.293 62.2772 122.293 65.5952C122.293 68.9132 119.857 71.2862 116.518 71.2862ZM116.518 69.5222C118.66 69.5222 120.256 67.9682 120.256 65.5952C120.256 63.2222 118.66 61.6892 116.518 61.6892C114.376 61.6892 112.759 63.2222 112.759 65.5952C112.759 67.9682 114.376 69.5222 116.518 69.5222ZM133.439 60.0302H135.455V71.1602H133.544V69.4802C132.725 70.6352 131.339 71.2862 129.764 71.2862C126.887 71.2862 124.976 69.7112 124.976 66.4352V60.0302H126.992V66.2042C126.992 68.3882 128.084 69.4802 129.995 69.4802C132.095 69.4802 133.439 68.1782 133.439 65.7842V60.0302ZM138.831 62.1302L138.705 56.4602H140.469L140.322 62.1302H138.831ZM145.634 61.8992C146.348 60.5972 147.734 59.9252 149.687 59.9252V61.8782C149.519 61.8572 149.372 61.8572 149.225 61.8572C147.062 61.8572 145.718 63.1802 145.718 65.6162V71.1602H143.702V60.0302H145.634V61.8992ZM162.128 65.6582C162.128 65.8262 162.107 66.0782 162.086 66.2672H153.056C153.308 68.2202 154.883 69.5222 157.088 69.5222C158.39 69.5222 159.482 69.0812 160.301 68.1782L161.414 69.4802C160.406 70.6562 158.873 71.2862 157.025 71.2862C153.434 71.2862 151.04 68.9132 151.04 65.5952C151.04 62.2982 153.413 59.9252 156.626 59.9252C159.839 59.9252 162.128 62.2352 162.128 65.6582ZM156.626 61.6262C154.694 61.6262 153.266 62.9282 153.056 64.8182H160.196C159.986 62.9492 158.579 61.6262 156.626 61.6262ZM184.49 59.9252C187.199 59.9252 189.047 61.4792 189.047 64.7552V71.1602H187.031V64.9862C187.031 62.8022 185.981 61.7312 184.154 61.7312C182.138 61.7312 180.815 63.0122 180.815 65.4272V71.1602H178.799V64.9862C178.799 62.8022 177.749 61.7312 175.922 61.7312C173.906 61.7312 172.583 63.0122 172.583 65.4272V71.1602H170.567V60.0302H172.499V61.6892C173.297 60.5552 174.662 59.9252 176.342 59.9252C178.043 59.9252 179.471 60.5972 180.206 61.9832C181.046 60.7232 182.6 59.9252 184.49 59.9252ZM196.81 59.9252C199.855 59.9252 201.577 61.3952 201.577 64.4402V71.1602H199.666V69.6902C198.994 70.6982 197.755 71.2862 196.012 71.2862C193.492 71.2862 191.896 69.9422 191.896 68.0102C191.896 66.2252 193.051 64.7552 196.369 64.7552H199.561V64.3562C199.561 62.6552 198.574 61.6682 196.579 61.6682C195.256 61.6682 193.912 62.1302 193.051 62.8652L192.211 61.3532C193.366 60.4292 195.025 59.9252 196.81 59.9252ZM196.348 69.7322C197.86 69.7322 199.057 69.0392 199.561 67.7582V66.2042H196.453C194.458 66.2042 193.891 66.9812 193.891 67.9262C193.891 69.0392 194.815 69.7322 196.348 69.7322ZM213.812 71.1602L209.633 65.9732L207.323 68.1152V71.1602H205.307V55.5782H207.323V65.5742L213.392 60.0302H215.828L211.145 64.6292L216.29 71.1602H213.812ZM219.112 57.8882C218.335 57.8882 217.747 57.3212 217.747 56.5862C217.747 55.8512 218.335 55.2632 219.112 55.2632C219.889 55.2632 220.477 55.8302 220.477 56.5442C220.477 57.3002 219.91 57.8882 219.112 57.8882ZM218.104 71.1602V60.0302H220.12V71.1602H218.104ZM229.913 59.9252C232.622 59.9252 234.533 61.4792 234.533 64.7552V71.1602H232.517V64.9862C232.517 62.8022 231.425 61.7312 229.514 61.7312C227.372 61.7312 225.986 63.0122 225.986 65.4272V71.1602H223.97V60.0302H225.902V61.7102C226.721 60.5762 228.149 59.9252 229.913 59.9252ZM247.061 60.0302H248.972V69.6482C248.972 73.5752 246.977 75.3602 243.197 75.3602C241.16 75.3602 239.102 74.7932 237.884 73.7012L238.85 72.1472C239.879 73.0292 241.496 73.5962 243.134 73.5962C245.759 73.5962 246.956 72.3782 246.956 69.8582V68.9762C245.99 70.1312 244.541 70.6982 242.945 70.6982C239.732 70.6982 237.296 68.5142 237.296 65.3012C237.296 62.0882 239.732 59.9252 242.945 59.9252C244.604 59.9252 246.116 60.5342 247.061 61.7522V60.0302ZM243.176 68.9342C245.402 68.9342 246.998 67.4432 246.998 65.3012C246.998 63.1382 245.402 61.6892 243.176 61.6892C240.929 61.6892 239.333 63.1382 239.333 65.3012C239.333 67.4432 240.929 68.9342 243.176 68.9342ZM264.092 69.0602L264.722 70.5092C264.113 71.0342 263.189 71.2862 262.286 71.2862C260.039 71.2862 258.758 70.0472 258.758 67.8002V61.6892H256.868V60.0302H258.758V57.5942H260.774V60.0302H263.966V61.6892H260.774V67.7162C260.774 68.9132 261.404 69.5852 262.517 69.5852C263.105 69.5852 263.672 69.3962 264.092 69.0602ZM271.557 71.2862C268.218 71.2862 265.761 68.9132 265.761 65.5952C265.761 62.2772 268.218 59.9252 271.557 59.9252C274.896 59.9252 277.332 62.2772 277.332 65.5952C277.332 68.9132 274.896 71.2862 271.557 71.2862ZM271.557 69.5222C273.699 69.5222 275.295 67.9682 275.295 65.5952C275.295 63.2222 273.699 61.6892 271.557 61.6892C269.415 61.6892 267.798 63.2222 267.798 65.5952C267.798 67.9682 269.415 69.5222 271.557 69.5222ZM288.604 55.5782H290.62V71.1602H288.688V69.3962C287.785 70.6562 286.357 71.2862 284.719 71.2862C281.464 71.2862 279.091 68.9972 279.091 65.5952C279.091 62.1932 281.464 59.9252 284.719 59.9252C286.294 59.9252 287.68 60.5132 288.604 61.7102V55.5782ZM284.887 69.5222C287.008 69.5222 288.625 67.9682 288.625 65.5952C288.625 63.2222 287.008 61.6892 284.887 61.6892C282.745 61.6892 281.128 63.2222 281.128 65.5952C281.128 67.9682 282.745 69.5222 284.887 69.5222ZM298.487 59.9252C301.532 59.9252 303.254 61.3952 303.254 64.4402V71.1602H301.343V69.6902C300.671 70.6982 299.432 71.2862 297.689 71.2862C295.169 71.2862 293.573 69.9422 293.573 68.0102C293.573 66.2252 294.728 64.7552 298.046 64.7552H301.238V64.3562C301.238 62.6552 300.251 61.6682 298.256 61.6682C296.933 61.6682 295.589 62.1302 294.728 62.8652L293.888 61.3532C295.043 60.4292 296.702 59.9252 298.487 59.9252ZM298.025 69.7322C299.537 69.7322 300.734 69.0392 301.238 67.7582V66.2042H298.13C296.135 66.2042 295.568 66.9812 295.568 67.9262C295.568 69.0392 296.492 69.7322 298.025 69.7322ZM314.655 60.0302H316.629L311.232 72.2732C310.245 74.6252 308.964 75.3602 307.263 75.3602C306.192 75.3602 305.1 75.0032 304.407 74.3312L305.268 72.8192C305.814 73.3442 306.507 73.6382 307.263 73.6382C308.229 73.6382 308.838 73.1972 309.384 71.9162L309.741 71.1392L304.827 60.0302H306.927L310.812 68.9342L314.655 60.0302ZM318.296 71.2862C317.519 71.2862 316.868 70.6772 316.868 69.8372C316.868 68.9972 317.519 68.4092 318.296 68.4092C319.052 68.4092 319.682 68.9972 319.682 69.8372C319.682 70.6772 319.052 71.2862 318.296 71.2862ZM328.505 71.1602V56.4602H330.605V71.1602H328.505ZM348.635 59.9252C351.344 59.9252 353.192 61.4792 353.192 64.7552V71.1602H351.176V64.9862C351.176 62.8022 350.126 61.7312 348.299 61.7312C346.283 61.7312 344.96 63.0122 344.96 65.4272V71.1602H342.944V64.9862C342.944 62.8022 341.894 61.7312 340.067 61.7312C338.051 61.7312 336.728 63.0122 336.728 65.4272V71.1602H334.712V60.0302H336.644V61.6892C337.442 60.5552 338.807 59.9252 340.487 59.9252C342.188 59.9252 343.616 60.5972 344.351 61.9832C345.191 60.7232 346.745 59.9252 348.635 59.9252ZM360.954 59.9252C363.999 59.9252 365.721 61.3952 365.721 64.4402V71.1602H363.81V69.6902C363.138 70.6982 361.899 71.2862 360.156 71.2862C357.636 71.2862 356.04 69.9422 356.04 68.0102C356.04 66.2252 357.195 64.7552 360.513 64.7552H363.705V64.3562C363.705 62.6552 362.718 61.6682 360.723 61.6682C359.4 61.6682 358.056 62.1302 357.195 62.8652L356.355 61.3532C357.51 60.4292 359.169 59.9252 360.954 59.9252ZM360.492 69.7322C362.004 69.7322 363.201 69.0392 363.705 67.7582V66.2042H360.597C358.602 66.2042 358.035 66.9812 358.035 67.9262C358.035 69.0392 358.959 69.7322 360.492 69.7322ZM378.25 60.0302H380.161V69.6482C380.161 73.5752 378.166 75.3602 374.386 75.3602C372.349 75.3602 370.291 74.7932 369.073 73.7012L370.039 72.1472C371.068 73.0292 372.685 73.5962 374.323 73.5962C376.948 73.5962 378.145 72.3782 378.145 69.8582V68.9762C377.179 70.1312 375.73 70.6982 374.134 70.6982C370.921 70.6982 368.485 68.5142 368.485 65.3012C368.485 62.0882 370.921 59.9252 374.134 59.9252C375.793 59.9252 377.305 60.5342 378.25 61.7522V60.0302ZM374.365 68.9342C376.591 68.9342 378.187 67.4432 378.187 65.3012C378.187 63.1382 376.591 61.6892 374.365 61.6892C372.118 61.6892 370.522 63.1382 370.522 65.3012C370.522 67.4432 372.118 68.9342 374.365 68.9342ZM385.021 57.8882C384.244 57.8882 383.656 57.3212 383.656 56.5862C383.656 55.8512 384.244 55.2632 385.021 55.2632C385.798 55.2632 386.386 55.8302 386.386 56.5442C386.386 57.3002 385.819 57.8882 385.021 57.8882ZM384.013 71.1602V60.0302H386.029V71.1602H384.013ZM395.821 59.9252C398.53 59.9252 400.441 61.4792 400.441 64.7552V71.1602H398.425V64.9862C398.425 62.8022 397.333 61.7312 395.422 61.7312C393.28 61.7312 391.894 63.0122 391.894 65.4272V71.1602H389.878V60.0302H391.81V61.7102C392.629 60.5762 394.057 59.9252 395.821 59.9252ZM414.292 65.6582C414.292 65.8262 414.271 66.0782 414.25 66.2672H405.22C405.472 68.2202 407.047 69.5222 409.252 69.5222C410.554 69.5222 411.646 69.0812 412.465 68.1782L413.578 69.4802C412.57 70.6562 411.037 71.2862 409.189 71.2862C405.598 71.2862 403.204 68.9132 403.204 65.5952C403.204 62.2982 405.577 59.9252 408.79 59.9252C412.003 59.9252 414.292 62.2352 414.292 65.6582ZM408.79 61.6262C406.858 61.6262 405.43 62.9282 405.22 64.8182H412.36C412.15 62.9492 410.743 61.6262 408.79 61.6262ZM423.739 57.8882C422.962 57.8882 422.374 57.3212 422.374 56.5862C422.374 55.8512 422.962 55.2632 423.739 55.2632C424.516 55.2632 425.104 55.8302 425.104 56.5442C425.104 57.3002 424.537 57.8882 423.739 57.8882ZM422.731 71.1602V60.0302H424.747V71.1602H422.731ZM434.225 69.0602L434.855 70.5092C434.246 71.0342 433.322 71.2862 432.419 71.2862C430.172 71.2862 428.891 70.0472 428.891 67.8002V61.6892H427.001V60.0302H428.891V57.5942H430.907V60.0302H434.099V61.6892H430.907V67.7162C430.907 68.9132 431.537 69.5852 432.65 69.5852C433.238 69.5852 433.805 69.3962 434.225 69.0602ZM446.985 59.9252C450.03 59.9252 451.752 61.3952 451.752 64.4402V71.1602H449.841V69.6902C449.169 70.6982 447.93 71.2862 446.187 71.2862C443.667 71.2862 442.071 69.9422 442.071 68.0102C442.071 66.2252 443.226 64.7552 446.544 64.7552H449.736V64.3562C449.736 62.6552 448.749 61.6682 446.754 61.6682C445.431 61.6682 444.087 62.1302 443.226 62.8652L442.386 61.3532C443.541 60.4292 445.2 59.9252 446.985 59.9252ZM446.523 69.7322C448.035 69.7322 449.232 69.0392 449.736 67.7582V66.2042H446.628C444.633 66.2042 444.066 66.9812 444.066 67.9262C444.066 69.0392 444.99 69.7322 446.523 69.7322ZM458.674 71.2862C456.826 71.2862 454.999 70.7192 454.075 69.9842L454.915 68.3882C455.86 69.0602 457.372 69.5432 458.821 69.5432C460.69 69.5432 461.467 68.9762 461.467 68.0312C461.467 65.5322 454.432 67.6952 454.432 63.2642C454.432 61.2692 456.217 59.9252 459.073 59.9252C460.522 59.9252 462.16 60.3032 463.126 60.9332L462.265 62.5292C461.257 61.8782 460.144 61.6472 459.052 61.6472C457.288 61.6472 456.427 62.2982 456.427 63.1802C456.427 65.8052 463.483 63.6632 463.483 67.9892C463.483 70.0052 461.635 71.2862 458.674 71.2862ZM475.695 59.9252C478.74 59.9252 480.462 61.3952 480.462 64.4402V71.1602H478.551V69.6902C477.879 70.6982 476.64 71.2862 474.897 71.2862C472.377 71.2862 470.781 69.9422 470.781 68.0102C470.781 66.2252 471.936 64.7552 475.254 64.7552H478.446V64.3562C478.446 62.6552 477.459 61.6682 475.464 61.6682C474.141 61.6682 472.797 62.1302 471.936 62.8652L471.096 61.3532C472.251 60.4292 473.91 59.9252 475.695 59.9252ZM475.233 69.7322C476.745 69.7322 477.942 69.0392 478.446 67.7582V66.2042H475.338C473.343 66.2042 472.776 66.9812 472.776 67.9262C472.776 69.0392 473.7 69.7322 475.233 69.7322ZM10.395 80.5782H12.411V96.1602H10.479V94.3962C9.576 95.6562 8.148 96.2862 6.51 96.2862C3.255 96.2862 0.882 93.9972 0.882 90.5952C0.882 87.1932 3.255 84.9252 6.51 84.9252C8.085 84.9252 9.471 85.5132 10.395 86.7102V80.5782ZM6.678 94.5222C8.799 94.5222 10.416 92.9682 10.416 90.5952C10.416 88.2222 8.799 86.6892 6.678 86.6892C4.536 86.6892 2.919 88.2222 2.919 90.5952C2.919 92.9682 4.536 94.5222 6.678 94.5222ZM20.2785 84.9252C23.3235 84.9252 25.0455 86.3952 25.0455 89.4402V96.1602H23.1345V94.6902C22.4625 95.6982 21.2235 96.2862 19.4805 96.2862C16.9605 96.2862 15.3645 94.9422 15.3645 93.0102C15.3645 91.2252 16.5195 89.7552 19.8375 89.7552H23.0295V89.3562C23.0295 87.6552 22.0425 86.6682 20.0475 86.6682C18.7245 86.6682 17.3805 87.1302 16.5195 87.8652L15.6795 86.3532C16.8345 85.4292 18.4935 84.9252 20.2785 84.9252ZM19.8165 94.7322C21.3285 94.7322 22.5255 94.0392 23.0295 92.7582V91.2042H19.9215C17.9265 91.2042 17.3595 91.9812 17.3595 92.9262C17.3595 94.0392 18.2835 94.7322 19.8165 94.7322ZM29.7842 82.8882C29.0072 82.8882 28.4192 82.3212 28.4192 81.5862C28.4192 80.8512 29.0072 80.2632 29.7842 80.2632C30.5612 80.2632 31.1492 80.8302 31.1492 81.5442C31.1492 82.3002 30.5822 82.8882 29.7842 82.8882ZM28.7762 96.1602V85.0302H30.7922V96.1602H28.7762ZM34.6415 96.1602V80.5782H36.6575V96.1602H34.6415ZM48.3817 85.0302H50.3557L44.9587 97.2732C43.9717 99.6252 42.6907 100.36 40.9897 100.36C39.9187 100.36 38.8267 100.003 38.1337 99.3312L38.9947 97.8192C39.5407 98.3442 40.2337 98.6382 40.9897 98.6382C41.9557 98.6382 42.5647 98.1972 43.1107 96.9162L43.4677 96.1392L38.5537 85.0302H40.6537L44.5387 93.9342L48.3817 85.0302ZM63.7778 84.9252C67.0328 84.9252 69.4058 87.1932 69.4058 90.5952C69.4058 94.0182 67.0328 96.2862 63.7778 96.2862C62.2028 96.2862 60.8168 95.6772 59.8928 94.4802V100.234H57.8768V85.0302H59.8088V86.7942C60.7118 85.5552 62.1398 84.9252 63.7778 84.9252ZM63.6098 94.5222C65.7518 94.5222 67.3688 92.9682 67.3688 90.5952C67.3688 88.2432 65.7518 86.6892 63.6098 86.6892C61.4888 86.6892 59.8718 88.2432 59.8718 90.5952C59.8718 92.9682 61.4888 94.5222 63.6098 94.5222ZM74.1233 86.8992C74.8373 85.5972 76.2233 84.9252 78.1763 84.9252V86.8782C78.0083 86.8572 77.8613 86.8572 77.7143 86.8572C75.5513 86.8572 74.2073 88.1802 74.2073 90.6162V96.1602H72.1913V85.0302H74.1233V86.8992ZM85.3255 96.2862C81.9865 96.2862 79.5295 93.9132 79.5295 90.5952C79.5295 87.2772 81.9865 84.9252 85.3255 84.9252C88.6645 84.9252 91.1005 87.2772 91.1005 90.5952C91.1005 93.9132 88.6645 96.2862 85.3255 96.2862ZM85.3255 94.5222C87.4675 94.5222 89.0635 92.9682 89.0635 90.5952C89.0635 88.2222 87.4675 86.6892 85.3255 86.6892C83.1835 86.6892 81.5665 88.2222 81.5665 90.5952C81.5665 92.9682 83.1835 94.5222 85.3255 94.5222ZM102.625 85.0302H104.536V94.6482C104.536 98.5752 102.541 100.36 98.7605 100.36C96.7235 100.36 94.6655 99.7932 93.4475 98.7012L94.4135 97.1472C95.4425 98.0292 97.0595 98.5962 98.6975 98.5962C101.323 98.5962 102.52 97.3782 102.52 94.8582V93.9762C101.554 95.1312 100.105 95.6982 98.5085 95.6982C95.2955 95.6982 92.8595 93.5142 92.8595 90.3012C92.8595 87.0882 95.2955 84.9252 98.5085 84.9252C100.168 84.9252 101.68 85.5342 102.625 86.7522V85.0302ZM98.7395 93.9342C100.966 93.9342 102.562 92.4432 102.562 90.3012C102.562 88.1382 100.966 86.6892 98.7395 86.6892C96.4925 86.6892 94.8965 88.1382 94.8965 90.3012C94.8965 92.4432 96.4925 93.9342 98.7395 93.9342ZM110.32 86.8992C111.034 85.5972 112.42 84.9252 114.373 84.9252V86.8782C114.205 86.8572 114.058 86.8572 113.911 86.8572C111.748 86.8572 110.404 88.1802 110.404 90.6162V96.1602H108.388V85.0302H110.32V86.8992ZM126.814 90.6582C126.814 90.8262 126.793 91.0782 126.772 91.2672H117.742C117.994 93.2202 119.569 94.5222 121.774 94.5222C123.076 94.5222 124.168 94.0812 124.987 93.1782L126.1 94.4802C125.092 95.6562 123.559 96.2862 121.711 96.2862C118.12 96.2862 115.726 93.9132 115.726 90.5952C115.726 87.2982 118.099 84.9252 121.312 84.9252C124.525 84.9252 126.814 87.2352 126.814 90.6582ZM121.312 86.6262C119.38 86.6262 117.952 87.9282 117.742 89.8182H124.882C124.672 87.9492 123.265 86.6262 121.312 86.6262ZM132.805 96.2862C130.957 96.2862 129.13 95.7192 128.206 94.9842L129.046 93.3882C129.991 94.0602 131.503 94.5432 132.952 94.5432C134.821 94.5432 135.598 93.9762 135.598 93.0312C135.598 90.5322 128.563 92.6952 128.563 88.2642C128.563 86.2692 130.348 84.9252 133.204 84.9252C134.653 84.9252 136.291 85.3032 137.257 85.9332L136.396 87.5292C135.388 86.8782 134.275 86.6472 133.183 86.6472C131.419 86.6472 130.558 87.2982 130.558 88.1802C130.558 90.8052 137.614 88.6632 137.614 92.9892C137.614 95.0052 135.766 96.2862 132.805 96.2862ZM143.326 96.2862C141.478 96.2862 139.651 95.7192 138.727 94.9842L139.567 93.3882C140.512 94.0602 142.024 94.5432 143.473 94.5432C145.342 94.5432 146.119 93.9762 146.119 93.0312C146.119 90.5322 139.084 92.6952 139.084 88.2642C139.084 86.2692 140.869 84.9252 143.725 84.9252C145.174 84.9252 146.812 85.3032 147.778 85.9332L146.917 87.5292C145.909 86.8782 144.796 86.6472 143.704 86.6472C141.94 86.6472 141.079 87.2982 141.079 88.1802C141.079 90.8052 148.135 88.6632 148.135 92.9892C148.135 95.0052 146.287 96.2862 143.326 96.2862ZM162.195 84.9252C165.45 84.9252 167.823 87.1932 167.823 90.5952C167.823 93.9972 165.45 96.2862 162.195 96.2862C160.557 96.2862 159.129 95.6562 158.226 94.3962V96.1602H156.294V80.5782H158.31V86.7102C159.234 85.5132 160.62 84.9252 162.195 84.9252ZM162.027 94.5222C164.169 94.5222 165.786 92.9682 165.786 90.5952C165.786 88.2222 164.169 86.6892 162.027 86.6892C159.906 86.6892 158.289 88.2222 158.289 90.5952C158.289 92.9682 159.906 94.5222 162.027 94.5222ZM175.375 96.2862C172.036 96.2862 169.579 93.9132 169.579 90.5952C169.579 87.2772 172.036 84.9252 175.375 84.9252C178.714 84.9252 181.15 87.2772 181.15 90.5952C181.15 93.9132 178.714 96.2862 175.375 96.2862ZM175.375 94.5222C177.517 94.5222 179.113 92.9682 179.113 90.5952C179.113 88.2222 177.517 86.6892 175.375 86.6892C173.233 86.6892 171.616 88.2222 171.616 90.5952C171.616 92.9682 173.233 94.5222 175.375 94.5222ZM188.705 96.2862C185.366 96.2862 182.909 93.9132 182.909 90.5952C182.909 87.2772 185.366 84.9252 188.705 84.9252C192.044 84.9252 194.48 87.2772 194.48 90.5952C194.48 93.9132 192.044 96.2862 188.705 96.2862ZM188.705 94.5222C190.847 94.5222 192.443 92.9682 192.443 90.5952C192.443 88.2222 190.847 86.6892 188.705 86.6892C186.563 86.6892 184.946 88.2222 184.946 90.5952C184.946 92.9682 186.563 94.5222 188.705 94.5222ZM200.46 96.2862C198.612 96.2862 196.785 95.7192 195.861 94.9842L196.701 93.3882C197.646 94.0602 199.158 94.5432 200.607 94.5432C202.476 94.5432 203.253 93.9762 203.253 93.0312C203.253 90.5322 196.218 92.6952 196.218 88.2642C196.218 86.2692 198.003 84.9252 200.859 84.9252C202.308 84.9252 203.946 85.3032 204.912 85.9332L204.051 87.5292C203.043 86.8782 201.93 86.6472 200.838 86.6472C199.074 86.6472 198.213 87.2982 198.213 88.1802C198.213 90.8052 205.269 88.6632 205.269 92.9892C205.269 95.0052 203.421 96.2862 200.46 96.2862ZM213.417 94.0602L214.047 95.5092C213.438 96.0342 212.514 96.2862 211.611 96.2862C209.364 96.2862 208.083 95.0472 208.083 92.8002V86.6892H206.193V85.0302H208.083V82.5942H210.099V85.0302H213.291V86.6892H210.099V92.7162C210.099 93.9132 210.729 94.5852 211.842 94.5852C212.43 94.5852 212.997 94.3962 213.417 94.0602ZM226.174 90.6582C226.174 90.8262 226.153 91.0782 226.132 91.2672H217.102C217.354 93.2202 218.929 94.5222 221.134 94.5222C222.436 94.5222 223.528 94.0812 224.347 93.1782L225.46 94.4802C224.452 95.6562 222.919 96.2862 221.071 96.2862C217.48 96.2862 215.086 93.9132 215.086 90.5952C215.086 87.2982 217.459 84.9252 220.672 84.9252C223.885 84.9252 226.174 87.2352 226.174 90.6582ZM220.672 86.6262C218.74 86.6262 217.312 87.9282 217.102 89.8182H224.242C224.032 87.9492 222.625 86.6262 220.672 86.6262ZM230.906 86.8992C231.62 85.5972 233.006 84.9252 234.959 84.9252V86.8782C234.791 86.8572 234.644 86.8572 234.497 86.8572C232.334 86.8572 230.99 88.1802 230.99 90.6162V96.1602H228.974V85.0302H230.906V86.8992ZM237.886 93.4092C238.684 93.4092 239.251 94.0182 239.251 94.8372C239.251 95.2572 239.167 95.5722 238.894 96.3492L237.907 99.2682H236.584L237.361 96.1392C236.836 95.9502 236.479 95.4672 236.479 94.8372C236.479 93.9972 237.088 93.4092 237.886 93.4092ZM261.702 84.9252C264.411 84.9252 266.259 86.4792 266.259 89.7552V96.1602H264.243V89.9862C264.243 87.8022 263.193 86.7312 261.366 86.7312C259.35 86.7312 258.027 88.0122 258.027 90.4272V96.1602H256.011V89.9862C256.011 87.8022 254.961 86.7312 253.134 86.7312C251.118 86.7312 249.795 88.0122 249.795 90.4272V96.1602H247.779V85.0302H249.711V86.6892C250.509 85.5552 251.874 84.9252 253.554 84.9252C255.255 84.9252 256.683 85.5972 257.418 86.9832C258.258 85.7232 259.812 84.9252 261.702 84.9252ZM274.797 96.2862C271.458 96.2862 269.001 93.9132 269.001 90.5952C269.001 87.2772 271.458 84.9252 274.797 84.9252C278.136 84.9252 280.572 87.2772 280.572 90.5952C280.572 93.9132 278.136 96.2862 274.797 96.2862ZM274.797 94.5222C276.939 94.5222 278.535 92.9682 278.535 90.5952C278.535 88.2222 276.939 86.6892 274.797 86.6892C272.655 86.6892 271.038 88.2222 271.038 90.5952C271.038 92.9682 272.655 94.5222 274.797 94.5222ZM288.988 94.0602L289.618 95.5092C289.009 96.0342 288.085 96.2862 287.182 96.2862C284.935 96.2862 283.654 95.0472 283.654 92.8002V86.6892H281.764V85.0302H283.654V82.5942H285.67V85.0302H288.862V86.6892H285.67V92.7162C285.67 93.9132 286.3 94.5852 287.413 94.5852C288.001 94.5852 288.568 94.3962 288.988 94.0602ZM293.064 82.8882C292.287 82.8882 291.699 82.3212 291.699 81.5862C291.699 80.8512 292.287 80.2632 293.064 80.2632C293.841 80.2632 294.429 80.8302 294.429 81.5442C294.429 82.3002 293.862 82.8882 293.064 82.8882ZM292.056 96.1602V85.0302H294.072V96.1602H292.056ZM305.796 85.0302H307.77L302.898 96.1602H300.84L295.968 85.0302H298.068L301.89 93.9552L305.796 85.0302ZM313.356 84.9252C316.401 84.9252 318.123 86.3952 318.123 89.4402V96.1602H316.212V94.6902C315.54 95.6982 314.301 96.2862 312.558 96.2862C310.038 96.2862 308.442 94.9422 308.442 93.0102C308.442 91.2252 309.597 89.7552 312.915 89.7552H316.107V89.3562C316.107 87.6552 315.12 86.6682 313.125 86.6682C311.802 86.6682 310.458 87.1302 309.597 87.8652L308.757 86.3532C309.912 85.4292 311.571 84.9252 313.356 84.9252ZM312.894 94.7322C314.406 94.7322 315.603 94.0392 316.107 92.7582V91.2042H312.999C311.004 91.2042 310.437 91.9812 310.437 92.9262C310.437 94.0392 311.361 94.7322 312.894 94.7322ZM327.481 94.0602L328.111 95.5092C327.502 96.0342 326.578 96.2862 325.675 96.2862C323.428 96.2862 322.147 95.0472 322.147 92.8002V86.6892H320.257V85.0302H322.147V82.5942H324.163V85.0302H327.355V86.6892H324.163V92.7162C324.163 93.9132 324.793 94.5852 325.906 94.5852C326.494 94.5852 327.061 94.3962 327.481 94.0602ZM331.557 82.8882C330.78 82.8882 330.192 82.3212 330.192 81.5862C330.192 80.8512 330.78 80.2632 331.557 80.2632C332.334 80.2632 332.922 80.8302 332.922 81.5442C332.922 82.3002 332.355 82.8882 331.557 82.8882ZM330.549 96.1602V85.0302H332.565V96.1602H330.549ZM342.357 84.9252C345.066 84.9252 346.977 86.4792 346.977 89.7552V96.1602H344.961V89.9862C344.961 87.8022 343.869 86.7312 341.958 86.7312C339.816 86.7312 338.43 88.0122 338.43 90.4272V96.1602H336.414V85.0302H338.346V86.7102C339.165 85.5762 340.593 84.9252 342.357 84.9252ZM359.505 85.0302H361.416V94.6482C361.416 98.5752 359.421 100.36 355.641 100.36C353.604 100.36 351.546 99.7932 350.328 98.7012L351.294 97.1472C352.323 98.0292 353.94 98.5962 355.578 98.5962C358.203 98.5962 359.4 97.3782 359.4 94.8582V93.9762C358.434 95.1312 356.985 95.6982 355.389 95.6982C352.176 95.6982 349.74 93.5142 349.74 90.3012C349.74 87.0882 352.176 84.9252 355.389 84.9252C357.048 84.9252 358.56 85.5342 359.505 86.7522V85.0302ZM355.62 93.9342C357.846 93.9342 359.442 92.4432 359.442 90.3012C359.442 88.1382 357.846 86.6892 355.62 86.6892C353.373 86.6892 351.777 88.1382 351.777 90.3012C351.777 92.4432 353.373 93.9342 355.62 93.9342ZM378.783 85.0302H380.757L375.36 97.2732C374.373 99.6252 373.092 100.36 371.391 100.36C370.32 100.36 369.228 100.003 368.535 99.3312L369.396 97.8192C369.942 98.3442 370.635 98.6382 371.391 98.6382C372.357 98.6382 372.966 98.1972 373.512 96.9162L373.869 96.1392L368.955 85.0302H371.055L374.94 93.9342L378.783 85.0302ZM387.098 96.2862C383.759 96.2862 381.302 93.9132 381.302 90.5952C381.302 87.2772 383.759 84.9252 387.098 84.9252C390.437 84.9252 392.873 87.2772 392.873 90.5952C392.873 93.9132 390.437 96.2862 387.098 96.2862ZM387.098 94.5222C389.24 94.5222 390.836 92.9682 390.836 90.5952C390.836 88.2222 389.24 86.6892 387.098 86.6892C384.956 86.6892 383.339 88.2222 383.339 90.5952C383.339 92.9682 384.956 94.5222 387.098 94.5222ZM404.019 85.0302H406.035V96.1602H404.124V94.4802C403.305 95.6352 401.919 96.2862 400.344 96.2862C397.467 96.2862 395.556 94.7112 395.556 91.4352V85.0302H397.572V91.2042C397.572 93.3882 398.664 94.4802 400.575 94.4802C402.675 94.4802 404.019 93.1782 404.019 90.7842V85.0302ZM421.141 94.0602L421.771 95.5092C421.162 96.0342 420.238 96.2862 419.335 96.2862C417.088 96.2862 415.807 95.0472 415.807 92.8002V86.6892H413.917V85.0302H415.807V82.5942H417.823V85.0302H421.015V86.6892H417.823V92.7162C417.823 93.9132 418.453 94.5852 419.566 94.5852C420.154 94.5852 420.721 94.3962 421.141 94.0602ZM428.606 96.2862C425.267 96.2862 422.81 93.9132 422.81 90.5952C422.81 87.2772 425.267 84.9252 428.606 84.9252C431.945 84.9252 434.381 87.2772 434.381 90.5952C434.381 93.9132 431.945 96.2862 428.606 96.2862ZM428.606 94.5222C430.748 94.5222 432.344 92.9682 432.344 90.5952C432.344 88.2222 430.748 86.6892 428.606 86.6892C426.464 86.6892 424.847 88.2222 424.847 90.5952C424.847 92.9682 426.464 94.5222 428.606 94.5222ZM451.313 96.1602L447.134 90.9732L444.824 93.1152V96.1602H442.808V80.5782H444.824V90.5742L450.893 85.0302H453.329L448.646 89.6292L453.791 96.1602H451.313ZM465.336 90.6582C465.336 90.8262 465.315 91.0782 465.294 91.2672H456.264C456.516 93.2202 458.091 94.5222 460.296 94.5222C461.598 94.5222 462.69 94.0812 463.509 93.1782L464.622 94.4802C463.614 95.6562 462.081 96.2862 460.233 96.2862C456.642 96.2862 454.248 93.9132 454.248 90.5952C454.248 87.2982 456.621 84.9252 459.834 84.9252C463.047 84.9252 465.336 87.2352 465.336 90.6582ZM459.834 86.6262C457.902 86.6262 456.474 87.9282 456.264 89.8182H463.404C463.194 87.9492 461.787 86.6262 459.834 86.6262ZM478.195 90.6582C478.195 90.8262 478.174 91.0782 478.153 91.2672H469.123C469.375 93.2202 470.95 94.5222 473.155 94.5222C474.457 94.5222 475.549 94.0812 476.368 93.1782L477.481 94.4802C476.473 95.6562 474.94 96.2862 473.092 96.2862C469.501 96.2862 467.107 93.9132 467.107 90.5952C467.107 87.2982 469.48 84.9252 472.693 84.9252C475.906 84.9252 478.195 87.2352 478.195 90.6582ZM472.693 86.6262C470.761 86.6262 469.333 87.9282 469.123 89.8182H476.263C476.053 87.9492 474.646 86.6262 472.693 86.6262ZM486.895 84.9252C490.15 84.9252 492.523 87.1932 492.523 90.5952C492.523 94.0182 490.15 96.2862 486.895 96.2862C485.32 96.2862 483.934 95.6772 483.01 94.4802V100.234H480.994V85.0302H482.926V86.7942C483.829 85.5552 485.257 84.9252 486.895 84.9252ZM486.727 94.5222C488.869 94.5222 490.486 92.9682 490.486 90.5952C490.486 88.2432 488.869 86.6892 486.727 86.6892C484.606 86.6892 482.989 88.2432 482.989 90.5952C482.989 92.9682 484.606 94.5222 486.727 94.5222ZM1.911 121.16V105.578H3.927V121.16H1.911ZM17.8352 115.658C17.8352 115.826 17.8142 116.078 17.7932 116.267H8.76323C9.01523 118.22 10.5902 119.522 12.7952 119.522C14.0972 119.522 15.1892 119.081 16.0082 118.178L17.1212 119.48C16.1132 120.656 14.5802 121.286 12.7322 121.286C9.14123 121.286 6.74723 118.913 6.74723 115.595C6.74723 112.298 9.12023 109.925 12.3332 109.925C15.5462 109.925 17.8352 112.235 17.8352 115.658ZM12.3332 111.626C10.4012 111.626 8.97323 112.928 8.76323 114.818H15.9032C15.6932 112.949 14.2862 111.626 12.3332 111.626ZM24.38 109.925C27.425 109.925 29.147 111.395 29.147 114.44V121.16H27.236V119.69C26.564 120.698 25.325 121.286 23.582 121.286C21.062 121.286 19.466 119.942 19.466 118.01C19.466 116.225 20.621 114.755 23.939 114.755H27.131V114.356C27.131 112.655 26.144 111.668 24.149 111.668C22.826 111.668 21.482 112.13 20.621 112.865L19.781 111.353C20.936 110.429 22.595 109.925 24.38 109.925ZM23.918 119.732C25.43 119.732 26.627 119.039 27.131 117.758V116.204H24.023C22.028 116.204 21.461 116.981 21.461 117.926C21.461 119.039 22.385 119.732 23.918 119.732ZM34.8098 111.899C35.5238 110.597 36.9098 109.925 38.8628 109.925V111.878C38.6948 111.857 38.5478 111.857 38.4008 111.857C36.2378 111.857 34.8938 113.18 34.8938 115.616V121.16H32.8778V110.03H34.8098V111.899ZM47.2905 109.925C49.9995 109.925 51.9105 111.479 51.9105 114.755V121.16H49.8945V114.986C49.8945 112.802 48.8025 111.731 46.8915 111.731C44.7495 111.731 43.3635 113.012 43.3635 115.427V121.16H41.3475V110.03H43.2795V111.71C44.0985 110.576 45.5265 109.925 47.2905 109.925ZM56.6495 107.888C55.8725 107.888 55.2845 107.321 55.2845 106.586C55.2845 105.851 55.8725 105.263 56.6495 105.263C57.4265 105.263 58.0145 105.83 58.0145 106.544C58.0145 107.3 57.4475 107.888 56.6495 107.888ZM55.6415 121.16V110.03H57.6575V121.16H55.6415ZM67.4497 109.925C70.1587 109.925 72.0697 111.479 72.0697 114.755V121.16H70.0537V114.986C70.0537 112.802 68.9617 111.731 67.0507 111.731C64.9087 111.731 63.5227 113.012 63.5227 115.427V121.16H61.5067V110.03H63.4387V111.71C64.2577 110.576 65.6857 109.925 67.4497 109.925ZM84.5982 110.03H86.5092V119.648C86.5092 123.575 84.5142 125.36 80.7342 125.36C78.6972 125.36 76.6392 124.793 75.4212 123.701L76.3872 122.147C77.4162 123.029 79.0332 123.596 80.6712 123.596C83.2962 123.596 84.4932 122.378 84.4932 119.858V118.976C83.5272 120.131 82.0782 120.698 80.4822 120.698C77.2692 120.698 74.8332 118.514 74.8332 115.301C74.8332 112.088 77.2692 109.925 80.4822 109.925C82.1412 109.925 83.6532 110.534 84.5982 111.752V110.03ZM80.7132 118.934C82.9392 118.934 84.5352 117.443 84.5352 115.301C84.5352 113.138 82.9392 111.689 80.7132 111.689C78.4662 111.689 76.8702 113.138 76.8702 115.301C76.8702 117.443 78.4662 118.934 80.7132 118.934ZM100.054 109.925C103.099 109.925 104.821 111.395 104.821 114.44V121.16H102.91V119.69C102.238 120.698 100.999 121.286 99.2558 121.286C96.7358 121.286 95.1398 119.942 95.1398 118.01C95.1398 116.225 96.2948 114.755 99.6128 114.755H102.805V114.356C102.805 112.655 101.818 111.668 99.8228 111.668C98.4998 111.668 97.1558 112.13 96.2948 112.865L95.4548 111.353C96.6098 110.429 98.2688 109.925 100.054 109.925ZM99.5918 119.732C101.104 119.732 102.301 119.039 102.805 117.758V116.204H99.6968C97.7018 116.204 97.1348 116.981 97.1348 117.926C97.1348 119.039 98.0588 119.732 99.5918 119.732ZM114.495 109.925C117.204 109.925 119.115 111.479 119.115 114.755V121.16H117.099V114.986C117.099 112.802 116.007 111.731 114.096 111.731C111.954 111.731 110.568 113.012 110.568 115.427V121.16H108.552V110.03H110.484V111.71C111.303 110.576 112.731 109.925 114.495 109.925ZM131.391 105.578H133.407V121.16H131.475V119.396C130.572 120.656 129.144 121.286 127.506 121.286C124.251 121.286 121.878 118.997 121.878 115.595C121.878 112.193 124.251 109.925 127.506 109.925C129.081 109.925 130.467 110.513 131.391 111.71V105.578ZM127.674 119.522C129.795 119.522 131.412 117.968 131.412 115.595C131.412 113.222 129.795 111.689 127.674 111.689C125.532 111.689 123.915 113.222 123.915 115.595C123.915 117.968 125.532 119.522 127.674 119.522ZM147.712 121.286C144.289 121.286 141.832 118.913 141.832 115.595C141.832 112.277 144.289 109.925 147.712 109.925C149.707 109.925 151.366 110.744 152.248 112.298L150.715 113.285C150.001 112.193 148.909 111.689 147.691 111.689C145.507 111.689 143.869 113.222 143.869 115.595C143.869 118.01 145.507 119.522 147.691 119.522C148.909 119.522 150.001 119.018 150.715 117.926L152.248 118.892C151.366 120.446 149.707 121.286 147.712 121.286ZM156.79 111.899C157.504 110.597 158.89 109.925 160.843 109.925V111.878C160.675 111.857 160.528 111.857 160.381 111.857C158.218 111.857 156.874 113.18 156.874 115.616V121.16H154.858V110.03H156.79V111.899ZM171.83 110.03H173.846V121.16H171.935V119.48C171.116 120.635 169.73 121.286 168.155 121.286C165.278 121.286 163.367 119.711 163.367 116.435V110.03H165.383V116.204C165.383 118.388 166.475 119.48 168.386 119.48C170.486 119.48 171.83 118.178 171.83 115.784V110.03ZM180.875 121.286C179.027 121.286 177.2 120.719 176.276 119.984L177.116 118.388C178.061 119.06 179.573 119.543 181.022 119.543C182.891 119.543 183.668 118.976 183.668 118.031C183.668 115.532 176.633 117.695 176.633 113.264C176.633 111.269 178.418 109.925 181.274 109.925C182.723 109.925 184.361 110.303 185.327 110.933L184.466 112.529C183.458 111.878 182.345 111.647 181.253 111.647C179.489 111.647 178.628 112.298 178.628 113.18C178.628 115.805 185.684 113.663 185.684 117.989C185.684 120.005 183.836 121.286 180.875 121.286ZM194.147 109.925C196.856 109.925 198.767 111.479 198.767 114.755V121.16H196.751V114.986C196.751 112.802 195.659 111.731 193.748 111.731C191.606 111.731 190.22 113.012 190.22 115.427V121.16H188.204V105.578H190.22V111.605C191.06 110.534 192.446 109.925 194.147 109.925ZM203.506 107.888C202.729 107.888 202.141 107.321 202.141 106.586C202.141 105.851 202.729 105.263 203.506 105.263C204.283 105.263 204.871 105.83 204.871 106.544C204.871 107.3 204.304 107.888 203.506 107.888ZM202.498 121.16V110.03H204.514V121.16H202.498ZM214.306 109.925C217.015 109.925 218.926 111.479 218.926 114.755V121.16H216.91V114.986C216.91 112.802 215.818 111.731 213.907 111.731C211.765 111.731 210.379 113.012 210.379 115.427V121.16H208.363V110.03H210.295V111.71C211.114 110.576 212.542 109.925 214.306 109.925ZM231.455 110.03H233.366V119.648C233.366 123.575 231.371 125.36 227.591 125.36C225.554 125.36 223.496 124.793 222.278 123.701L223.244 122.147C224.273 123.029 225.89 123.596 227.528 123.596C230.153 123.596 231.35 122.378 231.35 119.858V118.976C230.384 120.131 228.935 120.698 227.339 120.698C224.126 120.698 221.69 118.514 221.69 115.301C221.69 112.088 224.126 109.925 227.339 109.925C228.998 109.925 230.51 110.534 231.455 111.752V110.03ZM227.57 118.934C229.796 118.934 231.392 117.443 231.392 115.301C231.392 113.138 229.796 111.689 227.57 111.689C225.323 111.689 223.727 113.138 223.727 115.301C223.727 117.443 225.323 118.934 227.57 118.934ZM250.732 110.03H252.706L247.309 122.273C246.322 124.625 245.041 125.36 243.34 125.36C242.269 125.36 241.177 125.003 240.484 124.331L241.345 122.819C241.891 123.344 242.584 123.638 243.34 123.638C244.306 123.638 244.915 123.197 245.461 121.916L245.818 121.139L240.904 110.03H243.004L246.889 118.934L250.732 110.03ZM259.047 121.286C255.708 121.286 253.251 118.913 253.251 115.595C253.251 112.277 255.708 109.925 259.047 109.925C262.386 109.925 264.822 112.277 264.822 115.595C264.822 118.913 262.386 121.286 259.047 121.286ZM259.047 119.522C261.189 119.522 262.785 117.968 262.785 115.595C262.785 113.222 261.189 111.689 259.047 111.689C256.905 111.689 255.288 113.222 255.288 115.595C255.288 117.968 256.905 119.522 259.047 119.522ZM275.968 110.03H277.984V121.16H276.073V119.48C275.254 120.635 273.868 121.286 272.293 121.286C269.416 121.286 267.505 119.711 267.505 116.435V110.03H269.521V116.204C269.521 118.388 270.613 119.48 272.524 119.48C274.624 119.48 275.968 118.178 275.968 115.784V110.03ZM283.754 111.899C284.468 110.597 285.854 109.925 287.807 109.925V111.878C287.639 111.857 287.492 111.857 287.345 111.857C285.182 111.857 283.838 113.18 283.838 115.616V121.16H281.822V110.03H283.754V111.899ZM304.811 110.03H306.722V119.648C306.722 123.575 304.727 125.36 300.947 125.36C298.91 125.36 296.852 124.793 295.634 123.701L296.6 122.147C297.629 123.029 299.246 123.596 300.884 123.596C303.509 123.596 304.706 122.378 304.706 119.858V118.976C303.74 120.131 302.291 120.698 300.695 120.698C297.482 120.698 295.046 118.514 295.046 115.301C295.046 112.088 297.482 109.925 300.695 109.925C302.354 109.925 303.866 110.534 304.811 111.752V110.03ZM300.926 118.934C303.152 118.934 304.748 117.443 304.748 115.301C304.748 113.138 303.152 111.689 300.926 111.689C298.679 111.689 297.083 113.138 297.083 115.301C297.083 117.443 298.679 118.934 300.926 118.934ZM315.341 121.286C312.002 121.286 309.545 118.913 309.545 115.595C309.545 112.277 312.002 109.925 315.341 109.925C318.68 109.925 321.116 112.277 321.116 115.595C321.116 118.913 318.68 121.286 315.341 121.286ZM315.341 119.522C317.483 119.522 319.079 117.968 319.079 115.595C319.079 113.222 317.483 111.689 315.341 111.689C313.199 111.689 311.582 113.222 311.582 115.595C311.582 117.968 313.199 119.522 315.341 119.522ZM327.855 109.925C330.9 109.925 332.622 111.395 332.622 114.44V121.16H330.711V119.69C330.039 120.698 328.8 121.286 327.057 121.286C324.537 121.286 322.941 119.942 322.941 118.01C322.941 116.225 324.096 114.755 327.414 114.755H330.606V114.356C330.606 112.655 329.619 111.668 327.624 111.668C326.301 111.668 324.957 112.13 324.096 112.865L323.256 111.353C324.411 110.429 326.07 109.925 327.855 109.925ZM327.393 119.732C328.905 119.732 330.102 119.039 330.606 117.758V116.204H327.498C325.503 116.204 324.936 116.981 324.936 117.926C324.936 119.039 325.86 119.732 327.393 119.732ZM336.352 121.16V105.578H338.368V121.16H336.352ZM345.41 121.286C343.562 121.286 341.735 120.719 340.811 119.984L341.651 118.388C342.596 119.06 344.108 119.543 345.557 119.543C347.426 119.543 348.203 118.976 348.203 118.031C348.203 115.532 341.168 117.695 341.168 113.264C341.168 111.269 342.953 109.925 345.809 109.925C347.258 109.925 348.896 110.303 349.862 110.933L349.001 112.529C347.993 111.878 346.88 111.647 345.788 111.647C344.024 111.647 343.163 112.298 343.163 113.18C343.163 115.805 350.219 113.663 350.219 117.989C350.219 120.005 348.371 121.286 345.41 121.286ZM353.221 121.286C352.444 121.286 351.793 120.677 351.793 119.837C351.793 118.997 352.444 118.409 353.221 118.409C353.977 118.409 354.607 118.997 354.607 119.837C354.607 120.677 353.977 121.286 353.221 121.286Z" fill="#2B2B2B"/>
</svg>
