<svg width="968" height="145" viewBox="0 0 968 145" fill="none" xmlns="http://www.w3.org/2000/svg">
<path d="M2.82 29.8809V8.88086H6.72V26.5809H17.7V29.8809H2.82ZM35.3325 21.9609C35.3325 22.2609 35.3025 22.7109 35.2725 23.0709H22.7025C23.1525 25.4109 25.1025 26.9109 27.8925 26.9109C29.6925 26.9109 31.1025 26.3409 32.2425 25.1709L34.2525 27.4809C32.8125 29.1909 30.5625 30.0909 27.8025 30.0909C22.4325 30.0909 18.9525 26.6409 18.9525 21.8709C18.9525 17.1009 22.4625 13.6809 27.2325 13.6809C31.9125 13.6809 35.3325 16.9509 35.3325 21.9609ZM27.2325 16.6809C24.8025 16.6809 23.0325 18.2409 22.6725 20.5809H31.7625C31.4625 18.2709 29.6925 16.6809 27.2325 16.6809ZM44.6152 13.6809C49.2352 13.6809 51.9052 15.8709 51.9052 20.4909V29.8809H48.3652V27.9309C47.4652 29.3109 45.7252 30.0909 43.3252 30.0909C39.6652 30.0909 37.3552 28.0809 37.3552 25.2909C37.3552 22.6209 39.1552 20.5209 44.0152 20.5209H48.1552V20.2809C48.1552 18.0909 46.8352 16.8009 44.1652 16.8009C42.3652 16.8009 40.5052 17.4009 39.3052 18.3909L37.8352 15.6609C39.5452 14.3409 42.0352 13.6809 44.6152 13.6809ZM44.1052 27.3609C45.9352 27.3609 47.5252 26.5209 48.1552 24.8709V23.0109H44.2852C41.7352 23.0109 41.0452 23.9709 41.0452 25.1409C41.0452 26.4909 42.1852 27.3609 44.1052 27.3609ZM68.8043 7.62086H72.5543V29.8809H68.9543V27.8109C67.6943 29.3409 65.8343 30.0909 63.6443 30.0909C58.9943 30.0909 55.5443 26.8509 55.5443 21.8709C55.5443 16.8909 58.9943 13.6809 63.6443 13.6809C65.7143 13.6809 67.5443 14.3709 68.8043 15.8409V7.62086ZM64.0943 26.8809C66.7943 26.8809 68.8643 24.9309 68.8643 21.8709C68.8643 18.8109 66.7943 16.8609 64.0943 16.8609C61.3943 16.8609 59.3243 18.8109 59.3243 21.8709C59.3243 24.9309 61.3943 26.8809 64.0943 26.8809ZM77.46 29.8809V7.62086H81.21V29.8809H77.46ZM86.1319 29.8809V7.62086H89.8819V29.8809H86.1319ZM106.204 13.8609H109.804L102.304 31.1709C100.834 34.8009 98.7938 35.9109 96.1238 35.9109C94.5338 35.9109 92.8538 35.3709 91.8337 34.4409L93.3337 31.6809C94.0538 32.3709 95.0738 32.7909 96.0938 32.7909C97.4138 32.7909 98.1938 32.1609 98.9138 30.5709L99.1838 29.9409L92.1937 13.8609H96.0938L101.134 25.7109L106.204 13.8609ZM111.608 17.1909L111.368 8.88086H114.608L114.338 17.1909H111.608ZM123.689 30.0909C121.019 30.0909 118.349 29.3109 116.909 28.2909L118.349 25.4409C119.759 26.3709 121.919 27.0309 123.929 27.0309C126.299 27.0309 127.289 26.3709 127.289 25.2609C127.289 22.2009 117.389 25.0809 117.389 18.6909C117.389 15.6609 120.119 13.6809 124.439 13.6809C126.569 13.6809 128.999 14.1909 130.439 15.0609L128.999 17.9109C127.469 17.0109 125.939 16.7109 124.409 16.7109C122.129 16.7109 121.049 17.4609 121.049 18.5109C121.049 21.7509 130.949 18.8709 130.949 25.1409C130.949 28.1409 128.189 30.0909 123.689 30.0909ZM157.17 25.6809V19.1409H160.86V27.5109C158.67 29.2809 155.61 30.1809 152.64 30.1809C146.13 30.1809 141.33 25.6509 141.33 19.3809C141.33 13.1109 146.13 8.58086 152.7 8.58086C156.21 8.58086 159.15 9.75086 161.13 12.0009L158.67 14.4009C157.02 12.7509 155.13 12.0009 152.88 12.0009C148.41 12.0009 145.26 15.0309 145.26 19.3809C145.26 23.6409 148.41 26.7609 152.85 26.7609C154.35 26.7609 155.82 26.4609 157.17 25.6809ZM169.214 16.2009C170.294 14.5209 172.244 13.6809 174.914 13.6809V17.2509C174.584 17.1909 174.314 17.1609 174.044 17.1609C171.194 17.1609 169.394 18.8409 169.394 22.1109V29.8809H165.644V13.8609H169.214V16.2009ZM185.148 30.0909C180.228 30.0909 176.628 26.6709 176.628 21.8709C176.628 17.0709 180.228 13.6809 185.148 13.6809C190.128 13.6809 193.698 17.0709 193.698 21.8709C193.698 26.6709 190.128 30.0909 185.148 30.0909ZM185.148 26.8809C187.878 26.8809 189.918 24.9309 189.918 21.8709C189.918 18.8109 187.878 16.8609 185.148 16.8609C182.448 16.8609 180.408 18.8109 180.408 21.8709C180.408 24.9309 182.448 26.8809 185.148 26.8809ZM218.505 13.8609H221.835L215.925 29.8809H212.325L208.185 18.8409L203.985 29.8809H200.385L194.505 13.8609H198.045L202.275 25.6809L206.685 13.8609H209.835L214.155 25.7409L218.505 13.8609ZM233.433 26.3409L234.483 29.0109C233.583 29.7309 232.233 30.0909 230.883 30.0909C227.373 30.0909 225.363 28.2309 225.363 24.6909V16.9809H222.723V13.9809H225.363V10.3209H229.113V13.9809H233.403V16.9809H229.113V24.6009C229.113 26.1609 229.893 27.0009 231.333 27.0009C232.113 27.0009 232.863 26.7909 233.433 26.3409ZM246.657 13.6809C250.497 13.6809 253.347 15.8709 253.347 20.7009V29.8809H249.597V21.1809C249.597 18.3309 248.187 16.9509 245.787 16.9509C243.117 16.9509 241.317 18.5709 241.317 21.7809V29.8809H237.567V7.62086H241.317V15.7209C242.547 14.4009 244.437 13.6809 246.657 13.6809ZM289.736 29.8809H286.046L286.016 15.9609L279.116 27.4809H277.376L270.476 16.1409V29.8809H266.756V8.88086H269.966L278.306 22.8009L286.496 8.88086H289.706L289.736 29.8809ZM310.108 21.9609C310.108 22.2609 310.078 22.7109 310.048 23.0709H297.478C297.928 25.4109 299.878 26.9109 302.668 26.9109C304.468 26.9109 305.878 26.3409 307.018 25.1709L309.028 27.4809C307.588 29.1909 305.338 30.0909 302.578 30.0909C297.208 30.0909 293.728 26.6409 293.728 21.8709C293.728 17.1009 297.238 13.6809 302.008 13.6809C306.688 13.6809 310.108 16.9509 310.108 21.9609ZM302.008 16.6809C299.578 16.6809 297.808 18.2409 297.448 20.5809H306.538C306.238 18.2709 304.468 16.6809 302.008 16.6809ZM322.29 26.3409L323.34 29.0109C322.44 29.7309 321.09 30.0909 319.74 30.0909C316.23 30.0909 314.22 28.2309 314.22 24.6909V16.9809H311.58V13.9809H314.22V10.3209H317.97V13.9809H322.26V16.9809H317.97V24.6009C317.97 26.1609 318.75 27.0009 320.19 27.0009C320.97 27.0009 321.72 26.7909 322.29 26.3409ZM340.958 21.9609C340.958 22.2609 340.928 22.7109 340.898 23.0709H328.328C328.778 25.4109 330.728 26.9109 333.518 26.9109C335.318 26.9109 336.728 26.3409 337.868 25.1709L339.878 27.4809C338.438 29.1909 336.188 30.0909 333.428 30.0909C328.058 30.0909 324.578 26.6409 324.578 21.8709C324.578 17.1009 328.088 13.6809 332.858 13.6809C337.538 13.6809 340.958 16.9509 340.958 21.9609ZM332.858 16.6809C330.428 16.6809 328.658 18.2409 328.298 20.5809H337.388C337.088 18.2709 335.318 16.6809 332.858 16.6809ZM348.13 16.2009C349.21 14.5209 351.16 13.6809 353.83 13.6809V17.2509C353.5 17.1909 353.23 17.1609 352.96 17.1609C350.11 17.1609 348.31 18.8409 348.31 22.1109V29.8809H344.56V13.8609H348.13V16.2009ZM367.338 11.2209C365.958 11.2209 364.938 10.2309 364.938 8.97086C364.938 7.71086 365.958 6.72086 367.338 6.72086C368.718 6.72086 369.738 7.65086 369.738 8.88086C369.738 10.2009 368.748 11.2209 367.338 11.2209ZM365.448 29.8809V13.8609H369.198V29.8809H365.448ZM379.07 30.0909C376.4 30.0909 373.73 29.3109 372.29 28.2909L373.73 25.4409C375.14 26.3709 377.3 27.0309 379.31 27.0309C381.68 27.0309 382.67 26.3709 382.67 25.2609C382.67 22.2009 372.77 25.0809 372.77 18.6909C372.77 15.6609 375.5 13.6809 379.82 13.6809C381.95 13.6809 384.38 14.1909 385.82 15.0609L384.38 17.9109C382.85 17.0109 381.32 16.7109 379.79 16.7109C377.51 16.7109 376.43 17.4609 376.43 18.5109C376.43 21.7509 386.33 18.8709 386.33 25.1409C386.33 28.1409 383.57 30.0909 379.07 30.0909ZM409.251 13.8609H412.851L405.351 31.1709C403.881 34.8009 401.841 35.9109 399.171 35.9109C397.581 35.9109 395.901 35.3709 394.881 34.4409L396.381 31.6809C397.101 32.3709 398.121 32.7909 399.141 32.7909C400.461 32.7909 401.241 32.1609 401.961 30.5709L402.231 29.9409L395.241 13.8609H399.141L404.181 25.7109L409.251 13.8609ZM421.955 30.0909C417.035 30.0909 413.435 26.6709 413.435 21.8709C413.435 17.0709 417.035 13.6809 421.955 13.6809C426.935 13.6809 430.505 17.0709 430.505 21.8709C430.505 26.6709 426.935 30.0909 421.955 30.0909ZM421.955 26.8809C424.685 26.8809 426.725 24.9309 426.725 21.8709C426.725 18.8109 424.685 16.8609 421.955 16.8609C419.255 16.8609 417.215 18.8109 417.215 21.8709C417.215 24.9309 419.255 26.8809 421.955 26.8809ZM445.851 13.8609H449.601V29.8809H446.031V27.8409C444.831 29.3109 442.941 30.0909 440.871 30.0909C436.761 30.0909 433.971 27.8409 433.971 23.0109V13.8609H437.721V22.5009C437.721 25.4109 439.101 26.7909 441.471 26.7909C444.081 26.7909 445.851 25.1709 445.851 21.9609V13.8609ZM458.081 16.2009C459.161 14.5209 461.111 13.6809 463.781 13.6809V17.2509C463.451 17.1909 463.181 17.1609 462.911 17.1609C460.061 17.1609 458.261 18.8409 458.261 22.1109V29.8809H454.511V13.8609H458.081V16.2009ZM484.279 13.6809C488.959 13.6809 492.409 16.9209 492.409 21.8709C492.409 26.8509 488.959 30.0909 484.279 30.0909C482.239 30.0909 480.439 29.4009 479.149 27.9309V35.7009H475.399V13.8609H478.969V15.9609C480.229 14.4309 482.089 13.6809 484.279 13.6809ZM483.859 26.8809C486.559 26.8809 488.599 24.9309 488.599 21.8709C488.599 18.8109 486.559 16.8609 483.859 16.8609C481.159 16.8609 479.089 18.8109 479.089 21.8709C479.089 24.9309 481.159 26.8809 483.859 26.8809ZM511.026 21.9609C511.026 22.2609 510.996 22.7109 510.966 23.0709H498.396C498.846 25.4109 500.796 26.9109 503.586 26.9109C505.386 26.9109 506.796 26.3409 507.936 25.1709L509.946 27.4809C508.506 29.1909 506.256 30.0909 503.496 30.0909C498.126 30.0909 494.646 26.6409 494.646 21.8709C494.646 17.1009 498.156 13.6809 502.926 13.6809C507.606 13.6809 511.026 16.9509 511.026 21.9609ZM502.926 16.6809C500.496 16.6809 498.726 18.2409 498.366 20.5809H507.456C507.156 18.2709 505.386 16.6809 502.926 16.6809ZM518.198 16.2009C519.278 14.5209 521.228 13.6809 523.898 13.6809V17.2509C523.568 17.1909 523.298 17.1609 523.028 17.1609C520.178 17.1609 518.378 18.8409 518.378 22.1109V29.8809H514.628V13.8609H518.198V16.2009ZM532.088 30.0909C529.418 30.0909 526.748 29.3109 525.308 28.2909L526.748 25.4409C528.158 26.3709 530.318 27.0309 532.328 27.0309C534.698 27.0309 535.688 26.3709 535.688 25.2609C535.688 22.2009 525.788 25.0809 525.788 18.6909C525.788 15.6609 528.518 13.6809 532.838 13.6809C534.968 13.6809 537.398 14.1909 538.838 15.0609L537.398 17.9109C535.868 17.0109 534.338 16.7109 532.808 16.7109C530.528 16.7109 529.448 17.4609 529.448 18.5109C529.448 21.7509 539.348 18.8709 539.348 25.1409C539.348 28.1409 536.588 30.0909 532.088 30.0909ZM549.777 30.0909C544.857 30.0909 541.257 26.6709 541.257 21.8709C541.257 17.0709 544.857 13.6809 549.777 13.6809C554.757 13.6809 558.327 17.0709 558.327 21.8709C558.327 26.6709 554.757 30.0909 549.777 30.0909ZM549.777 26.8809C552.507 26.8809 554.547 24.9309 554.547 21.8709C554.547 18.8109 552.507 16.8609 549.777 16.8609C547.077 16.8609 545.037 18.8109 545.037 21.8709C545.037 24.9309 547.077 26.8809 549.777 26.8809ZM571.003 13.6809C574.843 13.6809 577.693 15.8709 577.693 20.7009V29.8809H573.943V21.1809C573.943 18.3309 572.533 16.9509 570.133 16.9509C567.463 16.9509 565.663 18.5709 565.663 21.7809V29.8809H561.913V13.8609H565.483V15.9309C566.713 14.4609 568.663 13.6809 571.003 13.6809ZM588.57 13.6809C593.19 13.6809 595.86 15.8709 595.86 20.4909V29.8809H592.32V27.9309C591.42 29.3109 589.68 30.0909 587.28 30.0909C583.62 30.0909 581.31 28.0809 581.31 25.2909C581.31 22.6209 583.11 20.5209 587.97 20.5209H592.11V20.2809C592.11 18.0909 590.79 16.8009 588.12 16.8009C586.32 16.8009 584.46 17.4009 583.26 18.3909L581.79 15.6609C583.5 14.3409 585.99 13.6809 588.57 13.6809ZM588.06 27.3609C589.89 27.3609 591.48 26.5209 592.11 24.8709V23.0109H588.24C585.69 23.0109 585 23.9709 585 25.1409C585 26.4909 586.14 27.3609 588.06 27.3609ZM600.673 29.8809V7.62086H604.423V29.8809H600.673ZM617.636 29.8809V7.62086H621.386V29.8809H617.636ZM641.368 21.9609C641.368 22.2609 641.338 22.7109 641.308 23.0709H628.738C629.188 25.4109 631.138 26.9109 633.928 26.9109C635.728 26.9109 637.138 26.3409 638.278 25.1709L640.288 27.4809C638.848 29.1909 636.598 30.0909 633.838 30.0909C628.468 30.0909 624.988 26.6409 624.988 21.8709C624.988 17.1009 628.498 13.6809 633.268 13.6809C637.948 13.6809 641.368 16.9509 641.368 21.9609ZM633.268 16.6809C630.838 16.6809 629.068 18.2409 628.708 20.5809H637.798C637.498 18.2709 635.728 16.6809 633.268 16.6809ZM650.65 13.6809C655.27 13.6809 657.94 15.8709 657.94 20.4909V29.8809H654.4V27.9309C653.5 29.3109 651.76 30.0909 649.36 30.0909C645.7 30.0909 643.39 28.0809 643.39 25.2909C643.39 22.6209 645.19 20.5209 650.05 20.5209H654.19V20.2809C654.19 18.0909 652.87 16.8009 650.2 16.8009C648.4 16.8009 646.54 17.4009 645.34 18.3909L643.87 15.6609C645.58 14.3409 648.07 13.6809 650.65 13.6809ZM650.14 27.3609C651.97 27.3609 653.56 26.5209 654.19 24.8709V23.0109H650.32C647.77 23.0109 647.08 23.9709 647.08 25.1409C647.08 26.4909 648.22 27.3609 650.14 27.3609ZM666.323 16.2009C667.403 14.5209 669.353 13.6809 672.023 13.6809V17.2509C671.693 17.1909 671.423 17.1609 671.153 17.1609C668.303 17.1609 666.503 18.8409 666.503 22.1109V29.8809H662.753V13.8609H666.323V16.2009ZM684.294 13.6809C688.134 13.6809 690.984 15.8709 690.984 20.7009V29.8809H687.234V21.1809C687.234 18.3309 685.824 16.9509 683.424 16.9509C680.754 16.9509 678.954 18.5709 678.954 21.7809V29.8809H675.204V13.8609H678.774V15.9309C680.004 14.4609 681.954 13.6809 684.294 13.6809ZM697.631 11.2209C696.251 11.2209 695.231 10.2309 695.231 8.97086C695.231 7.71086 696.251 6.72086 697.631 6.72086C699.011 6.72086 700.031 7.65086 700.031 8.88086C700.031 10.2009 699.041 11.2209 697.631 11.2209ZM695.741 29.8809V13.8609H699.491V29.8809H695.741ZM713.503 13.6809C717.343 13.6809 720.193 15.8709 720.193 20.7009V29.8809H716.443V21.1809C716.443 18.3309 715.033 16.9509 712.633 16.9509C709.963 16.9509 708.163 18.5709 708.163 21.7809V29.8809H704.413V13.8609H707.983V15.9309C709.213 14.4609 711.163 13.6809 713.503 13.6809ZM737.427 13.8609H740.997V27.4509C740.997 33.2709 737.967 35.9109 732.357 35.9109C729.357 35.9109 726.387 35.1309 724.557 33.6309L726.237 30.8109C727.647 31.9809 729.927 32.7309 732.147 32.7309C735.687 32.7309 737.247 31.1109 737.247 27.8709V27.0309C735.927 28.4709 734.037 29.1609 731.877 29.1609C727.287 29.1609 723.777 26.0409 723.777 21.3909C723.777 16.7409 727.287 13.6809 731.877 13.6809C734.127 13.6809 736.107 14.4009 737.427 15.9909V13.8609ZM732.447 25.9809C735.267 25.9809 737.307 24.1209 737.307 21.3909C737.307 18.6909 735.267 16.8609 732.447 16.8609C729.597 16.8609 727.557 18.6909 727.557 21.3909C727.557 24.1209 729.597 25.9809 732.447 25.9809ZM766.158 7.62086H769.908V29.8809H766.308V27.8109C765.048 29.3409 763.188 30.0909 760.998 30.0909C756.348 30.0909 752.898 26.8509 752.898 21.8709C752.898 16.8909 756.348 13.6809 760.998 13.6809C763.068 13.6809 764.898 14.3709 766.158 15.8409V7.62086ZM761.448 26.8809C764.148 26.8809 766.218 24.9309 766.218 21.8709C766.218 18.8109 764.148 16.8609 761.448 16.8609C758.748 16.8609 756.678 18.8109 756.678 21.8709C756.678 24.9309 758.748 26.8809 761.448 26.8809ZM780.934 13.6809C785.554 13.6809 788.224 15.8709 788.224 20.4909V29.8809H784.684V27.9309C783.784 29.3109 782.044 30.0909 779.644 30.0909C775.984 30.0909 773.674 28.0809 773.674 25.2909C773.674 22.6209 775.474 20.5209 780.334 20.5209H784.474V20.2809C784.474 18.0909 783.154 16.8009 780.484 16.8009C778.684 16.8009 776.824 17.4009 775.624 18.3909L774.154 15.6609C775.864 14.3409 778.354 13.6809 780.934 13.6809ZM780.424 27.3609C782.254 27.3609 783.844 26.5209 784.474 24.8709V23.0109H780.604C778.054 23.0109 777.364 23.9709 777.364 25.1409C777.364 26.4909 778.504 27.3609 780.424 27.3609ZM797.986 30.0909C795.316 30.0909 792.646 29.3109 791.206 28.2909L792.646 25.4409C794.056 26.3709 796.216 27.0309 798.226 27.0309C800.596 27.0309 801.586 26.3709 801.586 25.2609C801.586 22.2009 791.686 25.0809 791.686 18.6909C791.686 15.6609 794.416 13.6809 798.736 13.6809C800.866 13.6809 803.296 14.1909 804.736 15.0609L803.296 17.9109C801.766 17.0109 800.236 16.7109 798.706 16.7109C796.426 16.7109 795.346 17.4609 795.346 18.5109C795.346 21.7509 805.246 18.8709 805.246 25.1409C805.246 28.1409 802.486 30.0909 797.986 30.0909ZM817.566 13.6809C821.406 13.6809 824.256 15.8709 824.256 20.7009V29.8809H820.506V21.1809C820.506 18.3309 819.096 16.9509 816.696 16.9509C814.026 16.9509 812.226 18.5709 812.226 21.7809V29.8809H808.476V7.62086H812.226V15.7209C813.456 14.4009 815.346 13.6809 817.566 13.6809ZM837.893 13.6809C842.573 13.6809 846.023 16.8909 846.023 21.8709C846.023 26.8509 842.573 30.0909 837.893 30.0909C835.703 30.0909 833.843 29.3409 832.583 27.8109V29.8809H829.013V7.62086H832.763V15.8109C834.053 14.3709 835.853 13.6809 837.893 13.6809ZM837.473 26.8809C840.173 26.8809 842.213 24.9309 842.213 21.8709C842.213 18.8109 840.173 16.8609 837.473 16.8609C834.773 16.8609 832.703 18.8109 832.703 21.8709C832.703 24.9309 834.773 26.8809 837.473 26.8809ZM856.779 30.0909C851.859 30.0909 848.259 26.6709 848.259 21.8709C848.259 17.0709 851.859 13.6809 856.779 13.6809C861.759 13.6809 865.329 17.0709 865.329 21.8709C865.329 26.6709 861.759 30.0909 856.779 30.0909ZM856.779 26.8809C859.509 26.8809 861.549 24.9309 861.549 21.8709C861.549 18.8109 859.509 16.8609 856.779 16.8609C854.079 16.8609 852.039 18.8109 852.039 21.8709C852.039 24.9309 854.079 26.8809 856.779 26.8809ZM874.83 13.6809C879.45 13.6809 882.12 15.8709 882.12 20.4909V29.8809H878.58V27.9309C877.68 29.3109 875.94 30.0909 873.54 30.0909C869.88 30.0909 867.57 28.0809 867.57 25.2909C867.57 22.6209 869.37 20.5209 874.23 20.5209H878.37V20.2809C878.37 18.0909 877.05 16.8009 874.38 16.8009C872.58 16.8009 870.72 17.4009 869.52 18.3909L868.05 15.6609C869.76 14.3409 872.25 13.6809 874.83 13.6809ZM874.32 27.3609C876.15 27.3609 877.74 26.5209 878.37 24.8709V23.0109H874.5C871.95 23.0109 871.26 23.9709 871.26 25.1409C871.26 26.4909 872.4 27.3609 874.32 27.3609ZM890.503 16.2009C891.583 14.5209 893.533 13.6809 896.203 13.6809V17.2509C895.873 17.1909 895.603 17.1609 895.333 17.1609C892.483 17.1609 890.683 18.8409 890.683 22.1109V29.8809H886.933V13.8609H890.503V16.2009ZM911.177 7.62086H914.927V29.8809H911.327V27.8109C910.067 29.3409 908.207 30.0909 906.017 30.0909C901.367 30.0909 897.917 26.8509 897.917 21.8709C897.917 16.8909 901.367 13.6809 906.017 13.6809C908.087 13.6809 909.917 14.3709 911.177 15.8409V7.62086ZM906.467 26.8809C909.167 26.8809 911.237 24.9309 911.237 21.8709C911.237 18.8109 909.167 16.8609 906.467 16.8609C903.767 16.8609 901.697 18.8109 901.697 21.8709C901.697 24.9309 903.767 26.8809 906.467 26.8809ZM921.063 25.1109C922.473 25.1109 923.493 26.1309 923.493 27.6009C923.493 28.2609 923.343 28.8009 922.803 30.1809L921.273 34.4109H918.843L920.043 29.8209C919.203 29.4609 918.633 28.6809 918.633 27.6009C918.633 26.1009 919.683 25.1109 921.063 25.1109ZM9.66 66.0909C4.74 66.0909 1.14 62.6709 1.14 57.8709C1.14 53.0709 4.74 49.6809 9.66 49.6809C14.64 49.6809 18.21 53.0709 18.21 57.8709C18.21 62.6709 14.64 66.0909 9.66 66.0909ZM9.66 62.8809C12.39 62.8809 14.43 60.9309 14.43 57.8709C14.43 54.8109 12.39 52.8609 9.66 52.8609C6.96 52.8609 4.92 54.8109 4.92 57.8709C4.92 60.9309 6.96 62.8809 9.66 62.8809ZM28.3059 46.4409C26.7459 46.4409 25.9359 47.3109 25.9359 49.0209V49.9809H30.3459V52.9809H26.0559V65.8809H22.3059V52.9809H19.6659V49.9809H22.3059V48.9609C22.3059 45.6009 24.3159 43.4109 28.0359 43.4109C29.3259 43.4109 30.5859 43.6809 31.4259 44.2809L30.3759 47.1009C29.8059 46.7109 29.0859 46.4409 28.3059 46.4409ZM39.3802 46.4409C37.8202 46.4409 37.0102 47.3109 37.0102 49.0209V49.9809H41.4202V52.9809H37.1302V65.8809H33.3802V52.9809H30.7402V49.9809H33.3802V48.9609C33.3802 45.6009 35.3902 43.4109 39.1102 43.4109C40.4002 43.4109 41.6602 43.6809 42.5002 44.2809L41.4502 47.1009C40.8802 46.7109 40.1602 46.4409 39.3802 46.4409ZM58.77 57.9609C58.77 58.2609 58.74 58.7109 58.71 59.0709H46.14C46.59 61.4109 48.54 62.9109 51.33 62.9109C53.13 62.9109 54.54 62.3409 55.68 61.1709L57.69 63.4809C56.25 65.1909 54 66.0909 51.24 66.0909C45.87 66.0909 42.39 62.6409 42.39 57.8709C42.39 53.1009 45.9 49.6809 50.67 49.6809C55.35 49.6809 58.77 52.9509 58.77 57.9609ZM50.67 52.6809C48.24 52.6809 46.47 54.2409 46.11 56.5809H55.2C54.9 54.2709 53.13 52.6809 50.67 52.6809ZM65.9421 52.2009C67.0221 50.5209 68.9721 49.6809 71.6421 49.6809V53.2509C71.3121 53.1909 71.0421 53.1609 70.7721 53.1609C67.9221 53.1609 66.1221 54.8409 66.1221 58.1109V65.8809H62.3721V49.8609H65.9421V52.2009ZM76.7133 47.2209C75.3333 47.2209 74.3133 46.2309 74.3133 44.9709C74.3133 43.7109 75.3333 42.7209 76.7133 42.7209C78.0933 42.7209 79.1133 43.6509 79.1133 44.8809C79.1133 46.2009 78.1233 47.2209 76.7133 47.2209ZM74.8233 65.8809V49.8609H78.5733V65.8809H74.8233ZM92.5852 49.6809C96.4252 49.6809 99.2752 51.8709 99.2752 56.7009V65.8809H95.5252V57.1809C95.5252 54.3309 94.1152 52.9509 91.7152 52.9509C89.0452 52.9509 87.2452 54.5709 87.2452 57.7809V65.8809H83.4952V49.8609H87.0652V51.9309C88.2952 50.4609 90.2452 49.6809 92.5852 49.6809ZM116.509 49.8609H120.079V63.4509C120.079 69.2709 117.049 71.9109 111.439 71.9109C108.439 71.9109 105.469 71.1309 103.639 69.6309L105.319 66.8109C106.729 67.9809 109.009 68.7309 111.229 68.7309C114.769 68.7309 116.329 67.1109 116.329 63.8709V63.0309C115.009 64.4709 113.119 65.1609 110.959 65.1609C106.369 65.1609 102.859 62.0409 102.859 57.3909C102.859 52.7409 106.369 49.6809 110.959 49.6809C113.209 49.6809 115.189 50.4009 116.509 51.9909V49.8609ZM111.529 61.9809C114.349 61.9809 116.389 60.1209 116.389 57.3909C116.389 54.6909 114.349 52.8609 111.529 52.8609C108.679 52.8609 106.639 54.6909 106.639 57.3909C106.639 60.1209 108.679 61.9809 111.529 61.9809ZM139.42 49.6809C144.04 49.6809 146.71 51.8709 146.71 56.4909V65.8809H143.17V63.9309C142.27 65.3109 140.53 66.0909 138.13 66.0909C134.47 66.0909 132.16 64.0809 132.16 61.2909C132.16 58.6209 133.96 56.5209 138.82 56.5209H142.96V56.2809C142.96 54.0909 141.64 52.8009 138.97 52.8009C137.17 52.8009 135.31 53.4009 134.11 54.3909L132.64 51.6609C134.35 50.3409 136.84 49.6809 139.42 49.6809ZM138.91 63.3609C140.74 63.3609 142.33 62.5209 142.96 60.8709V59.0109H139.09C136.54 59.0109 135.85 59.9709 135.85 61.1409C135.85 62.4909 136.99 63.3609 138.91 63.3609ZM167.164 66.0909C162.094 66.0909 158.494 62.6709 158.494 57.8709C158.494 53.0709 162.094 49.6809 167.164 49.6809C170.284 49.6809 172.774 50.9709 174.004 53.4009L171.124 55.0809C170.164 53.5509 168.724 52.8609 167.134 52.8609C164.374 52.8609 162.274 54.7809 162.274 57.8709C162.274 60.9909 164.374 62.8809 167.134 62.8809C168.724 62.8809 170.164 62.1909 171.124 60.6609L174.004 62.3409C172.774 64.7409 170.284 66.0909 167.164 66.0909ZM177.099 65.8809V43.6209H180.849V65.8809H177.099ZM200.831 57.9609C200.831 58.2609 200.801 58.7109 200.771 59.0709H188.201C188.651 61.4109 190.601 62.9109 193.391 62.9109C195.191 62.9109 196.601 62.3409 197.741 61.1709L199.751 63.4809C198.311 65.1909 196.061 66.0909 193.301 66.0909C187.931 66.0909 184.451 62.6409 184.451 57.8709C184.451 53.1009 187.961 49.6809 192.731 49.6809C197.411 49.6809 200.831 52.9509 200.831 57.9609ZM192.731 52.6809C190.301 52.6809 188.531 54.2409 188.171 56.5809H197.261C196.961 54.2709 195.191 52.6809 192.731 52.6809ZM210.113 49.6809C214.733 49.6809 217.403 51.8709 217.403 56.4909V65.8809H213.863V63.9309C212.963 65.3109 211.223 66.0909 208.823 66.0909C205.163 66.0909 202.853 64.0809 202.853 61.2909C202.853 58.6209 204.653 56.5209 209.513 56.5209H213.653V56.2809C213.653 54.0909 212.333 52.8009 209.663 52.8009C207.863 52.8009 206.003 53.4009 204.803 54.3909L203.333 51.6609C205.043 50.3409 207.533 49.6809 210.113 49.6809ZM209.603 63.3609C211.433 63.3609 213.023 62.5209 213.653 60.8709V59.0109H209.783C207.233 59.0109 206.543 59.9709 206.543 61.1409C206.543 62.4909 207.683 63.3609 209.603 63.3609ZM225.786 52.2009C226.866 50.5209 228.816 49.6809 231.486 49.6809V53.2509C231.156 53.1909 230.886 53.1609 230.616 53.1609C227.766 53.1609 225.966 54.8409 225.966 58.1109V65.8809H222.216V49.8609H225.786V52.2009ZM254.505 49.8609H258.105L251.235 65.8809H247.365L240.495 49.8609H244.395L249.375 61.7409L254.505 49.8609ZM262.338 47.2209C260.958 47.2209 259.938 46.2309 259.938 44.9709C259.938 43.7109 260.958 42.7209 262.338 42.7209C263.718 42.7209 264.738 43.6509 264.738 44.8809C264.738 46.2009 263.748 47.2209 262.338 47.2209ZM260.448 65.8809V49.8609H264.198V65.8809H260.448ZM274.07 66.0909C271.4 66.0909 268.73 65.3109 267.29 64.2909L268.73 61.4409C270.14 62.3709 272.3 63.0309 274.31 63.0309C276.68 63.0309 277.67 62.3709 277.67 61.2609C277.67 58.2009 267.77 61.0809 267.77 54.6909C267.77 51.6609 270.5 49.6809 274.82 49.6809C276.95 49.6809 279.38 50.1909 280.82 51.0609L279.38 53.9109C277.85 53.0109 276.32 52.7109 274.79 52.7109C272.51 52.7109 271.43 53.4609 271.43 54.5109C271.43 57.7509 281.33 54.8709 281.33 61.1409C281.33 64.1409 278.57 66.0909 274.07 66.0909ZM296.32 49.8609H300.07V65.8809H296.5V63.8409C295.3 65.3109 293.41 66.0909 291.34 66.0909C287.23 66.0909 284.44 63.8409 284.44 59.0109V49.8609H288.19V58.5009C288.19 61.4109 289.57 62.7909 291.94 62.7909C294.55 62.7909 296.32 61.1709 296.32 57.9609V49.8609ZM311.1 49.6809C315.72 49.6809 318.39 51.8709 318.39 56.4909V65.8809H314.85V63.9309C313.95 65.3109 312.21 66.0909 309.81 66.0909C306.15 66.0909 303.84 64.0809 303.84 61.2909C303.84 58.6209 305.64 56.5209 310.5 56.5209H314.64V56.2809C314.64 54.0909 313.32 52.8009 310.65 52.8009C308.85 52.8009 306.99 53.4009 305.79 54.3909L304.32 51.6609C306.03 50.3409 308.52 49.6809 311.1 49.6809ZM310.59 63.3609C312.42 63.3609 314.01 62.5209 314.64 60.8709V59.0109H310.77C308.22 59.0109 307.53 59.9709 307.53 61.1409C307.53 62.4909 308.67 63.3609 310.59 63.3609ZM323.202 65.8809V43.6209H326.952V65.8809H323.202ZM345.115 66.0909C342.445 66.0909 339.775 65.3109 338.335 64.2909L339.775 61.4409C341.185 62.3709 343.345 63.0309 345.355 63.0309C347.725 63.0309 348.715 62.3709 348.715 61.2609C348.715 58.2009 338.815 61.0809 338.815 54.6909C338.815 51.6609 341.545 49.6809 345.865 49.6809C347.995 49.6809 350.425 50.1909 351.865 51.0609L350.425 53.9109C348.895 53.0109 347.365 52.7109 345.835 52.7109C343.555 52.7109 342.475 53.4609 342.475 54.5109C342.475 57.7509 352.375 54.8709 352.375 61.1409C352.375 64.1409 349.615 66.0909 345.115 66.0909ZM364.695 49.6809C368.535 49.6809 371.385 51.8709 371.385 56.7009V65.8809H367.635V57.1809C367.635 54.3309 366.225 52.9509 363.825 52.9509C361.155 52.9509 359.355 54.5709 359.355 57.7809V65.8809H355.605V49.8609H359.175V51.9309C360.405 50.4609 362.355 49.6809 364.695 49.6809ZM382.262 49.6809C386.882 49.6809 389.552 51.8709 389.552 56.4909V65.8809H386.012V63.9309C385.112 65.3109 383.372 66.0909 380.972 66.0909C377.312 66.0909 375.002 64.0809 375.002 61.2909C375.002 58.6209 376.802 56.5209 381.662 56.5209H385.802V56.2809C385.802 54.0909 384.482 52.8009 381.812 52.8009C380.012 52.8009 378.152 53.4009 376.952 54.3909L375.482 51.6609C377.192 50.3409 379.682 49.6809 382.262 49.6809ZM381.752 63.3609C383.582 63.3609 385.172 62.5209 385.802 60.8709V59.0109H381.932C379.382 59.0109 378.692 59.9709 378.692 61.1409C378.692 62.4909 379.832 63.3609 381.752 63.3609ZM403.244 49.6809C407.924 49.6809 411.374 52.9209 411.374 57.8709C411.374 62.8509 407.924 66.0909 403.244 66.0909C401.204 66.0909 399.404 65.4009 398.114 63.9309V71.7009H394.364V49.8609H397.934V51.9609C399.194 50.4309 401.054 49.6809 403.244 49.6809ZM402.824 62.8809C405.524 62.8809 407.564 60.9309 407.564 57.8709C407.564 54.8109 405.524 52.8609 402.824 52.8609C400.124 52.8609 398.054 54.8109 398.054 57.8709C398.054 60.9309 400.124 62.8809 402.824 62.8809ZM419.881 66.0909C417.211 66.0909 414.541 65.3109 413.101 64.2909L414.541 61.4409C415.951 62.3709 418.111 63.0309 420.121 63.0309C422.491 63.0309 423.481 62.3709 423.481 61.2609C423.481 58.2009 413.581 61.0809 413.581 54.6909C413.581 51.6609 416.311 49.6809 420.631 49.6809C422.761 49.6809 425.191 50.1909 426.631 51.0609L425.191 53.9109C423.661 53.0109 422.131 52.7109 420.601 52.7109C418.321 52.7109 417.241 53.4609 417.241 54.5109C417.241 57.7509 427.141 54.8709 427.141 61.1409C427.141 64.1409 424.381 66.0909 419.881 66.0909ZM439.46 49.6809C443.3 49.6809 446.15 51.8709 446.15 56.7009V65.8809H442.4V57.1809C442.4 54.3309 440.99 52.9509 438.59 52.9509C435.92 52.9509 434.12 54.5709 434.12 57.7809V65.8809H430.37V43.6209H434.12V51.7209C435.35 50.4009 437.24 49.6809 439.46 49.6809ZM458.254 66.0909C453.334 66.0909 449.734 62.6709 449.734 57.8709C449.734 53.0709 453.334 49.6809 458.254 49.6809C463.234 49.6809 466.804 53.0709 466.804 57.8709C466.804 62.6709 463.234 66.0909 458.254 66.0909ZM458.254 62.8809C460.984 62.8809 463.024 60.9309 463.024 57.8709C463.024 54.8109 460.984 52.8609 458.254 52.8609C455.554 52.8609 453.514 54.8109 453.514 57.8709C453.514 60.9309 455.554 62.8809 458.254 62.8809ZM478.97 62.3409L480.02 65.0109C479.12 65.7309 477.77 66.0909 476.42 66.0909C472.91 66.0909 470.9 64.2309 470.9 60.6909V52.9809H468.26V49.9809H470.9V46.3209H474.65V49.9809H478.94V52.9809H474.65V60.6009C474.65 62.1609 475.43 63.0009 476.87 63.0009C477.65 63.0009 478.4 62.7909 478.97 62.3409ZM498.596 66.0909C493.676 66.0909 490.076 62.6709 490.076 57.8709C490.076 53.0709 493.676 49.6809 498.596 49.6809C503.576 49.6809 507.146 53.0709 507.146 57.8709C507.146 62.6709 503.576 66.0909 498.596 66.0909ZM498.596 62.8809C501.326 62.8809 503.366 60.9309 503.366 57.8709C503.366 54.8109 501.326 52.8609 498.596 52.8609C495.896 52.8609 493.856 54.8109 493.856 57.8709C493.856 60.9309 495.896 62.8809 498.596 62.8809ZM517.241 46.4409C515.681 46.4409 514.871 47.3109 514.871 49.0209V49.9809H519.281V52.9809H514.991V65.8809H511.241V52.9809H508.601V49.9809H511.241V48.9609C511.241 45.6009 513.251 43.4109 516.971 43.4109C518.261 43.4109 519.521 43.6809 520.361 44.2809L519.311 47.1009C518.741 46.7109 518.021 46.4409 517.241 46.4409ZM541.497 49.8609H545.097L537.597 67.1709C536.127 70.8009 534.087 71.9109 531.417 71.9109C529.827 71.9109 528.147 71.3709 527.127 70.4409L528.627 67.6809C529.347 68.3709 530.367 68.7909 531.387 68.7909C532.707 68.7909 533.487 68.1609 534.207 66.5709L534.477 65.9409L527.487 49.8609H531.387L536.427 61.7109L541.497 49.8609ZM554.201 66.0909C549.281 66.0909 545.681 62.6709 545.681 57.8709C545.681 53.0709 549.281 49.6809 554.201 49.6809C559.181 49.6809 562.751 53.0709 562.751 57.8709C562.751 62.6709 559.181 66.0909 554.201 66.0909ZM554.201 62.8809C556.931 62.8809 558.971 60.9309 558.971 57.8709C558.971 54.8109 556.931 52.8609 554.201 52.8609C551.501 52.8609 549.461 54.8109 549.461 57.8709C549.461 60.9309 551.501 62.8809 554.201 62.8809ZM578.097 49.8609H581.847V65.8809H578.277V63.8409C577.077 65.3109 575.187 66.0909 573.117 66.0909C569.007 66.0909 566.217 63.8409 566.217 59.0109V49.8609H569.967V58.5009C569.967 61.4109 571.347 62.7909 573.717 62.7909C576.327 62.7909 578.097 61.1709 578.097 57.9609V49.8609ZM590.327 52.2009C591.407 50.5209 593.357 49.6809 596.027 49.6809V53.2509C595.697 53.1909 595.427 53.1609 595.157 53.1609C592.307 53.1609 590.507 54.8409 590.507 58.1109V65.8809H586.757V49.8609H590.327V52.2009ZM613.766 49.6809C618.386 49.6809 621.056 51.8709 621.056 56.4909V65.8809H617.516V63.9309C616.616 65.3109 614.876 66.0909 612.476 66.0909C608.816 66.0909 606.506 64.0809 606.506 61.2909C606.506 58.6209 608.306 56.5209 613.166 56.5209H617.306V56.2809C617.306 54.0909 615.986 52.8009 613.316 52.8009C611.516 52.8009 609.656 53.4009 608.456 54.3909L606.986 51.6609C608.696 50.3409 611.186 49.6809 613.766 49.6809ZM613.256 63.3609C615.086 63.3609 616.676 62.5209 617.306 60.8709V59.0109H613.436C610.886 59.0109 610.196 59.9709 610.196 61.1409C610.196 62.4909 611.336 63.3609 613.256 63.3609ZM633.365 66.0909C628.295 66.0909 624.695 62.6709 624.695 57.8709C624.695 53.0709 628.295 49.6809 633.365 49.6809C636.485 49.6809 638.975 50.9709 640.205 53.4009L637.325 55.0809C636.365 53.5509 634.925 52.8609 633.335 52.8609C630.575 52.8609 628.475 54.7809 628.475 57.8709C628.475 60.9909 630.575 62.8809 633.335 62.8809C634.925 62.8809 636.365 62.1909 637.325 60.6609L640.205 62.3409C638.975 64.7409 636.485 66.0909 633.365 66.0909ZM649.566 49.6809C654.186 49.6809 656.856 51.8709 656.856 56.4909V65.8809H653.316V63.9309C652.416 65.3109 650.676 66.0909 648.276 66.0909C644.616 66.0909 642.306 64.0809 642.306 61.2909C642.306 58.6209 644.106 56.5209 648.966 56.5209H653.106V56.2809C653.106 54.0909 651.786 52.8009 649.116 52.8009C647.316 52.8009 645.456 53.4009 644.256 54.3909L642.786 51.6609C644.496 50.3409 646.986 49.6809 649.566 49.6809ZM649.056 63.3609C650.886 63.3609 652.476 62.5209 653.106 60.8709V59.0109H649.236C646.686 59.0109 645.996 59.9709 645.996 61.1409C645.996 62.4909 647.136 63.3609 649.056 63.3609ZM673.755 43.6209H677.505V65.8809H673.905V63.8109C672.645 65.3409 670.785 66.0909 668.595 66.0909C663.945 66.0909 660.495 62.8509 660.495 57.8709C660.495 52.8909 663.945 49.6809 668.595 49.6809C670.665 49.6809 672.495 50.3709 673.755 51.8409V43.6209ZM669.045 62.8809C671.745 62.8809 673.815 60.9309 673.815 57.8709C673.815 54.8109 671.745 52.8609 669.045 52.8609C666.345 52.8609 664.275 54.8109 664.275 57.8709C664.275 60.9309 666.345 62.8809 669.045 62.8809ZM697.471 57.9609C697.471 58.2609 697.441 58.7109 697.411 59.0709H684.841C685.291 61.4109 687.241 62.9109 690.031 62.9109C691.831 62.9109 693.241 62.3409 694.381 61.1709L696.391 63.4809C694.951 65.1909 692.701 66.0909 689.941 66.0909C684.571 66.0909 681.091 62.6409 681.091 57.8709C681.091 53.1009 684.601 49.6809 689.371 49.6809C694.051 49.6809 697.471 52.9509 697.471 57.9609ZM689.371 52.6809C686.941 52.6809 685.171 54.2409 684.811 56.5809H693.901C693.601 54.2709 691.831 52.6809 689.371 52.6809ZM721.293 49.6809C725.163 49.6809 727.863 51.8709 727.863 56.7009V65.8809H724.113V57.1809C724.113 54.3309 722.793 52.9509 720.513 52.9509C718.053 52.9509 716.343 54.5709 716.343 57.7509V65.8809H712.593V57.1809C712.593 54.3309 711.273 52.9509 708.993 52.9509C706.503 52.9509 704.823 54.5709 704.823 57.7509V65.8809H701.073V49.8609H704.643V51.9009C705.843 50.4609 707.703 49.6809 709.893 49.6809C712.233 49.6809 714.183 50.5509 715.293 52.3509C716.583 50.7009 718.743 49.6809 721.293 49.6809ZM734.545 47.2209C733.165 47.2209 732.145 46.2309 732.145 44.9709C732.145 43.7109 733.165 42.7209 734.545 42.7209C735.925 42.7209 736.945 43.6509 736.945 44.8809C736.945 46.2009 735.955 47.2209 734.545 47.2209ZM732.655 65.8809V49.8609H736.405V65.8809H732.655ZM748.677 66.0909C743.607 66.0909 740.007 62.6709 740.007 57.8709C740.007 53.0709 743.607 49.6809 748.677 49.6809C751.797 49.6809 754.287 50.9709 755.517 53.4009L752.637 55.0809C751.677 53.5509 750.237 52.8609 748.647 52.8609C745.887 52.8609 743.787 54.7809 743.787 57.8709C743.787 60.9909 745.887 62.8809 748.647 62.8809C750.237 62.8809 751.677 62.1909 752.637 60.6609L755.517 62.3409C754.287 64.7409 751.797 66.0909 748.677 66.0909ZM769.09 47.2209C767.71 47.2209 766.69 46.2309 766.69 44.9709C766.69 43.7109 767.71 42.7209 769.09 42.7209C770.47 42.7209 771.49 43.6509 771.49 44.8809C771.49 46.2009 770.5 47.2209 769.09 47.2209ZM765.4 71.9109C764.02 71.9109 762.67 71.6409 761.8 70.9809L762.88 68.1909C763.45 68.6109 764.23 68.8209 765.07 68.8209C766.45 68.8209 767.23 67.9809 767.23 66.2709V49.8609H770.98V66.1809C770.98 69.6909 768.97 71.9109 765.4 71.9109ZM783.098 66.0909C778.178 66.0909 774.578 62.6709 774.578 57.8709C774.578 53.0709 778.178 49.6809 783.098 49.6809C788.078 49.6809 791.648 53.0709 791.648 57.8709C791.648 62.6709 788.078 66.0909 783.098 66.0909ZM783.098 62.8809C785.828 62.8809 787.868 60.9309 787.868 57.8709C787.868 54.8109 785.828 52.8609 783.098 52.8609C780.398 52.8609 778.358 54.8109 778.358 57.8709C778.358 60.9309 780.398 62.8809 783.098 62.8809ZM806.993 49.8609H810.743V65.8809H807.173V63.8409C805.973 65.3109 804.083 66.0909 802.013 66.0909C797.903 66.0909 795.113 63.8409 795.113 59.0109V49.8609H798.863V58.5009C798.863 61.4109 800.243 62.7909 802.613 62.7909C805.223 62.7909 806.993 61.1709 806.993 57.9609V49.8609ZM819.223 52.2009C820.303 50.5209 822.253 49.6809 824.923 49.6809V53.2509C824.593 53.1909 824.323 53.1609 824.053 53.1609C821.203 53.1609 819.403 54.8409 819.403 58.1109V65.8809H815.653V49.8609H819.223V52.2009ZM837.195 49.6809C841.035 49.6809 843.885 51.8709 843.885 56.7009V65.8809H840.135V57.1809C840.135 54.3309 838.725 52.9509 836.325 52.9509C833.655 52.9509 831.855 54.5709 831.855 57.7809V65.8809H828.105V49.8609H831.675V51.9309C832.905 50.4609 834.855 49.6809 837.195 49.6809ZM863.848 57.9609C863.848 58.2609 863.818 58.7109 863.788 59.0709H851.218C851.668 61.4109 853.618 62.9109 856.408 62.9109C858.208 62.9109 859.618 62.3409 860.758 61.1709L862.768 63.4809C861.328 65.1909 859.078 66.0909 856.318 66.0909C850.948 66.0909 847.468 62.6409 847.468 57.8709C847.468 53.1009 850.978 49.6809 855.748 49.6809C860.428 49.6809 863.848 52.9509 863.848 57.9609ZM855.748 52.6809C853.318 52.6809 851.548 54.2409 851.188 56.5809H860.278C859.978 54.2709 858.208 52.6809 855.748 52.6809ZM878.557 49.8609H882.157L874.657 67.1709C873.187 70.8009 871.147 71.9109 868.477 71.9109C866.887 71.9109 865.207 71.3709 864.187 70.4409L865.687 67.6809C866.407 68.3709 867.427 68.7909 868.447 68.7909C869.767 68.7909 870.547 68.1609 871.267 66.5709L871.537 65.9409L864.547 49.8609H868.447L873.487 61.7109L878.557 49.8609ZM884.705 66.0909C883.355 66.0909 882.245 65.0409 882.245 63.6009C882.245 62.1009 883.355 61.1109 884.705 61.1109C886.055 61.1109 887.165 62.1009 887.165 63.6009C887.165 65.0409 886.055 66.0909 884.705 66.0909ZM899.48 65.8809V44.8809H903.38V65.8809H899.48ZM917.28 62.3409L918.33 65.0109C917.43 65.7309 916.08 66.0909 914.73 66.0909C911.22 66.0909 909.21 64.2309 909.21 60.6909V52.9809H906.57V49.9809H909.21V46.3209H912.96V49.9809H917.25V52.9809H912.96V60.6009C912.96 62.1609 913.74 63.0009 915.18 63.0009C915.96 63.0009 916.71 62.7909 917.28 62.3409ZM11.04 98.3409L12.09 101.011C11.19 101.731 9.84 102.091 8.49 102.091C4.98 102.091 2.97 100.231 2.97 96.6909V88.9809H0.33V85.9809H2.97V82.3209H6.72V85.9809H11.01V88.9809H6.72V96.6009C6.72 98.1609 7.5 99.0009 8.94 99.0009C9.72 99.0009 10.47 98.7909 11.04 98.3409ZM18.7448 88.2009C19.8248 86.5209 21.7748 85.6809 24.4448 85.6809V89.2509C24.1148 89.1909 23.8448 89.1609 23.5748 89.1609C20.7248 89.1609 18.9248 90.8409 18.9248 94.1109V101.881H15.1748V85.8609H18.7448V88.2009ZM33.6581 85.6809C38.2781 85.6809 40.9481 87.8709 40.9481 92.4909V101.881H37.4081V99.9309C36.5081 101.311 34.7681 102.091 32.3681 102.091C28.7081 102.091 26.3981 100.081 26.3981 97.2909C26.3981 94.6209 28.1981 92.5209 33.0581 92.5209H37.1981V92.2809C37.1981 90.0909 35.8781 88.8009 33.2081 88.8009C31.4081 88.8009 29.5481 89.4009 28.3481 90.3909L26.8781 87.6609C28.5881 86.3409 31.0781 85.6809 33.6581 85.6809ZM33.1481 99.3609C34.9781 99.3609 36.5681 98.5209 37.1981 96.8709V95.0109H33.3281C30.7781 95.0109 30.0881 95.9709 30.0881 97.1409C30.0881 98.4909 31.2281 99.3609 33.1481 99.3609ZM53.2573 102.091C48.1873 102.091 44.5873 98.6709 44.5873 93.8709C44.5873 89.0709 48.1873 85.6809 53.2573 85.6809C56.3773 85.6809 58.8673 86.9709 60.0973 89.4009L57.2173 91.0809C56.2573 89.5509 54.8173 88.8609 53.2273 88.8609C50.4673 88.8609 48.3673 90.7809 48.3673 93.8709C48.3673 96.9909 50.4673 98.8809 53.2273 98.8809C54.8173 98.8809 56.2573 98.1909 57.2173 96.6609L60.0973 98.3409C58.8673 100.741 56.3773 102.091 53.2573 102.091ZM75.2824 101.881L69.7324 95.0109L66.9424 97.6509V101.881H63.1924V79.6209H66.9424V93.0609L74.7124 85.8609H79.2124L72.5224 92.5809L79.8424 101.881H75.2824ZM86.7166 102.091C84.0466 102.091 81.3766 101.311 79.9366 100.291L81.3766 97.4409C82.7866 98.3709 84.9466 99.0309 86.9566 99.0309C89.3266 99.0309 90.3166 98.3709 90.3166 97.2609C90.3166 94.2009 80.4166 97.0809 80.4166 90.6909C80.4166 87.6609 83.1466 85.6809 87.4666 85.6809C89.5966 85.6809 92.0266 86.1909 93.4666 87.0609L92.0266 89.9109C90.4966 89.0109 88.9666 88.7109 87.4366 88.7109C85.1566 88.7109 84.0766 89.4609 84.0766 90.5109C84.0766 93.7509 93.9766 90.8709 93.9766 97.1409C93.9766 100.141 91.2166 102.091 86.7166 102.091ZM116.897 85.8609H120.497L112.997 103.171C111.527 106.801 109.487 107.911 106.817 107.911C105.227 107.911 103.547 107.371 102.527 106.441L104.027 103.681C104.747 104.371 105.767 104.791 106.787 104.791C108.107 104.791 108.887 104.161 109.607 102.571L109.877 101.941L102.887 85.8609H106.787L111.827 97.7109L116.897 85.8609ZM129.601 102.091C124.681 102.091 121.081 98.6709 121.081 93.8709C121.081 89.0709 124.681 85.6809 129.601 85.6809C134.581 85.6809 138.151 89.0709 138.151 93.8709C138.151 98.6709 134.581 102.091 129.601 102.091ZM129.601 98.8809C132.331 98.8809 134.371 96.9309 134.371 93.8709C134.371 90.8109 132.331 88.8609 129.601 88.8609C126.901 88.8609 124.861 90.8109 124.861 93.8709C124.861 96.9309 126.901 98.8809 129.601 98.8809ZM153.497 85.8609H157.247V101.881H153.677V99.8409C152.477 101.311 150.587 102.091 148.517 102.091C144.407 102.091 141.617 99.8409 141.617 95.0109V85.8609H145.367V94.5009C145.367 97.4109 146.747 98.7909 149.117 98.7909C151.727 98.7909 153.497 97.1709 153.497 93.9609V85.8609ZM165.727 88.2009C166.807 86.5209 168.757 85.6809 171.427 85.6809V89.2509C171.097 89.1909 170.827 89.1609 170.557 89.1609C167.707 89.1609 165.907 90.8409 165.907 94.1109V101.881H162.157V85.8609H165.727V88.2009ZM191.926 85.6809C196.606 85.6809 200.056 88.9209 200.056 93.8709C200.056 98.8509 196.606 102.091 191.926 102.091C189.886 102.091 188.086 101.401 186.796 99.9309V107.701H183.046V85.8609H186.616V87.9609C187.876 86.4309 189.736 85.6809 191.926 85.6809ZM191.506 98.8809C194.206 98.8809 196.246 96.9309 196.246 93.8709C196.246 90.8109 194.206 88.8609 191.506 88.8609C188.806 88.8609 186.736 90.8109 186.736 93.8709C186.736 96.9309 188.806 98.8809 191.506 98.8809ZM207.182 88.2009C208.262 86.5209 210.212 85.6809 212.882 85.6809V89.2509C212.552 89.1909 212.282 89.1609 212.012 89.1609C209.162 89.1609 207.362 90.8409 207.362 94.1109V101.881H203.612V85.8609H207.182V88.2009ZM223.117 102.091C218.197 102.091 214.597 98.6709 214.597 93.8709C214.597 89.0709 218.197 85.6809 223.117 85.6809C228.097 85.6809 231.667 89.0709 231.667 93.8709C231.667 98.6709 228.097 102.091 223.117 102.091ZM223.117 98.8809C225.847 98.8809 227.887 96.9309 227.887 93.8709C227.887 90.8109 225.847 88.8609 223.117 88.8609C220.417 88.8609 218.377 90.8109 218.377 93.8709C218.377 96.9309 220.417 98.8809 223.117 98.8809ZM247.583 85.8609H251.153V99.4509C251.153 105.271 248.123 107.911 242.513 107.911C239.513 107.911 236.543 107.131 234.713 105.631L236.393 102.811C237.803 103.981 240.083 104.731 242.303 104.731C245.843 104.731 247.403 103.111 247.403 99.8709V99.0309C246.083 100.471 244.193 101.161 242.033 101.161C237.443 101.161 233.933 98.0409 233.933 93.3909C233.933 88.7409 237.443 85.6809 242.033 85.6809C244.283 85.6809 246.263 86.4009 247.583 87.9909V85.8609ZM242.603 97.9809C245.423 97.9809 247.463 96.1209 247.463 93.3909C247.463 90.6909 245.423 88.8609 242.603 88.8609C239.753 88.8609 237.713 90.6909 237.713 93.3909C237.713 96.1209 239.753 97.9809 242.603 97.9809ZM259.653 88.2009C260.733 86.5209 262.683 85.6809 265.353 85.6809V89.2509C265.023 89.1909 264.753 89.1609 264.483 89.1609C261.633 89.1609 259.833 90.8409 259.833 94.1109V101.881H256.083V85.8609H259.653V88.2009ZM283.448 93.9609C283.448 94.2609 283.418 94.7109 283.388 95.0709H270.818C271.268 97.4109 273.218 98.9109 276.008 98.9109C277.808 98.9109 279.218 98.3409 280.358 97.1709L282.368 99.4809C280.928 101.191 278.678 102.091 275.918 102.091C270.548 102.091 267.068 98.6409 267.068 93.8709C267.068 89.1009 270.578 85.6809 275.348 85.6809C280.028 85.6809 283.448 88.9509 283.448 93.9609ZM275.348 88.6809C272.918 88.6809 271.148 90.2409 270.788 92.5809H279.878C279.578 90.2709 277.808 88.6809 275.348 88.6809ZM292 102.091C289.33 102.091 286.66 101.311 285.22 100.291L286.66 97.4409C288.07 98.3709 290.23 99.0309 292.24 99.0309C294.61 99.0309 295.6 98.3709 295.6 97.2609C295.6 94.2009 285.7 97.0809 285.7 90.6909C285.7 87.6609 288.43 85.6809 292.75 85.6809C294.88 85.6809 297.31 86.1909 298.75 87.0609L297.31 89.9109C295.78 89.0109 294.25 88.7109 292.72 88.7109C290.44 88.7109 289.36 89.4609 289.36 90.5109C289.36 93.7509 299.26 90.8709 299.26 97.1409C299.26 100.141 296.5 102.091 292 102.091ZM307.439 102.091C304.769 102.091 302.099 101.311 300.659 100.291L302.099 97.4409C303.509 98.3709 305.669 99.0309 307.679 99.0309C310.049 99.0309 311.039 98.3709 311.039 97.2609C311.039 94.2009 301.139 97.0809 301.139 90.6909C301.139 87.6609 303.869 85.6809 308.189 85.6809C310.319 85.6809 312.749 86.1909 314.189 87.0609L312.749 89.9109C311.219 89.0109 309.689 88.7109 308.159 88.7109C305.879 88.7109 304.799 89.4609 304.799 90.5109C304.799 93.7509 314.699 90.8709 314.699 97.1409C314.699 100.141 311.939 102.091 307.439 102.091ZM319.159 97.1109C320.569 97.1109 321.589 98.1309 321.589 99.6009C321.589 100.261 321.439 100.801 320.899 102.181L319.369 106.411H316.939L318.139 101.821C317.299 101.461 316.729 100.681 316.729 99.6009C316.729 98.1009 317.779 97.1109 319.159 97.1109ZM342.634 85.6809C346.474 85.6809 349.324 87.8709 349.324 92.7009V101.881H345.574V93.1809C345.574 90.3309 344.164 88.9509 341.764 88.9509C339.094 88.9509 337.294 90.5709 337.294 93.7809V101.881H333.544V79.6209H337.294V87.7209C338.524 86.4009 340.414 85.6809 342.634 85.6809ZM355.971 83.2209C354.591 83.2209 353.571 82.2309 353.571 80.9709C353.571 79.7109 354.591 78.7209 355.971 78.7209C357.351 78.7209 358.371 79.6509 358.371 80.8809C358.371 82.2009 357.381 83.2209 355.971 83.2209ZM354.081 101.881V85.8609H357.831V101.881H354.081ZM375.083 85.8609H378.653V99.4509C378.653 105.271 375.623 107.911 370.013 107.911C367.013 107.911 364.043 107.131 362.213 105.631L363.893 102.811C365.303 103.981 367.583 104.731 369.803 104.731C373.343 104.731 374.903 103.111 374.903 99.8709V99.0309C373.583 100.471 371.693 101.161 369.533 101.161C364.943 101.161 361.433 98.0409 361.433 93.3909C361.433 88.7409 364.943 85.6809 369.533 85.6809C371.783 85.6809 373.763 86.4009 375.083 87.9909V85.8609ZM370.103 97.9809C372.923 97.9809 374.963 96.1209 374.963 93.3909C374.963 90.6909 372.923 88.8609 370.103 88.8609C367.253 88.8609 365.213 90.6909 365.213 93.3909C365.213 96.1209 367.253 97.9809 370.103 97.9809ZM392.673 85.6809C396.513 85.6809 399.363 87.8709 399.363 92.7009V101.881H395.613V93.1809C395.613 90.3309 394.203 88.9509 391.803 88.9509C389.133 88.9509 387.333 90.5709 387.333 93.7809V101.881H383.583V79.6209H387.333V87.7209C388.563 86.4009 390.453 85.6809 392.673 85.6809ZM404.12 101.881V79.6209H407.87V101.881H404.12ZM414.682 83.2209C413.302 83.2209 412.282 82.2309 412.282 80.9709C412.282 79.7109 413.302 78.7209 414.682 78.7209C416.062 78.7209 417.082 79.6509 417.082 80.8809C417.082 82.2009 416.092 83.2209 414.682 83.2209ZM412.792 101.881V85.8609H416.542V101.881H412.792ZM433.794 85.8609H437.364V99.4509C437.364 105.271 434.334 107.911 428.724 107.911C425.724 107.911 422.754 107.131 420.924 105.631L422.604 102.811C424.014 103.981 426.294 104.731 428.514 104.731C432.054 104.731 433.614 103.111 433.614 99.8709V99.0309C432.294 100.471 430.404 101.161 428.244 101.161C423.654 101.161 420.144 98.0409 420.144 93.3909C420.144 88.7409 423.654 85.6809 428.244 85.6809C430.494 85.6809 432.474 86.4009 433.794 87.9909V85.8609ZM428.814 97.9809C431.634 97.9809 433.674 96.1209 433.674 93.3909C433.674 90.6909 431.634 88.8609 428.814 88.8609C425.964 88.8609 423.924 90.6909 423.924 93.3909C423.924 96.1209 425.964 97.9809 428.814 97.9809ZM451.384 85.6809C455.224 85.6809 458.074 87.8709 458.074 92.7009V101.881H454.324V93.1809C454.324 90.3309 452.914 88.9509 450.514 88.9509C447.844 88.9509 446.044 90.5709 446.044 93.7809V101.881H442.294V79.6209H446.044V87.7209C447.274 86.4009 449.164 85.6809 451.384 85.6809ZM471.411 98.3409L472.461 101.011C471.561 101.731 470.211 102.091 468.861 102.091C465.351 102.091 463.341 100.231 463.341 96.6909V88.9809H460.701V85.9809H463.341V82.3209H467.091V85.9809H471.381V88.9809H467.091V96.6009C467.091 98.1609 467.871 99.0009 469.311 99.0009C470.091 99.0009 470.841 98.7909 471.411 98.3409ZM480.496 102.091C477.826 102.091 475.156 101.311 473.716 100.291L475.156 97.4409C476.566 98.3709 478.726 99.0309 480.736 99.0309C483.106 99.0309 484.096 98.3709 484.096 97.2609C484.096 94.2009 474.196 97.0809 474.196 90.6909C474.196 87.6609 476.926 85.6809 481.246 85.6809C483.376 85.6809 485.806 86.1909 487.246 87.0609L485.806 89.9109C484.276 89.0109 482.746 88.7109 481.216 88.7109C478.936 88.7109 477.856 89.4609 477.856 90.5109C477.856 93.7509 487.756 90.8709 487.756 97.1409C487.756 100.141 484.996 102.091 480.496 102.091ZM505.396 85.6809C510.016 85.6809 512.686 87.8709 512.686 92.4909V101.881H509.146V99.9309C508.246 101.311 506.506 102.091 504.106 102.091C500.446 102.091 498.136 100.081 498.136 97.2909C498.136 94.6209 499.936 92.5209 504.796 92.5209H508.936V92.2809C508.936 90.0909 507.616 88.8009 504.946 88.8009C503.146 88.8009 501.286 89.4009 500.086 90.3909L498.616 87.6609C500.326 86.3409 502.816 85.6809 505.396 85.6809ZM504.886 99.3609C506.716 99.3609 508.306 98.5209 508.936 96.8709V95.0109H505.066C502.516 95.0109 501.826 95.9709 501.826 97.1409C501.826 98.4909 502.966 99.3609 504.886 99.3609ZM524.996 102.091C519.926 102.091 516.326 98.6709 516.326 93.8709C516.326 89.0709 519.926 85.6809 524.996 85.6809C528.116 85.6809 530.606 86.9709 531.836 89.4009L528.956 91.0809C527.996 89.5509 526.556 88.8609 524.966 88.8609C522.206 88.8609 520.106 90.7809 520.106 93.8709C520.106 96.9909 522.206 98.8809 524.966 98.8809C526.556 98.8809 527.996 98.1909 528.956 96.6609L531.836 98.3409C530.606 100.741 528.116 102.091 524.996 102.091ZM544.021 85.6809C547.861 85.6809 550.711 87.8709 550.711 92.7009V101.881H546.961V93.1809C546.961 90.3309 545.551 88.9509 543.151 88.9509C540.481 88.9509 538.681 90.5709 538.681 93.7809V101.881H534.931V79.6209H538.681V87.7209C539.911 86.4009 541.801 85.6809 544.021 85.6809ZM557.358 83.2209C555.978 83.2209 554.958 82.2309 554.958 80.9709C554.958 79.7109 555.978 78.7209 557.358 78.7209C558.738 78.7209 559.758 79.6509 559.758 80.8809C559.758 82.2009 558.768 83.2209 557.358 83.2209ZM555.468 101.881V85.8609H559.218V101.881H555.468ZM579.2 93.9609C579.2 94.2609 579.17 94.7109 579.14 95.0709H566.57C567.02 97.4109 568.97 98.9109 571.76 98.9109C573.56 98.9109 574.97 98.3409 576.11 97.1709L578.12 99.4809C576.68 101.191 574.43 102.091 571.67 102.091C566.3 102.091 562.82 98.6409 562.82 93.8709C562.82 89.1009 566.33 85.6809 571.1 85.6809C575.78 85.6809 579.2 88.9509 579.2 93.9609ZM571.1 88.6809C568.67 88.6809 566.9 90.2409 566.54 92.5809H575.63C575.33 90.2709 573.56 88.6809 571.1 88.6809ZM593.909 85.8609H597.509L590.639 101.881H586.769L579.899 85.8609H583.799L588.779 97.7409L593.909 85.8609ZM614.473 93.9609C614.473 94.2609 614.443 94.7109 614.413 95.0709H601.843C602.293 97.4109 604.243 98.9109 607.033 98.9109C608.833 98.9109 610.243 98.3409 611.383 97.1709L613.393 99.4809C611.953 101.191 609.703 102.091 606.943 102.091C601.573 102.091 598.093 98.6409 598.093 93.8709C598.093 89.1009 601.603 85.6809 606.373 85.6809C611.053 85.6809 614.473 88.9509 614.473 93.9609ZM606.373 88.6809C603.943 88.6809 602.173 90.2409 601.813 92.5809H610.903C610.603 90.2709 608.833 88.6809 606.373 88.6809ZM638.295 85.6809C642.165 85.6809 644.865 87.8709 644.865 92.7009V101.881H641.115V93.1809C641.115 90.3309 639.795 88.9509 637.515 88.9509C635.055 88.9509 633.345 90.5709 633.345 93.7509V101.881H629.595V93.1809C629.595 90.3309 628.275 88.9509 625.995 88.9509C623.505 88.9509 621.825 90.5709 621.825 93.7509V101.881H618.075V85.8609H621.645V87.9009C622.845 86.4609 624.705 85.6809 626.895 85.6809C629.235 85.6809 631.185 86.5509 632.295 88.3509C633.585 86.7009 635.745 85.6809 638.295 85.6809ZM664.864 93.9609C664.864 94.2609 664.834 94.7109 664.804 95.0709H652.234C652.684 97.4109 654.634 98.9109 657.424 98.9109C659.224 98.9109 660.634 98.3409 661.774 97.1709L663.784 99.4809C662.344 101.191 660.094 102.091 657.334 102.091C651.964 102.091 648.484 98.6409 648.484 93.8709C648.484 89.1009 651.994 85.6809 656.764 85.6809C661.444 85.6809 664.864 88.9509 664.864 93.9609ZM656.764 88.6809C654.334 88.6809 652.564 90.2409 652.204 92.5809H661.294C660.994 90.2709 659.224 88.6809 656.764 88.6809ZM677.556 85.6809C681.396 85.6809 684.246 87.8709 684.246 92.7009V101.881H680.496V93.1809C680.496 90.3309 679.086 88.9509 676.686 88.9509C674.016 88.9509 672.216 90.5709 672.216 93.7809V101.881H668.466V85.8609H672.036V87.9309C673.266 86.4609 675.216 85.6809 677.556 85.6809ZM697.583 98.3409L698.633 101.011C697.733 101.731 696.383 102.091 695.033 102.091C691.523 102.091 689.513 100.231 689.513 96.6909V88.9809H686.873V85.9809H689.513V82.3209H693.263V85.9809H697.553V88.9809H693.263V96.6009C693.263 98.1609 694.043 99.0009 695.483 99.0009C696.263 99.0009 697.013 98.7909 697.583 98.3409ZM706.668 102.091C703.998 102.091 701.328 101.311 699.888 100.291L701.328 97.4409C702.738 98.3709 704.898 99.0309 706.908 99.0309C709.278 99.0309 710.268 98.3709 710.268 97.2609C710.268 94.2009 700.368 97.0809 700.368 90.6909C700.368 87.6609 703.098 85.6809 707.418 85.6809C709.548 85.6809 711.978 86.1909 713.418 87.0609L711.978 89.9109C710.448 89.0109 708.918 88.7109 707.388 88.7109C705.108 88.7109 704.028 89.4609 704.028 90.5109C704.028 93.7509 713.928 90.8709 713.928 97.1409C713.928 100.141 711.168 102.091 706.668 102.091ZM718.387 97.1109C719.797 97.1109 720.817 98.1309 720.817 99.6009C720.817 100.261 720.667 100.801 720.127 102.181L718.597 106.411H716.167L717.367 101.821C716.527 101.461 715.957 100.681 715.957 99.6009C715.957 98.1009 717.007 97.1109 718.387 97.1109ZM738.893 85.6809C743.513 85.6809 746.183 87.8709 746.183 92.4909V101.881H742.643V99.9309C741.743 101.311 740.003 102.091 737.603 102.091C733.943 102.091 731.633 100.081 731.633 97.2909C731.633 94.6209 733.433 92.5209 738.293 92.5209H742.433V92.2809C742.433 90.0909 741.113 88.8009 738.443 88.8009C736.643 88.8009 734.783 89.4009 733.583 90.3909L732.113 87.6609C733.823 86.3409 736.313 85.6809 738.893 85.6809ZM738.383 99.3609C740.213 99.3609 741.803 98.5209 742.433 96.8709V95.0109H738.563C736.013 95.0109 735.323 95.9709 735.323 97.1409C735.323 98.4909 736.463 99.3609 738.383 99.3609ZM760.085 85.6809C763.925 85.6809 766.775 87.8709 766.775 92.7009V101.881H763.025V93.1809C763.025 90.3309 761.615 88.9509 759.215 88.9509C756.545 88.9509 754.745 90.5709 754.745 93.7809V101.881H750.995V85.8609H754.565V87.9309C755.795 86.4609 757.745 85.6809 760.085 85.6809ZM783.619 79.6209H787.369V101.881H783.769V99.8109C782.509 101.341 780.649 102.091 778.459 102.091C773.809 102.091 770.359 98.8509 770.359 93.8709C770.359 88.8909 773.809 85.6809 778.459 85.6809C780.529 85.6809 782.359 86.3709 783.619 87.8409V79.6209ZM778.909 98.8809C781.609 98.8809 783.679 96.9309 783.679 93.8709C783.679 90.8109 781.609 88.8609 778.909 88.8609C776.209 88.8609 774.139 90.8109 774.139 93.8709C774.139 96.9309 776.209 98.8809 778.909 98.8809ZM809.445 85.6809C814.125 85.6809 817.575 88.9209 817.575 93.8709C817.575 98.8509 814.125 102.091 809.445 102.091C807.405 102.091 805.605 101.401 804.315 99.9309V107.701H800.565V85.8609H804.135V87.9609C805.395 86.4309 807.255 85.6809 809.445 85.6809ZM809.025 98.8809C811.725 98.8809 813.765 96.9309 813.765 93.8709C813.765 90.8109 811.725 88.8609 809.025 88.8609C806.325 88.8609 804.255 90.8109 804.255 93.8709C804.255 96.9309 806.325 98.8809 809.025 98.8809ZM824.702 88.2009C825.782 86.5209 827.732 85.6809 830.402 85.6809V89.2509C830.072 89.1909 829.802 89.1609 829.532 89.1609C826.682 89.1609 824.882 90.8409 824.882 94.1109V101.881H821.132V85.8609H824.702V88.2009ZM840.637 102.091C835.717 102.091 832.117 98.6709 832.117 93.8709C832.117 89.0709 835.717 85.6809 840.637 85.6809C845.617 85.6809 849.187 89.0709 849.187 93.8709C849.187 98.6709 845.617 102.091 840.637 102.091ZM840.637 98.8809C843.367 98.8809 845.407 96.9309 845.407 93.8709C845.407 90.8109 843.367 88.8609 840.637 88.8609C837.937 88.8609 835.897 90.8109 835.897 93.8709C835.897 96.9309 837.937 98.8809 840.637 98.8809ZM863.733 85.8609H867.333L860.463 101.881H856.593L849.723 85.8609H853.623L858.603 97.7409L863.733 85.8609ZM871.567 83.2209C870.187 83.2209 869.167 82.2309 869.167 80.9709C869.167 79.7109 870.187 78.7209 871.567 78.7209C872.947 78.7209 873.967 79.6509 873.967 80.8809C873.967 82.2009 872.977 83.2209 871.567 83.2209ZM869.677 101.881V85.8609H873.427V101.881H869.677ZM890.289 79.6209H894.039V101.881H890.439V99.8109C889.179 101.341 887.319 102.091 885.129 102.091C880.479 102.091 877.029 98.8509 877.029 93.8709C877.029 88.8909 880.479 85.6809 885.129 85.6809C887.199 85.6809 889.029 86.3709 890.289 87.8409V79.6209ZM885.579 98.8809C888.279 98.8809 890.349 96.9309 890.349 93.8709C890.349 90.8109 888.279 88.8609 885.579 88.8609C882.879 88.8609 880.809 90.8109 880.809 93.8709C880.809 96.9309 882.879 98.8809 885.579 98.8809ZM914.004 93.9609C914.004 94.2609 913.974 94.7109 913.944 95.0709H901.374C901.824 97.4109 903.774 98.9109 906.564 98.9109C908.364 98.9109 909.774 98.3409 910.914 97.1709L912.924 99.4809C911.484 101.191 909.234 102.091 906.474 102.091C901.104 102.091 897.624 98.6409 897.624 93.8709C897.624 89.1009 901.134 85.6809 905.904 85.6809C910.584 85.6809 914.004 88.9509 914.004 93.9609ZM905.904 88.6809C903.474 88.6809 901.704 90.2409 901.344 92.5809H910.434C910.134 90.2709 908.364 88.6809 905.904 88.6809ZM922.556 102.091C919.886 102.091 917.216 101.311 915.776 100.291L917.216 97.4409C918.626 98.3709 920.786 99.0309 922.796 99.0309C925.166 99.0309 926.156 98.3709 926.156 97.2609C926.156 94.2009 916.256 97.0809 916.256 90.6909C916.256 87.6609 918.986 85.6809 923.306 85.6809C925.436 85.6809 927.866 86.1909 929.306 87.0609L927.866 89.9109C926.336 89.0109 924.806 88.7109 923.276 88.7109C920.996 88.7109 919.916 89.4609 919.916 90.5109C919.916 93.7509 929.816 90.8709 929.816 97.1409C929.816 100.141 927.056 102.091 922.556 102.091ZM8.58 121.681C13.2 121.681 15.87 123.871 15.87 128.491V137.881H12.33V135.931C11.43 137.311 9.69 138.091 7.29 138.091C3.63 138.091 1.32 136.081 1.32 133.291C1.32 130.621 3.12 128.521 7.98 128.521H12.12V128.281C12.12 126.091 10.8 124.801 8.13 124.801C6.33 124.801 4.47 125.401 3.27 126.391L1.8 123.661C3.51 122.341 6 121.681 8.58 121.681ZM8.07 135.361C9.9 135.361 11.49 134.521 12.12 132.871V131.011H8.25C5.7 131.011 5.01 131.971 5.01 133.141C5.01 134.491 6.15 135.361 8.07 135.361ZM28.1791 138.091C23.1091 138.091 19.5091 134.671 19.5091 129.871C19.5091 125.071 23.1091 121.681 28.1791 121.681C31.2991 121.681 33.7891 122.971 35.0191 125.401L32.1391 127.081C31.1791 125.551 29.7391 124.861 28.1491 124.861C25.3891 124.861 23.2891 126.781 23.2891 129.871C23.2891 132.991 25.3891 134.881 28.1491 134.881C29.7391 134.881 31.1791 134.191 32.1391 132.661L35.0191 134.341C33.7891 136.741 31.2991 138.091 28.1791 138.091ZM47.0459 134.341L48.0959 137.011C47.1959 137.731 45.8459 138.091 44.4959 138.091C40.9859 138.091 38.9759 136.231 38.9759 132.691V124.981H36.3359V121.981H38.9759V118.321H42.7259V121.981H47.0159V124.981H42.7259V132.601C42.7259 134.161 43.5059 135.001 44.9459 135.001C45.7259 135.001 46.4759 134.791 47.0459 134.341ZM53.0707 119.221C51.6907 119.221 50.6707 118.231 50.6707 116.971C50.6707 115.711 51.6907 114.721 53.0707 114.721C54.4507 114.721 55.4707 115.651 55.4707 116.881C55.4707 118.201 54.4807 119.221 53.0707 119.221ZM51.1807 137.881V121.861H54.9307V137.881H51.1807ZM67.0526 138.091C62.1326 138.091 58.5326 134.671 58.5326 129.871C58.5326 125.071 62.1326 121.681 67.0526 121.681C72.0326 121.681 75.6026 125.071 75.6026 129.871C75.6026 134.671 72.0326 138.091 67.0526 138.091ZM67.0526 134.881C69.7826 134.881 71.8226 132.931 71.8226 129.871C71.8226 126.811 69.7826 124.861 67.0526 124.861C64.3526 124.861 62.3126 126.811 62.3126 129.871C62.3126 132.931 64.3526 134.881 67.0526 134.881ZM88.2785 121.681C92.1185 121.681 94.9685 123.871 94.9685 128.701V137.881H91.2185V129.181C91.2185 126.331 89.8085 124.951 87.4085 124.951C84.7385 124.951 82.9385 126.571 82.9385 129.781V137.881H79.1885V121.861H82.7585V123.931C83.9885 122.461 85.9385 121.681 88.2785 121.681ZM105.846 121.681C110.466 121.681 113.136 123.871 113.136 128.491V137.881H109.596V135.931C108.696 137.311 106.956 138.091 104.556 138.091C100.896 138.091 98.5856 136.081 98.5856 133.291C98.5856 130.621 100.386 128.521 105.246 128.521H109.386V128.281C109.386 126.091 108.066 124.801 105.396 124.801C103.596 124.801 101.736 125.401 100.536 126.391L99.0656 123.661C100.776 122.341 103.266 121.681 105.846 121.681ZM105.336 135.361C107.166 135.361 108.756 134.521 109.386 132.871V131.011H105.516C102.966 131.011 102.276 131.971 102.276 133.141C102.276 134.491 103.416 135.361 105.336 135.361ZM126.828 121.681C131.508 121.681 134.958 124.891 134.958 129.871C134.958 134.851 131.508 138.091 126.828 138.091C124.638 138.091 122.778 137.341 121.518 135.811V137.881H117.948V115.621H121.698V123.811C122.988 122.371 124.788 121.681 126.828 121.681ZM126.408 134.881C129.108 134.881 131.148 132.931 131.148 129.871C131.148 126.811 129.108 124.861 126.408 124.861C123.708 124.861 121.638 126.811 121.638 129.871C121.638 132.931 123.708 134.881 126.408 134.881ZM138.515 137.881V115.621H142.265V137.881H138.515ZM162.247 129.961C162.247 130.261 162.217 130.711 162.187 131.071H149.617C150.067 133.411 152.017 134.911 154.807 134.911C156.607 134.911 158.017 134.341 159.157 133.171L161.167 135.481C159.727 137.191 157.477 138.091 154.717 138.091C149.347 138.091 145.867 134.641 145.867 129.871C145.867 125.101 149.377 121.681 154.147 121.681C158.827 121.681 162.247 124.951 162.247 129.961ZM154.147 124.681C151.717 124.681 149.947 126.241 149.587 128.581H158.677C158.377 126.271 156.607 124.681 154.147 124.681ZM176.03 119.221C174.65 119.221 173.63 118.231 173.63 116.971C173.63 115.711 174.65 114.721 176.03 114.721C177.41 114.721 178.43 115.651 178.43 116.881C178.43 118.201 177.44 119.221 176.03 119.221ZM174.14 137.881V121.861H177.89V137.881H174.14ZM191.902 121.681C195.742 121.681 198.592 123.871 198.592 128.701V137.881H194.842V129.181C194.842 126.331 193.432 124.951 191.032 124.951C188.362 124.951 186.562 126.571 186.562 129.781V137.881H182.812V121.861H186.382V123.931C187.612 122.461 189.562 121.681 191.902 121.681ZM208.299 138.091C205.629 138.091 202.959 137.311 201.519 136.291L202.959 133.441C204.369 134.371 206.529 135.031 208.539 135.031C210.909 135.031 211.899 134.371 211.899 133.261C211.899 130.201 201.999 133.081 201.999 126.691C201.999 123.661 204.729 121.681 209.049 121.681C211.179 121.681 213.609 122.191 215.049 123.061L213.609 125.911C212.079 125.011 210.549 124.711 209.019 124.711C206.739 124.711 205.659 125.461 205.659 126.511C205.659 129.751 215.559 126.871 215.559 133.141C215.559 136.141 212.799 138.091 208.299 138.091ZM220.678 119.221C219.298 119.221 218.278 118.231 218.278 116.971C218.278 115.711 219.298 114.721 220.678 114.721C222.058 114.721 223.078 115.651 223.078 116.881C223.078 118.201 222.088 119.221 220.678 119.221ZM218.788 137.881V121.861H222.538V137.881H218.788ZM239.79 121.861H243.36V135.451C243.36 141.271 240.33 143.911 234.72 143.911C231.72 143.911 228.75 143.131 226.92 141.631L228.6 138.811C230.01 139.981 232.29 140.731 234.51 140.731C238.05 140.731 239.61 139.111 239.61 135.871V135.031C238.29 136.471 236.4 137.161 234.24 137.161C229.65 137.161 226.14 134.041 226.14 129.391C226.14 124.741 229.65 121.681 234.24 121.681C236.49 121.681 238.47 122.401 239.79 123.991V121.861ZM234.81 133.981C237.63 133.981 239.67 132.121 239.67 129.391C239.67 126.691 237.63 124.861 234.81 124.861C231.96 124.861 229.92 126.691 229.92 129.391C229.92 132.121 231.96 133.981 234.81 133.981ZM257.38 121.681C261.22 121.681 264.07 123.871 264.07 128.701V137.881H260.32V129.181C260.32 126.331 258.91 124.951 256.51 124.951C253.84 124.951 252.04 126.571 252.04 129.781V137.881H248.29V115.621H252.04V123.721C253.27 122.401 255.16 121.681 257.38 121.681ZM277.407 134.341L278.457 137.011C277.557 137.731 276.207 138.091 274.857 138.091C271.347 138.091 269.337 136.231 269.337 132.691V124.981H266.697V121.981H269.337V118.321H273.087V121.981H277.377V124.981H273.087V132.601C273.087 134.161 273.867 135.001 275.307 135.001C276.087 135.001 276.837 134.791 277.407 134.341ZM286.492 138.091C283.822 138.091 281.152 137.311 279.712 136.291L281.152 133.441C282.562 134.371 284.722 135.031 286.732 135.031C289.102 135.031 290.092 134.371 290.092 133.261C290.092 130.201 280.192 133.081 280.192 126.691C280.192 123.661 282.922 121.681 287.242 121.681C289.372 121.681 291.802 122.191 293.242 123.061L291.802 125.911C290.272 125.011 288.742 124.711 287.212 124.711C284.932 124.711 283.852 125.461 283.852 126.511C283.852 129.751 293.752 126.871 293.752 133.141C293.752 136.141 290.992 138.091 286.492 138.091ZM313.853 134.341L314.903 137.011C314.003 137.731 312.653 138.091 311.303 138.091C307.793 138.091 305.783 136.231 305.783 132.691V124.981H303.143V121.981H305.783V118.321H309.533V121.981H313.823V124.981H309.533V132.601C309.533 134.161 310.312 135.001 311.753 135.001C312.533 135.001 313.283 134.791 313.853 134.341ZM324.66 138.091C319.74 138.091 316.14 134.671 316.14 129.871C316.14 125.071 319.74 121.681 324.66 121.681C329.64 121.681 333.21 125.071 333.21 129.871C333.21 134.671 329.64 138.091 324.66 138.091ZM324.66 134.881C327.39 134.881 329.43 132.931 329.43 129.871C329.43 126.811 327.39 124.861 324.66 124.861C321.96 124.861 319.92 126.811 319.92 129.871C319.92 132.931 321.96 134.881 324.66 134.881ZM353.967 121.681C358.647 121.681 362.097 124.921 362.097 129.871C362.097 134.851 358.647 138.091 353.967 138.091C351.927 138.091 350.127 137.401 348.837 135.931V143.701H345.087V121.861H348.657V123.961C349.917 122.431 351.777 121.681 353.967 121.681ZM353.547 134.881C356.247 134.881 358.287 132.931 358.287 129.871C358.287 126.811 356.247 124.861 353.547 124.861C350.847 124.861 348.777 126.811 348.777 129.871C348.777 132.931 350.847 134.881 353.547 134.881ZM369.223 124.201C370.303 122.521 372.253 121.681 374.923 121.681V125.251C374.593 125.191 374.323 125.161 374.053 125.161C371.203 125.161 369.403 126.841 369.403 130.111V137.881H365.653V121.861H369.223V124.201ZM385.158 138.091C380.238 138.091 376.638 134.671 376.638 129.871C376.638 125.071 380.238 121.681 385.158 121.681C390.138 121.681 393.708 125.071 393.708 129.871C393.708 134.671 390.138 138.091 385.158 138.091ZM385.158 134.881C387.888 134.881 389.928 132.931 389.928 129.871C389.928 126.811 387.888 124.861 385.158 124.861C382.458 124.861 380.418 126.811 380.418 129.871C380.418 132.931 382.458 134.881 385.158 134.881ZM406.174 121.681C410.854 121.681 414.304 124.921 414.304 129.871C414.304 134.851 410.854 138.091 406.174 138.091C404.134 138.091 402.334 137.401 401.044 135.931V143.701H397.294V121.861H400.864V123.961C402.124 122.431 403.984 121.681 406.174 121.681ZM405.754 134.881C408.454 134.881 410.494 132.931 410.494 129.871C410.494 126.811 408.454 124.861 405.754 124.861C403.054 124.861 400.984 126.811 400.984 129.871C400.984 132.931 403.054 134.881 405.754 134.881ZM432.92 129.961C432.92 130.261 432.89 130.711 432.86 131.071H420.29C420.74 133.411 422.69 134.911 425.48 134.911C427.28 134.911 428.69 134.341 429.83 133.171L431.84 135.481C430.4 137.191 428.15 138.091 425.39 138.091C420.02 138.091 416.54 134.641 416.54 129.871C416.54 125.101 420.05 121.681 424.82 121.681C429.5 121.681 432.92 124.951 432.92 129.961ZM424.82 124.681C422.39 124.681 420.62 126.241 420.26 128.581H429.35C429.05 126.271 427.28 124.681 424.82 124.681ZM436.523 137.881V115.621H440.273V137.881H436.523ZM464.885 121.861H468.485L460.985 139.171C459.515 142.801 457.475 143.911 454.805 143.911C453.215 143.911 451.535 143.371 450.515 142.441L452.015 139.681C452.735 140.371 453.755 140.791 454.775 140.791C456.095 140.791 456.875 140.161 457.595 138.571L457.865 137.941L450.875 121.861H454.775L459.815 133.711L464.885 121.861ZM477.59 138.091C472.67 138.091 469.07 134.671 469.07 129.871C469.07 125.071 472.67 121.681 477.59 121.681C482.57 121.681 486.14 125.071 486.14 129.871C486.14 134.671 482.57 138.091 477.59 138.091ZM477.59 134.881C480.32 134.881 482.36 132.931 482.36 129.871C482.36 126.811 480.32 124.861 477.59 124.861C474.89 124.861 472.85 126.811 472.85 129.871C472.85 132.931 474.89 134.881 477.59 134.881ZM501.486 121.861H505.236V137.881H501.666V135.841C500.466 137.311 498.576 138.091 496.506 138.091C492.396 138.091 489.606 135.841 489.606 131.011V121.861H493.356V130.501C493.356 133.411 494.736 134.791 497.106 134.791C499.716 134.791 501.486 133.171 501.486 129.961V121.861ZM527.017 134.341L528.067 137.011C527.167 137.731 525.817 138.091 524.467 138.091C520.957 138.091 518.947 136.231 518.947 132.691V124.981H516.307V121.981H518.947V118.321H522.697V121.981H526.987V124.981H522.697V132.601C522.697 134.161 523.477 135.001 524.917 135.001C525.697 135.001 526.447 134.791 527.017 134.341ZM537.824 138.091C532.904 138.091 529.304 134.671 529.304 129.871C529.304 125.071 532.904 121.681 537.824 121.681C542.804 121.681 546.374 125.071 546.374 129.871C546.374 134.671 542.804 138.091 537.824 138.091ZM537.824 134.881C540.554 134.881 542.594 132.931 542.594 129.871C542.594 126.811 540.554 124.861 537.824 124.861C535.124 124.861 533.084 126.811 533.084 129.871C533.084 132.931 535.124 134.881 537.824 134.881ZM571.181 121.861H574.511L568.601 137.881H565.001L560.861 126.841L556.661 137.881H553.061L547.181 121.861H550.721L554.951 133.681L559.361 121.861H562.511L566.831 133.741L571.181 121.861ZM582.711 121.681C587.331 121.681 590.001 123.871 590.001 128.491V137.881H586.461V135.931C585.561 137.311 583.821 138.091 581.421 138.091C577.761 138.091 575.451 136.081 575.451 133.291C575.451 130.621 577.251 128.521 582.111 128.521H586.251V128.281C586.251 126.091 584.931 124.801 582.261 124.801C580.461 124.801 578.601 125.401 577.401 126.391L575.931 123.661C577.641 122.341 580.131 121.681 582.711 121.681ZM582.201 135.361C584.031 135.361 585.621 134.521 586.251 132.871V131.011H582.381C579.831 131.011 579.141 131.971 579.141 133.141C579.141 134.491 580.281 135.361 582.201 135.361ZM598.384 124.201C599.464 122.521 601.414 121.681 604.084 121.681V125.251C603.754 125.191 603.484 125.161 603.214 125.161C600.364 125.161 598.564 126.841 598.564 130.111V137.881H594.814V121.861H598.384V124.201ZM619.058 115.621H622.808V137.881H619.208V135.811C617.948 137.341 616.088 138.091 613.898 138.091C609.248 138.091 605.798 134.851 605.798 129.871C605.798 124.891 609.248 121.681 613.898 121.681C615.968 121.681 617.798 122.371 619.058 123.841V115.621ZM614.348 134.881C617.048 134.881 619.118 132.931 619.118 129.871C619.118 126.811 617.048 124.861 614.348 124.861C611.648 124.861 609.578 126.811 609.578 129.871C609.578 132.931 611.648 134.881 614.348 134.881ZM632.664 138.091C629.994 138.091 627.324 137.311 625.884 136.291L627.324 133.441C628.734 134.371 630.894 135.031 632.904 135.031C635.274 135.031 636.264 134.371 636.264 133.261C636.264 130.201 626.364 133.081 626.364 126.691C626.364 123.661 629.094 121.681 633.414 121.681C635.544 121.681 637.974 122.191 639.414 123.061L637.974 125.911C636.444 125.011 634.914 124.711 633.384 124.711C631.104 124.711 630.024 125.461 630.024 126.511C630.024 129.751 639.924 126.871 639.924 133.141C639.924 136.141 637.164 138.091 632.664 138.091ZM662.844 121.861H666.444L658.944 139.171C657.474 142.801 655.434 143.911 652.764 143.911C651.174 143.911 649.494 143.371 648.474 142.441L649.974 139.681C650.694 140.371 651.714 140.791 652.734 140.791C654.054 140.791 654.834 140.161 655.554 138.571L655.824 137.941L648.834 121.861H652.734L657.774 133.711L662.844 121.861ZM675.549 138.091C670.629 138.091 667.029 134.671 667.029 129.871C667.029 125.071 670.629 121.681 675.549 121.681C680.529 121.681 684.099 125.071 684.099 129.871C684.099 134.671 680.529 138.091 675.549 138.091ZM675.549 134.881C678.279 134.881 680.319 132.931 680.319 129.871C680.319 126.811 678.279 124.861 675.549 124.861C672.849 124.861 670.809 126.811 670.809 129.871C670.809 132.931 672.849 134.881 675.549 134.881ZM699.445 121.861H703.195V137.881H699.625V135.841C698.425 137.311 696.535 138.091 694.465 138.091C690.355 138.091 687.565 135.841 687.565 131.011V121.861H691.315V130.501C691.315 133.411 692.695 134.791 695.065 134.791C697.675 134.791 699.445 133.171 699.445 129.961V121.861ZM711.675 124.201C712.755 122.521 714.705 121.681 717.375 121.681V125.251C717.045 125.191 716.775 125.161 716.505 125.161C713.655 125.161 711.855 126.841 711.855 130.111V137.881H708.105V121.861H711.675V124.201ZM741.323 121.861H744.893V135.451C744.893 141.271 741.863 143.911 736.253 143.911C733.253 143.911 730.283 143.131 728.453 141.631L730.133 138.811C731.543 139.981 733.823 140.731 736.043 140.731C739.583 140.731 741.143 139.111 741.143 135.871V135.031C739.823 136.471 737.933 137.161 735.773 137.161C731.183 137.161 727.673 134.041 727.673 129.391C727.673 124.741 731.183 121.681 735.773 121.681C738.023 121.681 740.003 122.401 741.323 123.991V121.861ZM736.343 133.981C739.163 133.981 741.203 132.121 741.203 129.391C741.203 126.691 739.163 124.861 736.343 124.861C733.493 124.861 731.453 126.691 731.453 129.391C731.453 132.121 733.493 133.981 736.343 133.981ZM757.023 138.091C752.103 138.091 748.503 134.671 748.503 129.871C748.503 125.071 752.103 121.681 757.023 121.681C762.003 121.681 765.573 125.071 765.573 129.871C765.573 134.671 762.003 138.091 757.023 138.091ZM757.023 134.881C759.753 134.881 761.793 132.931 761.793 129.871C761.793 126.811 759.753 124.861 757.023 124.861C754.323 124.861 752.283 126.811 752.283 129.871C752.283 132.931 754.323 134.881 757.023 134.881ZM775.074 121.681C779.694 121.681 782.364 123.871 782.364 128.491V137.881H778.824V135.931C777.924 137.311 776.184 138.091 773.784 138.091C770.124 138.091 767.814 136.081 767.814 133.291C767.814 130.621 769.614 128.521 774.474 128.521H778.614V128.281C778.614 126.091 777.294 124.801 774.624 124.801C772.824 124.801 770.964 125.401 769.764 126.391L768.294 123.661C770.004 122.341 772.494 121.681 775.074 121.681ZM774.564 135.361C776.394 135.361 777.984 134.521 778.614 132.871V131.011H774.744C772.194 131.011 771.504 131.971 771.504 133.141C771.504 134.491 772.644 135.361 774.564 135.361ZM787.177 137.881V115.621H790.927V137.881H787.177ZM800.799 138.091C798.129 138.091 795.459 137.311 794.019 136.291L795.459 133.441C796.869 134.371 799.029 135.031 801.039 135.031C803.409 135.031 804.399 134.371 804.399 133.261C804.399 130.201 794.499 133.081 794.499 126.691C794.499 123.661 797.229 121.681 801.549 121.681C803.679 121.681 806.109 122.191 807.549 123.061L806.109 125.911C804.579 125.011 803.049 124.711 801.519 124.711C799.239 124.711 798.159 125.461 798.159 126.511C798.159 129.751 808.059 126.871 808.059 133.141C808.059 136.141 805.299 138.091 800.799 138.091ZM812.488 138.091C811.138 138.091 810.028 137.041 810.028 135.601C810.028 134.101 811.138 133.111 812.488 133.111C813.838 133.111 814.948 134.101 814.948 135.601C814.948 137.041 813.838 138.091 812.488 138.091Z" fill="black"/>
</svg>
