<svg width="754" height="289" viewBox="0 0 754 289" fill="none" xmlns="http://www.w3.org/2000/svg">
<path d="M36.7 16.3809H46.36L28.18 58.3809H18.58L0.46 16.3809H10.96L23.74 46.3809L36.7 16.3809ZM55.4727 21.6009C51.9927 21.6009 49.6527 19.3209 49.6527 16.3809C49.6527 13.4409 51.9927 11.1609 55.4727 11.1609C58.9527 11.1609 61.2927 13.3209 61.2927 16.2009C61.2927 19.3209 58.9527 21.6009 55.4727 21.6009ZM50.7927 58.3809V26.1009H60.1527V58.3809H50.7927ZM80.6995 58.8609C75.2395 58.8609 69.7195 57.3609 66.7195 55.3809L69.8395 48.6609C72.7195 50.5209 77.0995 51.7809 81.0595 51.7809C85.3795 51.7809 86.9995 50.6409 86.9995 48.8409C86.9995 43.5609 67.4995 48.9609 67.4995 36.0609C67.4995 29.9409 73.0195 25.6209 82.4395 25.6209C86.8795 25.6209 91.7995 26.6409 94.8595 28.4409L91.7395 35.1009C88.5595 33.3009 85.3795 32.7009 82.4395 32.7009C78.2395 32.7009 76.4395 34.0209 76.4395 35.7009C76.4395 41.2209 95.9395 35.8809 95.9395 48.6009C95.9395 54.6009 90.3595 58.8609 80.6995 58.8609ZM125.875 26.1009H135.235V58.3809H126.355V54.5409C123.895 57.3609 120.295 58.8609 116.335 58.8609C108.235 58.8609 102.535 54.3009 102.535 44.3409V26.1009H111.895V42.9609C111.895 48.3609 114.295 50.7609 118.435 50.7609C122.755 50.7609 125.875 48.0009 125.875 42.0609V26.1009ZM157.926 25.6209C167.766 25.6209 173.466 30.1809 173.466 39.9609V58.3809H164.706V54.3609C162.966 57.3009 159.606 58.8609 154.866 58.8609C147.306 58.8609 142.806 54.6609 142.806 49.0809C142.806 43.3809 146.826 39.4209 156.666 39.4209H164.106C164.106 35.4009 161.706 33.0609 156.666 33.0609C153.246 33.0609 149.706 34.2009 147.366 36.0609L144.006 29.5209C147.546 27.0009 152.766 25.6209 157.926 25.6209ZM157.206 52.5609C160.326 52.5609 163.026 51.1209 164.106 48.1809V44.8809H157.686C153.306 44.8809 151.926 46.5009 151.926 48.6609C151.926 51.0009 153.906 52.5609 157.206 52.5609ZM182.937 58.3809V13.8609H192.297V58.3809H182.937ZM206.664 21.6009C203.184 21.6009 200.844 19.3209 200.844 16.3809C200.844 13.4409 203.184 11.1609 206.664 11.1609C210.144 11.1609 212.484 13.3209 212.484 16.2009C212.484 19.3209 210.144 21.6009 206.664 21.6009ZM201.984 58.3809V26.1009H211.344V58.3809H201.984ZM230.631 51.1809H247.611V58.3809H218.811V52.7409L235.251 33.3009H219.231V26.1009H247.071V31.7409L230.631 51.1809ZM285.819 42.3609C285.819 43.0809 285.699 44.1009 285.639 44.8809H261.219C262.119 48.9009 265.539 51.3609 270.459 51.3609C273.879 51.3609 276.339 50.3409 278.559 48.2409L283.539 53.6409C280.539 57.0609 276.039 58.8609 270.219 58.8609C259.059 58.8609 251.799 51.8409 251.799 42.2409C251.799 32.5809 259.179 25.6209 269.019 25.6209C278.499 25.6209 285.819 31.9809 285.819 42.3609ZM269.079 32.7009C264.819 32.7009 261.759 35.2809 261.099 39.4209H276.999C276.339 35.3409 273.279 32.7009 269.079 32.7009ZM334.083 26.1009H343.083L328.503 60.3609C325.383 68.1609 320.943 70.5009 315.123 70.5009C311.823 70.5009 308.223 69.4209 306.123 67.5609L309.543 60.9009C310.983 62.1609 312.963 62.9409 314.823 62.9409C317.403 62.9409 318.843 61.8009 320.103 58.9209L320.223 58.6209L306.243 26.1009H315.903L324.963 48.0009L334.083 26.1009ZM362.383 58.8609C352.123 58.8609 344.623 51.9609 344.623 42.2409C344.623 32.5209 352.123 25.6209 362.383 25.6209C372.643 25.6209 380.083 32.5209 380.083 42.2409C380.083 51.9609 372.643 58.8609 362.383 58.8609ZM362.383 51.1809C367.063 51.1809 370.603 47.8209 370.603 42.2409C370.603 36.6609 367.063 33.3009 362.383 33.3009C357.703 33.3009 354.103 36.6609 354.103 42.2409C354.103 47.8209 357.703 51.1809 362.383 51.1809ZM410.5 26.1009H419.86V58.3809H410.98V54.5409C408.52 57.3609 404.92 58.8609 400.96 58.8609C392.86 58.8609 387.16 54.3009 387.16 44.3409V26.1009H396.52V42.9609C396.52 48.3609 398.92 50.7609 403.06 50.7609C407.38 50.7609 410.5 48.0009 410.5 42.0609V26.1009ZM438.471 30.3609C440.751 27.2409 444.591 25.6209 449.571 25.6209V34.2609C448.791 34.2009 448.191 34.1409 447.471 34.1409C442.311 34.1409 438.891 36.9609 438.891 43.1409V58.3809H429.531V26.1009H438.471V30.3609ZM493.443 25.6209C502.503 25.6209 509.523 32.1009 509.523 42.2409C509.523 52.3809 502.503 58.8609 493.443 58.8609C489.423 58.8609 486.123 57.6009 483.723 54.9609V70.0209H474.363V26.1009H483.303V29.8209C485.643 27.0009 489.123 25.6209 493.443 25.6209ZM491.823 51.1809C496.503 51.1809 500.043 47.8209 500.043 42.2409C500.043 36.6609 496.503 33.3009 491.823 33.3009C487.143 33.3009 483.603 36.6609 483.603 42.2409C483.603 47.8209 487.143 51.1809 491.823 51.1809ZM525.729 30.3609C528.009 27.2409 531.849 25.6209 536.829 25.6209V34.2609C536.049 34.2009 535.449 34.1409 534.729 34.1409C529.569 34.1409 526.149 36.9609 526.149 43.1409V58.3809H516.789V26.1009H525.729V30.3609ZM558.461 58.8609C548.201 58.8609 540.701 51.9609 540.701 42.2409C540.701 32.5209 548.201 25.6209 558.461 25.6209C568.721 25.6209 576.161 32.5209 576.161 42.2409C576.161 51.9609 568.721 58.8609 558.461 58.8609ZM558.461 51.1809C563.141 51.1809 566.681 47.8209 566.681 42.2409C566.681 36.6609 563.141 33.3009 558.461 33.3009C553.781 33.3009 550.181 36.6609 550.181 42.2409C550.181 47.8209 553.781 51.1809 558.461 51.1809ZM607.838 26.1009H616.718V52.9809C616.718 64.9809 610.238 70.5009 598.598 70.5009C592.478 70.5009 586.538 69.0009 582.758 66.0609L586.478 59.3409C589.238 61.5609 593.738 63.0009 597.878 63.0009C604.478 63.0009 607.358 60.0009 607.358 54.1809V52.8009C604.898 55.5009 601.358 56.8209 597.158 56.8209C588.218 56.8209 581.018 50.6409 581.018 41.2209C581.018 31.8009 588.218 25.6209 597.158 25.6209C601.658 25.6209 605.378 27.1209 607.838 30.2409V26.1009ZM599.018 49.1409C603.938 49.1409 607.478 45.9609 607.478 41.2209C607.478 36.4809 603.938 33.3009 599.018 33.3009C594.098 33.3009 590.498 36.4809 590.498 41.2209C590.498 45.9609 594.098 49.1409 599.018 49.1409ZM635.369 30.3609C637.649 27.2409 641.489 25.6209 646.469 25.6209V34.2609C645.689 34.2009 645.089 34.1409 644.369 34.1409C639.209 34.1409 635.789 36.9609 635.789 43.1409V58.3809H626.429V26.1009H635.369V30.3609ZM684.362 42.3609C684.362 43.0809 684.242 44.1009 684.182 44.8809H659.762C660.662 48.9009 664.082 51.3609 669.002 51.3609C672.422 51.3609 674.882 50.3409 677.102 48.2409L682.082 53.6409C679.082 57.0609 674.582 58.8609 668.762 58.8609C657.602 58.8609 650.342 51.8409 650.342 42.2409C650.342 32.5809 657.722 25.6209 667.562 25.6209C677.042 25.6209 684.362 31.9809 684.362 42.3609ZM667.622 32.7009C663.362 32.7009 660.302 35.2809 659.642 39.4209H675.542C674.882 35.3409 671.822 32.7009 667.622 32.7009ZM702.453 58.8609C696.993 58.8609 691.473 57.3609 688.473 55.3809L691.593 48.6609C694.473 50.5209 698.853 51.7809 702.813 51.7809C707.133 51.7809 708.753 50.6409 708.753 48.8409C708.753 43.5609 689.253 48.9609 689.253 36.0609C689.253 29.9409 694.773 25.6209 704.193 25.6209C708.633 25.6209 713.553 26.6409 716.613 28.4409L713.493 35.1009C710.313 33.3009 707.133 32.7009 704.193 32.7009C699.993 32.7009 698.193 34.0209 698.193 35.7009C698.193 41.2209 717.693 35.8809 717.693 48.6009C717.693 54.6009 712.113 58.8609 702.453 58.8609ZM735.328 58.8609C729.868 58.8609 724.348 57.3609 721.348 55.3809L724.468 48.6609C727.348 50.5209 731.728 51.7809 735.688 51.7809C740.008 51.7809 741.628 50.6409 741.628 48.8409C741.628 43.5609 722.128 48.9609 722.128 36.0609C722.128 29.9409 727.648 25.6209 737.068 25.6209C741.508 25.6209 746.428 26.6409 749.488 28.4409L746.368 35.1009C743.188 33.3009 740.008 32.7009 737.068 32.7009C732.868 32.7009 731.068 34.0209 731.068 35.7009C731.068 41.2209 750.568 35.8809 750.568 48.6009C750.568 54.6009 744.988 58.8609 735.328 58.8609ZM18.34 97.6209C28.18 97.6209 33.88 102.181 33.88 111.961V130.381H25.12V126.361C23.38 129.301 20.02 130.861 15.28 130.861C7.72 130.861 3.22 126.661 3.22 121.081C3.22 115.381 7.24 111.421 17.08 111.421H24.52C24.52 107.401 22.12 105.061 17.08 105.061C13.66 105.061 10.12 106.201 7.78 108.061L4.42 101.521C7.96 99.0009 13.18 97.6209 18.34 97.6209ZM17.62 124.561C20.74 124.561 23.44 123.121 24.52 120.181V116.881H18.1C13.72 116.881 12.34 118.501 12.34 120.661C12.34 123.001 14.32 124.561 17.62 124.561ZM62.9713 97.6209C70.5913 97.6209 76.3513 102.061 76.3513 111.901V130.381H66.9913V113.341C66.9913 108.121 64.5913 105.721 60.4513 105.721C55.9513 105.721 52.7113 108.481 52.7113 114.421V130.381H43.3513V98.1009H52.2913V101.881C54.8113 99.1209 58.5913 97.6209 62.9713 97.6209ZM109.707 85.8609H119.067V130.381H110.127V126.661C107.787 129.481 104.367 130.861 100.047 130.861C90.9272 130.861 83.9072 124.381 83.9072 114.241C83.9072 104.101 90.9272 97.6209 100.047 97.6209C104.007 97.6209 107.367 98.8809 109.707 101.521V85.8609ZM101.667 123.181C106.287 123.181 109.887 119.821 109.887 114.241C109.887 108.661 106.287 105.301 101.667 105.301C96.9872 105.301 93.3872 108.661 93.3872 114.241C93.3872 119.821 96.9872 123.181 101.667 123.181ZM157.582 130.861C152.122 130.861 146.602 129.361 143.602 127.381L146.722 120.661C149.602 122.521 153.982 123.781 157.942 123.781C162.262 123.781 163.882 122.641 163.882 120.841C163.882 115.561 144.382 120.961 144.382 108.061C144.382 101.941 149.902 97.6209 159.322 97.6209C163.762 97.6209 168.682 98.6409 171.742 100.441L168.622 107.101C165.442 105.301 162.262 104.701 159.322 104.701C155.122 104.701 153.322 106.021 153.322 107.701C153.322 113.221 172.822 107.881 172.822 120.601C172.822 126.601 167.242 130.861 157.582 130.861ZM197.897 122.221L200.417 128.821C198.497 130.201 195.677 130.861 192.797 130.861C185.177 130.861 180.737 126.961 180.737 119.281V106.021H175.757V98.8209H180.737V90.9609H190.097V98.8209H198.137V106.021H190.097V119.161C190.097 121.921 191.597 123.421 194.117 123.421C195.497 123.421 196.877 123.001 197.897 122.221ZM219.692 97.6209C229.532 97.6209 235.232 102.181 235.232 111.961V130.381H226.472V126.361C224.732 129.301 221.372 130.861 216.632 130.861C209.072 130.861 204.572 126.661 204.572 121.081C204.572 115.381 208.592 111.421 218.432 111.421H225.872C225.872 107.401 223.472 105.061 218.432 105.061C215.012 105.061 211.472 106.201 209.132 108.061L205.772 101.521C209.312 99.0009 214.532 97.6209 219.692 97.6209ZM218.972 124.561C222.092 124.561 224.792 123.121 225.872 120.181V116.881H219.452C215.072 116.881 213.692 118.501 213.692 120.661C213.692 123.001 215.672 124.561 218.972 124.561ZM267.157 98.1009H276.157L261.577 132.361C258.457 140.161 254.017 142.501 248.197 142.501C244.897 142.501 241.297 141.421 239.197 139.561L242.617 132.901C244.057 134.161 246.037 134.941 247.897 134.941C250.477 134.941 251.917 133.801 253.177 130.921L253.297 130.621L239.317 98.1009H248.977L258.037 120.001L267.157 98.1009ZM340.308 97.6209C347.988 97.6209 353.508 102.061 353.508 111.901V130.381H344.148V113.341C344.148 108.121 341.808 105.721 338.028 105.721C333.828 105.721 330.888 108.421 330.888 114.181V130.381H321.528V113.341C321.528 108.121 319.308 105.721 315.408 105.721C311.268 105.721 308.328 108.421 308.328 114.181V130.381H298.968V98.1009H307.908V101.821C310.308 99.0609 313.908 97.6209 318.048 97.6209C322.548 97.6209 326.388 99.3609 328.668 102.901C331.248 99.6009 335.448 97.6209 340.308 97.6209ZM378.61 130.861C368.35 130.861 360.85 123.961 360.85 114.241C360.85 104.521 368.35 97.6209 378.61 97.6209C388.87 97.6209 396.31 104.521 396.31 114.241C396.31 123.961 388.87 130.861 378.61 130.861ZM378.61 123.181C383.29 123.181 386.83 119.821 386.83 114.241C386.83 108.661 383.29 105.301 378.61 105.301C373.93 105.301 370.33 108.661 370.33 114.241C370.33 119.821 373.93 123.181 378.61 123.181ZM421.866 122.221L424.386 128.821C422.466 130.201 419.646 130.861 416.766 130.861C409.146 130.861 404.706 126.961 404.706 119.281V106.021H399.726V98.8209H404.706V90.9609H414.066V98.8209H422.106V106.021H414.066V119.161C414.066 121.921 415.566 123.421 418.086 123.421C419.466 123.421 420.846 123.001 421.866 122.221ZM435.32 93.6009C431.84 93.6009 429.5 91.3209 429.5 88.3809C429.5 85.4409 431.84 83.1609 435.32 83.1609C438.8 83.1609 441.14 85.3209 441.14 88.2009C441.14 91.3209 438.8 93.6009 435.32 93.6009ZM430.64 130.381V98.1009H440V130.381H430.64ZM472.727 98.1009H481.727L468.107 130.381H458.447L444.887 98.1009H454.547L463.487 120.061L472.727 98.1009ZM498.512 97.6209C508.352 97.6209 514.052 102.181 514.052 111.961V130.381H505.292V126.361C503.552 129.301 500.192 130.861 495.452 130.861C487.892 130.861 483.392 126.661 483.392 121.081C483.392 115.381 487.412 111.421 497.252 111.421H504.692C504.692 107.401 502.292 105.061 497.252 105.061C493.832 105.061 490.292 106.201 487.952 108.061L484.592 101.521C488.132 99.0009 493.352 97.6209 498.512 97.6209ZM497.792 124.561C500.912 124.561 503.612 123.121 504.692 120.181V116.881H498.272C493.892 116.881 492.512 118.501 492.512 120.661C492.512 123.001 494.492 124.561 497.792 124.561ZM541.823 122.221L544.343 128.821C542.423 130.201 539.603 130.861 536.723 130.861C529.103 130.861 524.663 126.961 524.663 119.281V106.021H519.683V98.8209H524.663V90.9609H534.023V98.8209H542.063V106.021H534.023V119.161C534.023 121.921 535.523 123.421 538.043 123.421C539.423 123.421 540.803 123.001 541.823 122.221ZM581.221 114.361C581.221 115.081 581.101 116.101 581.041 116.881H556.621C557.521 120.901 560.941 123.361 565.861 123.361C569.281 123.361 571.741 122.341 573.961 120.241L578.941 125.641C575.941 129.061 571.441 130.861 565.621 130.861C554.461 130.861 547.201 123.841 547.201 114.241C547.201 104.581 554.581 97.6209 564.421 97.6209C573.901 97.6209 581.221 103.981 581.221 114.361ZM564.481 104.701C560.221 104.701 557.161 107.281 556.501 111.421H572.401C571.741 107.341 568.681 104.701 564.481 104.701ZM611.973 85.8609H621.333V130.381H612.393V126.661C610.053 129.481 606.633 130.861 602.313 130.861C593.193 130.861 586.173 124.381 586.173 114.241C586.173 104.101 593.193 97.6209 602.313 97.6209C606.273 97.6209 609.633 98.8809 611.973 101.521V85.8609ZM603.933 123.181C608.553 123.181 612.153 119.821 612.153 114.241C612.153 108.661 608.553 105.301 603.933 105.301C599.253 105.301 595.653 108.661 595.653 114.241C595.653 119.821 599.253 123.181 603.933 123.181ZM634.536 130.861C631.296 130.861 628.716 128.401 628.716 124.981C628.716 121.501 631.296 119.221 634.536 119.221C637.776 119.221 640.356 121.501 640.356 124.981C640.356 128.401 637.776 130.861 634.536 130.861Z" fill="url(#paint0_linear_9762_6531)"/>
<defs>
<linearGradient id="paint0_linear_9762_6531" x1="753.05" y1="72.3809" x2="1" y2="72.3809" gradientUnits="userSpaceOnUse">
<stop stop-color="#7D3EFF"/>
<stop offset="0.609009" stop-color="#FFB35C"/>
<stop offset="1" stop-color="#7D3EFF"/>
</linearGradient>
</defs>
</svg>
