<svg width="323" height="203" viewBox="0 0 323 203" fill="none" xmlns="http://www.w3.org/2000/svg">
<path d="M14.188 20.9004L12.571 17.2254H4.759L3.142 20.9004H0.979L7.636 6.20039H9.715L16.393 20.9004H14.188ZM5.494 15.5454H11.836L8.665 8.34239L5.494 15.5454ZM21.3813 21.0264C19.5333 21.0264 17.7063 20.4594 16.7823 19.7244L17.6223 18.1284C18.5673 18.8004 20.0793 19.2834 21.5283 19.2834C23.3973 19.2834 24.1743 18.7164 24.1743 17.7714C24.1743 15.2724 17.1393 17.4354 17.1393 13.0044C17.1393 11.0094 18.9243 9.66539 21.7803 9.66539C23.2293 9.66539 24.8673 10.0434 25.8333 10.6734L24.9723 12.2694C23.9643 11.6184 22.8513 11.3874 21.7593 11.3874C19.9953 11.3874 19.1343 12.0384 19.1343 12.9204C19.1343 15.5454 26.1903 13.4034 26.1903 17.7294C26.1903 19.7454 24.3423 21.0264 21.3813 21.0264ZM42.2245 9.77039H44.1985L38.8015 22.0134C37.8145 24.3654 36.5335 25.1004 34.8325 25.1004C33.7615 25.1004 32.6695 24.7434 31.9765 24.0714L32.8375 22.5594C33.3835 23.0844 34.0765 23.3784 34.8325 23.3784C35.7985 23.3784 36.4075 22.9374 36.9535 21.6564L37.3105 20.8794L32.3965 9.77039H34.4965L38.3815 18.6744L42.2245 9.77039ZM50.5393 21.0264C47.2003 21.0264 44.7433 18.6534 44.7433 15.3354C44.7433 12.0174 47.2003 9.66539 50.5393 9.66539C53.8783 9.66539 56.3143 12.0174 56.3143 15.3354C56.3143 18.6534 53.8783 21.0264 50.5393 21.0264ZM50.5393 19.2624C52.6813 19.2624 54.2773 17.7084 54.2773 15.3354C54.2773 12.9624 52.6813 11.4294 50.5393 11.4294C48.3973 11.4294 46.7803 12.9624 46.7803 15.3354C46.7803 17.7084 48.3973 19.2624 50.5393 19.2624ZM67.4604 9.77039H69.4764V20.9004H67.5654V19.2204C66.7464 20.3754 65.3604 21.0264 63.7854 21.0264C60.9084 21.0264 58.9974 19.4514 58.9974 16.1754V9.77039H61.0134V15.9444C61.0134 18.1284 62.1054 19.2204 64.0164 19.2204C66.1164 19.2204 67.4604 17.9184 67.4604 15.5244V9.77039ZM75.2463 11.6394C75.9603 10.3374 77.3463 9.66539 79.2993 9.66539V11.6184C79.1313 11.5974 78.9843 11.5974 78.8373 11.5974C76.6743 11.5974 75.3303 12.9204 75.3303 15.3564V20.9004H73.3143V9.77039H75.2463V11.6394ZM93.4683 9.66539C96.7233 9.66539 99.0963 11.9334 99.0963 15.3354C99.0963 18.7584 96.7233 21.0264 93.4683 21.0264C91.8933 21.0264 90.5073 20.4174 89.5833 19.2204V24.9744H87.5673V9.77039H89.4993V11.5344C90.4023 10.2954 91.8302 9.66539 93.4683 9.66539ZM93.3003 19.2624C95.4423 19.2624 97.0593 17.7084 97.0593 15.3354C97.0593 12.9834 95.4423 11.4294 93.3003 11.4294C91.1793 11.4294 89.5623 12.9834 89.5623 15.3354C89.5623 17.7084 91.1793 19.2624 93.3003 19.2624ZM106.649 21.0264C103.31 21.0264 100.853 18.6534 100.853 15.3354C100.853 12.0174 103.31 9.66539 106.649 9.66539C109.988 9.66539 112.424 12.0174 112.424 15.3354C112.424 18.6534 109.988 21.0264 106.649 21.0264ZM106.649 19.2624C108.791 19.2624 110.387 17.7084 110.387 15.3354C110.387 12.9624 108.791 11.4294 106.649 11.4294C104.507 11.4294 102.89 12.9624 102.89 15.3354C102.89 17.7084 104.507 19.2624 106.649 19.2624ZM116.22 7.62839C115.443 7.62839 114.855 7.06139 114.855 6.32639C114.855 5.59139 115.443 5.00339 116.22 5.00339C116.997 5.00339 117.585 5.57039 117.585 6.28439C117.585 7.04039 117.018 7.62839 116.22 7.62839ZM115.212 20.9004V9.77039H117.228V20.9004H115.212ZM127.02 9.66539C129.729 9.66539 131.64 11.2194 131.64 14.4954V20.9004H129.624V14.7264C129.624 12.5424 128.532 11.4714 126.621 11.4714C124.479 11.4714 123.093 12.7524 123.093 15.1674V20.9004H121.077V9.77039H123.009V11.4504C123.828 10.3164 125.256 9.66539 127.02 9.66539ZM140.999 18.8004L141.629 20.2494C141.02 20.7744 140.096 21.0264 139.193 21.0264C136.946 21.0264 135.665 19.7874 135.665 17.5404V11.4294H133.775V9.77039H135.665V7.33439H137.681V9.77039H140.873V11.4294H137.681V17.4564C137.681 18.6534 138.311 19.3254 139.424 19.3254C140.012 19.3254 140.579 19.1364 140.999 18.8004ZM147.258 21.0264C145.41 21.0264 143.583 20.4594 142.659 19.7244L143.499 18.1284C144.444 18.8004 145.956 19.2834 147.405 19.2834C149.274 19.2834 150.051 18.7164 150.051 17.7714C150.051 15.2724 143.016 17.4354 143.016 13.0044C143.016 11.0094 144.801 9.66539 147.657 9.66539C149.106 9.66539 150.744 10.0434 151.71 10.6734L150.849 12.2694C149.841 11.6184 148.728 11.3874 147.636 11.3874C145.872 11.3874 145.011 12.0384 145.011 12.9204C145.011 15.5454 152.067 13.4034 152.067 17.7294C152.067 19.7454 150.219 21.0264 147.258 21.0264ZM164.279 9.66539C167.324 9.66539 169.046 11.1354 169.046 14.1804V20.9004H167.135V19.4304C166.463 20.4384 165.224 21.0264 163.481 21.0264C160.961 21.0264 159.365 19.6824 159.365 17.7504C159.365 15.9654 160.52 14.4954 163.838 14.4954H167.03V14.0964C167.03 12.3954 166.043 11.4084 164.048 11.4084C162.725 11.4084 161.381 11.8704 160.52 12.6054L159.68 11.0934C160.835 10.1694 162.494 9.66539 164.279 9.66539ZM163.817 19.4724C165.329 19.4724 166.526 18.7794 167.03 17.4984V15.9444H163.922C161.927 15.9444 161.36 16.7214 161.36 17.6664C161.36 18.7794 162.284 19.4724 163.817 19.4724ZM177.69 21.0264C174.267 21.0264 171.81 18.6534 171.81 15.3354C171.81 12.0174 174.267 9.66539 177.69 9.66539C179.685 9.66539 181.344 10.4844 182.226 12.0384L180.693 13.0254C179.979 11.9334 178.887 11.4294 177.669 11.4294C175.485 11.4294 173.847 12.9624 173.847 15.3354C173.847 17.7504 175.485 19.2624 177.669 19.2624C178.887 19.2624 179.979 18.7584 180.693 17.6664L182.226 18.6324C181.344 20.1864 179.685 21.0264 177.69 21.0264ZM189.523 21.0264C186.1 21.0264 183.643 18.6534 183.643 15.3354C183.643 12.0174 186.1 9.66539 189.523 9.66539C191.518 9.66539 193.177 10.4844 194.059 12.0384L192.526 13.0254C191.812 11.9334 190.72 11.4294 189.502 11.4294C187.318 11.4294 185.68 12.9624 185.68 15.3354C185.68 17.7504 187.318 19.2624 189.502 19.2624C190.72 19.2624 191.812 18.7584 192.526 17.6664L194.059 18.6324C193.177 20.1864 191.518 21.0264 189.523 21.0264ZM205.027 9.77039H207.043V20.9004H205.132V19.2204C204.313 20.3754 202.927 21.0264 201.352 21.0264C198.475 21.0264 196.564 19.4514 196.564 16.1754V9.77039H198.58V15.9444C198.58 18.1284 199.672 19.2204 201.583 19.2204C203.683 19.2204 205.027 17.9184 205.027 15.5244V9.77039ZM224.804 9.66539C227.513 9.66539 229.361 11.2194 229.361 14.4954V20.9004H227.345V14.7264C227.345 12.5424 226.295 11.4714 224.468 11.4714C222.452 11.4714 221.129 12.7524 221.129 15.1674V20.9004H219.113V14.7264C219.113 12.5424 218.063 11.4714 216.236 11.4714C214.22 11.4714 212.897 12.7524 212.897 15.1674V20.9004H210.881V9.77039H212.813V11.4294C213.611 10.2954 214.976 9.66539 216.656 9.66539C218.357 9.66539 219.785 10.3374 220.52 11.7234C221.36 10.4634 222.914 9.66539 224.804 9.66539ZM241.428 9.77039H243.444V20.9004H241.533V19.2204C240.714 20.3754 239.328 21.0264 237.753 21.0264C234.876 21.0264 232.965 19.4514 232.965 16.1754V9.77039H234.981V15.9444C234.981 18.1284 236.073 19.2204 237.984 19.2204C240.084 19.2204 241.428 17.9184 241.428 15.5244V9.77039ZM247.282 20.9004V5.31839H249.298V20.9004H247.282ZM257.2 9.66539C260.245 9.66539 261.967 11.1354 261.967 14.1804V20.9004H260.056V19.4304C259.384 20.4384 258.145 21.0264 256.402 21.0264C253.882 21.0264 252.286 19.6824 252.286 17.7504C252.286 15.9654 253.441 14.4954 256.759 14.4954H259.951V14.0964C259.951 12.3954 258.964 11.4084 256.969 11.4084C255.646 11.4084 254.302 11.8704 253.441 12.6054L252.601 11.0934C253.756 10.1694 255.415 9.66539 257.2 9.66539ZM256.738 19.4724C258.25 19.4724 259.447 18.7794 259.951 17.4984V15.9444H256.843C254.848 15.9444 254.281 16.7214 254.281 17.6664C254.281 18.7794 255.205 19.4724 256.738 19.4724ZM271.326 18.8004L271.956 20.2494C271.347 20.7744 270.423 21.0264 269.52 21.0264C267.273 21.0264 265.992 19.7874 265.992 17.5404V11.4294H264.102V9.77039H265.992V7.33439H268.008V9.77039H271.2V11.4294H268.008V17.4564C268.008 18.6534 268.638 19.3254 269.751 19.3254C270.339 19.3254 270.906 19.1364 271.326 18.8004ZM284.083 15.3984C284.083 15.5664 284.062 15.8184 284.041 16.0074H275.011C275.263 17.9604 276.838 19.2624 279.043 19.2624C280.345 19.2624 281.437 18.8214 282.256 17.9184L283.369 19.2204C282.361 20.3964 280.828 21.0264 278.98 21.0264C275.389 21.0264 272.995 18.6534 272.995 15.3354C272.995 12.0384 275.368 9.66539 278.581 9.66539C281.794 9.66539 284.083 11.9754 284.083 15.3984ZM278.581 11.3664C276.649 11.3664 275.221 12.6684 275.011 14.5584H282.151C281.941 12.6894 280.534 11.3664 278.581 11.3664ZM287.387 18.1494C288.185 18.1494 288.752 18.7584 288.752 19.5774C288.752 19.9974 288.668 20.3124 288.395 21.0894L287.408 24.0084H286.085L286.862 20.8794C286.337 20.6904 285.98 20.2074 285.98 19.5774C285.98 18.7374 286.589 18.1494 287.387 18.1494ZM10.786 34.7704H12.76L7.363 47.0134C6.376 49.3654 5.095 50.1004 3.394 50.1004C2.323 50.1004 1.231 49.7434 0.538 49.0714L1.399 47.5594C1.945 48.0844 2.638 48.3784 3.394 48.3784C4.36 48.3784 4.969 47.9374 5.515 46.6564L5.872 45.8794L0.958 34.7704H3.058L6.943 43.6744L10.786 34.7704ZM19.1009 46.0264C15.7619 46.0264 13.3049 43.6534 13.3049 40.3354C13.3049 37.0174 15.7619 34.6654 19.1009 34.6654C22.4399 34.6654 24.8759 37.0174 24.8759 40.3354C24.8759 43.6534 22.4399 46.0264 19.1009 46.0264ZM19.1009 44.2624C21.2429 44.2624 22.8389 42.7084 22.8389 40.3354C22.8389 37.9624 21.2429 36.4294 19.1009 36.4294C16.9589 36.4294 15.3419 37.9624 15.3419 40.3354C15.3419 42.7084 16.9589 44.2624 19.1009 44.2624ZM36.0219 34.7704H38.0379V45.9004H36.1269V44.2204C35.3079 45.3754 33.9219 46.0264 32.3469 46.0264C29.4699 46.0264 27.5589 44.4514 27.5589 41.1754V34.7704H29.5749V40.9444C29.5749 43.1284 30.6669 44.2204 32.5779 44.2204C34.6779 44.2204 36.0219 42.9184 36.0219 40.5244V34.7704ZM41.4138 36.8704L41.2878 31.2004H43.0518L42.9048 36.8704H41.4138ZM46.285 45.9004V30.3184H48.301V45.9004H46.285ZM52.1503 45.9004V30.3184H54.1663V45.9004H52.1503ZM63.6551 45.9004V30.3184H65.6711V45.9004H63.6551ZM79.5794 40.3984C79.5794 40.5664 79.5584 40.8184 79.5374 41.0074H70.5074C70.7594 42.9604 72.3344 44.2624 74.5394 44.2624C75.8414 44.2624 76.9334 43.8214 77.7524 42.9184L78.8654 44.2204C77.8574 45.3964 76.3244 46.0264 74.4764 46.0264C70.8854 46.0264 68.4914 43.6534 68.4914 40.3354C68.4914 37.0384 70.8644 34.6654 74.0774 34.6654C77.2904 34.6654 79.5794 36.9754 79.5794 40.3984ZM74.0774 36.3664C72.1454 36.3664 70.7174 37.6684 70.5074 39.5584H77.6474C77.4374 37.6894 76.0304 36.3664 74.0774 36.3664ZM90.0487 34.7704H92.0227L87.1507 45.9004H85.0927L80.2207 34.7704H82.3207L86.1427 43.6954L90.0487 34.7704ZM103.656 40.3984C103.656 40.5664 103.635 40.8184 103.614 41.0074H94.5835C94.8355 42.9604 96.4105 44.2624 98.6155 44.2624C99.9175 44.2624 101.01 43.8214 101.829 42.9184L102.942 44.2204C101.934 45.3964 100.401 46.0264 98.5525 46.0264C94.9615 46.0264 92.5675 43.6534 92.5675 40.3354C92.5675 37.0384 94.9405 34.6654 98.1535 34.6654C101.367 34.6654 103.656 36.9754 103.656 40.3984ZM98.1535 36.3664C96.2215 36.3664 94.7935 37.6684 94.5835 39.5584H101.724C101.514 37.6894 100.107 36.3664 98.1535 36.3664ZM106.455 45.9004V30.3184H108.471V45.9004H106.455ZM126.318 34.7704H128.334V45.9004H126.423V44.2204C125.604 45.3754 124.218 46.0264 122.643 46.0264C119.766 46.0264 117.855 44.4514 117.855 41.1754V34.7704H119.871V40.9444C119.871 43.1284 120.963 44.2204 122.874 44.2204C124.974 44.2204 126.318 42.9184 126.318 40.5244V34.7704ZM138.073 34.6654C141.328 34.6654 143.701 36.9334 143.701 40.3354C143.701 43.7584 141.328 46.0264 138.073 46.0264C136.498 46.0264 135.112 45.4174 134.188 44.2204V49.9744H132.172V34.7704H134.104V36.5344C135.007 35.2954 136.435 34.6654 138.073 34.6654ZM137.905 44.2624C140.047 44.2624 141.664 42.7084 141.664 40.3354C141.664 37.9834 140.047 36.4294 137.905 36.4294C135.784 36.4294 134.167 37.9834 134.167 40.3354C134.167 42.7084 135.784 44.2624 137.905 44.2624ZM146.591 41.2594L146.213 31.2004H148.586L148.187 41.2594H146.591ZM147.41 46.0264C146.612 46.0264 146.024 45.4174 146.024 44.6824C146.024 43.9264 146.612 43.3384 147.41 43.3384C148.187 43.3384 148.754 43.9264 148.754 44.6824C148.754 45.4174 148.187 46.0264 147.41 46.0264ZM169.769 46.0684C165.905 46.0684 163.553 43.8214 163.553 39.5584V31.2004H165.653V39.4744C165.653 42.7294 167.144 44.1994 169.79 44.1994C172.436 44.1994 173.948 42.7294 173.948 39.4744V31.2004H175.985V39.5584C175.985 43.8214 173.654 46.0684 169.769 46.0684ZM185.939 34.6654C188.648 34.6654 190.559 36.2194 190.559 39.4954V45.9004H188.543V39.7264C188.543 37.5424 187.451 36.4714 185.54 36.4714C183.398 36.4714 182.012 37.7524 182.012 40.1674V45.9004H179.996V34.7704H181.928V36.4504C182.747 35.3164 184.175 34.6654 185.939 34.6654ZM194.29 45.9004V30.3184H196.306V45.9004H194.29ZM204.922 46.0264C201.583 46.0264 199.126 43.6534 199.126 40.3354C199.126 37.0174 201.583 34.6654 204.922 34.6654C208.261 34.6654 210.697 37.0174 210.697 40.3354C210.697 43.6534 208.261 46.0264 204.922 46.0264ZM204.922 44.2624C207.064 44.2624 208.66 42.7084 208.66 40.3354C208.66 37.9624 207.064 36.4294 204.922 36.4294C202.78 36.4294 201.163 37.9624 201.163 40.3354C201.163 42.7084 202.78 44.2624 204.922 44.2624ZM218.336 46.0264C214.913 46.0264 212.456 43.6534 212.456 40.3354C212.456 37.0174 214.913 34.6654 218.336 34.6654C220.331 34.6654 221.99 35.4844 222.872 37.0384L221.339 38.0254C220.625 36.9334 219.533 36.4294 218.315 36.4294C216.131 36.4294 214.493 37.9624 214.493 40.3354C214.493 42.7504 216.131 44.2624 218.315 44.2624C219.533 44.2624 220.625 43.7584 221.339 42.6664L222.872 43.6324C221.99 45.1864 220.331 46.0264 218.336 46.0264ZM233.844 45.9004L229.665 40.7134L227.355 42.8554V45.9004H225.339V30.3184H227.355V40.3144L233.424 34.7704H235.86L231.177 39.3694L236.322 45.9004H233.844ZM249.862 34.6654C252.571 34.6654 254.482 36.2194 254.482 39.4954V45.9004H252.466V39.7264C252.466 37.5424 251.374 36.4714 249.463 36.4714C247.321 36.4714 245.935 37.7524 245.935 40.1674V45.9004H243.919V34.7704H245.851V36.4504C246.67 35.3164 248.098 34.6654 249.862 34.6654ZM268.333 40.3984C268.333 40.5664 268.312 40.8184 268.291 41.0074H259.261C259.513 42.9604 261.088 44.2624 263.293 44.2624C264.595 44.2624 265.687 43.8214 266.506 42.9184L267.619 44.2204C266.611 45.3964 265.078 46.0264 263.23 46.0264C259.639 46.0264 257.245 43.6534 257.245 40.3354C257.245 37.0384 259.618 34.6654 262.831 34.6654C266.044 34.6654 268.333 36.9754 268.333 40.3984ZM262.831 36.3664C260.899 36.3664 259.471 37.6684 259.261 39.5584H266.401C266.191 37.6894 264.784 36.3664 262.831 36.3664ZM285.964 34.7704H287.77L283.612 45.9004H281.68L278.467 37.4584L275.212 45.9004H273.28L269.143 34.7704H271.054L274.288 43.6324L277.648 34.7704H279.349L282.646 43.6744L285.964 34.7704ZM7.762 72.0264C4.339 72.0264 1.882 69.6534 1.882 66.3354C1.882 63.0174 4.339 60.6654 7.762 60.6654C9.757 60.6654 11.416 61.4844 12.298 63.0384L10.765 64.0254C10.051 62.9334 8.959 62.4294 7.741 62.4294C5.557 62.4294 3.919 63.9624 3.919 66.3354C3.919 68.7504 5.557 70.2624 7.741 70.2624C8.959 70.2624 10.051 69.7584 10.765 68.6664L12.298 69.6324C11.416 71.1864 9.757 72.0264 7.762 72.0264ZM20.7075 60.6654C23.4165 60.6654 25.3275 62.2194 25.3275 65.4954V71.9004H23.3115V65.7264C23.3115 63.5424 22.2195 62.4714 20.3085 62.4714C18.1665 62.4714 16.7805 63.7524 16.7805 66.1674V71.9004H14.7645V56.3184H16.7805V62.3454C17.6205 61.2744 19.0065 60.6654 20.7075 60.6654ZM33.1115 60.6654C36.1565 60.6654 37.8785 62.1354 37.8785 65.1804V71.9004H35.9675V70.4304C35.2955 71.4384 34.0565 72.0264 32.3135 72.0264C29.7935 72.0264 28.1975 70.6824 28.1975 68.7504C28.1975 66.9654 29.3525 65.4954 32.6705 65.4954H35.8625V65.0964C35.8625 63.3954 34.8755 62.4084 32.8805 62.4084C31.5575 62.4084 30.2135 62.8704 29.3525 63.6054L28.5125 62.0934C29.6675 61.1694 31.3265 60.6654 33.1115 60.6654ZM32.6495 70.4724C34.1615 70.4724 35.3585 69.7794 35.8625 68.4984V66.9444H32.7545C30.7595 66.9444 30.1925 67.7214 30.1925 68.6664C30.1925 69.7794 31.1165 70.4724 32.6495 70.4724ZM41.6092 71.9004V56.3184H43.6252V71.9004H41.6092ZM47.4745 71.9004V56.3184H49.4905V71.9004H47.4745ZM63.3987 66.3984C63.3987 66.5664 63.3777 66.8184 63.3567 67.0074H54.3267C54.5787 68.9604 56.1537 70.2624 58.3587 70.2624C59.6607 70.2624 60.7527 69.8214 61.5717 68.9184L62.6847 70.2204C61.6767 71.3964 60.1437 72.0264 58.2957 72.0264C54.7047 72.0264 52.3107 69.6534 52.3107 66.3354C52.3107 63.0384 54.6837 60.6654 57.8967 60.6654C61.1097 60.6654 63.3987 62.9754 63.3987 66.3984ZM57.8967 62.3664C55.9647 62.3664 54.5367 63.6684 54.3267 65.5584H61.4667C61.2567 63.6894 59.8497 62.3664 57.8967 62.3664ZM72.1411 60.6654C74.8501 60.6654 76.7611 62.2194 76.7611 65.4954V71.9004H74.7451V65.7264C74.7451 63.5424 73.6531 62.4714 71.7421 62.4714C69.6001 62.4714 68.2141 63.7524 68.2141 66.1674V71.9004H66.1981V60.7704H68.1301V62.4504C68.9491 61.3164 70.3771 60.6654 72.1411 60.6654ZM89.2896 60.7704H91.2006V70.3884C91.2006 74.3154 89.2056 76.1004 85.4256 76.1004C83.3886 76.1004 81.3306 75.5334 80.1126 74.4414L81.0786 72.8874C82.1076 73.7694 83.7246 74.3364 85.3626 74.3364C87.9876 74.3364 89.1846 73.1184 89.1846 70.5984V69.7164C88.2186 70.8714 86.7696 71.4384 85.1736 71.4384C81.9606 71.4384 79.5246 69.2544 79.5246 66.0414C79.5246 62.8284 81.9606 60.6654 85.1736 60.6654C86.8326 60.6654 88.3446 61.2744 89.2896 62.4924V60.7704ZM85.4046 69.6744C87.6306 69.6744 89.2266 68.1834 89.2266 66.0414C89.2266 63.8784 87.6306 62.4294 85.4046 62.4294C83.1576 62.4294 81.5616 63.8784 81.5616 66.0414C81.5616 68.1834 83.1576 69.6744 85.4046 69.6744ZM105.112 66.3984C105.112 66.5664 105.091 66.8184 105.07 67.0074H96.0396C96.2916 68.9604 97.8666 70.2624 100.072 70.2624C101.374 70.2624 102.466 69.8214 103.285 68.9184L104.398 70.2204C103.39 71.3964 101.857 72.0264 100.009 72.0264C96.4176 72.0264 94.0236 69.6534 94.0236 66.3354C94.0236 63.0384 96.3966 60.6654 99.6096 60.6654C102.823 60.6654 105.112 62.9754 105.112 66.3984ZM99.6096 62.3664C97.6776 62.3664 96.2496 63.6684 96.0396 65.5584H103.18C102.97 63.6894 101.563 62.3664 99.6096 62.3664ZM111.103 72.0264C109.255 72.0264 107.428 71.4594 106.504 70.7244L107.344 69.1284C108.289 69.8004 109.801 70.2834 111.25 70.2834C113.119 70.2834 113.896 69.7164 113.896 68.7714C113.896 66.2724 106.861 68.4354 106.861 64.0044C106.861 62.0094 108.646 60.6654 111.502 60.6654C112.951 60.6654 114.589 61.0434 115.555 61.6734L114.694 63.2694C113.686 62.6184 112.573 62.3874 111.481 62.3874C109.717 62.3874 108.856 63.0384 108.856 63.9204C108.856 66.5454 115.912 64.4034 115.912 68.7294C115.912 70.7454 114.064 72.0264 111.103 72.0264ZM118.936 69.1494C119.734 69.1494 120.301 69.7584 120.301 70.5774C120.301 70.9974 120.217 71.3124 119.944 72.0894L118.957 75.0084H117.634L118.411 71.8794C117.886 71.6904 117.529 71.2074 117.529 70.5774C117.529 69.7374 118.138 69.1494 118.936 69.1494ZM133.68 72.0264C130.257 72.0264 127.8 69.6534 127.8 66.3354C127.8 63.0174 130.257 60.6654 133.68 60.6654C135.675 60.6654 137.334 61.4844 138.216 63.0384L136.683 64.0254C135.969 62.9334 134.877 62.4294 133.659 62.4294C131.475 62.4294 129.837 63.9624 129.837 66.3354C129.837 68.7504 131.475 70.2624 133.659 70.2624C134.877 70.2624 135.969 69.7584 136.683 68.6664L138.216 69.6324C137.334 71.1864 135.675 72.0264 133.68 72.0264ZM150.721 66.3984C150.721 66.5664 150.7 66.8184 150.679 67.0074H141.649C141.901 68.9604 143.476 70.2624 145.681 70.2624C146.983 70.2624 148.075 69.8214 148.894 68.9184L150.007 70.2204C148.999 71.3964 147.466 72.0264 145.618 72.0264C142.027 72.0264 139.633 69.6534 139.633 66.3354C139.633 63.0384 142.006 60.6654 145.219 60.6654C148.432 60.6654 150.721 62.9754 150.721 66.3984ZM145.219 62.3664C143.287 62.3664 141.859 63.6684 141.649 65.5584H148.789C148.579 63.6894 147.172 62.3664 145.219 62.3664ZM153.52 71.9004V56.3184H155.536V71.9004H153.52ZM169.445 66.3984C169.445 66.5664 169.424 66.8184 169.403 67.0074H160.373C160.625 68.9604 162.2 70.2624 164.405 70.2624C165.707 70.2624 166.799 69.8214 167.618 68.9184L168.731 70.2204C167.723 71.3964 166.19 72.0264 164.342 72.0264C160.751 72.0264 158.357 69.6534 158.357 66.3354C158.357 63.0384 160.73 60.6654 163.943 60.6654C167.156 60.6654 169.445 62.9754 169.445 66.3984ZM163.943 62.3664C162.011 62.3664 160.583 63.6684 160.373 65.5584H167.513C167.303 63.6894 165.896 62.3664 163.943 62.3664ZM178.145 60.6654C181.4 60.6654 183.773 62.9334 183.773 66.3354C183.773 69.7374 181.4 72.0264 178.145 72.0264C176.507 72.0264 175.079 71.3964 174.176 70.1364V71.9004H172.244V56.3184H174.26V62.4504C175.184 61.2534 176.57 60.6654 178.145 60.6654ZM177.977 70.2624C180.119 70.2624 181.736 68.7084 181.736 66.3354C181.736 63.9624 180.119 62.4294 177.977 62.4294C175.856 62.4294 174.239 63.9624 174.239 66.3354C174.239 68.7084 175.856 70.2624 177.977 70.2624ZM188.49 62.6394C189.204 61.3374 190.59 60.6654 192.543 60.6654V62.6184C192.375 62.5974 192.228 62.5974 192.081 62.5974C189.918 62.5974 188.574 63.9204 188.574 66.3564V71.9004H186.558V60.7704H188.49V62.6394ZM199.061 60.6654C202.106 60.6654 203.828 62.1354 203.828 65.1804V71.9004H201.917V70.4304C201.245 71.4384 200.006 72.0264 198.263 72.0264C195.743 72.0264 194.147 70.6824 194.147 68.7504C194.147 66.9654 195.302 65.4954 198.62 65.4954H201.812V65.0964C201.812 63.3954 200.825 62.4084 198.83 62.4084C197.507 62.4084 196.163 62.8704 195.302 63.6054L194.462 62.0934C195.617 61.1694 197.276 60.6654 199.061 60.6654ZM198.599 70.4724C200.111 70.4724 201.308 69.7794 201.812 68.4984V66.9444H198.704C196.709 66.9444 196.142 67.7214 196.142 68.6664C196.142 69.7794 197.066 70.4724 198.599 70.4724ZM213.186 69.8004L213.816 71.2494C213.207 71.7744 212.283 72.0264 211.38 72.0264C209.133 72.0264 207.852 70.7874 207.852 68.5404V62.4294H205.962V60.7704H207.852V58.3344H209.868V60.7704H213.06V62.4294H209.868V68.4564C209.868 69.6534 210.498 70.3254 211.611 70.3254C212.199 70.3254 212.766 70.1364 213.186 69.8004ZM225.944 66.3984C225.944 66.5664 225.923 66.8184 225.902 67.0074H216.872C217.124 68.9604 218.699 70.2624 220.904 70.2624C222.206 70.2624 223.298 69.8214 224.117 68.9184L225.23 70.2204C224.222 71.3964 222.689 72.0264 220.841 72.0264C217.25 72.0264 214.856 69.6534 214.856 66.3354C214.856 63.0384 217.229 60.6654 220.442 60.6654C223.655 60.6654 225.944 62.9754 225.944 66.3984ZM220.442 62.3664C218.51 62.3664 217.082 63.6684 216.872 65.5584H224.012C223.802 63.6894 222.395 62.3664 220.442 62.3664ZM16.834 85.6654C19.543 85.6654 21.391 87.2194 21.391 90.4954V96.9004H19.375V90.7264C19.375 88.5424 18.325 87.4714 16.498 87.4714C14.482 87.4714 13.159 88.7524 13.159 91.1674V96.9004H11.143V90.7264C11.143 88.5424 10.093 87.4714 8.266 87.4714C6.25 87.4714 4.927 88.7524 4.927 91.1674V96.9004H2.911V85.7704H4.843V87.4294C5.641 86.2954 7.006 85.6654 8.686 85.6654C10.387 85.6654 11.815 86.3374 12.55 87.7234C13.39 86.4634 14.944 85.6654 16.834 85.6654ZM26.1085 83.6284C25.3315 83.6284 24.7435 83.0614 24.7435 82.3264C24.7435 81.5914 25.3315 81.0034 26.1085 81.0034C26.8855 81.0034 27.4735 81.5704 27.4735 82.2844C27.4735 83.0404 26.9065 83.6284 26.1085 83.6284ZM25.1005 96.9004V85.7704H27.1165V96.9004H25.1005ZM30.9657 96.9004V81.3184H32.9817V96.9004H30.9657ZM46.8899 91.3984C46.8899 91.5664 46.8689 91.8184 46.8479 92.0074H37.8179C38.0699 93.9604 39.6449 95.2624 41.8499 95.2624C43.1519 95.2624 44.2439 94.8214 45.0629 93.9184L46.1759 95.2204C45.1679 96.3964 43.6349 97.0264 41.7869 97.0264C38.1959 97.0264 35.8019 94.6534 35.8019 91.3354C35.8019 88.0384 38.1749 85.6654 41.3879 85.6654C44.6009 85.6654 46.8899 87.9754 46.8899 91.3984ZM41.3879 87.3664C39.4559 87.3664 38.0279 88.6684 37.8179 90.5584H44.9579C44.7479 88.6894 43.3409 87.3664 41.3879 87.3664ZM52.8813 97.0264C51.0333 97.0264 49.2063 96.4594 48.2823 95.7244L49.1223 94.1284C50.0673 94.8004 51.5793 95.2834 53.0283 95.2834C54.8973 95.2834 55.6743 94.7164 55.6743 93.7714C55.6743 91.2724 48.6393 93.4354 48.6393 89.0044C48.6393 87.0094 50.4243 85.6654 53.2803 85.6654C54.7293 85.6654 56.3673 86.0434 57.3333 86.6734L56.4723 88.2694C55.4643 87.6184 54.3513 87.3874 53.2593 87.3874C51.4953 87.3874 50.6343 88.0384 50.6343 88.9204C50.6343 91.5454 57.6903 89.4034 57.6903 93.7294C57.6903 95.7454 55.8423 97.0264 52.8813 97.0264ZM65.8378 94.8004L66.4678 96.2494C65.8588 96.7744 64.9348 97.0264 64.0318 97.0264C61.7848 97.0264 60.5038 95.7874 60.5038 93.5404V87.4294H58.6138V85.7704H60.5038V83.3344H62.5198V85.7704H65.7118V87.4294H62.5198V93.4564C62.5198 94.6534 63.1498 95.3254 64.2628 95.3254C64.8508 95.3254 65.4178 95.1364 65.8378 94.8004ZM73.303 97.0264C69.964 97.0264 67.507 94.6534 67.507 91.3354C67.507 88.0174 69.964 85.6654 73.303 85.6654C76.642 85.6654 79.078 88.0174 79.078 91.3354C79.078 94.6534 76.642 97.0264 73.303 97.0264ZM73.303 95.2624C75.445 95.2624 77.041 93.7084 77.041 91.3354C77.041 88.9624 75.445 87.4294 73.303 87.4294C71.161 87.4294 69.544 88.9624 69.544 91.3354C69.544 93.7084 71.161 95.2624 73.303 95.2624ZM87.8091 85.6654C90.5181 85.6654 92.4291 87.2194 92.4291 90.4954V96.9004H90.4131V90.7264C90.4131 88.5424 89.3211 87.4714 87.4101 87.4714C85.2681 87.4714 83.8821 88.7524 83.8821 91.1674V96.9004H81.8661V85.7704H83.7981V87.4504C84.6171 86.3164 86.0451 85.6654 87.8091 85.6654ZM106.281 91.3984C106.281 91.5664 106.26 91.8184 106.239 92.0074H97.2085C97.4605 93.9604 99.0355 95.2624 101.241 95.2624C102.543 95.2624 103.635 94.8214 104.454 93.9184L105.567 95.2204C104.559 96.3964 103.026 97.0264 101.178 97.0264C97.5865 97.0264 95.1925 94.6534 95.1925 91.3354C95.1925 88.0384 97.5655 85.6654 100.779 85.6654C103.992 85.6654 106.281 87.9754 106.281 91.3984ZM100.779 87.3664C98.8465 87.3664 97.4185 88.6684 97.2085 90.5584H104.349C104.139 88.6894 102.732 87.3664 100.779 87.3664ZM112.272 97.0264C110.424 97.0264 108.597 96.4594 107.673 95.7244L108.513 94.1284C109.458 94.8004 110.97 95.2834 112.419 95.2834C114.288 95.2834 115.065 94.7164 115.065 93.7714C115.065 91.2724 108.03 93.4354 108.03 89.0044C108.03 87.0094 109.815 85.6654 112.671 85.6654C114.12 85.6654 115.758 86.0434 116.724 86.6734L115.863 88.2694C114.855 87.6184 113.742 87.3874 112.65 87.3874C110.886 87.3874 110.025 88.0384 110.025 88.9204C110.025 91.5454 117.081 89.4034 117.081 93.7294C117.081 95.7454 115.233 97.0264 112.272 97.0264ZM120.104 94.1494C120.902 94.1494 121.469 94.7584 121.469 95.5774C121.469 95.9974 121.385 96.3124 121.112 97.0894L120.125 100.008H118.802L119.579 96.8794C119.054 96.6904 118.697 96.2074 118.697 95.5774C118.697 94.7374 119.306 94.1494 120.104 94.1494ZM134.051 85.6654C137.096 85.6654 138.818 87.1354 138.818 90.1804V96.9004H136.907V95.4304C136.235 96.4384 134.996 97.0264 133.253 97.0264C130.733 97.0264 129.137 95.6824 129.137 93.7504C129.137 91.9654 130.292 90.4954 133.61 90.4954H136.802V90.0964C136.802 88.3954 135.815 87.4084 133.82 87.4084C132.497 87.4084 131.153 87.8704 130.292 88.6054L129.452 87.0934C130.607 86.1694 132.266 85.6654 134.051 85.6654ZM133.589 95.4724C135.101 95.4724 136.298 94.7794 136.802 93.4984V91.9444H133.694C131.699 91.9444 131.132 92.7214 131.132 93.6664C131.132 94.7794 132.056 95.4724 133.589 95.4724ZM148.492 85.6654C151.201 85.6654 153.112 87.2194 153.112 90.4954V96.9004H151.096V90.7264C151.096 88.5424 150.004 87.4714 148.093 87.4714C145.951 87.4714 144.565 88.7524 144.565 91.1674V96.9004H142.549V85.7704H144.481V87.4504C145.3 86.3164 146.728 85.6654 148.492 85.6654ZM165.388 81.3184H167.404V96.9004H165.472V95.1364C164.569 96.3964 163.141 97.0264 161.503 97.0264C158.248 97.0264 155.875 94.7374 155.875 91.3354C155.875 87.9334 158.248 85.6654 161.503 85.6654C163.078 85.6654 164.464 86.2534 165.388 87.4504V81.3184ZM161.671 95.2624C163.792 95.2624 165.409 93.7084 165.409 91.3354C165.409 88.9624 163.792 87.4294 161.671 87.4294C159.529 87.4294 157.912 88.9624 157.912 91.3354C157.912 93.7084 159.529 95.2624 161.671 95.2624ZM191.894 85.7704H193.7L189.542 96.9004H187.61L184.397 88.4584L181.142 96.9004H179.21L175.073 85.7704H176.984L180.218 94.6324L183.578 85.7704H185.279L188.576 94.6744L191.894 85.7704ZM199.45 85.6654C202.495 85.6654 204.217 87.1354 204.217 90.1804V96.9004H202.306V95.4304C201.634 96.4384 200.395 97.0264 198.652 97.0264C196.132 97.0264 194.536 95.6824 194.536 93.7504C194.536 91.9654 195.691 90.4954 199.009 90.4954H202.201V90.0964C202.201 88.3954 201.214 87.4084 199.219 87.4084C197.896 87.4084 196.552 87.8704 195.691 88.6054L194.851 87.0934C196.006 86.1694 197.665 85.6654 199.45 85.6654ZM198.988 95.4724C200.5 95.4724 201.697 94.7794 202.201 93.4984V91.9444H199.093C197.098 91.9444 196.531 92.7214 196.531 93.6664C196.531 94.7794 197.455 95.4724 198.988 95.4724ZM213.576 94.8004L214.206 96.2494C213.597 96.7744 212.673 97.0264 211.77 97.0264C209.523 97.0264 208.242 95.7874 208.242 93.5404V87.4294H206.352V85.7704H208.242V83.3344H210.258V85.7704H213.45V87.4294H210.258V93.4564C210.258 94.6534 210.888 95.3254 212.001 95.3254C212.589 95.3254 213.156 95.1364 213.576 94.8004ZM221.125 97.0264C217.702 97.0264 215.245 94.6534 215.245 91.3354C215.245 88.0174 217.702 85.6654 221.125 85.6654C223.12 85.6654 224.779 86.4844 225.661 88.0384L224.128 89.0254C223.414 87.9334 222.322 87.4294 221.104 87.4294C218.92 87.4294 217.282 88.9624 217.282 91.3354C217.282 93.7504 218.92 95.2624 221.104 95.2624C222.322 95.2624 223.414 94.7584 224.128 93.6664L225.661 94.6324C224.779 96.1864 223.12 97.0264 221.125 97.0264ZM234.071 85.6654C236.78 85.6654 238.691 87.2194 238.691 90.4954V96.9004H236.675V90.7264C236.675 88.5424 235.583 87.4714 233.672 87.4714C231.53 87.4714 230.144 88.7524 230.144 91.1674V96.9004H228.128V81.3184H230.144V87.3454C230.984 86.2744 232.37 85.6654 234.071 85.6654ZM255.936 85.7704H257.91L252.513 98.0134C251.526 100.365 250.245 101.1 248.544 101.1C247.473 101.1 246.381 100.743 245.688 100.071L246.549 98.5594C247.095 99.0844 247.788 99.3784 248.544 99.3784C249.51 99.3784 250.119 98.9374 250.665 97.6564L251.022 96.8794L246.108 85.7704H248.208L252.093 94.6744L255.936 85.7704ZM264.251 97.0264C260.912 97.0264 258.455 94.6534 258.455 91.3354C258.455 88.0174 260.912 85.6654 264.251 85.6654C267.59 85.6654 270.026 88.0174 270.026 91.3354C270.026 94.6534 267.59 97.0264 264.251 97.0264ZM264.251 95.2624C266.393 95.2624 267.989 93.7084 267.989 91.3354C267.989 88.9624 266.393 87.4294 264.251 87.4294C262.109 87.4294 260.492 88.9624 260.492 91.3354C260.492 93.7084 262.109 95.2624 264.251 95.2624ZM281.172 85.7704H283.188V96.9004H281.277V95.2204C280.458 96.3754 279.072 97.0264 277.497 97.0264C274.62 97.0264 272.709 95.4514 272.709 92.1754V85.7704H274.725V91.9444C274.725 94.1284 275.817 95.2204 277.728 95.2204C279.828 95.2204 281.172 93.9184 281.172 91.5244V85.7704ZM288.958 87.6394C289.672 86.3374 291.058 85.6654 293.011 85.6654V87.6184C292.843 87.5974 292.696 87.5974 292.549 87.5974C290.386 87.5974 289.042 88.9204 289.042 91.3564V96.9004H287.026V85.7704H288.958V87.6394ZM11.647 110.77H13.558V120.388C13.558 124.315 11.563 126.1 7.783 126.1C5.746 126.1 3.688 125.533 2.47 124.441L3.436 122.887C4.465 123.769 6.082 124.336 7.72 124.336C10.345 124.336 11.542 123.118 11.542 120.598V119.716C10.576 120.871 9.127 121.438 7.531 121.438C4.318 121.438 1.882 119.254 1.882 116.041C1.882 112.828 4.318 110.665 7.531 110.665C9.19 110.665 10.702 111.274 11.647 112.492V110.77ZM7.762 119.674C9.988 119.674 11.584 118.183 11.584 116.041C11.584 113.878 9.988 112.429 7.762 112.429C5.515 112.429 3.919 113.878 3.919 116.041C3.919 118.183 5.515 119.674 7.762 119.674ZM19.342 112.639C20.056 111.337 21.442 110.665 23.395 110.665V112.618C23.227 112.597 23.08 112.597 22.933 112.597C20.77 112.597 19.426 113.92 19.426 116.356V121.9H17.41V110.77H19.342V112.639ZM30.5442 122.026C27.2052 122.026 24.7482 119.653 24.7482 116.335C24.7482 113.017 27.2052 110.665 30.5442 110.665C33.8832 110.665 36.3192 113.017 36.3192 116.335C36.3192 119.653 33.8832 122.026 30.5442 122.026ZM30.5442 120.262C32.6862 120.262 34.2822 118.708 34.2822 116.335C34.2822 113.962 32.6862 112.429 30.5442 112.429C28.4022 112.429 26.7852 113.962 26.7852 116.335C26.7852 118.708 28.4022 120.262 30.5442 120.262ZM53.8357 110.77H55.6417L51.4837 121.9H49.5517L46.3387 113.458L43.0837 121.9H41.1517L37.0147 110.77H38.9257L42.1597 119.632L45.5197 110.77H47.2207L50.5177 119.674L53.8357 110.77ZM63.623 119.8L64.253 121.249C63.644 121.774 62.72 122.026 61.817 122.026C59.57 122.026 58.289 120.787 58.289 118.54V112.429H56.399V110.77H58.289V108.334H60.305V110.77H63.497V112.429H60.305V118.456C60.305 119.653 60.935 120.325 62.048 120.325C62.636 120.325 63.203 120.136 63.623 119.8ZM72.6333 110.665C75.3423 110.665 77.2533 112.219 77.2533 115.495V121.9H75.2373V115.726C75.2373 113.542 74.1453 112.471 72.2343 112.471C70.0923 112.471 68.7063 113.752 68.7063 116.167V121.9H66.6903V106.318H68.7063V112.345C69.5463 111.274 70.9323 110.665 72.6333 110.665ZM94.4989 110.77H96.4729L91.6009 121.9H89.5429L84.6709 110.77H86.7709L90.5929 119.695L94.4989 110.77ZM99.3624 108.628C98.5854 108.628 97.9974 108.061 97.9974 107.326C97.9974 106.591 98.5854 106.003 99.3624 106.003C100.139 106.003 100.727 106.57 100.727 107.284C100.727 108.04 100.16 108.628 99.3624 108.628ZM98.3544 121.9V110.77H100.37V121.9H98.3544ZM107.412 122.026C105.564 122.026 103.737 121.459 102.813 120.724L103.653 119.128C104.598 119.8 106.11 120.283 107.559 120.283C109.428 120.283 110.205 119.716 110.205 118.771C110.205 116.272 103.17 118.435 103.17 114.004C103.17 112.009 104.955 110.665 107.811 110.665C109.26 110.665 110.898 111.043 111.864 111.673L111.003 113.269C109.995 112.618 108.882 112.387 107.79 112.387C106.026 112.387 105.165 113.038 105.165 113.92C105.165 116.545 112.221 114.403 112.221 118.729C112.221 120.745 110.373 122.026 107.412 122.026ZM123.098 110.77H125.114V121.9H123.203V120.22C122.384 121.375 120.998 122.026 119.423 122.026C116.546 122.026 114.635 120.451 114.635 117.175V110.77H116.651V116.944C116.651 119.128 117.743 120.22 119.654 120.22C121.754 120.22 123.098 118.918 123.098 116.524V110.77ZM133.005 110.665C136.05 110.665 137.772 112.135 137.772 115.18V121.9H135.861V120.43C135.189 121.438 133.95 122.026 132.207 122.026C129.687 122.026 128.091 120.682 128.091 118.75C128.091 116.965 129.246 115.495 132.564 115.495H135.756V115.096C135.756 113.395 134.769 112.408 132.774 112.408C131.451 112.408 130.107 112.87 129.246 113.605L128.406 112.093C129.561 111.169 131.22 110.665 133.005 110.665ZM132.543 120.472C134.055 120.472 135.252 119.779 135.756 118.498V116.944H132.648C130.653 116.944 130.086 117.721 130.086 118.666C130.086 119.779 131.01 120.472 132.543 120.472ZM141.503 121.9V106.318H143.519V121.9H141.503ZM148.376 108.628C147.599 108.628 147.011 108.061 147.011 107.326C147.011 106.591 147.599 106.003 148.376 106.003C149.153 106.003 149.741 106.57 149.741 107.284C149.741 108.04 149.174 108.628 148.376 108.628ZM147.368 121.9V110.77H149.384V121.9H147.368ZM154.745 120.241H161.486V121.9H152.162V120.598L158.735 112.429H152.288V110.77H161.318V112.093L154.745 120.241ZM174.079 116.398C174.079 116.566 174.058 116.818 174.037 117.007H165.007C165.259 118.96 166.834 120.262 169.039 120.262C170.341 120.262 171.433 119.821 172.252 118.918L173.365 120.22C172.357 121.396 170.824 122.026 168.976 122.026C165.385 122.026 162.991 119.653 162.991 116.335C162.991 113.038 165.364 110.665 168.577 110.665C171.79 110.665 174.079 112.975 174.079 116.398ZM168.577 112.366C166.645 112.366 165.217 113.668 165.007 115.558H172.147C171.937 113.689 170.53 112.366 168.577 112.366ZM185.363 106.318H187.379V121.9H185.447V120.136C184.544 121.396 183.116 122.026 181.478 122.026C178.223 122.026 175.85 119.737 175.85 116.335C175.85 112.933 178.223 110.665 181.478 110.665C183.053 110.665 184.439 111.253 185.363 112.45V106.318ZM181.646 120.262C183.767 120.262 185.384 118.708 185.384 116.335C185.384 113.962 183.767 112.429 181.646 112.429C179.504 112.429 177.887 113.962 177.887 116.335C177.887 118.708 179.504 120.262 181.646 120.262ZM211.869 110.77H213.675L209.517 121.9H207.585L204.372 113.458L201.117 121.9H199.185L195.048 110.77H196.959L200.193 119.632L203.553 110.77H205.254L208.551 119.674L211.869 110.77ZM216.729 108.628C215.952 108.628 215.364 108.061 215.364 107.326C215.364 106.591 215.952 106.003 216.729 106.003C217.506 106.003 218.094 106.57 218.094 107.284C218.094 108.04 217.527 108.628 216.729 108.628ZM215.721 121.9V110.77H217.737V121.9H215.721ZM227.214 119.8L227.844 121.249C227.235 121.774 226.311 122.026 225.408 122.026C223.161 122.026 221.88 120.787 221.88 118.54V112.429H219.99V110.77H221.88V108.334H223.896V110.77H227.088V112.429H223.896V118.456C223.896 119.653 224.526 120.325 225.639 120.325C226.227 120.325 226.794 120.136 227.214 119.8ZM236.224 110.665C238.933 110.665 240.844 112.219 240.844 115.495V121.9H238.828V115.726C238.828 113.542 237.736 112.471 235.825 112.471C233.683 112.471 232.297 113.752 232.297 116.167V121.9H230.281V106.318H232.297V112.345C233.137 111.274 234.523 110.665 236.224 110.665ZM260.274 116.398C260.274 116.566 260.253 116.818 260.232 117.007H251.202C251.454 118.96 253.029 120.262 255.234 120.262C256.536 120.262 257.628 119.821 258.447 118.918L259.56 120.22C258.552 121.396 257.019 122.026 255.171 122.026C251.58 122.026 249.186 119.653 249.186 116.335C249.186 113.038 251.559 110.665 254.772 110.665C257.985 110.665 260.274 112.975 260.274 116.398ZM254.772 112.366C252.84 112.366 251.412 113.668 251.202 115.558H258.342C258.132 113.689 256.725 112.366 254.772 112.366ZM266.818 110.665C269.863 110.665 271.585 112.135 271.585 115.18V121.9H269.674V120.43C269.002 121.438 267.763 122.026 266.02 122.026C263.5 122.026 261.904 120.682 261.904 118.75C261.904 116.965 263.059 115.495 266.377 115.495H269.569V115.096C269.569 113.395 268.582 112.408 266.587 112.408C265.264 112.408 263.92 112.87 263.059 113.605L262.219 112.093C263.374 111.169 265.033 110.665 266.818 110.665ZM266.356 120.472C267.868 120.472 269.065 119.779 269.569 118.498V116.944H266.461C264.466 116.944 263.899 117.721 263.899 118.666C263.899 119.779 264.823 120.472 266.356 120.472ZM280.229 122.026C276.806 122.026 274.349 119.653 274.349 116.335C274.349 113.017 276.806 110.665 280.229 110.665C282.224 110.665 283.883 111.484 284.765 113.038L283.232 114.025C282.518 112.933 281.426 112.429 280.208 112.429C278.024 112.429 276.386 113.962 276.386 116.335C276.386 118.75 278.024 120.262 280.208 120.262C281.426 120.262 282.518 119.758 283.232 118.666L284.765 119.632C283.883 121.186 282.224 122.026 280.229 122.026ZM293.174 110.665C295.883 110.665 297.794 112.219 297.794 115.495V121.9H295.778V115.726C295.778 113.542 294.686 112.471 292.775 112.471C290.633 112.471 289.247 113.752 289.247 116.167V121.9H287.231V106.318H289.247V112.345C290.087 111.274 291.473 110.665 293.174 110.665ZM2.911 146.9V131.318H4.927V146.9H2.911ZM18.8352 141.398C18.8352 141.566 18.8142 141.818 18.7932 142.007H9.76323C10.0152 143.96 11.5902 145.262 13.7952 145.262C15.0972 145.262 16.1892 144.821 17.0082 143.918L18.1212 145.22C17.1132 146.396 15.5802 147.026 13.7322 147.026C10.1412 147.026 7.74723 144.653 7.74723 141.335C7.74723 138.038 10.1202 135.665 13.3332 135.665C16.5462 135.665 18.8352 137.975 18.8352 141.398ZM13.3332 137.366C11.4012 137.366 9.97323 138.668 9.76323 140.558H16.9032C16.6932 138.689 15.2862 137.366 13.3332 137.366ZM29.3046 135.77H31.2786L26.4066 146.9H24.3486L19.4766 135.77H21.5766L25.3986 144.695L29.3046 135.77ZM42.9114 141.398C42.9114 141.566 42.8904 141.818 42.8694 142.007H33.8394C34.0914 143.96 35.6664 145.262 37.8714 145.262C39.1734 145.262 40.2654 144.821 41.0844 143.918L42.1974 145.22C41.1894 146.396 39.6564 147.026 37.8084 147.026C34.2174 147.026 31.8234 144.653 31.8234 141.335C31.8234 138.038 34.1964 135.665 37.4094 135.665C40.6224 135.665 42.9114 137.975 42.9114 141.398ZM37.4094 137.366C35.4774 137.366 34.0494 138.668 33.8394 140.558H40.9794C40.7694 138.689 39.3624 137.366 37.4094 137.366ZM45.7108 146.9V131.318H47.7268V146.9H45.7108ZM62.0667 147.026C58.6437 147.026 56.1867 144.653 56.1867 141.335C56.1867 138.017 58.6437 135.665 62.0667 135.665C64.0617 135.665 65.7207 136.484 66.6027 138.038L65.0697 139.025C64.3557 137.933 63.2637 137.429 62.0457 137.429C59.8617 137.429 58.2237 138.962 58.2237 141.335C58.2237 143.75 59.8617 145.262 62.0457 145.262C63.2637 145.262 64.3557 144.758 65.0697 143.666L66.6027 144.632C65.7207 146.186 64.0617 147.026 62.0667 147.026ZM69.0692 146.9V131.318H71.0852V146.9H69.0692ZM75.9424 133.628C75.1654 133.628 74.5774 133.061 74.5774 132.326C74.5774 131.591 75.1654 131.003 75.9424 131.003C76.7194 131.003 77.3074 131.57 77.3074 132.284C77.3074 133.04 76.7404 133.628 75.9424 133.628ZM74.9344 146.9V135.77H76.9504V146.9H74.9344ZM94.7227 135.665C97.4317 135.665 99.2797 137.219 99.2797 140.495V146.9H97.2637V140.726C97.2637 138.542 96.2137 137.471 94.3867 137.471C92.3707 137.471 91.0477 138.752 91.0477 141.167V146.9H89.0317V140.726C89.0317 138.542 87.9817 137.471 86.1547 137.471C84.1387 137.471 82.8157 138.752 82.8157 141.167V146.9H80.7997V135.77H82.7317V137.429C83.5297 136.295 84.8947 135.665 86.5747 135.665C88.2757 135.665 89.7037 136.337 90.4387 137.723C91.2787 136.463 92.8327 135.665 94.7227 135.665ZM108.89 135.665C112.145 135.665 114.518 137.933 114.518 141.335C114.518 144.737 112.145 147.026 108.89 147.026C107.252 147.026 105.824 146.396 104.921 145.136V146.9H102.989V131.318H105.005V137.45C105.929 136.253 107.315 135.665 108.89 135.665ZM108.722 145.262C110.864 145.262 112.481 143.708 112.481 141.335C112.481 138.962 110.864 137.429 108.722 137.429C106.601 137.429 104.984 138.962 104.984 141.335C104.984 143.708 106.601 145.262 108.722 145.262ZM117.54 147.026C116.763 147.026 116.112 146.417 116.112 145.577C116.112 144.737 116.763 144.149 117.54 144.149C118.296 144.149 118.926 144.737 118.926 145.577C118.926 146.417 118.296 147.026 117.54 147.026ZM139.962 147.068C135.51 147.068 132.192 143.897 132.192 139.55C132.192 135.203 135.51 132.032 139.983 132.032C142.251 132.032 144.225 132.809 145.569 134.321L144.204 135.644C143.07 134.447 141.684 133.901 140.067 133.901C136.749 133.901 134.292 136.295 134.292 139.55C134.292 142.805 136.749 145.199 140.067 145.199C141.684 145.199 143.07 144.632 144.204 143.435L145.569 144.758C144.225 146.27 142.251 147.068 139.962 147.068ZM154.213 135.665C156.922 135.665 158.833 137.219 158.833 140.495V146.9H156.817V140.726C156.817 138.542 155.725 137.471 153.814 137.471C151.672 137.471 150.286 138.752 150.286 141.167V146.9H148.27V131.318H150.286V137.345C151.126 136.274 152.512 135.665 154.213 135.665ZM166.617 135.665C169.662 135.665 171.384 137.135 171.384 140.18V146.9H169.473V145.43C168.801 146.438 167.562 147.026 165.819 147.026C163.299 147.026 161.703 145.682 161.703 143.75C161.703 141.965 162.858 140.495 166.176 140.495H169.368V140.096C169.368 138.395 168.381 137.408 166.386 137.408C165.063 137.408 163.719 137.87 162.858 138.605L162.018 137.093C163.173 136.169 164.832 135.665 166.617 135.665ZM166.155 145.472C167.667 145.472 168.864 144.779 169.368 143.498V141.944H166.26C164.265 141.944 163.698 142.721 163.698 143.666C163.698 144.779 164.622 145.472 166.155 145.472ZM175.115 146.9V131.318H177.131V146.9H175.115ZM180.98 146.9V131.318H182.996V146.9H180.98ZM196.905 141.398C196.905 141.566 196.884 141.818 196.863 142.007H187.833C188.085 143.96 189.66 145.262 191.865 145.262C193.167 145.262 194.259 144.821 195.078 143.918L196.191 145.22C195.183 146.396 193.65 147.026 191.802 147.026C188.211 147.026 185.817 144.653 185.817 141.335C185.817 138.038 188.19 135.665 191.403 135.665C194.616 135.665 196.905 137.975 196.905 141.398ZM191.403 137.366C189.471 137.366 188.043 138.668 187.833 140.558H194.973C194.763 138.689 193.356 137.366 191.403 137.366ZM205.647 135.665C208.356 135.665 210.267 137.219 210.267 140.495V146.9H208.251V140.726C208.251 138.542 207.159 137.471 205.248 137.471C203.106 137.471 201.72 138.752 201.72 141.167V146.9H199.704V135.77H201.636V137.45C202.455 136.316 203.883 135.665 205.647 135.665ZM222.795 135.77H224.706V145.388C224.706 149.315 222.711 151.1 218.931 151.1C216.894 151.1 214.836 150.533 213.618 149.441L214.584 147.887C215.613 148.769 217.23 149.336 218.868 149.336C221.493 149.336 222.69 148.118 222.69 145.598V144.716C221.724 145.871 220.275 146.438 218.679 146.438C215.466 146.438 213.03 144.254 213.03 141.041C213.03 137.828 215.466 135.665 218.679 135.665C220.338 135.665 221.85 136.274 222.795 137.492V135.77ZM218.91 144.674C221.136 144.674 222.732 143.183 222.732 141.041C222.732 138.878 221.136 137.429 218.91 137.429C216.663 137.429 215.067 138.878 215.067 141.041C215.067 143.183 216.663 144.674 218.91 144.674ZM238.617 141.398C238.617 141.566 238.596 141.818 238.575 142.007H229.545C229.797 143.96 231.372 145.262 233.577 145.262C234.879 145.262 235.971 144.821 236.79 143.918L237.903 145.22C236.895 146.396 235.362 147.026 233.514 147.026C229.923 147.026 227.529 144.653 227.529 141.335C227.529 138.038 229.902 135.665 233.115 135.665C236.328 135.665 238.617 137.975 238.617 141.398ZM233.115 137.366C231.183 137.366 229.755 138.668 229.545 140.558H236.685C236.475 138.689 235.068 137.366 233.115 137.366ZM10.786 160.77H12.76L7.363 173.013C6.376 175.365 5.095 176.1 3.394 176.1C2.323 176.1 1.231 175.743 0.538 175.071L1.399 173.559C1.945 174.084 2.638 174.378 3.394 174.378C4.36 174.378 4.969 173.937 5.515 172.656L5.872 171.879L0.958 160.77H3.058L6.943 169.674L10.786 160.77ZM19.1009 172.026C15.7619 172.026 13.3049 169.653 13.3049 166.335C13.3049 163.017 15.7619 160.665 19.1009 160.665C22.4399 160.665 24.8759 163.017 24.8759 166.335C24.8759 169.653 22.4399 172.026 19.1009 172.026ZM19.1009 170.262C21.2429 170.262 22.8389 168.708 22.8389 166.335C22.8389 163.962 21.2429 162.429 19.1009 162.429C16.9589 162.429 15.3419 163.962 15.3419 166.335C15.3419 168.708 16.9589 170.262 19.1009 170.262ZM36.0219 160.77H38.0379V171.9H36.1269V170.22C35.3079 171.375 33.9219 172.026 32.3469 172.026C29.4699 172.026 27.5589 170.451 27.5589 167.175V160.77H29.5749V166.944C29.5749 169.128 30.6669 170.22 32.5779 170.22C34.6779 170.22 36.0219 168.918 36.0219 166.524V160.77ZM43.8078 162.639C44.5218 161.337 45.9078 160.665 47.8608 160.665V162.618C47.6928 162.597 47.5458 162.597 47.3988 162.597C45.2358 162.597 43.8918 163.92 43.8918 166.356V171.9H41.8758V160.77H43.8078V162.639ZM53.6196 172.026C51.7716 172.026 49.9446 171.459 49.0206 170.724L49.8606 169.128C50.8056 169.8 52.3176 170.283 53.7666 170.283C55.6356 170.283 56.4126 169.716 56.4126 168.771C56.4126 166.272 49.3776 168.435 49.3776 164.004C49.3776 162.009 51.1626 160.665 54.0186 160.665C55.4676 160.665 57.1056 161.043 58.0716 161.673L57.2106 163.269C56.2026 162.618 55.0896 162.387 53.9976 162.387C52.2336 162.387 51.3726 163.038 51.3726 163.92C51.3726 166.545 58.4286 164.403 58.4286 168.729C58.4286 170.745 56.5806 172.026 53.6196 172.026ZM71.0071 166.398C71.0071 166.566 70.9861 166.818 70.9651 167.007H61.9351C62.1871 168.96 63.7621 170.262 65.9671 170.262C67.2691 170.262 68.3611 169.821 69.1801 168.918L70.2931 170.22C69.2851 171.396 67.7521 172.026 65.9041 172.026C62.3131 172.026 59.9191 169.653 59.9191 166.335C59.9191 163.038 62.2921 160.665 65.5051 160.665C68.7181 160.665 71.0071 162.975 71.0071 166.398ZM65.5051 162.366C63.5731 162.366 62.1451 163.668 61.9351 165.558H69.0751C68.8651 163.689 67.4581 162.366 65.5051 162.366ZM73.8065 171.9V156.318H75.8225V171.9H73.8065ZM83.7457 157.851C82.5487 157.851 81.9397 158.523 81.9397 159.804V160.77H85.1737V162.429H81.9817V171.9H79.9657V162.429H78.0757V160.77H79.9657V159.783C79.9657 157.62 81.2677 156.192 83.6407 156.192C84.5017 156.192 85.3417 156.402 85.9087 156.843L85.2997 158.376C84.8797 158.061 84.3337 157.851 83.7457 157.851ZM96.7677 160.665C99.8127 160.665 101.535 162.135 101.535 165.18V171.9H99.6237V170.43C98.9517 171.438 97.7127 172.026 95.9697 172.026C93.4497 172.026 91.8537 170.682 91.8537 168.75C91.8537 166.965 93.0087 165.495 96.3267 165.495H99.5187V165.096C99.5187 163.395 98.5317 162.408 96.5367 162.408C95.2137 162.408 93.8697 162.87 93.0087 163.605L92.1687 162.093C93.3237 161.169 94.9827 160.665 96.7677 160.665ZM96.3057 170.472C97.8177 170.472 99.0147 169.779 99.5187 168.498V166.944H96.4107C94.4157 166.944 93.8487 167.721 93.8487 168.666C93.8487 169.779 94.7727 170.472 96.3057 170.472ZM111.208 160.665C113.917 160.665 115.828 162.219 115.828 165.495V171.9H113.812V165.726C113.812 163.542 112.72 162.471 110.809 162.471C108.667 162.471 107.281 163.752 107.281 166.167V171.9H105.265V160.77H107.197V162.45C108.016 161.316 109.444 160.665 111.208 160.665ZM128.105 156.318H130.121V171.9H128.189V170.136C127.286 171.396 125.858 172.026 124.22 172.026C120.965 172.026 118.592 169.737 118.592 166.335C118.592 162.933 120.965 160.665 124.22 160.665C125.795 160.665 127.181 161.253 128.105 162.45V156.318ZM124.388 170.262C126.509 170.262 128.126 168.708 128.126 166.335C128.126 163.962 126.509 162.429 124.388 162.429C122.246 162.429 120.629 163.962 120.629 166.335C120.629 168.708 122.246 170.262 124.388 170.262ZM144.342 172.026C141.003 172.026 138.546 169.653 138.546 166.335C138.546 163.017 141.003 160.665 144.342 160.665C147.681 160.665 150.117 163.017 150.117 166.335C150.117 169.653 147.681 172.026 144.342 172.026ZM144.342 170.262C146.484 170.262 148.08 168.708 148.08 166.335C148.08 163.962 146.484 162.429 144.342 162.429C142.2 162.429 140.583 163.962 140.583 166.335C140.583 168.708 142.2 170.262 144.342 170.262ZM158.533 169.8L159.163 171.249C158.554 171.774 157.63 172.026 156.727 172.026C154.48 172.026 153.199 170.787 153.199 168.54V162.429H151.309V160.77H153.199V158.334H155.215V160.77H158.407V162.429H155.215V168.456C155.215 169.653 155.845 170.325 156.958 170.325C157.546 170.325 158.113 170.136 158.533 169.8ZM167.543 160.665C170.252 160.665 172.163 162.219 172.163 165.495V171.9H170.147V165.726C170.147 163.542 169.055 162.471 167.144 162.471C165.002 162.471 163.616 163.752 163.616 166.167V171.9H161.6V156.318H163.616V162.345C164.456 161.274 165.842 160.665 167.543 160.665ZM186.015 166.398C186.015 166.566 185.994 166.818 185.973 167.007H176.943C177.195 168.96 178.77 170.262 180.975 170.262C182.277 170.262 183.369 169.821 184.188 168.918L185.301 170.22C184.293 171.396 182.76 172.026 180.912 172.026C177.321 172.026 174.927 169.653 174.927 166.335C174.927 163.038 177.3 160.665 180.513 160.665C183.726 160.665 186.015 162.975 186.015 166.398ZM180.513 162.366C178.581 162.366 177.153 163.668 176.943 165.558H184.083C183.873 163.689 182.466 162.366 180.513 162.366ZM190.746 162.639C191.46 161.337 192.846 160.665 194.799 160.665V162.618C194.631 162.597 194.484 162.597 194.337 162.597C192.174 162.597 190.83 163.92 190.83 166.356V171.9H188.814V160.77H190.746V162.639ZM200.558 172.026C198.71 172.026 196.883 171.459 195.959 170.724L196.799 169.128C197.744 169.8 199.256 170.283 200.705 170.283C202.574 170.283 203.351 169.716 203.351 168.771C203.351 166.272 196.316 168.435 196.316 164.004C196.316 162.009 198.101 160.665 200.957 160.665C202.406 160.665 204.044 161.043 205.01 161.673L204.149 163.269C203.141 162.618 202.028 162.387 200.936 162.387C199.172 162.387 198.311 163.038 198.311 163.92C198.311 166.545 205.367 164.403 205.367 168.729C205.367 170.745 203.519 172.026 200.558 172.026ZM219.154 169.8L219.784 171.249C219.175 171.774 218.251 172.026 217.348 172.026C215.101 172.026 213.82 170.787 213.82 168.54V162.429H211.93V160.77H213.82V158.334H215.836V160.77H219.028V162.429H215.836V168.456C215.836 169.653 216.466 170.325 217.579 170.325C218.167 170.325 218.734 170.136 219.154 169.8ZM226.619 172.026C223.28 172.026 220.823 169.653 220.823 166.335C220.823 163.017 223.28 160.665 226.619 160.665C229.958 160.665 232.394 163.017 232.394 166.335C232.394 169.653 229.958 172.026 226.619 172.026ZM226.619 170.262C228.761 170.262 230.357 168.708 230.357 166.335C230.357 163.962 228.761 162.429 226.619 162.429C224.477 162.429 222.86 163.962 222.86 166.335C222.86 168.708 224.477 170.262 226.619 170.262ZM242.754 162.639C243.468 161.337 244.854 160.665 246.807 160.665V162.618C246.639 162.597 246.492 162.597 246.345 162.597C244.182 162.597 242.838 163.92 242.838 166.356V171.9H240.822V160.77H242.754V162.639ZM259.248 166.398C259.248 166.566 259.227 166.818 259.206 167.007H250.176C250.428 168.96 252.003 170.262 254.208 170.262C255.51 170.262 256.602 169.821 257.421 168.918L258.534 170.22C257.526 171.396 255.993 172.026 254.145 172.026C250.554 172.026 248.16 169.653 248.16 166.335C248.16 163.038 250.533 160.665 253.746 160.665C256.959 160.665 259.248 162.975 259.248 166.398ZM253.746 162.366C251.814 162.366 250.386 163.668 250.176 165.558H257.316C257.106 163.689 255.699 162.366 253.746 162.366ZM265.793 160.665C268.838 160.665 270.56 162.135 270.56 165.18V171.9H268.649V170.43C267.977 171.438 266.738 172.026 264.995 172.026C262.475 172.026 260.879 170.682 260.879 168.75C260.879 166.965 262.034 165.495 265.352 165.495H268.544V165.096C268.544 163.395 267.557 162.408 265.562 162.408C264.239 162.408 262.895 162.87 262.034 163.605L261.194 162.093C262.349 161.169 264.008 160.665 265.793 160.665ZM265.331 170.472C266.843 170.472 268.04 169.779 268.544 168.498V166.944H265.436C263.441 166.944 262.874 167.721 262.874 168.666C262.874 169.779 263.798 170.472 265.331 170.472ZM279.203 172.026C275.78 172.026 273.323 169.653 273.323 166.335C273.323 163.017 275.78 160.665 279.203 160.665C281.198 160.665 282.857 161.484 283.739 163.038L282.206 164.025C281.492 162.933 280.4 162.429 279.182 162.429C276.998 162.429 275.36 163.962 275.36 166.335C275.36 168.75 276.998 170.262 279.182 170.262C280.4 170.262 281.492 169.758 282.206 168.666L283.739 169.632C282.857 171.186 281.198 172.026 279.203 172.026ZM292.149 160.665C294.858 160.665 296.769 162.219 296.769 165.495V171.9H294.753V165.726C294.753 163.542 293.661 162.471 291.75 162.471C289.608 162.471 288.222 163.752 288.222 166.167V171.9H286.206V156.318H288.222V162.345C289.062 161.274 290.448 160.665 292.149 160.665ZM8.539 195.8L9.169 197.249C8.56 197.774 7.636 198.026 6.733 198.026C4.486 198.026 3.205 196.787 3.205 194.54V188.429H1.315V186.77H3.205V184.334H5.221V186.77H8.413V188.429H5.221V194.456C5.221 195.653 5.851 196.325 6.964 196.325C7.552 196.325 8.119 196.136 8.539 195.8ZM17.5493 186.665C20.2583 186.665 22.1693 188.219 22.1693 191.495V197.9H20.1533V191.726C20.1533 189.542 19.0613 188.471 17.1503 188.471C15.0083 188.471 13.6223 189.752 13.6223 192.167V197.9H11.6063V182.318H13.6223V188.345C14.4623 187.274 15.8483 186.665 17.5493 186.665ZM36.0208 192.398C36.0208 192.566 35.9998 192.818 35.9788 193.007H26.9488C27.2008 194.96 28.7758 196.262 30.9808 196.262C32.2828 196.262 33.3748 195.821 34.1938 194.918L35.3068 196.22C34.2988 197.396 32.7658 198.026 30.9178 198.026C27.3268 198.026 24.9328 195.653 24.9328 192.335C24.9328 189.038 27.3058 186.665 30.5188 186.665C33.7318 186.665 36.0208 188.975 36.0208 192.398ZM30.5188 188.366C28.5868 188.366 27.1588 189.668 26.9488 191.558H34.0888C33.8788 189.689 32.4718 188.366 30.5188 188.366ZM50.4028 186.665C53.1118 186.665 55.0228 188.219 55.0228 191.495V197.9H53.0068V191.726C53.0068 189.542 51.9148 188.471 50.0038 188.471C47.8618 188.471 46.4758 189.752 46.4758 192.167V197.9H44.4598V182.318H46.4758V188.345C47.3158 187.274 48.7018 186.665 50.4028 186.665ZM59.7618 184.628C58.9848 184.628 58.3968 184.061 58.3968 183.326C58.3968 182.591 58.9848 182.003 59.7618 182.003C60.5388 182.003 61.1268 182.57 61.1268 183.284C61.1268 184.04 60.5598 184.628 59.7618 184.628ZM58.7538 197.9V186.77H60.7698V197.9H58.7538ZM73.355 186.77H75.266V196.388C75.266 200.315 73.271 202.1 69.491 202.1C67.454 202.1 65.396 201.533 64.178 200.441L65.144 198.887C66.173 199.769 67.79 200.336 69.428 200.336C72.053 200.336 73.25 199.118 73.25 196.598V195.716C72.284 196.871 70.835 197.438 69.239 197.438C66.026 197.438 63.59 195.254 63.59 192.041C63.59 188.828 66.026 186.665 69.239 186.665C70.898 186.665 72.41 187.274 73.355 188.492V186.77ZM69.47 195.674C71.696 195.674 73.292 194.183 73.292 192.041C73.292 189.878 71.696 188.429 69.47 188.429C67.223 188.429 65.627 189.878 65.627 192.041C65.627 194.183 67.223 195.674 69.47 195.674ZM85.061 186.665C87.77 186.665 89.681 188.219 89.681 191.495V197.9H87.665V191.726C87.665 189.542 86.573 188.471 84.662 188.471C82.52 188.471 81.134 189.752 81.134 192.167V197.9H79.118V182.318H81.134V188.345C81.974 187.274 83.36 186.665 85.061 186.665ZM103.533 192.398C103.533 192.566 103.512 192.818 103.491 193.007H94.4605C94.7125 194.96 96.2875 196.262 98.4925 196.262C99.7945 196.262 100.887 195.821 101.706 194.918L102.819 196.22C101.811 197.396 100.278 198.026 98.4295 198.026C94.8385 198.026 92.4445 195.653 92.4445 192.335C92.4445 189.038 94.8175 186.665 98.0305 186.665C101.244 186.665 103.533 188.975 103.533 192.398ZM98.0305 188.366C96.0985 188.366 94.6705 189.668 94.4605 191.558H101.601C101.391 189.689 99.9835 188.366 98.0305 188.366ZM109.524 198.026C107.676 198.026 105.849 197.459 104.925 196.724L105.765 195.128C106.71 195.8 108.222 196.283 109.671 196.283C111.54 196.283 112.317 195.716 112.317 194.771C112.317 192.272 105.282 194.435 105.282 190.004C105.282 188.009 107.067 186.665 109.923 186.665C111.372 186.665 113.01 187.043 113.976 187.673L113.115 189.269C112.107 188.618 110.994 188.387 109.902 188.387C108.138 188.387 107.277 189.038 107.277 189.92C107.277 192.545 114.333 190.403 114.333 194.729C114.333 196.745 112.485 198.026 109.524 198.026ZM122.48 195.8L123.11 197.249C122.501 197.774 121.577 198.026 120.674 198.026C118.427 198.026 117.146 196.787 117.146 194.54V188.429H115.256V186.77H117.146V184.334H119.162V186.77H122.354V188.429H119.162V194.456C119.162 195.653 119.792 196.325 120.905 196.325C121.493 196.325 122.06 196.136 122.48 195.8ZM131.187 197.9V182.318H133.203V197.9H131.187ZM147.112 192.398C147.112 192.566 147.091 192.818 147.07 193.007H138.04C138.292 194.96 139.867 196.262 142.072 196.262C143.374 196.262 144.466 195.821 145.285 194.918L146.398 196.22C145.39 197.396 143.857 198.026 142.009 198.026C138.418 198.026 136.024 195.653 136.024 192.335C136.024 189.038 138.397 186.665 141.61 186.665C144.823 186.665 147.112 188.975 147.112 192.398ZM141.61 188.366C139.678 188.366 138.25 189.668 138.04 191.558H145.18C144.97 189.689 143.563 188.366 141.61 188.366ZM153.656 186.665C156.701 186.665 158.423 188.135 158.423 191.18V197.9H156.512V196.43C155.84 197.438 154.601 198.026 152.858 198.026C150.338 198.026 148.742 196.682 148.742 194.75C148.742 192.965 149.897 191.495 153.215 191.495H156.407V191.096C156.407 189.395 155.42 188.408 153.425 188.408C152.102 188.408 150.758 188.87 149.897 189.605L149.057 188.093C150.212 187.169 151.871 186.665 153.656 186.665ZM153.194 196.472C154.706 196.472 155.903 195.779 156.407 194.498V192.944H153.299C151.304 192.944 150.737 193.721 150.737 194.666C150.737 195.779 151.661 196.472 153.194 196.472ZM164.086 188.639C164.8 187.337 166.186 186.665 168.139 186.665V188.618C167.971 188.597 167.824 188.597 167.677 188.597C165.514 188.597 164.17 189.92 164.17 192.356V197.9H162.154V186.77H164.086V188.639ZM176.567 186.665C179.276 186.665 181.187 188.219 181.187 191.495V197.9H179.171V191.726C179.171 189.542 178.079 188.471 176.168 188.471C174.026 188.471 172.64 189.752 172.64 192.167V197.9H170.624V186.77H172.556V188.45C173.375 187.316 174.803 186.665 176.567 186.665ZM185.926 184.628C185.149 184.628 184.561 184.061 184.561 183.326C184.561 182.591 185.149 182.003 185.926 182.003C186.703 182.003 187.291 182.57 187.291 183.284C187.291 184.04 186.724 184.628 185.926 184.628ZM184.918 197.9V186.77H186.934V197.9H184.918ZM196.726 186.665C199.435 186.665 201.346 188.219 201.346 191.495V197.9H199.33V191.726C199.33 189.542 198.238 188.471 196.327 188.471C194.185 188.471 192.799 189.752 192.799 192.167V197.9H190.783V186.77H192.715V188.45C193.534 187.316 194.962 186.665 196.726 186.665ZM213.875 186.77H215.786V196.388C215.786 200.315 213.791 202.1 210.011 202.1C207.974 202.1 205.916 201.533 204.698 200.441L205.664 198.887C206.693 199.769 208.31 200.336 209.948 200.336C212.573 200.336 213.77 199.118 213.77 196.598V195.716C212.804 196.871 211.355 197.438 209.759 197.438C206.546 197.438 204.11 195.254 204.11 192.041C204.11 188.828 206.546 186.665 209.759 186.665C211.418 186.665 212.93 187.274 213.875 188.492V186.77ZM209.99 195.674C212.216 195.674 213.812 194.183 213.812 192.041C213.812 189.878 212.216 188.429 209.99 188.429C207.743 188.429 206.147 189.878 206.147 192.041C206.147 194.183 207.743 195.674 209.99 195.674ZM231.178 186.665C234.433 186.665 236.806 188.933 236.806 192.335C236.806 195.758 234.433 198.026 231.178 198.026C229.603 198.026 228.217 197.417 227.293 196.22V201.974H225.277V186.77H227.209V188.534C228.112 187.295 229.54 186.665 231.178 186.665ZM231.01 196.262C233.152 196.262 234.769 194.708 234.769 192.335C234.769 189.983 233.152 188.429 231.01 188.429C228.889 188.429 227.272 189.983 227.272 192.335C227.272 194.708 228.889 196.262 231.01 196.262ZM249.651 192.398C249.651 192.566 249.63 192.818 249.609 193.007H240.579C240.831 194.96 242.406 196.262 244.611 196.262C245.913 196.262 247.005 195.821 247.824 194.918L248.937 196.22C247.929 197.396 246.396 198.026 244.548 198.026C240.957 198.026 238.563 195.653 238.563 192.335C238.563 189.038 240.936 186.665 244.149 186.665C247.362 186.665 249.651 188.975 249.651 192.398ZM244.149 188.366C242.217 188.366 240.789 189.668 240.579 191.558H247.719C247.509 189.689 246.102 188.366 244.149 188.366ZM256.195 186.665C259.24 186.665 260.962 188.135 260.962 191.18V197.9H259.051V196.43C258.379 197.438 257.14 198.026 255.397 198.026C252.877 198.026 251.281 196.682 251.281 194.75C251.281 192.965 252.436 191.495 255.754 191.495H258.946V191.096C258.946 189.395 257.959 188.408 255.964 188.408C254.641 188.408 253.297 188.87 252.436 189.605L251.596 188.093C252.751 187.169 254.41 186.665 256.195 186.665ZM255.733 196.472C257.245 196.472 258.442 195.779 258.946 194.498V192.944H255.838C253.843 192.944 253.276 193.721 253.276 194.666C253.276 195.779 254.2 196.472 255.733 196.472ZM273.198 197.9L269.019 192.713L266.709 194.855V197.9H264.693V182.318H266.709V192.314L272.778 186.77H275.214L270.531 191.369L275.676 197.9H273.198ZM277.739 193.259L277.361 183.2H279.734L279.335 193.259H277.739ZM278.558 198.026C277.76 198.026 277.172 197.417 277.172 196.682C277.172 195.926 277.76 195.338 278.558 195.338C279.335 195.338 279.902 195.926 279.902 196.682C279.902 197.417 279.335 198.026 278.558 198.026Z" fill="#2B2B2B"/>
</svg>
