<svg width="323" height="178" viewBox="0 0 323 178" fill="none" xmlns="http://www.w3.org/2000/svg">
<path d="M5.305 19.0734H13.873V20.9004H3.205V6.20039H13.579V8.02739H5.305V12.5424H12.676V14.3274H5.305V19.0734ZM24.6698 9.77039H26.6438L21.7718 20.9004H19.7138L14.8418 9.77039H16.9418L20.7638 18.6954L24.6698 9.77039ZM38.2766 15.3984C38.2766 15.5664 38.2556 15.8184 38.2346 16.0074H29.2046C29.4566 17.9604 31.0316 19.2624 33.2366 19.2624C34.5386 19.2624 35.6306 18.8214 36.4496 17.9184L37.5626 19.2204C36.5546 20.3964 35.0216 21.0264 33.1736 21.0264C29.5826 21.0264 27.1886 18.6534 27.1886 15.3354C27.1886 12.0384 29.5616 9.66539 32.7746 9.66539C35.9876 9.66539 38.2766 11.9754 38.2766 15.3984ZM32.7746 11.3664C30.8426 11.3664 29.4146 12.6684 29.2046 14.5584H36.3446C36.1346 12.6894 34.7276 11.3664 32.7746 11.3664ZM43.008 11.6394C43.722 10.3374 45.108 9.66539 47.061 9.66539V11.6184C46.893 11.5974 46.746 11.5974 46.599 11.5974C44.436 11.5974 43.092 12.9204 43.092 15.3564V20.9004H41.076V9.77039H43.008V11.6394ZM57.8719 9.77039H59.8459L54.4489 22.0134C53.4619 24.3654 52.1809 25.1004 50.4799 25.1004C49.4089 25.1004 48.3169 24.7434 47.6239 24.0714L48.4849 22.5594C49.0309 23.0844 49.7239 23.3784 50.4799 23.3784C51.4459 23.3784 52.0549 22.9374 52.6009 21.6564L52.9579 20.8794L48.0439 9.77039H50.1439L54.0289 18.6744L57.8719 9.77039ZM72.2181 21.0264C68.7951 21.0264 66.3381 18.6534 66.3381 15.3354C66.3381 12.0174 68.7951 9.66539 72.2181 9.66539C74.2131 9.66539 75.8721 10.4844 76.7541 12.0384L75.2211 13.0254C74.5071 11.9334 73.4151 11.4294 72.1971 11.4294C70.0131 11.4294 68.3751 12.9624 68.3751 15.3354C68.3751 17.7504 70.0131 19.2624 72.1971 19.2624C73.4151 19.2624 74.5071 18.7584 75.2211 17.6664L76.7541 18.6324C75.8721 20.1864 74.2131 21.0264 72.2181 21.0264ZM83.9671 21.0264C80.6281 21.0264 78.1711 18.6534 78.1711 15.3354C78.1711 12.0174 80.6281 9.66539 83.9671 9.66539C87.3061 9.66539 89.7421 12.0174 89.7421 15.3354C89.7421 18.6534 87.3061 21.0264 83.9671 21.0264ZM83.9671 19.2624C86.1091 19.2624 87.7051 17.7084 87.7051 15.3354C87.7051 12.9624 86.1091 11.4294 83.9671 11.4294C81.8251 11.4294 80.2081 12.9624 80.2081 15.3354C80.2081 17.7084 81.8251 19.2624 83.9671 19.2624ZM98.4731 9.66539C101.182 9.66539 103.093 11.2194 103.093 14.4954V20.9004H101.077V14.7264C101.077 12.5424 99.9851 11.4714 98.0741 11.4714C95.9321 11.4714 94.5461 12.7524 94.5461 15.1674V20.9004H92.5301V9.77039H94.4621V11.4504C95.2811 10.3164 96.7091 9.66539 98.4731 9.66539ZM115.454 9.77039H117.386V24.9744H115.37V19.2204C114.446 20.4174 113.06 21.0264 111.485 21.0264C108.23 21.0264 105.857 18.7584 105.857 15.3354C105.857 11.9334 108.23 9.66539 111.485 9.66539C113.123 9.66539 114.551 10.2954 115.454 11.5344V9.77039ZM111.653 19.2624C113.774 19.2624 115.391 17.7084 115.391 15.3354C115.391 12.9834 113.774 11.4294 111.653 11.4294C109.511 11.4294 107.894 12.9834 107.894 15.3354C107.894 17.7084 109.511 19.2624 111.653 19.2624ZM129.558 9.77039H131.574V20.9004H129.663V19.2204C128.844 20.3754 127.458 21.0264 125.883 21.0264C123.006 21.0264 121.095 19.4514 121.095 16.1754V9.77039H123.111V15.9444C123.111 18.1284 124.203 19.2204 126.114 19.2204C128.214 19.2204 129.558 17.9184 129.558 15.5244V9.77039ZM145.471 15.3984C145.471 15.5664 145.45 15.8184 145.429 16.0074H136.399C136.651 17.9604 138.226 19.2624 140.431 19.2624C141.733 19.2624 142.825 18.8214 143.644 17.9184L144.757 19.2204C143.749 20.3964 142.216 21.0264 140.368 21.0264C136.777 21.0264 134.383 18.6534 134.383 15.3354C134.383 12.0384 136.756 9.66539 139.969 9.66539C143.182 9.66539 145.471 11.9754 145.471 15.3984ZM139.969 11.3664C138.037 11.3664 136.609 12.6684 136.399 14.5584H143.539C143.329 12.6894 141.922 11.3664 139.969 11.3664ZM150.202 11.6394C150.916 10.3374 152.302 9.66539 154.255 9.66539V11.6184C154.087 11.5974 153.94 11.5974 153.793 11.5974C151.63 11.5974 150.286 12.9204 150.286 15.3564V20.9004H148.27V9.77039H150.202V11.6394ZM166.697 15.3984C166.697 15.5664 166.676 15.8184 166.655 16.0074H157.625C157.877 17.9604 159.452 19.2624 161.657 19.2624C162.959 19.2624 164.051 18.8214 164.87 17.9184L165.983 19.2204C164.975 20.3964 163.442 21.0264 161.594 21.0264C158.003 21.0264 155.609 18.6534 155.609 15.3354C155.609 12.0384 157.982 9.66539 161.195 9.66539C164.408 9.66539 166.697 11.9754 166.697 15.3984ZM161.195 11.3664C159.263 11.3664 157.835 12.6684 157.625 14.5584H164.765C164.555 12.6894 163.148 11.3664 161.195 11.3664ZM177.98 5.31839H179.996V20.9004H178.064V19.1364C177.161 20.3964 175.733 21.0264 174.095 21.0264C170.84 21.0264 168.467 18.7374 168.467 15.3354C168.467 11.9334 170.84 9.66539 174.095 9.66539C175.67 9.66539 177.056 10.2534 177.98 11.4504V5.31839ZM174.263 19.2624C176.384 19.2624 178.001 17.7084 178.001 15.3354C178.001 12.9624 176.384 11.4294 174.263 11.4294C172.121 11.4294 170.504 12.9624 170.504 15.3354C170.504 17.7084 172.121 19.2624 174.263 19.2624ZM195.078 18.8004L195.708 20.2494C195.099 20.7744 194.175 21.0264 193.272 21.0264C191.025 21.0264 189.744 19.7874 189.744 17.5404V11.4294H187.854V9.77039H189.744V7.33439H191.76V9.77039H194.952V11.4294H191.76V17.4564C191.76 18.6534 192.39 19.3254 193.503 19.3254C194.091 19.3254 194.658 19.1364 195.078 18.8004ZM202.198 9.66539C205.243 9.66539 206.965 11.1354 206.965 14.1804V20.9004H205.054V19.4304C204.382 20.4384 203.143 21.0264 201.4 21.0264C198.88 21.0264 197.284 19.6824 197.284 17.7504C197.284 15.9654 198.439 14.4954 201.757 14.4954H204.949V14.0964C204.949 12.3954 203.962 11.4084 201.967 11.4084C200.644 11.4084 199.3 11.8704 198.439 12.6054L197.599 11.0934C198.754 10.1694 200.413 9.66539 202.198 9.66539ZM201.736 19.4724C203.248 19.4724 204.445 18.7794 204.949 17.4984V15.9444H201.841C199.846 15.9444 199.279 16.7214 199.279 17.6664C199.279 18.7794 200.203 19.4724 201.736 19.4724ZM213.888 21.0264C212.04 21.0264 210.213 20.4594 209.289 19.7244L210.129 18.1284C211.074 18.8004 212.586 19.2834 214.035 19.2834C215.904 19.2834 216.681 18.7164 216.681 17.7714C216.681 15.2724 209.646 17.4354 209.646 13.0044C209.646 11.0094 211.431 9.66539 214.287 9.66539C215.736 9.66539 217.374 10.0434 218.34 10.6734L217.479 12.2694C216.471 11.6184 215.358 11.3874 214.266 11.3874C212.502 11.3874 211.641 12.0384 211.641 12.9204C211.641 15.5454 218.697 13.4034 218.697 17.7294C218.697 19.7454 216.849 21.0264 213.888 21.0264ZM229.722 20.9004L225.543 15.7134L223.233 17.8554V20.9004H221.217V5.31839H223.233V15.3144L229.302 9.77039H231.738L227.055 14.3694L232.2 20.9004H229.722ZM234.866 18.1494C235.664 18.1494 236.231 18.7584 236.231 19.5774C236.231 19.9974 236.147 20.3124 235.874 21.0894L234.887 24.0084H233.564L234.341 20.8794C233.816 20.6904 233.459 20.2074 233.459 19.5774C233.459 18.7374 234.068 18.1494 234.866 18.1494ZM7.762 46.0264C4.339 46.0264 1.882 43.6534 1.882 40.3354C1.882 37.0174 4.339 34.6654 7.762 34.6654C9.757 34.6654 11.416 35.4844 12.298 37.0384L10.765 38.0254C10.051 36.9334 8.959 36.4294 7.741 36.4294C5.557 36.4294 3.919 37.9624 3.919 40.3354C3.919 42.7504 5.557 44.2624 7.741 44.2624C8.959 44.2624 10.051 43.7584 10.765 42.6664L12.298 43.6324C11.416 45.1864 9.757 46.0264 7.762 46.0264ZM19.511 46.0264C16.172 46.0264 13.715 43.6534 13.715 40.3354C13.715 37.0174 16.172 34.6654 19.511 34.6654C22.85 34.6654 25.286 37.0174 25.286 40.3354C25.286 43.6534 22.85 46.0264 19.511 46.0264ZM19.511 44.2624C21.653 44.2624 23.249 42.7084 23.249 40.3354C23.249 37.9624 21.653 36.4294 19.511 36.4294C17.369 36.4294 15.752 37.9624 15.752 40.3354C15.752 42.7084 17.369 44.2624 19.511 44.2624ZM41.9971 34.6654C44.7061 34.6654 46.5541 36.2194 46.5541 39.4954V45.9004H44.5381V39.7264C44.5381 37.5424 43.4881 36.4714 41.6611 36.4714C39.6451 36.4714 38.3221 37.7524 38.3221 40.1674V45.9004H36.3061V39.7264C36.3061 37.5424 35.2561 36.4714 33.4291 36.4714C31.4131 36.4714 30.0901 37.7524 30.0901 40.1674V45.9004H28.0741V34.7704H30.0061V36.4294C30.8041 35.2954 32.1691 34.6654 33.8491 34.6654C35.5501 34.6654 36.9781 35.3374 37.7131 36.7234C38.5531 35.4634 40.1071 34.6654 41.9971 34.6654ZM56.1645 34.6654C59.4195 34.6654 61.7925 36.9334 61.7925 40.3354C61.7925 43.7584 59.4195 46.0264 56.1645 46.0264C54.5895 46.0264 53.2035 45.4174 52.2795 44.2204V49.9744H50.2635V34.7704H52.1955V36.5344C53.0985 35.2954 54.5265 34.6654 56.1645 34.6654ZM55.9965 44.2624C58.1385 44.2624 59.7555 42.7084 59.7555 40.3354C59.7555 37.9834 58.1385 36.4294 55.9965 36.4294C53.8755 36.4294 52.2585 37.9834 52.2585 40.3354C52.2585 42.7084 53.8755 44.2624 55.9965 44.2624ZM64.578 45.9004V30.3184H66.594V45.9004H64.578ZM80.5022 40.3984C80.5022 40.5664 80.4812 40.8184 80.4602 41.0074H71.4302C71.6822 42.9604 73.2572 44.2624 75.4622 44.2624C76.7642 44.2624 77.8562 43.8214 78.6752 42.9184L79.7882 44.2204C78.7802 45.3964 77.2472 46.0264 75.3992 46.0264C71.8082 46.0264 69.4142 43.6534 69.4142 40.3354C69.4142 37.0384 71.7872 34.6654 75.0002 34.6654C78.2132 34.6654 80.5022 36.9754 80.5022 40.3984ZM75.0002 36.3664C73.0682 36.3664 71.6402 37.6684 71.4302 39.5584H78.5702C78.3602 37.6894 76.9532 36.3664 75.0002 36.3664ZM88.9296 43.8004L89.5596 45.2494C88.9506 45.7744 88.0266 46.0264 87.1236 46.0264C84.8766 46.0264 83.5956 44.7874 83.5956 42.5404V36.4294H81.7056V34.7704H83.5956V32.3344H85.6116V34.7704H88.8036V36.4294H85.6116V42.4564C85.6116 43.6534 86.2416 44.3254 87.3546 44.3254C87.9426 44.3254 88.5096 44.1364 88.9296 43.8004ZM101.687 40.3984C101.687 40.5664 101.666 40.8184 101.645 41.0074H92.6148C92.8668 42.9604 94.4418 44.2624 96.6468 44.2624C97.9488 44.2624 99.0408 43.8214 99.8598 42.9184L100.973 44.2204C99.9648 45.3964 98.4318 46.0264 96.5838 46.0264C92.9928 46.0264 90.5988 43.6534 90.5988 40.3354C90.5988 37.0384 92.9718 34.6654 96.1848 34.6654C99.3978 34.6654 101.687 36.9754 101.687 40.3984ZM96.1848 36.3664C94.2528 36.3664 92.8248 37.6684 92.6148 39.5584H99.7548C99.5448 37.6894 98.1378 36.3664 96.1848 36.3664ZM112.97 30.3184H114.986V45.9004H113.054V44.1364C112.151 45.3964 110.723 46.0264 109.085 46.0264C105.83 46.0264 103.457 43.7374 103.457 40.3354C103.457 36.9334 105.83 34.6654 109.085 34.6654C110.66 34.6654 112.046 35.2534 112.97 36.4504V30.3184ZM109.253 44.2624C111.374 44.2624 112.991 42.7084 112.991 40.3354C112.991 37.9624 111.374 36.4294 109.253 36.4294C107.111 36.4294 105.494 37.9624 105.494 40.3354C105.494 42.7084 107.111 44.2624 109.253 44.2624ZM124.44 45.9004V30.3184H126.456V45.9004H124.44ZM140.365 40.3984C140.365 40.5664 140.344 40.8184 140.323 41.0074H131.293C131.545 42.9604 133.12 44.2624 135.325 44.2624C136.627 44.2624 137.719 43.8214 138.538 42.9184L139.651 44.2204C138.643 45.3964 137.11 46.0264 135.262 46.0264C131.671 46.0264 129.277 43.6534 129.277 40.3354C129.277 37.0384 131.65 34.6654 134.863 34.6654C138.076 34.6654 140.365 36.9754 140.365 40.3984ZM134.863 36.3664C132.931 36.3664 131.503 37.6684 131.293 39.5584H138.433C138.223 37.6894 136.816 36.3664 134.863 36.3664ZM146.356 46.0264C144.508 46.0264 142.681 45.4594 141.757 44.7244L142.597 43.1284C143.542 43.8004 145.054 44.2834 146.503 44.2834C148.372 44.2834 149.149 43.7164 149.149 42.7714C149.149 40.2724 142.114 42.4354 142.114 38.0044C142.114 36.0094 143.899 34.6654 146.755 34.6654C148.204 34.6654 149.842 35.0434 150.808 35.6734L149.947 37.2694C148.939 36.6184 147.826 36.3874 146.734 36.3874C144.97 36.3874 144.109 37.0384 144.109 37.9204C144.109 40.5454 151.165 38.4034 151.165 42.7294C151.165 44.7454 149.317 46.0264 146.356 46.0264ZM156.876 46.0264C155.028 46.0264 153.201 45.4594 152.277 44.7244L153.117 43.1284C154.062 43.8004 155.574 44.2834 157.023 44.2834C158.892 44.2834 159.669 43.7164 159.669 42.7714C159.669 40.2724 152.634 42.4354 152.634 38.0044C152.634 36.0094 154.419 34.6654 157.275 34.6654C158.724 34.6654 160.362 35.0434 161.328 35.6734L160.467 37.2694C159.459 36.6184 158.346 36.3874 157.254 36.3874C155.49 36.3874 154.629 37.0384 154.629 37.9204C154.629 40.5454 161.685 38.4034 161.685 42.7294C161.685 44.7454 159.837 46.0264 156.876 46.0264ZM168.972 46.0264C165.633 46.0264 163.176 43.6534 163.176 40.3354C163.176 37.0174 165.633 34.6654 168.972 34.6654C172.311 34.6654 174.747 37.0174 174.747 40.3354C174.747 43.6534 172.311 46.0264 168.972 46.0264ZM168.972 44.2624C171.114 44.2624 172.71 42.7084 172.71 40.3354C172.71 37.9624 171.114 36.4294 168.972 36.4294C166.83 36.4294 165.213 37.9624 165.213 40.3354C165.213 42.7084 166.83 44.2624 168.972 44.2624ZM183.478 34.6654C186.187 34.6654 188.098 36.2194 188.098 39.4954V45.9004H186.082V39.7264C186.082 37.5424 184.99 36.4714 183.079 36.4714C180.937 36.4714 179.551 37.7524 179.551 40.1674V45.9004H177.535V34.7704H179.467V36.4504C180.286 35.3164 181.714 34.6654 183.478 34.6654ZM192.333 43.1494C193.131 43.1494 193.698 43.7584 193.698 44.5774C193.698 44.9974 193.614 45.3124 193.341 46.0894L192.354 49.0084H191.031L191.808 45.8794C191.283 45.6904 190.926 45.2074 190.926 44.5774C190.926 43.7374 191.535 43.1494 192.333 43.1494ZM206.993 46.0264C203.654 46.0264 201.197 43.6534 201.197 40.3354C201.197 37.0174 203.654 34.6654 206.993 34.6654C210.332 34.6654 212.768 37.0174 212.768 40.3354C212.768 43.6534 210.332 46.0264 206.993 46.0264ZM206.993 44.2624C209.135 44.2624 210.731 42.7084 210.731 40.3354C210.731 37.9624 209.135 36.4294 206.993 36.4294C204.851 36.4294 203.234 37.9624 203.234 40.3354C203.234 42.7084 204.851 44.2624 206.993 44.2624ZM217.489 36.6394C218.203 35.3374 219.589 34.6654 221.542 34.6654V36.6184C221.374 36.5974 221.227 36.5974 221.08 36.5974C218.917 36.5974 217.573 37.9204 217.573 40.3564V45.9004H215.557V34.7704H217.489V36.6394ZM16.834 60.6654C19.543 60.6654 21.391 62.2194 21.391 65.4954V71.9004H19.375V65.7264C19.375 63.5424 18.325 62.4714 16.498 62.4714C14.482 62.4714 13.159 63.7524 13.159 66.1674V71.9004H11.143V65.7264C11.143 63.5424 10.093 62.4714 8.266 62.4714C6.25 62.4714 4.927 63.7524 4.927 66.1674V71.9004H2.911V60.7704H4.843V62.4294C5.641 61.2954 7.006 60.6654 8.686 60.6654C10.387 60.6654 11.815 61.3374 12.55 62.7234C13.39 61.4634 14.944 60.6654 16.834 60.6654ZM29.1535 60.6654C32.1985 60.6654 33.9205 62.1354 33.9205 65.1804V71.9004H32.0095V70.4304C31.3375 71.4384 30.0985 72.0264 28.3555 72.0264C25.8355 72.0264 24.2395 70.6824 24.2395 68.7504C24.2395 66.9654 25.3945 65.4954 28.7125 65.4954H31.9045V65.0964C31.9045 63.3954 30.9175 62.4084 28.9225 62.4084C27.5995 62.4084 26.2555 62.8704 25.3945 63.6054L24.5545 62.0934C25.7095 61.1694 27.3685 60.6654 29.1535 60.6654ZM28.6915 70.4724C30.2035 70.4724 31.4005 69.7794 31.9045 68.4984V66.9444H28.7965C26.8015 66.9444 26.2345 67.7214 26.2345 68.6664C26.2345 69.7794 27.1585 70.4724 28.6915 70.4724ZM40.8432 72.0264C38.9952 72.0264 37.1682 71.4594 36.2442 70.7244L37.0842 69.1284C38.0292 69.8004 39.5412 70.2834 40.9902 70.2834C42.8592 70.2834 43.6362 69.7164 43.6362 68.7714C43.6362 66.2724 36.6012 68.4354 36.6012 64.0044C36.6012 62.0094 38.3862 60.6654 41.2422 60.6654C42.6912 60.6654 44.3292 61.0434 45.2952 61.6734L44.4342 63.2694C43.4262 62.6184 42.3132 62.3874 41.2212 62.3874C39.4572 62.3874 38.5962 63.0384 38.5962 63.9204C38.5962 66.5454 45.6522 64.4034 45.6522 68.7294C45.6522 70.7454 43.8042 72.0264 40.8432 72.0264ZM53.7997 69.8004L54.4297 71.2494C53.8207 71.7744 52.8967 72.0264 51.9937 72.0264C49.7467 72.0264 48.4657 70.7874 48.4657 68.5404V62.4294H46.5757V60.7704H48.4657V58.3344H50.4817V60.7704H53.6737V62.4294H50.4817V68.4564C50.4817 69.6534 51.1117 70.3254 52.2247 70.3254C52.8127 70.3254 53.3797 70.1364 53.7997 69.8004ZM66.5569 66.3984C66.5569 66.5664 66.5359 66.8184 66.5149 67.0074H57.4849C57.7369 68.9604 59.3119 70.2624 61.5169 70.2624C62.8189 70.2624 63.9109 69.8214 64.7299 68.9184L65.8429 70.2204C64.8349 71.3964 63.3019 72.0264 61.4539 72.0264C57.8629 72.0264 55.4689 69.6534 55.4689 66.3354C55.4689 63.0384 57.8419 60.6654 61.0549 60.6654C64.2679 60.6654 66.5569 62.9754 66.5569 66.3984ZM61.0549 62.3664C59.1229 62.3664 57.6949 63.6684 57.4849 65.5584H64.6249C64.4149 63.6894 63.0079 62.3664 61.0549 62.3664ZM71.2883 62.6394C72.0023 61.3374 73.3883 60.6654 75.3413 60.6654V62.6184C75.1733 62.5974 75.0263 62.5974 74.8793 62.5974C72.7163 62.5974 71.3723 63.9204 71.3723 66.3564V71.9004H69.3563V60.7704H71.2883V62.6394ZM87.7825 66.3984C87.7825 66.5664 87.7615 66.8184 87.7405 67.0074H78.7105C78.9625 68.9604 80.5375 70.2624 82.7425 70.2624C84.0445 70.2624 85.1365 69.8214 85.9555 68.9184L87.0685 70.2204C86.0605 71.3964 84.5275 72.0264 82.6795 72.0264C79.0885 72.0264 76.6945 69.6534 76.6945 66.3354C76.6945 63.0384 79.0675 60.6654 82.2805 60.6654C85.4935 60.6654 87.7825 62.9754 87.7825 66.3984ZM82.2805 62.3664C80.3485 62.3664 78.9205 63.6684 78.7105 65.5584H85.8505C85.6405 63.6894 84.2335 62.3664 82.2805 62.3664ZM99.0659 56.3184H101.082V71.9004H99.1499V70.1364C98.2469 71.3964 96.8189 72.0264 95.1809 72.0264C91.9259 72.0264 89.5529 69.7374 89.5529 66.3354C89.5529 62.9334 91.9259 60.6654 95.1809 60.6654C96.7559 60.6654 98.1419 61.2534 99.0659 62.4504V56.3184ZM95.3489 70.2624C97.4699 70.2624 99.0869 68.7084 99.0869 66.3354C99.0869 63.9624 97.4699 62.4294 95.3489 62.4294C93.2069 62.4294 91.5899 63.9624 91.5899 66.3354C91.5899 68.7084 93.2069 70.2624 95.3489 70.2624ZM115.387 72.0264C111.964 72.0264 109.507 69.6534 109.507 66.3354C109.507 63.0174 111.964 60.6654 115.387 60.6654C117.382 60.6654 119.041 61.4844 119.923 63.0384L118.39 64.0254C117.676 62.9334 116.584 62.4294 115.366 62.4294C113.182 62.4294 111.544 63.9624 111.544 66.3354C111.544 68.7504 113.182 70.2624 115.366 70.2624C116.584 70.2624 117.676 69.7584 118.39 68.6664L119.923 69.6324C119.041 71.1864 117.382 72.0264 115.387 72.0264ZM127.136 72.0264C123.797 72.0264 121.34 69.6534 121.34 66.3354C121.34 63.0174 123.797 60.6654 127.136 60.6654C130.475 60.6654 132.911 63.0174 132.911 66.3354C132.911 69.6534 130.475 72.0264 127.136 72.0264ZM127.136 70.2624C129.278 70.2624 130.874 68.7084 130.874 66.3354C130.874 63.9624 129.278 62.4294 127.136 62.4294C124.994 62.4294 123.377 63.9624 123.377 66.3354C123.377 68.7084 124.994 70.2624 127.136 70.2624ZM141.642 60.6654C144.351 60.6654 146.262 62.2194 146.262 65.4954V71.9004H144.246V65.7264C144.246 63.5424 143.154 62.4714 141.243 62.4714C139.101 62.4714 137.715 63.7524 137.715 66.1674V71.9004H135.699V60.7704H137.631V62.4504C138.45 61.3164 139.878 60.6654 141.642 60.6654ZM154.906 72.0264C151.483 72.0264 149.026 69.6534 149.026 66.3354C149.026 63.0174 151.483 60.6654 154.906 60.6654C156.901 60.6654 158.56 61.4844 159.442 63.0384L157.909 64.0254C157.195 62.9334 156.103 62.4294 154.885 62.4294C152.701 62.4294 151.063 63.9624 151.063 66.3354C151.063 68.7504 152.701 70.2624 154.885 70.2624C156.103 70.2624 157.195 69.7584 157.909 68.6664L159.442 69.6324C158.56 71.1864 156.901 72.0264 154.906 72.0264ZM171.947 66.3984C171.947 66.5664 171.926 66.8184 171.905 67.0074H162.875C163.127 68.9604 164.702 70.2624 166.907 70.2624C168.209 70.2624 169.301 69.8214 170.12 68.9184L171.233 70.2204C170.225 71.3964 168.692 72.0264 166.844 72.0264C163.253 72.0264 160.859 69.6534 160.859 66.3354C160.859 63.0384 163.232 60.6654 166.445 60.6654C169.658 60.6654 171.947 62.9754 171.947 66.3984ZM166.445 62.3664C164.513 62.3664 163.085 63.6684 162.875 65.5584H170.015C169.805 63.6894 168.398 62.3664 166.445 62.3664ZM180.647 60.6654C183.902 60.6654 186.275 62.9334 186.275 66.3354C186.275 69.7584 183.902 72.0264 180.647 72.0264C179.072 72.0264 177.686 71.4174 176.762 70.2204V75.9744H174.746V60.7704H176.678V62.5344C177.581 61.2954 179.009 60.6654 180.647 60.6654ZM180.479 70.2624C182.621 70.2624 184.238 68.7084 184.238 66.3354C184.238 63.9834 182.621 62.4294 180.479 62.4294C178.358 62.4294 176.741 63.9834 176.741 66.3354C176.741 68.7084 178.358 70.2624 180.479 70.2624ZM194.688 69.8004L195.318 71.2494C194.709 71.7744 193.785 72.0264 192.882 72.0264C190.635 72.0264 189.354 70.7874 189.354 68.5404V62.4294H187.464V60.7704H189.354V58.3344H191.37V60.7704H194.562V62.4294H191.37V68.4564C191.37 69.6534 192 70.3254 193.113 70.3254C193.701 70.3254 194.268 70.1364 194.688 69.8004ZM213.454 66.3984C213.454 66.5664 213.433 66.8184 213.412 67.0074H204.382C204.634 68.9604 206.209 70.2624 208.414 70.2624C209.716 70.2624 210.808 69.8214 211.627 68.9184L212.74 70.2204C211.732 71.3964 210.199 72.0264 208.351 72.0264C204.76 72.0264 202.366 69.6534 202.366 66.3354C202.366 63.0384 204.739 60.6654 207.952 60.6654C211.165 60.6654 213.454 62.9754 213.454 66.3984ZM207.952 62.3664C206.02 62.3664 204.592 63.6684 204.382 65.5584H211.522C211.312 63.6894 209.905 62.3664 207.952 62.3664ZM219.999 60.6654C223.044 60.6654 224.766 62.1354 224.766 65.1804V71.9004H222.855V70.4304C222.183 71.4384 220.944 72.0264 219.201 72.0264C216.681 72.0264 215.085 70.6824 215.085 68.7504C215.085 66.9654 216.24 65.4954 219.558 65.4954H222.75V65.0964C222.75 63.3954 221.763 62.4084 219.768 62.4084C218.445 62.4084 217.101 62.8704 216.24 63.6054L215.4 62.0934C216.555 61.1694 218.214 60.6654 219.999 60.6654ZM219.537 70.4724C221.049 70.4724 222.246 69.7794 222.75 68.4984V66.9444H219.642C217.647 66.9444 217.08 67.7214 217.08 68.6664C217.08 69.7794 218.004 70.4724 219.537 70.4724ZM230.429 62.6394C231.143 61.3374 232.529 60.6654 234.482 60.6654V62.6184C234.314 62.5974 234.167 62.5974 234.02 62.5974C231.857 62.5974 230.513 63.9204 230.513 66.3564V71.9004H228.497V60.7704H230.429V62.6394ZM242.91 60.6654C245.619 60.6654 247.53 62.2194 247.53 65.4954V71.9004H245.514V65.7264C245.514 63.5424 244.422 62.4714 242.511 62.4714C240.369 62.4714 238.983 63.7524 238.983 66.1674V71.9004H236.967V60.7704H238.899V62.4504C239.718 61.3164 241.146 60.6654 242.91 60.6654ZM254.453 72.0264C252.605 72.0264 250.778 71.4594 249.854 70.7244L250.694 69.1284C251.639 69.8004 253.151 70.2834 254.6 70.2834C256.469 70.2834 257.246 69.7164 257.246 68.7714C257.246 66.2724 250.211 68.4354 250.211 64.0044C250.211 62.0094 251.996 60.6654 254.852 60.6654C256.301 60.6654 257.939 61.0434 258.905 61.6734L258.044 63.2694C257.036 62.6184 255.923 62.3874 254.831 62.3874C253.067 62.3874 252.206 63.0384 252.206 63.9204C252.206 66.5454 259.262 64.4034 259.262 68.7294C259.262 70.7454 257.414 72.0264 254.453 72.0264ZM275.296 60.7704H277.27L271.873 73.0134C270.886 75.3654 269.605 76.1004 267.904 76.1004C266.833 76.1004 265.741 75.7434 265.048 75.0714L265.909 73.5594C266.455 74.0844 267.148 74.3784 267.904 74.3784C268.87 74.3784 269.479 73.9374 270.025 72.6564L270.382 71.8794L265.468 60.7704H267.568L271.453 69.6744L275.296 60.7704ZM283.611 72.0264C280.272 72.0264 277.815 69.6534 277.815 66.3354C277.815 63.0174 280.272 60.6654 283.611 60.6654C286.95 60.6654 289.386 63.0174 289.386 66.3354C289.386 69.6534 286.95 72.0264 283.611 72.0264ZM283.611 70.2624C285.753 70.2624 287.349 68.7084 287.349 66.3354C287.349 63.9624 285.753 62.4294 283.611 62.4294C281.469 62.4294 279.852 63.9624 279.852 66.3354C279.852 68.7084 281.469 70.2624 283.611 70.2624ZM300.532 60.7704H302.548V71.9004H300.637V70.2204C299.818 71.3754 298.432 72.0264 296.857 72.0264C293.98 72.0264 292.069 70.4514 292.069 67.1754V60.7704H294.085V66.9444C294.085 69.1284 295.177 70.2204 297.088 70.2204C299.188 70.2204 300.532 68.9184 300.532 66.5244V60.7704ZM10.786 85.7704H12.76L7.888 96.9004H5.83L0.958 85.7704H3.058L6.88 94.6954L10.786 85.7704ZM18.3458 85.6654C21.3908 85.6654 23.1128 87.1354 23.1128 90.1804V96.9004H21.2018V95.4304C20.5298 96.4384 19.2908 97.0264 17.5478 97.0264C15.0278 97.0264 13.4318 95.6824 13.4318 93.7504C13.4318 91.9654 14.5868 90.4954 17.9048 90.4954H21.0968V90.0964C21.0968 88.3954 20.1098 87.4084 18.1148 87.4084C16.7918 87.4084 15.4478 87.8704 14.5868 88.6054L13.7468 87.0934C14.9018 86.1694 16.5608 85.6654 18.3458 85.6654ZM17.8838 95.4724C19.3958 95.4724 20.5928 94.7794 21.0968 93.4984V91.9444H17.9888C15.9938 91.9444 15.4268 92.7214 15.4268 93.6664C15.4268 94.7794 16.3508 95.4724 17.8838 95.4724ZM26.8436 96.9004V81.3184H28.8596V96.9004H26.8436ZM41.0669 85.7704H43.0829V96.9004H41.1719V95.2204C40.3529 96.3754 38.9669 97.0264 37.3919 97.0264C34.5149 97.0264 32.6039 95.4514 32.6039 92.1754V85.7704H34.6199V91.9444C34.6199 94.1284 35.7119 95.2204 37.6229 95.2204C39.7229 95.2204 41.0669 93.9184 41.0669 91.5244V85.7704ZM50.9738 85.6654C54.0188 85.6654 55.7408 87.1354 55.7408 90.1804V96.9004H53.8298V95.4304C53.1578 96.4384 51.9188 97.0264 50.1758 97.0264C47.6558 97.0264 46.0598 95.6824 46.0598 93.7504C46.0598 91.9654 47.2148 90.4954 50.5328 90.4954H53.7248V90.0964C53.7248 88.3954 52.7378 87.4084 50.7428 87.4084C49.4198 87.4084 48.0758 87.8704 47.2148 88.6054L46.3748 87.0934C47.5298 86.1694 49.1888 85.6654 50.9738 85.6654ZM50.5118 95.4724C52.0238 95.4724 53.2208 94.7794 53.7248 93.4984V91.9444H50.6168C48.6218 91.9444 48.0548 92.7214 48.0548 93.6664C48.0548 94.7794 48.9788 95.4724 50.5118 95.4724ZM65.3725 85.6654C68.6275 85.6654 71.0005 87.9334 71.0005 91.3354C71.0005 94.7374 68.6275 97.0264 65.3725 97.0264C63.7345 97.0264 62.3065 96.3964 61.4035 95.1364V96.9004H59.4715V81.3184H61.4875V87.4504C62.4115 86.2534 63.7975 85.6654 65.3725 85.6654ZM65.2045 95.2624C67.3465 95.2624 68.9635 93.7084 68.9635 91.3354C68.9635 88.9624 67.3465 87.4294 65.2045 87.4294C63.0835 87.4294 61.4665 88.9624 61.4665 91.3354C61.4665 93.7084 63.0835 95.2624 65.2045 95.2624ZM73.786 96.9004V81.3184H75.802V96.9004H73.786ZM89.7102 91.3984C89.7102 91.5664 89.6892 91.8184 89.6682 92.0074H80.6382C80.8902 93.9604 82.4652 95.2624 84.6702 95.2624C85.9722 95.2624 87.0642 94.8214 87.8832 93.9184L88.9962 95.2204C87.9882 96.3964 86.4552 97.0264 84.6072 97.0264C81.0162 97.0264 78.6222 94.6534 78.6222 91.3354C78.6222 88.0384 80.9952 85.6654 84.2082 85.6654C87.4212 85.6654 89.7102 87.9754 89.7102 91.3984ZM84.2082 87.3664C82.2762 87.3664 80.8482 88.6684 80.6382 90.5584H87.7782C87.5682 88.6894 86.1612 87.3664 84.2082 87.3664ZM104.05 85.6654C107.305 85.6654 109.678 87.9334 109.678 91.3354C109.678 94.7584 107.305 97.0264 104.05 97.0264C102.475 97.0264 101.089 96.4174 100.165 95.2204V100.974H98.1493V85.7704H100.081V87.5344C100.984 86.2954 102.412 85.6654 104.05 85.6654ZM103.882 95.2624C106.024 95.2624 107.641 93.7084 107.641 91.3354C107.641 88.9834 106.024 87.4294 103.882 87.4294C101.761 87.4294 100.144 88.9834 100.144 91.3354C100.144 93.7084 101.761 95.2624 103.882 95.2624ZM117.231 97.0264C113.892 97.0264 111.435 94.6534 111.435 91.3354C111.435 88.0174 113.892 85.6654 117.231 85.6654C120.57 85.6654 123.006 88.0174 123.006 91.3354C123.006 94.6534 120.57 97.0264 117.231 97.0264ZM117.231 95.2624C119.373 95.2624 120.969 93.7084 120.969 91.3354C120.969 88.9624 119.373 87.4294 117.231 87.4294C115.089 87.4294 113.472 88.9624 113.472 91.3354C113.472 93.7084 115.089 95.2624 117.231 95.2624ZM126.802 83.6284C126.025 83.6284 125.437 83.0614 125.437 82.3264C125.437 81.5914 126.025 81.0034 126.802 81.0034C127.579 81.0034 128.167 81.5704 128.167 82.2844C128.167 83.0404 127.6 83.6284 126.802 83.6284ZM125.794 96.9004V85.7704H127.81V96.9004H125.794ZM137.602 85.6654C140.311 85.6654 142.222 87.2194 142.222 90.4954V96.9004H140.206V90.7264C140.206 88.5424 139.114 87.4714 137.203 87.4714C135.061 87.4714 133.675 88.7524 133.675 91.1674V96.9004H131.659V85.7704H133.591V87.4504C134.41 86.3164 135.838 85.6654 137.602 85.6654ZM151.581 94.8004L152.211 96.2494C151.602 96.7744 150.678 97.0264 149.775 97.0264C147.528 97.0264 146.247 95.7874 146.247 93.5404V87.4294H144.357V85.7704H146.247V83.3344H148.263V85.7704H151.455V87.4294H148.263V93.4564C148.263 94.6534 148.893 95.3254 150.006 95.3254C150.594 95.3254 151.161 95.1364 151.581 94.8004ZM157.84 97.0264C155.992 97.0264 154.165 96.4594 153.241 95.7244L154.081 94.1284C155.026 94.8004 156.538 95.2834 157.987 95.2834C159.856 95.2834 160.633 94.7164 160.633 93.7714C160.633 91.2724 153.598 93.4354 153.598 89.0044C153.598 87.0094 155.383 85.6654 158.239 85.6654C159.688 85.6654 161.326 86.0434 162.292 86.6734L161.431 88.2694C160.423 87.6184 159.31 87.3874 158.218 87.3874C156.454 87.3874 155.593 88.0384 155.593 88.9204C155.593 91.5454 162.649 89.4034 162.649 93.7294C162.649 95.7454 160.801 97.0264 157.84 97.0264ZM165.652 97.0264C164.875 97.0264 164.224 96.4174 164.224 95.5774C164.224 94.7374 164.875 94.1494 165.652 94.1494C166.408 94.1494 167.038 94.7374 167.038 95.5774C167.038 96.4174 166.408 97.0264 165.652 97.0264ZM185.784 97.0684C183.537 97.0684 181.332 96.3124 180.156 95.2204L180.933 93.5824C182.025 94.5694 183.894 95.2834 185.784 95.2834C188.325 95.2834 189.417 94.2964 189.417 93.0154C189.417 89.4244 180.513 91.6924 180.513 86.2324C180.513 83.9644 182.277 82.0324 186.141 82.0324C187.863 82.0324 189.648 82.4944 190.866 83.3344L190.173 85.0144C188.892 84.1954 187.443 83.8174 186.141 83.8174C183.642 83.8174 182.571 84.8674 182.571 86.1484C182.571 89.7394 191.475 87.4924 191.475 92.8894C191.475 95.1364 189.669 97.0684 185.784 97.0684ZM204.308 91.3984C204.308 91.5664 204.287 91.8184 204.266 92.0074H195.236C195.488 93.9604 197.063 95.2624 199.268 95.2624C200.57 95.2624 201.662 94.8214 202.481 93.9184L203.594 95.2204C202.586 96.3964 201.053 97.0264 199.205 97.0264C195.614 97.0264 193.22 94.6534 193.22 91.3354C193.22 88.0384 195.593 85.6654 198.806 85.6654C202.019 85.6654 204.308 87.9754 204.308 91.3984ZM198.806 87.3664C196.874 87.3664 195.446 88.6684 195.236 90.5584H202.376C202.166 88.6894 200.759 87.3664 198.806 87.3664ZM217.166 91.3984C217.166 91.5664 217.145 91.8184 217.124 92.0074H208.094C208.346 93.9604 209.921 95.2624 212.126 95.2624C213.428 95.2624 214.52 94.8214 215.339 93.9184L216.452 95.2204C215.444 96.3964 213.911 97.0264 212.063 97.0264C208.472 97.0264 206.078 94.6534 206.078 91.3354C206.078 88.0384 208.451 85.6654 211.664 85.6654C214.877 85.6654 217.166 87.9754 217.166 91.3984ZM211.664 87.3664C209.732 87.3664 208.304 88.6684 208.094 90.5584H215.234C215.024 88.6894 213.617 87.3664 211.664 87.3664ZM231.233 94.8004L231.863 96.2494C231.254 96.7744 230.33 97.0264 229.427 97.0264C227.18 97.0264 225.899 95.7874 225.899 93.5404V87.4294H224.009V85.7704H225.899V83.3344H227.915V85.7704H231.107V87.4294H227.915V93.4564C227.915 94.6534 228.545 95.3254 229.658 95.3254C230.246 95.3254 230.813 95.1364 231.233 94.8004ZM240.244 85.6654C242.953 85.6654 244.864 87.2194 244.864 90.4954V96.9004H242.848V90.7264C242.848 88.5424 241.756 87.4714 239.845 87.4714C237.703 87.4714 236.317 88.7524 236.317 91.1674V96.9004H234.301V81.3184H236.317V87.3454C237.157 86.2744 238.543 85.6654 240.244 85.6654ZM258.715 91.3984C258.715 91.5664 258.694 91.8184 258.673 92.0074H249.643C249.895 93.9604 251.47 95.2624 253.675 95.2624C254.977 95.2624 256.069 94.8214 256.888 93.9184L258.001 95.2204C256.993 96.3964 255.46 97.0264 253.612 97.0264C250.021 97.0264 247.627 94.6534 247.627 91.3354C247.627 88.0384 250 85.6654 253.213 85.6654C256.426 85.6654 258.715 87.9754 258.715 91.3984ZM253.213 87.3664C251.281 87.3664 249.853 88.6684 249.643 90.5584H256.783C256.573 88.6894 255.166 87.3664 253.213 87.3664ZM275.438 85.6654C278.147 85.6654 279.995 87.2194 279.995 90.4954V96.9004H277.979V90.7264C277.979 88.5424 276.929 87.4714 275.102 87.4714C273.086 87.4714 271.763 88.7524 271.763 91.1674V96.9004H269.747V90.7264C269.747 88.5424 268.697 87.4714 266.87 87.4714C264.854 87.4714 263.531 88.7524 263.531 91.1674V96.9004H261.515V85.7704H263.447V87.4294C264.245 86.2954 265.61 85.6654 267.29 85.6654C268.991 85.6654 270.419 86.3374 271.154 87.7234C271.994 86.4634 273.548 85.6654 275.438 85.6654ZM4.843 112.639C5.557 111.337 6.943 110.665 8.896 110.665V112.618C8.728 112.597 8.581 112.597 8.434 112.597C6.271 112.597 4.927 113.92 4.927 116.356V121.9H2.911V110.77H4.843V112.639ZM15.4132 110.665C18.4582 110.665 20.1802 112.135 20.1802 115.18V121.9H18.2692V120.43C17.5972 121.438 16.3582 122.026 14.6152 122.026C12.0952 122.026 10.4992 120.682 10.4992 118.75C10.4992 116.965 11.6542 115.495 14.9722 115.495H18.1642V115.096C18.1642 113.395 17.1772 112.408 15.1822 112.408C13.8592 112.408 12.5152 112.87 11.6542 113.605L10.8142 112.093C11.9692 111.169 13.6282 110.665 15.4132 110.665ZM14.9512 120.472C16.4632 120.472 17.6602 119.779 18.1642 118.498V116.944H15.0562C13.0612 116.944 12.4942 117.721 12.4942 118.666C12.4942 119.779 13.4182 120.472 14.9512 120.472ZM28.8235 122.026C25.4005 122.026 22.9435 119.653 22.9435 116.335C22.9435 113.017 25.4005 110.665 28.8235 110.665C30.8185 110.665 32.4775 111.484 33.3595 113.038L31.8265 114.025C31.1125 112.933 30.0205 112.429 28.8025 112.429C26.6185 112.429 24.9805 113.962 24.9805 116.335C24.9805 118.75 26.6185 120.262 28.8025 120.262C30.0205 120.262 31.1125 119.758 31.8265 118.666L33.3595 119.632C32.4775 121.186 30.8185 122.026 28.8235 122.026ZM44.331 121.9L40.152 116.713L37.842 118.855V121.9H35.826V106.318H37.842V116.314L43.911 110.77H46.347L41.664 115.369L46.809 121.9H44.331ZM62.7641 110.77H64.7801V121.9H62.8691V120.22C62.0501 121.375 60.6641 122.026 59.0891 122.026C56.2121 122.026 54.3011 120.451 54.3011 117.175V110.77H56.3171V116.944C56.3171 119.128 57.4091 120.22 59.3201 120.22C61.4201 120.22 62.7641 118.918 62.7641 116.524V110.77ZM74.519 110.665C77.774 110.665 80.147 112.933 80.147 116.335C80.147 119.758 77.774 122.026 74.519 122.026C72.944 122.026 71.558 121.417 70.634 120.22V125.974H68.618V110.77H70.55V112.534C71.453 111.295 72.881 110.665 74.519 110.665ZM74.351 120.262C76.493 120.262 78.11 118.708 78.11 116.335C78.11 113.983 76.493 112.429 74.351 112.429C72.23 112.429 70.613 113.983 70.613 116.335C70.613 118.708 72.23 120.262 74.351 120.262ZM92.6251 110.665C95.6701 110.665 97.3921 112.135 97.3921 115.18V121.9H95.4811V120.43C94.8091 121.438 93.5701 122.026 91.8271 122.026C89.3071 122.026 87.7111 120.682 87.7111 118.75C87.7111 116.965 88.8661 115.495 92.1841 115.495H95.3761V115.096C95.3761 113.395 94.3891 112.408 92.3941 112.408C91.0711 112.408 89.7271 112.87 88.8661 113.605L88.0261 112.093C89.1811 111.169 90.8401 110.665 92.6251 110.665ZM92.1631 120.472C93.6751 120.472 94.8721 119.779 95.3761 118.498V116.944H92.2681C90.2731 116.944 89.7061 117.721 89.7061 118.666C89.7061 119.779 90.6301 120.472 92.1631 120.472ZM104.315 122.026C102.467 122.026 100.64 121.459 99.7159 120.724L100.556 119.128C101.501 119.8 103.013 120.283 104.462 120.283C106.331 120.283 107.108 119.716 107.108 118.771C107.108 116.272 100.073 118.435 100.073 114.004C100.073 112.009 101.858 110.665 104.714 110.665C106.163 110.665 107.801 111.043 108.767 111.673L107.906 113.269C106.898 112.618 105.785 112.387 104.693 112.387C102.929 112.387 102.068 113.038 102.068 113.92C102.068 116.545 109.124 114.403 109.124 118.729C109.124 120.745 107.276 122.026 104.315 122.026ZM125.158 110.77H127.132L121.735 123.013C120.748 125.365 119.467 126.1 117.766 126.1C116.695 126.1 115.603 125.743 114.91 125.071L115.771 123.559C116.317 124.084 117.01 124.378 117.766 124.378C118.732 124.378 119.341 123.937 119.887 122.656L120.244 121.879L115.33 110.77H117.43L121.315 119.674L125.158 110.77ZM133.473 122.026C130.134 122.026 127.677 119.653 127.677 116.335C127.677 113.017 130.134 110.665 133.473 110.665C136.812 110.665 139.248 113.017 139.248 116.335C139.248 119.653 136.812 122.026 133.473 122.026ZM133.473 120.262C135.615 120.262 137.211 118.708 137.211 116.335C137.211 113.962 135.615 112.429 133.473 112.429C131.331 112.429 129.714 113.962 129.714 116.335C129.714 118.708 131.331 120.262 133.473 120.262ZM150.394 110.77H152.41V121.9H150.499V120.22C149.68 121.375 148.294 122.026 146.719 122.026C143.842 122.026 141.931 120.451 141.931 117.175V110.77H143.947V116.944C143.947 119.128 145.039 120.22 146.95 120.22C149.05 120.22 150.394 118.918 150.394 116.524V110.77ZM167.789 110.665C171.044 110.665 173.417 112.933 173.417 116.335C173.417 119.758 171.044 122.026 167.789 122.026C166.214 122.026 164.828 121.417 163.904 120.22V125.974H161.888V110.77H163.82V112.534C164.723 111.295 166.151 110.665 167.789 110.665ZM167.621 120.262C169.763 120.262 171.38 118.708 171.38 116.335C171.38 113.983 169.763 112.429 167.621 112.429C165.5 112.429 163.883 113.983 163.883 116.335C163.883 118.708 165.5 120.262 167.621 120.262ZM178.134 112.639C178.848 111.337 180.234 110.665 182.187 110.665V112.618C182.019 112.597 181.872 112.597 181.725 112.597C179.562 112.597 178.218 113.92 178.218 116.356V121.9H176.202V110.77H178.134V112.639ZM189.336 122.026C185.997 122.026 183.54 119.653 183.54 116.335C183.54 113.017 185.997 110.665 189.336 110.665C192.675 110.665 195.111 113.017 195.111 116.335C195.111 119.653 192.675 122.026 189.336 122.026ZM189.336 120.262C191.478 120.262 193.074 118.708 193.074 116.335C193.074 113.962 191.478 112.429 189.336 112.429C187.194 112.429 185.577 113.962 185.577 116.335C185.577 118.708 187.194 120.262 189.336 120.262ZM206.635 110.77H208.546V120.388C208.546 124.315 206.551 126.1 202.771 126.1C200.734 126.1 198.676 125.533 197.458 124.441L198.424 122.887C199.453 123.769 201.07 124.336 202.708 124.336C205.333 124.336 206.53 123.118 206.53 120.598V119.716C205.564 120.871 204.115 121.438 202.519 121.438C199.306 121.438 196.87 119.254 196.87 116.041C196.87 112.828 199.306 110.665 202.519 110.665C204.178 110.665 205.69 111.274 206.635 112.492V110.77ZM202.75 119.674C204.976 119.674 206.572 118.183 206.572 116.041C206.572 113.878 204.976 112.429 202.75 112.429C200.503 112.429 198.907 113.878 198.907 116.041C198.907 118.183 200.503 119.674 202.75 119.674ZM214.33 112.639C215.044 111.337 216.43 110.665 218.383 110.665V112.618C218.215 112.597 218.068 112.597 217.921 112.597C215.758 112.597 214.414 113.92 214.414 116.356V121.9H212.398V110.77H214.33V112.639ZM230.824 116.398C230.824 116.566 230.803 116.818 230.782 117.007H221.752C222.004 118.96 223.579 120.262 225.784 120.262C227.086 120.262 228.178 119.821 228.997 118.918L230.11 120.22C229.102 121.396 227.569 122.026 225.721 122.026C222.13 122.026 219.736 119.653 219.736 116.335C219.736 113.038 222.109 110.665 225.322 110.665C228.535 110.665 230.824 112.975 230.824 116.398ZM225.322 112.366C223.39 112.366 221.962 113.668 221.752 115.558H228.892C228.682 113.689 227.275 112.366 225.322 112.366ZM236.816 122.026C234.968 122.026 233.141 121.459 232.217 120.724L233.057 119.128C234.002 119.8 235.514 120.283 236.963 120.283C238.832 120.283 239.609 119.716 239.609 118.771C239.609 116.272 232.574 118.435 232.574 114.004C232.574 112.009 234.359 110.665 237.215 110.665C238.664 110.665 240.302 111.043 241.268 111.673L240.407 113.269C239.399 112.618 238.286 112.387 237.194 112.387C235.43 112.387 234.569 113.038 234.569 113.92C234.569 116.545 241.625 114.403 241.625 118.729C241.625 120.745 239.777 122.026 236.816 122.026ZM247.336 122.026C245.488 122.026 243.661 121.459 242.737 120.724L243.577 119.128C244.522 119.8 246.034 120.283 247.483 120.283C249.352 120.283 250.129 119.716 250.129 118.771C250.129 116.272 243.094 118.435 243.094 114.004C243.094 112.009 244.879 110.665 247.735 110.665C249.184 110.665 250.822 111.043 251.788 111.673L250.927 113.269C249.919 112.618 248.806 112.387 247.714 112.387C245.95 112.387 245.089 113.038 245.089 113.92C245.089 116.545 252.145 114.403 252.145 118.729C252.145 120.745 250.297 122.026 247.336 122.026ZM255.169 119.149C255.967 119.149 256.534 119.758 256.534 120.577C256.534 120.997 256.45 121.312 256.177 122.089L255.19 125.008H253.867L254.644 121.879C254.119 121.69 253.762 121.207 253.762 120.577C253.762 119.737 254.371 119.149 255.169 119.149ZM6.964 135.665C10.009 135.665 11.731 137.135 11.731 140.18V146.9H9.82V145.43C9.148 146.438 7.909 147.026 6.166 147.026C3.646 147.026 2.05 145.682 2.05 143.75C2.05 141.965 3.205 140.495 6.523 140.495H9.715V140.096C9.715 138.395 8.728 137.408 6.733 137.408C5.41 137.408 4.066 137.87 3.205 138.605L2.365 137.093C3.52 136.169 5.179 135.665 6.964 135.665ZM6.502 145.472C8.014 145.472 9.211 144.779 9.715 143.498V141.944H6.607C4.612 141.944 4.045 142.721 4.045 143.666C4.045 144.779 4.969 145.472 6.502 145.472ZM24.0073 131.318H26.0233V146.9H24.0913V145.136C23.1883 146.396 21.7603 147.026 20.1223 147.026C16.8673 147.026 14.4943 144.737 14.4943 141.335C14.4943 137.933 16.8673 135.665 20.1223 135.665C21.6973 135.665 23.0833 136.253 24.0073 137.45V131.318ZM20.2903 145.262C22.4113 145.262 24.0283 143.708 24.0283 141.335C24.0283 138.962 22.4113 137.429 20.2903 137.429C18.1483 137.429 16.5313 138.962 16.5313 141.335C16.5313 143.708 18.1483 145.262 20.2903 145.262ZM38.3218 131.318H40.3378V146.9H38.4058V145.136C37.5028 146.396 36.0748 147.026 34.4368 147.026C31.1818 147.026 28.8088 144.737 28.8088 141.335C28.8088 137.933 31.1818 135.665 34.4368 135.665C36.0118 135.665 37.3978 136.253 38.3218 137.45V131.318ZM34.6048 145.262C36.7258 145.262 38.3428 143.708 38.3428 141.335C38.3428 138.962 36.7258 137.429 34.6048 137.429C32.4628 137.429 30.8458 138.962 30.8458 141.335C30.8458 143.708 32.4628 145.262 34.6048 145.262ZM45.1602 133.628C44.3832 133.628 43.7952 133.061 43.7952 132.326C43.7952 131.591 44.3832 131.003 45.1602 131.003C45.9372 131.003 46.5252 131.57 46.5252 132.284C46.5252 133.04 45.9582 133.628 45.1602 133.628ZM44.1522 146.9V135.77H46.1682V146.9H44.1522ZM55.9604 135.665C58.6694 135.665 60.5804 137.219 60.5804 140.495V146.9H58.5644V140.726C58.5644 138.542 57.4724 137.471 55.5614 137.471C53.4194 137.471 52.0334 138.752 52.0334 141.167V146.9H50.0174V135.77H51.9494V137.45C52.7684 136.316 54.1964 135.665 55.9604 135.665ZM73.1089 135.77H75.0199V145.388C75.0199 149.315 73.0249 151.1 69.2449 151.1C67.2079 151.1 65.1499 150.533 63.9319 149.441L64.8979 147.887C65.9269 148.769 67.5439 149.336 69.1819 149.336C71.8069 149.336 73.0039 148.118 73.0039 145.598V144.716C72.0379 145.871 70.5889 146.438 68.9929 146.438C65.7799 146.438 63.3439 144.254 63.3439 141.041C63.3439 137.828 65.7799 135.665 68.9929 135.665C70.6519 135.665 72.1639 136.274 73.1089 137.492V135.77ZM69.2239 144.674C71.4499 144.674 73.0459 143.183 73.0459 141.041C73.0459 138.878 71.4499 137.429 69.2239 137.429C66.9769 137.429 65.3809 138.878 65.3809 141.041C65.3809 143.183 66.9769 144.674 69.2239 144.674ZM88.5646 135.665C91.6096 135.665 93.3316 137.135 93.3316 140.18V146.9H91.4206V145.43C90.7486 146.438 89.5096 147.026 87.7666 147.026C85.2466 147.026 83.6506 145.682 83.6506 143.75C83.6506 141.965 84.8056 140.495 88.1236 140.495H91.3156V140.096C91.3156 138.395 90.3286 137.408 88.3336 137.408C87.0106 137.408 85.6666 137.87 84.8056 138.605L83.9656 137.093C85.1206 136.169 86.7796 135.665 88.5646 135.665ZM88.1026 145.472C89.6146 145.472 90.8116 144.779 91.3156 143.498V141.944H88.2076C86.2126 141.944 85.6456 142.721 85.6456 143.666C85.6456 144.779 86.5696 145.472 88.1026 145.472ZM105.894 147.026C104.046 147.026 102.219 146.459 101.295 145.724L102.135 144.128C103.08 144.8 104.592 145.283 106.041 145.283C107.91 145.283 108.687 144.716 108.687 143.771C108.687 141.272 101.652 143.435 101.652 139.004C101.652 137.009 103.437 135.665 106.293 135.665C107.742 135.665 109.38 136.043 110.346 136.673L109.485 138.269C108.477 137.618 107.364 137.387 106.272 137.387C104.508 137.387 103.647 138.038 103.647 138.92C103.647 141.545 110.703 139.403 110.703 143.729C110.703 145.745 108.855 147.026 105.894 147.026ZM117.276 135.665C120.321 135.665 122.043 137.135 122.043 140.18V146.9H120.132V145.43C119.46 146.438 118.221 147.026 116.478 147.026C113.958 147.026 112.362 145.682 112.362 143.75C112.362 141.965 113.517 140.495 116.835 140.495H120.027V140.096C120.027 138.395 119.04 137.408 117.045 137.408C115.722 137.408 114.378 137.87 113.517 138.605L112.677 137.093C113.832 136.169 115.491 135.665 117.276 135.665ZM116.814 145.472C118.326 145.472 119.523 144.779 120.027 143.498V141.944H116.919C114.924 141.944 114.357 142.721 114.357 143.666C114.357 144.779 115.281 145.472 116.814 145.472ZM131.401 144.8L132.031 146.249C131.422 146.774 130.498 147.026 129.595 147.026C127.348 147.026 126.067 145.787 126.067 143.54V137.429H124.177V135.77H126.067V133.334H128.083V135.77H131.275V137.429H128.083V143.456C128.083 144.653 128.713 145.325 129.826 145.325C130.414 145.325 130.981 145.136 131.401 144.8ZM135.477 133.628C134.7 133.628 134.112 133.061 134.112 132.326C134.112 131.591 134.7 131.003 135.477 131.003C136.254 131.003 136.842 131.57 136.842 132.284C136.842 133.04 136.275 133.628 135.477 133.628ZM134.469 146.9V135.77H136.485V146.9H134.469ZM143.526 147.026C141.678 147.026 139.851 146.459 138.927 145.724L139.767 144.128C140.712 144.8 142.224 145.283 143.673 145.283C145.542 145.283 146.319 144.716 146.319 143.771C146.319 141.272 139.284 143.435 139.284 139.004C139.284 137.009 141.069 135.665 143.925 135.665C145.374 135.665 147.012 136.043 147.978 136.673L147.117 138.269C146.109 137.618 144.996 137.387 143.904 137.387C142.14 137.387 141.279 138.038 141.279 138.92C141.279 141.545 148.335 139.403 148.335 143.729C148.335 145.745 146.487 147.026 143.526 147.026ZM154.928 132.851C153.731 132.851 153.122 133.523 153.122 134.804V135.77H156.356V137.429H153.164V146.9H151.148V137.429H149.258V135.77H151.148V134.783C151.148 132.62 152.45 131.192 154.823 131.192C155.684 131.192 156.524 131.402 157.091 131.843L156.482 133.376C156.062 133.061 155.516 132.851 154.928 132.851ZM166.338 135.77H168.312L162.915 148.013C161.928 150.365 160.647 151.1 158.946 151.1C157.875 151.1 156.783 150.743 156.09 150.071L156.951 148.559C157.497 149.084 158.19 149.378 158.946 149.378C159.912 149.378 160.521 148.937 161.067 147.656L161.424 146.879L156.51 135.77H158.61L162.495 144.674L166.338 135.77ZM171.201 133.628C170.424 133.628 169.836 133.061 169.836 132.326C169.836 131.591 170.424 131.003 171.201 131.003C171.978 131.003 172.566 131.57 172.566 132.284C172.566 133.04 171.999 133.628 171.201 133.628ZM170.193 146.9V135.77H172.209V146.9H170.193ZM182.001 135.665C184.71 135.665 186.621 137.219 186.621 140.495V146.9H184.605V140.726C184.605 138.542 183.513 137.471 181.602 137.471C179.46 137.471 178.074 138.752 178.074 141.167V146.9H176.058V135.77H177.99V137.45C178.809 136.316 180.237 135.665 182.001 135.665ZM199.15 135.77H201.061V145.388C201.061 149.315 199.066 151.1 195.286 151.1C193.249 151.1 191.191 150.533 189.973 149.441L190.939 147.887C191.968 148.769 193.585 149.336 195.223 149.336C197.848 149.336 199.045 148.118 199.045 145.598V144.716C198.079 145.871 196.63 146.438 195.034 146.438C191.821 146.438 189.385 144.254 189.385 141.041C189.385 137.828 191.821 135.665 195.034 135.665C196.693 135.665 198.205 136.274 199.15 137.492V135.77ZM195.265 144.674C197.491 144.674 199.087 143.183 199.087 141.041C199.087 138.878 197.491 137.429 195.265 137.429C193.018 137.429 191.422 138.878 191.422 141.041C191.422 143.183 193.018 144.674 195.265 144.674ZM212.485 137.639C213.199 136.337 214.585 135.665 216.538 135.665V137.618C216.37 137.597 216.223 137.597 216.076 137.597C213.913 137.597 212.569 138.92 212.569 141.356V146.9H210.553V135.77H212.485V137.639ZM228.979 141.398C228.979 141.566 228.958 141.818 228.937 142.007H219.907C220.159 143.96 221.734 145.262 223.939 145.262C225.241 145.262 226.333 144.821 227.152 143.918L228.265 145.22C227.257 146.396 225.724 147.026 223.876 147.026C220.285 147.026 217.891 144.653 217.891 141.335C217.891 138.038 220.264 135.665 223.477 135.665C226.69 135.665 228.979 137.975 228.979 141.398ZM223.477 137.366C221.545 137.366 220.117 138.668 219.907 140.558H227.047C226.837 138.689 225.43 137.366 223.477 137.366ZM246.609 135.77H248.415L244.257 146.9H242.325L239.112 138.458L235.857 146.9H233.925L229.788 135.77H231.699L234.933 144.632L238.293 135.77H239.994L243.291 144.674L246.609 135.77ZM254.165 135.665C257.21 135.665 258.932 137.135 258.932 140.18V146.9H257.021V145.43C256.349 146.438 255.11 147.026 253.367 147.026C250.847 147.026 249.251 145.682 249.251 143.75C249.251 141.965 250.406 140.495 253.724 140.495H256.916V140.096C256.916 138.395 255.929 137.408 253.934 137.408C252.611 137.408 251.267 137.87 250.406 138.605L249.566 137.093C250.721 136.169 252.38 135.665 254.165 135.665ZM253.703 145.472C255.215 145.472 256.412 144.779 256.916 143.498V141.944H253.808C251.813 141.944 251.246 142.721 251.246 143.666C251.246 144.779 252.17 145.472 253.703 145.472ZM264.595 137.639C265.309 136.337 266.695 135.665 268.648 135.665V137.618C268.48 137.597 268.333 137.597 268.186 137.597C266.023 137.597 264.679 138.92 264.679 141.356V146.9H262.663V135.77H264.595V137.639ZM279.514 131.318H281.53V146.9H279.598V145.136C278.695 146.396 277.267 147.026 275.629 147.026C272.374 147.026 270.001 144.737 270.001 141.335C270.001 137.933 272.374 135.665 275.629 135.665C277.204 135.665 278.59 136.253 279.514 137.45V131.318ZM275.797 145.262C277.918 145.262 279.535 143.708 279.535 141.335C279.535 138.962 277.918 137.429 275.797 137.429C273.655 137.429 272.038 138.962 272.038 141.335C272.038 143.708 273.655 145.262 275.797 145.262ZM296.612 144.8L297.242 146.249C296.633 146.774 295.709 147.026 294.806 147.026C292.559 147.026 291.278 145.787 291.278 143.54V137.429H289.388V135.77H291.278V133.334H293.294V135.77H296.486V137.429H293.294V143.456C293.294 144.653 293.924 145.325 295.037 145.325C295.625 145.325 296.192 145.136 296.612 144.8ZM304.077 147.026C300.738 147.026 298.281 144.653 298.281 141.335C298.281 138.017 300.738 135.665 304.077 135.665C307.416 135.665 309.852 138.017 309.852 141.335C309.852 144.653 307.416 147.026 304.077 147.026ZM304.077 145.262C306.219 145.262 307.815 143.708 307.815 141.335C307.815 138.962 306.219 137.429 304.077 137.429C301.935 137.429 300.318 138.962 300.318 141.335C300.318 143.708 301.935 145.262 304.077 145.262ZM10.786 160.77H12.76L7.363 173.013C6.376 175.365 5.095 176.1 3.394 176.1C2.323 176.1 1.231 175.743 0.538 175.071L1.399 173.559C1.945 174.084 2.638 174.378 3.394 174.378C4.36 174.378 4.969 173.937 5.515 172.656L5.872 171.879L0.958 160.77H3.058L6.943 169.674L10.786 160.77ZM19.1009 172.026C15.7619 172.026 13.3049 169.653 13.3049 166.335C13.3049 163.017 15.7619 160.665 19.1009 160.665C22.4399 160.665 24.8759 163.017 24.8759 166.335C24.8759 169.653 22.4399 172.026 19.1009 172.026ZM19.1009 170.262C21.2429 170.262 22.8389 168.708 22.8389 166.335C22.8389 163.962 21.2429 162.429 19.1009 162.429C16.9589 162.429 15.3419 163.962 15.3419 166.335C15.3419 168.708 16.9589 170.262 19.1009 170.262ZM36.0219 160.77H38.0379V171.9H36.1269V170.22C35.3079 171.375 33.9219 172.026 32.3469 172.026C29.4699 172.026 27.5589 170.451 27.5589 167.175V160.77H29.5749V166.944C29.5749 169.128 30.6669 170.22 32.5779 170.22C34.6779 170.22 36.0219 168.918 36.0219 166.524V160.77ZM43.8078 162.639C44.5218 161.337 45.9078 160.665 47.8608 160.665V162.618C47.6928 162.597 47.5458 162.597 47.3988 162.597C45.2358 162.597 43.8918 163.92 43.8918 166.356V171.9H41.8758V160.77H43.8078V162.639ZM62.0718 160.665C64.7808 160.665 66.6918 162.219 66.6918 165.495V171.9H64.6758V165.726C64.6758 163.542 63.5838 162.471 61.6728 162.471C59.5308 162.471 58.1448 163.752 58.1448 166.167V171.9H56.1288V156.318H58.1448V162.345C58.9848 161.274 60.3708 160.665 62.0718 160.665ZM74.4757 160.665C77.5207 160.665 79.2427 162.135 79.2427 165.18V171.9H77.3317V170.43C76.6597 171.438 75.4207 172.026 73.6777 172.026C71.1577 172.026 69.5617 170.682 69.5617 168.75C69.5617 166.965 70.7167 165.495 74.0347 165.495H77.2267V165.096C77.2267 163.395 76.2397 162.408 74.2447 162.408C72.9217 162.408 71.5777 162.87 70.7167 163.605L69.8767 162.093C71.0317 161.169 72.6907 160.665 74.4757 160.665ZM74.0137 170.472C75.5257 170.472 76.7227 169.779 77.2267 168.498V166.944H74.1187C72.1237 166.944 71.5567 167.721 71.5567 168.666C71.5567 169.779 72.4807 170.472 74.0137 170.472ZM84.9055 162.639C85.6195 161.337 87.0055 160.665 88.9585 160.665V162.618C88.7905 162.597 88.6435 162.597 88.4965 162.597C86.3335 162.597 84.9895 163.92 84.9895 166.356V171.9H82.9735V160.77H84.9055V162.639ZM99.8247 156.318H101.841V171.9H99.9087V170.136C99.0057 171.396 97.5777 172.026 95.9397 172.026C92.6847 172.026 90.3117 169.737 90.3117 166.335C90.3117 162.933 92.6847 160.665 95.9397 160.665C97.5147 160.665 98.9007 161.253 99.8247 162.45V156.318ZM96.1077 170.262C98.2287 170.262 99.8457 168.708 99.8457 166.335C99.8457 163.962 98.2287 162.429 96.1077 162.429C93.9657 162.429 92.3487 163.962 92.3487 166.335C92.3487 168.708 93.9657 170.262 96.1077 170.262ZM126.331 160.77H128.137L123.979 171.9H122.047L118.834 163.458L115.579 171.9H113.647L109.51 160.77H111.421L114.655 169.632L118.015 160.77H119.716L123.013 169.674L126.331 160.77ZM134.642 172.026C131.303 172.026 128.846 169.653 128.846 166.335C128.846 163.017 131.303 160.665 134.642 160.665C137.981 160.665 140.417 163.017 140.417 166.335C140.417 169.653 137.981 172.026 134.642 172.026ZM134.642 170.262C136.784 170.262 138.38 168.708 138.38 166.335C138.38 163.962 136.784 162.429 134.642 162.429C132.5 162.429 130.883 163.962 130.883 166.335C130.883 168.708 132.5 170.262 134.642 170.262ZM145.137 162.639C145.851 161.337 147.237 160.665 149.19 160.665V162.618C149.022 162.597 148.875 162.597 148.728 162.597C146.565 162.597 145.221 163.92 145.221 166.356V171.9H143.205V160.77H145.137V162.639ZM160.18 171.9L156.001 166.713L153.691 168.855V171.9H151.675V156.318H153.691V166.314L159.76 160.77H162.196L157.513 165.369L162.658 171.9H160.18ZM165.303 172.026C164.526 172.026 163.875 171.417 163.875 170.577C163.875 169.737 164.526 169.149 165.303 169.149C166.059 169.149 166.689 169.737 166.689 170.577C166.689 171.417 166.059 172.026 165.303 172.026Z" fill="#2B2B2B"/>
</svg>
