<svg width="46" height="48" viewBox="0 0 46 48" fill="none" xmlns="http://www.w3.org/2000/svg">
<g opacity="0.3">
<path d="M0.0872067 42.0917C-0.0495003 41.9595 0.000690703 41.7535 0.0614494 41.5981C0.122208 41.4342 0.206753 41.278 0.242416 41.1064L0.495354 40.088C0.641307 39.4046 0.793193 38.7218 0.918013 38.0338C1.18416 36.6611 1.41597 35.2825 1.6524 33.9047L3.03203 25.6302C3.97313 20.1173 5.02385 14.6148 6.39885 9.17704C6.55933 8.49489 6.75547 7.82117 6.93246 7.14226C7.13323 6.4653 7.24154 5.79546 7.55656 5.07768C7.7177 4.72916 7.94092 4.37416 8.28434 4.09949C8.62313 3.81834 9.0861 3.67776 9.49028 3.65379C10.3184 3.61752 10.9809 3.77493 11.7 3.84295C14.5379 4.19601 17.3618 4.66179 20.166 5.22927C25.771 6.37914 31.2835 7.97664 36.6342 9.99069L37.6367 10.3703C37.7285 10.4066 37.7853 10.4234 37.9062 10.4753C38.0277 10.5271 38.1453 10.5912 38.2529 10.667C38.4708 10.8173 38.6564 11.0097 38.7971 11.2293C39.0811 11.6659 39.1749 12.2159 39.056 12.7212L38.7667 13.7603L37.6196 17.8007C36.8568 20.495 36.0471 23.1762 35.2427 25.8588C33.6247 31.2214 31.9129 36.5561 30.1839 41.8837L28.8743 45.8756L28.7098 46.3744C28.6649 46.5234 28.5817 46.7618 28.4509 46.9244C28.1921 47.2748 27.78 47.488 27.3679 47.534C27.1651 47.5612 26.9432 47.5443 26.7609 47.5106L26.2346 47.4187L25.1825 47.2314C22.3777 46.7274 19.5822 46.1852 16.7879 45.6385C13.991 45.1034 11.1994 44.5443 8.40917 43.9781L4.22673 43.1172L2.14177 42.6579C1.45229 42.4849 0.741023 42.3657 0.0872067 42.0917ZM0.0872067 42.0917C0.742344 42.3618 1.45428 42.4765 2.1431 42.6462L4.23068 43.0932L8.41776 43.9289C11.214 44.462 14.0175 44.9596 16.8223 45.4487C19.6297 45.9235 22.4411 46.375 25.2552 46.798L26.3112 46.9535L26.8388 47.03C27.0073 47.0552 27.1453 47.0591 27.2952 47.0364C27.5884 46.995 27.85 46.8395 28.0045 46.6173C28.1485 46.4217 28.2099 46.0369 28.3228 45.7104L29.5142 41.6855C31.0979 36.3178 32.6096 30.9312 34.1266 25.5466L36.3859 17.4658L37.5073 13.4234L37.7761 12.4388C37.8157 12.2632 37.7833 12.0708 37.6816 11.9186C37.6314 11.8428 37.5674 11.7774 37.4934 11.7275C37.4571 11.7009 37.4168 11.6808 37.3752 11.6633C37.3343 11.6433 37.222 11.6031 37.1487 11.5739L36.16 11.193C33.5223 10.1811 30.8397 9.28133 28.1306 8.46833C25.4256 7.64107 22.6868 6.91812 19.9236 6.29751C17.1644 5.65942 14.3794 5.11785 11.5752 4.68964C10.8824 4.59895 10.1408 4.42987 9.54046 4.44736C8.93618 4.45255 8.51681 4.8056 8.23415 5.38863C7.96206 5.94899 7.80751 6.66612 7.59552 7.32365C7.40069 7.99413 7.18672 8.65879 7.00709 9.33381C5.49407 14.7106 4.25841 20.1691 3.20306 25.66C2.68067 28.4067 2.18141 31.1579 1.6993 33.9124C1.45494 35.289 1.21454 36.6663 0.940465 38.0377C0.811022 38.725 0.655831 39.4072 0.505915 40.09L0.247031 41.107C0.210048 41.2793 0.125504 41.4355 0.0634245 41.5987C0.00200542 41.7542 -0.0488399 41.9589 0.0872067 42.0917Z" fill="#6200EE"/>
<path d="M5.08203 33.9766C6.87111 34.1534 8.62718 34.4352 10.3753 34.7442C12.1254 35.0448 13.8603 35.4011 15.5959 35.7548C17.3262 36.1318 19.0572 36.5082 20.7782 36.9409C22.5013 37.3659 24.2197 37.8187 25.9236 38.3817C24.1253 38.3499 22.3481 38.1731 20.5814 37.9334C18.8135 37.7015 17.0614 37.3776 15.3179 37.0206C13.579 36.6397 11.8467 36.2277 10.1382 35.7244C8.42905 35.2288 6.7344 34.6723 5.08203 33.9766Z" fill="#6200EE"/>
<path d="M7.14453 26.2266C8.89134 26.3658 10.6065 26.6289 12.311 26.9366C14.0175 27.2359 15.7049 27.6083 17.3896 27.9957C19.0684 28.4064 20.7433 28.8327 22.4009 29.3328C24.0605 29.8245 25.7089 30.3615 27.329 31.0243C25.5848 30.8869 23.8697 30.6246 22.1651 30.3168C20.4586 30.0176 18.7693 29.6444 17.0839 29.2551C15.4044 28.8424 13.7283 28.4162 12.07 27.9154C10.4103 27.4224 8.7619 26.8867 7.14453 26.2266Z" fill="#6200EE"/>
<path d="M9.1875 19.6914C11.0347 19.8041 12.8542 20.0419 14.6644 20.3237C16.4766 20.5977 18.2722 20.9456 20.0646 21.3077C21.8524 21.6938 23.6362 22.0954 25.4041 22.5709C27.174 23.0386 28.9341 23.5511 30.6664 24.1898C28.8192 24.0784 26.999 23.8413 25.1888 23.5595C23.3773 23.2855 21.581 22.9376 19.7886 22.5735C18.0015 22.1861 16.217 21.7838 14.4497 21.3083C12.6805 20.8406 10.9204 20.3282 9.1875 19.6914Z" fill="#6200EE"/>
<path d="M11.2031 12.2812C13.0378 12.3648 14.8487 12.6045 16.6437 12.8993C18.4413 13.1862 20.2192 13.5581 21.9924 13.9442C23.7597 14.3536 25.5217 14.7792 27.2692 15.2664C29.0186 15.7457 30.7588 16.2582 32.4865 16.8691C30.6512 16.7874 28.841 16.5477 27.0453 16.253C25.2476 15.966 23.4698 15.5935 21.6972 15.2061C19.9299 14.7948 18.1679 14.3698 16.4211 13.882C14.6717 13.4026 12.9314 12.8902 11.2031 12.2812Z" fill="#6200EE"/>
<path d="M13.7012 4.61871L14.3583 2.30473C14.4699 1.92058 14.5875 1.53124 14.7744 1.15616C14.9573 0.785611 15.2386 0.418302 15.6514 0.214242C16.0622 0.00953335 16.5218 -0.0150842 16.9405 0.00629362C17.3652 0.0296148 17.7628 0.0840314 18.1709 0.124844C18.9839 0.207763 19.7949 0.307526 20.6065 0.409232C23.8459 0.849096 27.0721 1.42111 30.2586 2.16739C33.4517 2.88841 36.5986 3.79988 39.7112 4.80982C41.2638 5.32677 42.8046 5.87611 44.3315 6.46368L44.6181 6.57251C44.696 6.60166 44.838 6.65349 44.9747 6.72928C45.2389 6.87374 45.4701 7.07716 45.6398 7.32138C45.9891 7.79623 46.0862 8.46218 45.9211 8.99598L45.2831 11.3132C43.5436 17.4823 41.7301 23.632 39.7865 29.7421C38.8223 32.7998 37.8191 35.8452 36.7941 38.8834L36.0075 41.1566L35.6126 42.2928C35.5419 42.4794 35.4977 42.6699 35.3815 42.8849C35.2685 43.0871 35.1028 43.2574 34.9119 43.3844C34.5308 43.6435 34.0084 43.6798 33.6102 43.536L32.4327 43.2101L30.0836 42.5358L32.4809 43.0203L33.6769 43.2736C34.0547 43.3792 34.4225 43.3151 34.7105 43.1033C34.8492 42.997 34.9647 42.8629 35.038 42.7087C35.1074 42.5662 35.1496 42.3615 35.2071 42.1698L35.5314 41.0128L36.1753 38.6981L38.7985 29.4565L44.0112 10.9699L44.663 8.65911C44.7343 8.42655 44.694 8.22443 44.5732 8.04369C44.5144 7.95559 44.4338 7.88627 44.3427 7.8351C44.2932 7.80076 44.0257 7.70618 43.8586 7.63946C42.3548 7.04477 40.8293 6.50708 39.3044 5.96551C36.2479 4.90051 33.1426 3.97284 30.0083 3.14365C26.8726 2.32028 23.7006 1.6187 20.5042 1.03178C19.7051 0.883431 18.9053 0.73573 18.1029 0.606168C17.3051 0.492801 16.4796 0.243392 15.802 0.521951C15.1171 0.814762 14.816 1.6336 14.5465 2.36562L13.7012 4.61871Z" fill="#6200EE"/>
<path d="M0.0507812 42.3028C0.25353 39.8715 0.608168 37.4585 0.963475 35.0479C1.32406 32.6374 1.75399 30.2386 2.17203 27.8378C2.64225 25.4461 3.0986 23.0511 3.63486 20.6717C4.17509 18.2936 4.74636 15.9181 5.48008 13.5879C5.25488 14.787 5.00789 15.979 4.79854 17.1787L4.13284 20.7695L2.82058 27.9538L1.4621 35.1309L0.0507812 42.3028Z" fill="#6200EE"/>
<path d="M26.8337 47.3113C24.5691 47.1007 22.3244 46.7535 20.0809 46.4069C17.8381 46.0552 15.6066 45.6406 13.373 45.2376C11.1487 44.7874 8.92112 44.3501 6.70937 43.8403C4.49894 43.3272 2.29115 42.7869 0.126953 42.1016C1.2424 42.3179 2.35059 42.5537 3.4667 42.7552L6.80645 43.3946L13.4886 44.6565L20.1641 45.9606L26.8337 47.3113Z" fill="#6200EE"/>
</g>
</svg>
