<svg width="102" height="52" viewBox="0 0 102 52" fill="none" xmlns="http://www.w3.org/2000/svg">
<g opacity="0.6">
<path d="M0 37.3574L2.4454 39.5652L2.45069 39.5694C2.48665 39.6015 2.48877 39.6565 2.45598 39.6918C2.42319 39.7271 2.36713 39.7292 2.33117 39.697L2.328 39.6939L0 37.3574Z" fill="#6200EE"/>
<path d="M6.84293 42.8405L9.65323 44.5513L9.67122 44.5617C9.80449 44.6426 9.84468 44.8138 9.76218 44.9435C9.67968 45.0742 9.50515 45.1137 9.37294 45.0327C9.36977 45.0307 9.3666 45.0286 9.36343 45.0265L6.59331 43.188C6.49389 43.1227 6.4685 42.9899 6.53514 42.8923C6.60072 42.7979 6.73081 42.771 6.82812 42.8301L6.84293 42.8405Z" fill="#6200EE"/>
<path d="M14.5897 46.9234L17.6792 48.0387L17.713 48.0512C17.95 48.1363 18.0716 48.3946 17.9849 48.6281C17.8981 48.8605 17.6348 48.9798 17.3968 48.8947C17.3915 48.8926 17.3851 48.8905 17.3799 48.8885L14.2755 47.6289C14.0756 47.548 13.9804 47.3229 14.0629 47.1278C14.1433 46.9369 14.3633 46.8436 14.559 46.9141L14.5897 46.9234Z" fill="#6200EE"/>
<path d="M22.9845 49.3513L26.2232 49.7943L26.275 49.8016C26.5987 49.8462 26.825 50.1388 26.7795 50.4573C26.734 50.7748 26.4347 50.9968 26.1111 50.9522C26.1068 50.9512 26.1005 50.9511 26.0973 50.9501L22.7709 50.4148C22.4705 50.366 22.2663 50.0879 22.3161 49.7933C22.3647 49.5028 22.6397 49.3046 22.9359 49.3451L22.9845 49.3513Z" fill="#6200EE"/>
<path d="M31.6619 49.89C32.2055 49.8682 32.7418 49.7759 33.2823 49.723L34.8984 49.5373L34.9598 49.53C35.3427 49.4864 35.6906 49.7551 35.7351 50.1307C35.7795 50.5063 35.5055 50.8476 35.1216 50.8912C35.1174 50.8912 35.11 50.8923 35.1057 50.8933L33.4145 51.0479C32.8507 51.0904 32.2891 51.1703 31.7243 51.1807H31.6999C31.3361 51.1869 31.0357 50.9026 31.0294 50.5457C31.0241 50.1951 31.3065 49.9045 31.6619 49.89Z" fill="#6200EE"/>
<path d="M40.1558 48.2557L43.1819 47.0926L43.2538 47.0646C43.6684 46.9049 44.1359 47.1061 44.2978 47.5118C44.4607 47.9185 44.2565 48.3771 43.8419 48.5358C43.8366 48.5379 43.8282 48.541 43.8239 48.542L40.6286 49.6843C40.232 49.8265 39.793 49.6252 39.6481 49.2361C39.5053 48.8533 39.7021 48.43 40.086 48.2816L40.1558 48.2557Z" fill="#6200EE"/>
<path d="M47.9166 44.5412L50.5344 42.6737L50.6074 42.6218C51.0083 42.3354 51.571 42.4226 51.8629 42.8158C52.1548 43.209 52.066 43.761 51.6651 44.0473C51.663 44.0494 51.6567 44.0535 51.6535 44.0556L48.8612 45.9823C48.4677 46.2541 47.924 46.1607 47.6469 45.7748C47.373 45.393 47.4629 44.8659 47.8468 44.592L47.9166 44.5412Z" fill="#6200EE"/>
<path d="M54.4301 39.0318L56.4175 36.5449L56.482 36.4639C56.8003 36.0666 57.3863 35.996 57.7925 36.3083C58.1986 36.6206 58.2695 37.1954 57.9511 37.5938L57.9469 37.599L55.8093 40.2291C55.493 40.6192 54.9145 40.6824 54.5168 40.3722C54.1212 40.0631 54.0546 39.4997 54.3655 39.1106L54.4301 39.0318Z" fill="#6200EE"/>
<path d="M59.0289 31.9713C59.251 31.4909 59.4234 31.0001 59.5757 30.5073L60.0665 29.0351L60.1056 28.9168C60.2717 28.4188 60.8185 28.146 61.3262 28.3089C61.8339 28.4718 62.1121 29.0081 61.946 29.5061L61.9439 29.5113L61.3918 31.1361C61.2152 31.6828 61.0195 32.2171 60.7794 32.7266L60.7678 32.7525C60.5456 33.2225 59.9777 33.4279 59.4985 33.21C59.0215 32.9932 58.8121 32.4392 59.0289 31.9713Z" fill="#6200EE"/>
<path d="M60.6216 23.9243C60.5729 22.9023 60.4196 21.8918 60.1403 20.9279C59.988 20.404 60.2979 19.8583 60.8321 19.7099C61.3662 19.5605 61.9226 19.8645 62.0738 20.3884L62.0759 20.3967C62.3943 21.5307 62.5572 22.6886 62.6037 23.8413C62.6259 24.3787 62.1986 24.831 61.6518 24.8518C61.1071 24.8725 60.648 24.4575 60.6216 23.9243Z" fill="#6200EE"/>
<path d="M57.6346 16.7768C56.908 16.1294 56.066 15.62 55.1543 15.3035C54.6127 15.1147 54.3293 14.5316 54.5207 14.0004C54.7122 13.4692 55.3077 13.1912 55.8492 13.379L55.8577 13.3821L55.864 13.3842C57.0412 13.8054 58.118 14.4694 59.0244 15.2932C59.4411 15.6708 59.4655 16.3089 59.0805 16.7177C58.6976 17.1233 58.0503 17.1472 57.6346 16.7768Z" fill="#6200EE"/>
<path d="M50.3295 15.1426C49.3839 15.3917 48.4902 15.8129 47.7265 16.3897C47.2717 16.7332 46.6191 16.6501 46.269 16.2051C45.92 15.761 46.0025 15.125 46.4509 14.7795C47.4399 14.0201 48.5801 13.4754 49.7732 13.1517C50.3327 12.9981 50.9134 13.3187 51.0699 13.8686C51.2265 14.4174 50.8996 14.987 50.339 15.1406L50.3295 15.1426Z" fill="#6200EE"/>
<path d="M45.0814 20.3262C44.8149 21.2589 44.7186 22.2404 44.8138 23.1959C44.8678 23.7375 44.4648 24.2189 43.9137 24.2728C43.3648 24.3257 42.8751 23.9336 42.8169 23.3961C42.6868 22.1854 42.7979 20.9611 43.1205 19.796C43.2675 19.2638 43.826 18.9494 44.3675 19.0936C44.9101 19.2378 45.2306 19.7856 45.0835 20.3168L45.0814 20.3262Z" fill="#6200EE"/>
<path d="M46.798 27.5156C47.4633 28.246 48.264 28.8736 49.143 29.3997C49.5988 29.6725 49.7437 30.2566 49.4645 30.7048C49.1874 31.1499 48.5961 31.2921 48.1402 31.0244C47.1217 30.4258 46.1602 29.6912 45.3395 28.8041C44.9746 28.4109 45.0042 27.8019 45.405 27.444C45.8059 27.086 46.4268 27.1151 46.7917 27.5083L46.798 27.5156Z" fill="#6200EE"/>
<path d="M54.0011 31.2956L57.1594 31.8434L57.2705 31.8621C57.7771 31.9503 58.1145 32.4234 58.0246 32.9204C57.9358 33.4142 57.4566 33.7441 56.9532 33.6611L53.559 33.0998C53.045 33.0148 52.698 32.5375 52.7848 32.0322C52.8715 31.528 53.3591 31.1877 53.8731 31.2728L53.8805 31.2738L54.0011 31.2956Z" fill="#6200EE"/>
<path d="M62.5713 32.0474L65.8332 31.8793L65.8924 31.8762C66.3864 31.8513 66.8084 32.2237 66.8348 32.7083C66.8602 33.1907 66.4847 33.6026 65.994 33.6316L62.6157 33.8319C62.1143 33.862 61.6828 33.4874 61.6521 32.9946C61.6214 32.5028 62.0043 32.0795 62.5057 32.0494H62.5131L62.5713 32.0474Z" fill="#6200EE"/>
<path d="M71.2244 31.161L74.4081 30.441L74.4652 30.4285C74.8946 30.331 75.323 30.5945 75.4214 31.0147C75.5187 31.4287 75.2595 31.8426 74.8417 31.9484L71.5629 32.7722C71.1144 32.8853 70.6575 32.6197 70.5422 32.1798C70.4269 31.7399 70.6977 31.2917 71.1461 31.1786C71.1514 31.1776 71.1567 31.1765 71.162 31.1745L71.2244 31.161Z" fill="#6200EE"/>
<path d="M79.561 28.7316L82.5236 27.389L82.5765 27.3652C82.9224 27.2085 83.3317 27.3569 83.4914 27.6961C83.649 28.0302 83.5041 28.4255 83.1699 28.5874L80.1353 30.0513C79.7736 30.2256 79.3347 30.0793 79.157 29.7245C78.9793 29.3696 79.1284 28.9391 79.4901 28.7648C79.4944 28.7627 79.4986 28.7606 79.5028 28.7585L79.561 28.7316Z" fill="#6200EE"/>
<path d="M87.1681 24.6125C88.0587 23.9952 88.8805 23.2948 89.7277 22.6236L89.7637 22.5956C90.0133 22.3974 90.3803 22.4358 90.5823 22.6806C90.7812 22.9224 90.7463 23.2741 90.5072 23.4743C89.6495 24.1912 88.8118 24.9372 87.9064 25.5981L87.9 25.6033C87.624 25.8046 87.2326 25.7485 87.0274 25.4777C86.8222 25.207 86.8793 24.8231 87.1554 24.6218C87.1596 24.6187 87.1649 24.6145 87.1681 24.6125Z" fill="#6200EE"/>
<path d="M93.5258 18.7904L95.5026 16.2236L95.529 16.1894C95.6761 15.9985 95.9521 15.9611 96.1457 16.1053C96.335 16.2454 96.3762 16.5068 96.2419 16.6967L94.3169 19.4129C94.1572 19.6391 93.841 19.6941 93.6104 19.5374C93.3798 19.3807 93.3237 19.0705 93.4835 18.8443C93.4866 18.8391 93.4909 18.835 93.494 18.8298L93.5258 18.7904Z" fill="#6200EE"/>
<path d="M98.1968 11.5506L99.4121 8.54697L99.4226 8.52104C99.4766 8.38824 99.631 8.32288 99.7664 8.37579C99.8986 8.42767 99.9652 8.57291 99.9187 8.70364L98.8049 11.811C98.7447 11.9801 98.5553 12.0693 98.3819 12.0102C98.2094 11.951 98.1185 11.7653 98.1788 11.5952C98.1798 11.591 98.182 11.5879 98.183 11.5848L98.1968 11.5506Z" fill="#6200EE"/>
<path d="M100.674 3.30352L100.944 0.0644424L100.945 0.0571759C100.948 0.0229383 100.978 -0.00195424 101.012 0.000120769C101.046 0.00219578 101.072 0.0312507 101.071 0.0634133L100.977 3.33777C100.974 3.41973 100.905 3.48509 100.82 3.48302C100.736 3.48094 100.67 3.41247 100.672 3.32947C100.672 3.3274 100.672 3.32428 100.672 3.3222L100.674 3.30352Z" fill="#6200EE"/>
</g>
</svg>
