<svg width="27" height="31" viewBox="0 0 27 31" fill="none" xmlns="http://www.w3.org/2000/svg">
<g opacity="0.3">
<path d="M26.8229 30.7492C26.9088 30.0814 26.8674 29.4419 26.7959 28.8098C26.7168 28.1795 26.5901 27.5603 26.4225 26.9516C26.255 26.3435 26.0454 25.7459 25.7894 25.163C25.5259 24.582 25.2316 24.0096 24.8118 23.4766C24.7271 24.1554 24.7685 24.7956 24.84 25.4264C24.9185 26.0555 25.044 26.6703 25.2121 27.2741C25.3797 27.8779 25.588 28.4706 25.8446 29.0523C26.1088 29.6321 26.4018 30.2051 26.8229 30.7492Z" fill="#6200EE"/>
<path d="M24.9199 23.3555C23.798 21.4696 22.5763 19.6551 21.3195 17.8665C20.0689 16.0736 18.7594 14.3231 17.4386 12.5807C16.0989 10.8524 14.7461 9.13271 13.3349 7.45611C11.93 5.77459 10.4893 4.11954 8.94828 2.53711C10.0689 4.4242 11.29 6.23868 12.5474 8.02668C13.798 9.8196 15.1075 11.5701 16.4296 13.3113C17.7705 15.039 19.1233 16.758 20.5345 18.4346C21.9401 20.1168 23.3801 21.7718 24.9199 23.3555Z" fill="#6200EE"/>
<path d="M26.8438 30.9904C26.4397 30.5552 25.9872 30.2395 25.5229 29.9514C25.0561 29.6708 24.5704 29.4344 24.0697 29.2369C23.569 29.0387 23.0519 28.8811 22.5161 28.7672C21.9777 28.6608 21.428 28.5826 20.8288 28.6251C21.2323 29.0614 21.6847 29.3778 22.149 29.6659C22.6158 29.9465 23.1015 30.1829 23.6029 30.3792C24.1042 30.5756 24.6212 30.7337 25.1571 30.847C25.6955 30.9528 26.2451 31.031 26.8438 30.9904Z" fill="#6200EE"/>
<path d="M20.7695 28.6952C19.2134 26.8247 17.6234 25.0035 16.0252 23.189C14.4333 21.369 12.8145 19.5755 11.2056 17.7721C9.58047 15.9835 7.96475 14.1862 6.31701 12.4142C4.67617 10.6361 3.02466 8.86716 1.31481 7.13086C2.61304 9.18291 4.06124 11.1322 5.56655 13.0322C7.06746 14.9377 8.64994 16.7768 10.265 18.587C11.899 20.3811 13.5655 22.1476 15.3105 23.8414C17.0505 25.539 18.847 27.186 20.7695 28.6952Z" fill="#6200EE"/>
<path d="M8.875 2.39449C8.08815 2.232 7.28311 2.28309 6.50379 2.44188C5.7251 2.60807 4.97276 2.90042 4.28254 3.29495C3.5917 3.68948 2.96297 4.18864 2.43276 4.77213C1.9082 5.35931 1.46771 6.02343 1.22677 6.77617L3.08848 5.49595C3.69148 5.09096 4.29697 4.71366 4.91503 4.35791C5.53372 4.00277 6.16621 3.67102 6.82255 3.35466C7.47763 3.03091 8.15655 2.74101 8.875 2.39449Z" fill="#6200EE"/>
<path d="M8.59961 2.09728C8.48478 1.54087 8.09702 1.03863 7.61135 0.676725C7.11754 0.321587 6.52017 0.086476 5.88706 0.023696C4.62458 -0.108635 3.39851 0.328976 2.40146 0.945082C1.40253 1.55503 0.444374 2.47704 0.104284 3.71294C-0.0676422 4.33582 -0.0205708 4.98271 0.197788 5.55388C0.423051 6.11829 0.855374 6.62114 1.40629 6.8064C0.637015 5.97118 0.665884 4.84114 1.03107 4.025C1.42826 3.17254 2.20569 2.52504 3.06909 1.9871C3.9419 1.45286 4.87495 1.03864 5.85318 0.980169C6.80568 0.935854 7.87049 1.23374 8.59961 2.09728Z" fill="#6200EE"/>
<path d="M9.85938 4.40466C9.10265 4.32649 8.36285 4.42189 7.64314 4.58869C6.92594 4.76287 6.23196 5.02692 5.57939 5.36544C4.92682 5.70396 4.31441 6.11941 3.76538 6.60441C3.22073 7.09435 2.72565 7.64275 2.36799 8.30194C3.07452 8.02867 3.70199 7.70799 4.32883 7.39901L6.16734 6.45301L7.9964 5.48915C8.60881 5.15186 9.2319 4.82319 9.85938 4.40466Z" fill="#6200EE"/>
<path d="M24.6914 23.4817C24.1304 23.2053 23.4722 23.1819 22.8554 23.3068C22.2367 23.4379 21.6526 23.7297 21.1682 24.1328C20.6831 24.5354 20.2953 25.0542 20.0638 25.6322C19.8379 26.2089 19.7564 26.8508 19.9452 27.438C20.2797 26.9235 20.5815 26.4988 20.9191 26.1135C21.251 25.7282 21.6036 25.386 21.9801 25.0696C22.3579 24.7545 22.7594 24.4683 23.2005 24.2085C23.6429 23.9439 24.1204 23.7205 24.6914 23.4817Z" fill="#6200EE"/>
<path d="M26.0293 27.8713C25.7451 27.6584 25.4401 27.6085 25.1483 27.6184C24.8572 27.6356 24.5798 27.7316 24.3427 27.8855C24.1055 28.0393 23.9085 28.2535 23.7798 28.5102C23.6575 28.7699 23.5872 29.066 23.6794 29.4064C24.0308 29.3454 24.2649 29.2679 24.4826 29.1897C24.694 29.1078 24.8729 29.0192 25.0385 28.9096C25.2048 28.8007 25.3573 28.6733 25.516 28.5127C25.6729 28.3459 25.836 28.1643 26.0293 27.8713Z" fill="#6200EE"/>
<path d="M22.0801 23.9825C21.0234 22.2979 19.8701 20.6896 18.6836 19.1078C17.5027 17.5217 16.2653 15.9805 15.0166 14.4485C13.7498 12.9307 12.4704 11.4234 11.1345 9.96035C9.80487 8.49302 8.44013 7.05277 6.97875 5.68945C8.03416 7.37528 9.18681 8.98418 10.374 10.5654C11.5549 12.1515 12.7929 13.6921 14.0428 15.2234C15.3109 16.74 16.5903 18.2479 17.9262 19.7103C19.2558 21.1777 20.62 22.6185 22.0801 23.9825Z" fill="#6200EE"/>
<path d="M20.3047 26.0649C19.152 24.3471 17.9059 22.7087 16.6271 21.0986C15.3539 19.4835 14.0256 17.9152 12.6859 16.3562C11.3287 14.8125 9.96022 13.2781 8.53586 11.7917C7.11778 10.2998 5.66579 8.83675 4.11971 7.45312C5.27112 9.17219 6.51665 10.8106 7.79606 12.4208C9.0692 14.0358 10.3982 15.6041 11.7385 17.1619C13.0969 18.7049 14.4654 20.2387 15.8898 21.7251C17.3085 23.2171 18.7599 24.6807 20.3047 26.0649Z" fill="#6200EE"/>
</g>
</svg>
