<svg width="73" height="61" viewBox="0 0 73 61" fill="none" xmlns="http://www.w3.org/2000/svg">
<g opacity="0.2">
<path d="M0 0.816406C3.3455 5.33889 6.44984 10.0367 9.39659 14.8196C12.3433 19.6046 15.1409 24.4715 17.9026 29.3488L26.1653 43.9683C28.9587 48.8124 31.7944 53.6264 34.7951 58.3419L33.254 58.5266C34.7708 54.5643 36.9073 50.9829 39.0851 47.4574C41.3073 43.9548 43.5962 40.5207 45.7306 36.9755C44.8908 38.8638 43.9389 40.7043 42.9616 42.5262L40.0381 47.9886C39.0587 49.8011 38.1078 51.6261 37.2257 53.4708C36.3362 55.3103 35.5154 57.1778 34.8871 59.0785L34.3445 60.7209L33.346 59.2632C30.1613 54.6131 27.1807 49.8333 24.3588 44.9757C21.5083 40.1316 18.8397 35.1962 16.168 30.2712L8.22043 15.4753C5.5508 10.5565 2.83886 5.65948 0 0.816406Z" fill="#6200EE"/>
<path d="M1.19727 1.18555C10.8139 8.77178 20.4283 16.3009 30.1391 23.717L44.7522 34.7872L59.3897 45.8459L58.2643 46.4332C58.2315 43.607 57.8169 40.758 57.4086 37.9101C56.9866 35.0611 56.4429 32.2173 56.1077 29.3444L58.2125 37.7596C58.8936 40.5765 59.4532 43.4348 59.6774 46.3771L59.7863 47.8068L58.552 46.9644C53.4899 43.5105 48.4795 39.983 43.5253 36.3777L36.1457 30.9017L28.8741 25.2857C19.2501 17.7109 9.92856 9.74392 1.19727 1.18555Z" fill="#6200EE"/>
<path d="M0.0488281 0C4.99568 1.78139 9.86109 3.73396 14.6768 5.81104C19.4978 7.87568 24.2479 10.1136 28.9187 12.5092C33.5609 14.9494 38.1767 17.4871 42.5334 20.3807C46.9376 23.2069 51.3017 26.0953 55.5431 29.1518C50.8289 26.8247 46.2374 24.3284 41.6883 21.771C40.5481 21.1371 39.4111 20.4969 38.2836 19.8402L34.845 17.9841C32.5561 16.7422 30.2535 15.5252 27.9319 14.3425C23.315 11.9282 18.6336 9.62389 13.9692 7.26668C9.30052 4.92088 4.62655 2.56056 0.0488281 0Z" fill="#6200EE"/>
<path d="M56.2715 29.7045C57.143 28.2903 58.315 27.092 59.5874 26.0431C60.8619 24.9921 62.2433 24.0791 63.6807 23.2916C65.1149 22.4979 66.6084 21.8329 68.1262 21.2415C69.6461 20.6512 71.1914 20.1407 72.8297 19.7734C71.6039 20.9043 70.249 21.8267 68.8771 22.6837C67.5032 23.5406 66.1123 24.3395 64.714 25.101L56.2715 29.7045Z" fill="#6200EE"/>
<path d="M0.974609 0.00390625C7.13253 0.873335 13.2545 1.97725 19.3236 3.3063C25.4 4.60733 31.4268 6.12207 37.4197 7.74887C43.4031 9.41303 49.3537 11.1903 55.2366 13.1646C61.1291 15.111 66.9496 17.269 72.6887 19.6273C66.683 18.0326 60.7049 16.3933 54.7448 14.7105L36.8486 9.74609C30.8863 8.08504 24.9061 6.49141 18.928 4.87291C12.9446 3.28241 6.9633 1.65873 0.974609 0.00390625Z" fill="#6200EE"/>
</g>
</svg>
