<svg width="34" height="30" viewBox="0 0 34 30" fill="none" xmlns="http://www.w3.org/2000/svg">
<g opacity="0.3">
<path d="M0 14.8305C3.58325 12.5056 7.49952 10.7151 11.3884 8.94631C15.2752 7.16615 19.2167 5.51004 22.9338 3.48798L24.052 2.87907L23.7506 4.11339C22.7315 8.27951 21.3193 12.3557 19.5656 16.2871C17.7877 20.2082 15.663 23.9784 13.2548 27.5625L12.2547 29.0501L11.733 27.334C9.34805 19.4929 6.95254 11.6538 4.62765 3.79501L3.50525 0L6.13262 2.99072C9.40286 6.71334 12.9439 10.2116 16.7021 13.4732C20.4751 16.7182 24.4409 19.7554 28.5954 22.5353L33.3853 25.74L28.0284 23.6156C23.4703 21.8085 18.8837 20.0925 14.2328 18.5563C9.582 17.0097 4.8279 15.7754 0 14.8305C4.88692 15.4363 9.71165 16.5146 14.4595 17.8337C19.2115 19.1528 23.8507 20.814 28.4752 22.4732L27.9082 23.5535C23.6283 20.8678 19.5097 17.9164 15.6503 14.6579C11.7773 11.416 8.13817 7.89804 4.80364 4.11339L6.30755 3.30809C8.70306 11.1472 11.0269 19.006 13.3623 26.8616L11.8405 26.6331C14.2539 23.1576 16.386 19.4918 18.1944 15.6762C20.0272 11.8719 21.53 7.90943 22.6535 3.83946L23.4692 4.46487C19.6225 6.41561 15.6314 7.98696 11.6561 9.55519C7.68817 11.1369 3.73606 12.7589 0 14.8305Z" fill="#6200EE"/>
</g>
</svg>
